<?xml version="1.0" encoding="UTF-8" standalone="no"?>
<!DOCTYPE svg PUBLIC "-//W3C//DTD SVG 1.0//EN" "http://www.w3.org/TR/2001/REC-SVG-20010904/DTD/svg10.dtd">
<!-- 由 Microsoft Visio 2003, SVG Export, v1.0 生成 EMPCompActivity.svg 页-1 -->
<svg xmlns="http://www.w3.org/2000/svg" xmlns:v="http://schemas.microsoft.com/visio/2003/SVGExtensions/" width="8.30105in"
		height="5.47793in" viewBox="0 0 597.676 394.411" xml:space="preserve" color-interpolation-filters="sRGB" class="st10">
	<v:documentProperties v:langID="2052" v:metric="true" v:viewMarkup="false"/>

	<style type="text/css">
	<![CDATA[
		.st1 {fill:#ffffff;stroke:#00ffff;stroke-linecap:round;stroke-linejoin:round;stroke-width:1.2}
		.st2 {fill:#ffffff;stroke:#ffffff;stroke-linecap:round;stroke-linejoin:round;stroke-width:1.2}
		.st3 {stroke:#00ffff;stroke-linecap:round;stroke-linejoin:round;stroke-width:1.2}
		.st4 {fill:none;stroke:#ff0000;stroke-linecap:round;stroke-linejoin:round;stroke-width:1.2}
		.st5 {marker-end:url(#mrkr13-99);stroke:#ffffff;stroke-linecap:round;stroke-linejoin:round;stroke-width:1.2}
		.st6 {fill:#ffffff;fill-opacity:1;stroke:#ffffff;stroke-opacity:1;stroke-width:0.32258064516129}
		.st7 {marker-end:url(#mrkr13-120);stroke:#000000;stroke-linecap:round;stroke-linejoin:round;stroke-width:1.2}
		.st8 {fill:#000000;fill-opacity:1;stroke:#000000;stroke-opacity:1;stroke-width:0.32258064516129}
		.st9 {fill:#ffffff}
		.st10 {fill:none;fill-rule:evenodd;font-size:12;overflow:visible;stroke-linecap:square;stroke-miterlimit:3}
	]]>
	</style>

	<defs id="Markers">
		<g id="lend13">
			<path d="M 3 1 L 0 0 L 3 -1 L 3 1 " style="stroke:none"/>
		</g>
		<marker id="mrkr13-99" class="st6" v:arrowType="13" v:arrowSize="2" v:setback="9.3" refX="-9.3" orient="auto"
				markerUnits="strokeWidth">
			<use xlink:href="#lend13" transform="scale(-3.1,-3.1) "/>
		</marker>
		<marker id="mrkr13-120" class="st8" v:arrowType="13" v:arrowSize="2" v:setback="9.3" refX="-9.3" orient="auto"
				markerUnits="strokeWidth">
			<use xlink:href="#lend13" transform="scale(-3.1,-3.1) "/>
		</marker>
	</defs>
	<g v:mID="0" v:index="1" v:groupContext="foregroundPage">
		<title>页-1</title>
		<v:pageProperties v:drawingScale="0.0393701" v:pageScale="0.0393701" v:drawingUnits="24" v:shadowOffsetX="8.50394"
				v:shadowOffsetY="-8.50394"/>
		<v:layer v:name="连接线" v:index="0"/>
		<v:layer v:name="电气" v:index="1"/>
		<g id="group58-1" transform="translate(1.2,-1.2)" v:mID="58" v:groupContext="group">
			<title>工作表.58</title>
			<g id="group23-2" transform="translate(107.717,-77.5659)" v:mID="23" v:groupContext="group">
				<title>工作表.23</title>
				<g id="group14-3" v:mID="14" v:groupContext="group">
					<title>工作表.14</title>
					<g id="group6-4" v:mID="6" v:groupContext="group">
						<title>工作表.6</title>
						<g id="shape1-5" v:mID="1" v:groupContext="shape" transform="translate(6.39589,-7.87683)">
							<title>Rectangle</title>
							<v:userDefs>
								<v:ud v:nameU="visVersion" v:val="VT0(11):26"/>
							</v:userDefs>
							<rect x="0" y="288.567" width="57.7694" height="105.844" class="st1"/>
						</g>
						<g id="group4-7" transform="translate(53.2303,-98.8602)" v:mID="4" v:groupContext="group">
							<title>工作表.4</title>
							<g id="shape5-8" v:mID="5" v:groupContext="shape" transform="translate(10.8937,773.945) rotate(180)">
								<title>Right triangle.5</title>
								<v:userDefs>
									<v:ud v:nameU="visVersion" v:val="VT0(11):26"/>
								</v:userDefs>
								<path d="M0 394.41 L10.89 394.41 L0 379.53 L0 394.41 Z" class="st2"/>
							</g>
						</g>
					</g>
					<g id="group9-10" v:mID="9" v:groupContext="group">
						<title>工作表.9</title>
						<g id="group7-11" v:mID="7" v:groupContext="group">
							<title>工作表.7</title>
							<g id="shape8-12" v:mID="8" v:groupContext="shape" transform="translate(0.413543,-0.367361)">
								<title>Rectangle</title>
								<v:userDefs>
									<v:ud v:nameU="visVersion" v:val="VT0(11):26"/>
								</v:userDefs>
								<rect x="0" y="288.335" width="57.896" height="106.076" class="st1"/>
							</g>
							<g id="shape10-14" v:mID="10" v:groupContext="shape" transform="translate(58.7231,682.004) rotate(180)">
								<title>Right triangle.5</title>
								<v:userDefs>
									<v:ud v:nameU="visVersion" v:val="VT0(11):26"/>
								</v:userDefs>
								<path d="M0 394.41 L12.29 394.41 L0 378.99 L0 394.41 Z" class="st2"/>
							</g>
							<g id="group11-16" transform="translate(46.5649,-91.6734)" v:mID="11" v:groupContext="group">
								<title>工作表.11</title>
								<g id="shape12-17" v:mID="12" v:groupContext="shape">
									<title>Right triangle.2</title>
									<v:userDefs>
										<v:ud v:nameU="visVersion" v:val="VT0(11):26"/>
									</v:userDefs>
									<path d="M0 394.41 L11.74 394.41 L0 379.74 L0 394.41 Z" class="st1"/>
								</g>
							</g>
						</g>
						<g id="group3-19" transform="translate(52.9828,-99.2443)" v:mID="3" v:groupContext="group">
							<title>工作表.3</title>
							<g id="shape2-20" v:mID="2" v:groupContext="shape" transform="translate(-0.12871,0.598286)">
								<title>Right triangle.2</title>
								<v:userDefs>
									<v:ud v:nameU="visVersion" v:val="VT0(11):26"/>
								</v:userDefs>
								<path d="M0 394.41 L11.34 394.41 L0 379.17 L0 394.41 Z" class="st1"/>
							</g>
						</g>
					</g>
				</g>
				<g id="shape15-22" v:mID="15" v:groupContext="shape" transform="translate(12.3791,-81.3092)">
					<title>工作表.15</title>
					<path d="M0 394.41 L26.82 394.41 L35.07 394.41" class="st3"/>
				</g>
				<g id="shape16-25" v:mID="16" v:groupContext="shape" transform="translate(12.3791,-73.6865)">
					<title>工作表.16</title>
					<path d="M0 394.41 L35.07 394.41" class="st3"/>
				</g>
				<g id="shape17-28" v:mID="17" v:groupContext="shape" transform="translate(12.3791,-66.0637)">
					<title>工作表.17</title>
					<path d="M0 394.41 L33.01 394.41 L34.46 394.41" class="st3"/>
				</g>
				<g id="shape18-31" v:mID="18" v:groupContext="shape" transform="translate(12.3791,-59.4574)">
					<title>工作表.18</title>
					<path d="M0 394.41 L26.82 394.41 L35.07 394.41" class="st3"/>
				</g>
				<g id="shape19-34" v:mID="19" v:groupContext="shape" transform="translate(12.3791,-51.8346)">
					<title>工作表.19</title>
					<path d="M0 394.41 L26.82 394.41 L35.07 394.41" class="st3"/>
				</g>
				<g id="shape20-37" v:mID="20" v:groupContext="shape" transform="translate(11.3476,-44.7201)">
					<title>工作表.20</title>
					<path d="M0 394.41 L26.82 394.41 L35.07 394.41" class="st3"/>
				</g>
				<g id="shape21-40" v:mID="21" v:groupContext="shape" transform="translate(11.3476,-36.5891)">
					<title>工作表.21</title>
					<path d="M0 394.41 L26.82 394.41 L35.07 394.41" class="st3"/>
				</g>
				<g id="shape22-43" v:mID="22" v:groupContext="shape" transform="translate(11.3476,-28.9664)">
					<title>工作表.22</title>
					<path d="M0 394.41 L26.82 394.41 L35.07 394.41" class="st3"/>
				</g>
			</g>
			<g id="group24-46" transform="translate(439.37,-82.4674)" v:mID="24" v:groupContext="group">
				<title>工作表.24</title>
				<g id="group25-47" v:mID="25" v:groupContext="group">
					<title>工作表.25</title>
					<g id="group26-48" v:mID="26" v:groupContext="group">
						<title>工作表.26</title>
						<g id="shape27-49" v:mID="27" v:groupContext="shape" transform="translate(5.56165,-7.32141)">
							<title>Rectangle</title>
							<v:userDefs>
								<v:ud v:nameU="visVersion" v:val="VT0(11):26"/>
							</v:userDefs>
							<rect x="0" y="296.031" width="50.2342" height="98.3802" class="st1"/>
						</g>
						<g id="group28-51" transform="translate(46.2873,-91.8892)" v:mID="28" v:groupContext="group">
							<title>工作表.28</title>
							<g id="shape29-52" v:mID="29" v:groupContext="shape" transform="translate(9.47274,774.994) rotate(180)">
								<title>Right triangle.5</title>
								<v:userDefs>
									<v:ud v:nameU="visVersion" v:val="VT0(11):26"/>
								</v:userDefs>
								<path d="M0 394.41 L9.47 394.41 L0 380.58 L0 394.41 Z" class="st2"/>
							</g>
						</g>
					</g>
					<g id="group30-54" v:mID="30" v:groupContext="group">
						<title>工作表.30</title>
						<g id="group31-55" v:mID="31" v:groupContext="group">
							<title>工作表.31</title>
							<g id="shape32-56" v:mID="32" v:groupContext="shape" transform="translate(0.359602,-0.341457)">
								<title>Rectangle</title>
								<v:userDefs>
									<v:ud v:nameU="visVersion" v:val="VT0(11):26"/>
								</v:userDefs>
								<rect x="0" y="295.815" width="50.3443" height="98.5958" class="st1"/>
							</g>
							<g id="shape33-58" v:mID="33" v:groupContext="shape" transform="translate(51.0635,689.536) rotate(180)">
								<title>Right triangle.5</title>
								<v:userDefs>
									<v:ud v:nameU="visVersion" v:val="VT0(11):26"/>
								</v:userDefs>
								<path d="M0 394.41 L10.69 394.41 L0 380.07 L0 394.41 Z" class="st2"/>
							</g>
							<g id="group34-60" transform="translate(40.4912,-85.2091)" v:mID="34" v:groupContext="group">
								<title>工作表.34</title>
								<g id="shape35-61" v:mID="35" v:groupContext="shape">
									<title>Right triangle.2</title>
									<v:userDefs>
										<v:ud v:nameU="visVersion" v:val="VT0(11):26"/>
									</v:userDefs>
									<path d="M0 394.41 L10.21 394.41 L0 380.77 L0 394.41 Z" class="st1"/>
								</g>
							</g>
						</g>
						<g id="group36-63" transform="translate(46.072,-92.2462)" v:mID="36" v:groupContext="group">
							<title>工作表.36</title>
							<g id="shape37-64" v:mID="37" v:groupContext="shape" transform="translate(-0.111922,0.556098)">
								<title>Right triangle.2</title>
								<v:userDefs>
									<v:ud v:nameU="visVersion" v:val="VT0(11):26"/>
								</v:userDefs>
								<path d="M0 394.41 L9.86 394.41 L0 380.25 L0 394.41 Z" class="st1"/>
							</g>
						</g>
					</g>
				</g>
				<g id="shape38-66" v:mID="38" v:groupContext="shape" transform="translate(10.7645,-75.5758)">
					<title>工作表.38</title>
					<path d="M0 394.41 L23.32 394.41 L30.5 394.41" class="st3"/>
				</g>
				<g id="shape39-69" v:mID="39" v:groupContext="shape" transform="translate(10.7645,-68.4906)">
					<title>工作表.39</title>
					<path d="M0 394.41 L30.5 394.41" class="st3"/>
				</g>
				<g id="shape40-72" v:mID="40" v:groupContext="shape" transform="translate(10.7645,-61.4053)">
					<title>工作表.40</title>
					<path d="M0 394.41 L28.71 394.41 L29.96 394.41" class="st3"/>
				</g>
				<g id="shape41-75" v:mID="41" v:groupContext="shape" transform="translate(10.7645,-55.2648)">
					<title>工作表.41</title>
					<path d="M0 394.41 L23.32 394.41 L30.5 394.41" class="st3"/>
				</g>
				<g id="shape42-78" v:mID="42" v:groupContext="shape" transform="translate(10.7645,-48.1796)">
					<title>工作表.42</title>
					<path d="M0 394.41 L23.32 394.41 L30.5 394.41" class="st3"/>
				</g>
				<g id="shape43-81" v:mID="43" v:groupContext="shape" transform="translate(9.86744,-41.5667)">
					<title>工作表.43</title>
					<path d="M0 394.41 L23.32 394.41 L30.5 394.41" class="st3"/>
				</g>
				<g id="shape44-84" v:mID="44" v:groupContext="shape" transform="translate(9.86744,-34.0091)">
					<title>工作表.44</title>
					<path d="M0 394.41 L23.32 394.41 L30.5 394.41" class="st3"/>
				</g>
				<g id="shape45-87" v:mID="45" v:groupContext="shape" transform="translate(9.86744,-26.9239)">
					<title>工作表.45</title>
					<path d="M0 394.41 L23.32 394.41 L30.5 394.41" class="st3"/>
				</g>
			</g>
			<g id="shape47-90" v:mID="47" v:groupContext="shape">
				<title>Ellipse</title>
				<v:userDefs>
					<v:ud v:nameU="visVersion" v:val="VT0(11):26"/>
				</v:userDefs>
				<path d="M0 198.41 A297.638 196.005 0 0 1 595.28 198.41 A297.638 196.005 0 0 1 0 198.41 Z" class="st4"/>
			</g>
			<g id="shape48-92" v:mID="48" v:groupContext="shape" transform="translate(243.78,-101.632)">
				<title>Ellipse.48</title>
				<v:userDefs>
					<v:ud v:nameU="visVersion" v:val="VT0(11):26"/>
				</v:userDefs>
				<path d="M0 365.37 A53.8583 29.0378 0 1 1 107.72 365.37 A53.8583 29.0378 0 1 1 0 365.37 Z" class="st4"/>
			</g>
			<g id="shape49-94" v:mID="49" v:groupContext="shape" transform="translate(345.075,-130.618) rotate(-0.932773)">
				<title>工作表.49</title>
				<path d="M0 394.41 L77.09 394.41" class="st5"/>
			</g>
			<g id="shape50-100" v:mID="50" v:groupContext="shape" transform="translate(345.075,-130.618) rotate(-0.932773)">
				<title>工作表.50</title>
				<path d="M0 394.41 L77.09 394.41" class="st5"/>
			</g>
			<g id="shape51-105" v:mID="51" v:groupContext="shape" transform="translate(345.075,-130.618) rotate(-0.932773)">
				<title>工作表.51</title>
				<path d="M0 394.41 L77.09 394.41" class="st5"/>
			</g>
			<g id="shape52-110" v:mID="52" v:groupContext="shape" transform="translate(345.075,-130.618) rotate(-0.932773)">
				<title>工作表.52</title>
				<path d="M0 394.41 L77.09 394.41" class="st5"/>
			</g>
			<g id="shape53-115" v:mID="53" v:groupContext="shape" transform="translate(345.075,-130.618) rotate(-0.932773)">
				<title>工作表.53</title>
				<path d="M0 394.41 L77.09 394.41" class="st7"/>
			</g>
			<g id="shape54-121" v:mID="54" v:groupContext="shape" v:layerMember="0" transform="translate(166.026,-137.907)">
				<title>Dynamic connector</title>
				<path d="M0 401.35 L10.63 401.35 L10.63 401.65 L66.59 401.65" class="st7"/>
			</g>
			<g id="shape55-126" v:mID="55" v:groupContext="shape" v:layerMember="1" transform="translate(360.152,-226.495)">
				<title>Drum type</title>
				<v:userDefs>
					<v:ud v:nameU="visVersion" v:val="VT0(11):26"/>
					<v:ud v:nameU="visDescription" v:val="VT4(用于传感器、录音机和复制机的磁鼓型限定符号。)"/>
				</v:userDefs>
				<path d="M0 381.07 A47.1943 48.3454 -180 0 0 65.1 381.07 L65.1 314.39 A47.1943 48.3454 -180 0 0 -0 314.39 L0 381.07
							 Z" class="st9"/>
				<path d="M0 314.39 A47.1943 48.3454 -180 0 0 65.1 314.39" class="st3"/>
				<path d="M0 381.07 A47.1943 48.3454 -180 0 0 65.1 381.07 L65.1 314.39 A47.1943 48.3454 -180 0 0 -0 314.39 L0 381.07"
						class="st3"/>
			</g>
			<g id="shape56-130" v:mID="56" v:groupContext="shape" transform="translate(-22.8019,4.74996) rotate(-54.3362)">
				<title>工作表.56</title>
				<path d="M0 394.41 L96.06 394.41" class="st5"/>
			</g>
			<g id="shape57-135" v:mID="57" v:groupContext="shape" transform="translate(-22.8019,4.74996) rotate(-54.3362)">
				<title>工作表.57</title>
				<path d="M0 394.41 L93.99 394.41" class="st7"/>
			</g>
		</g>
	</g>
</svg>
