<?xml version="1.0" encoding="utf-8"?>
<!-- Generator: Adobe Illustrator 14.0.0, SVG Export Plug-In . SVG Version: 6.00 Build 43363)  -->
<!DOCTYPE svg PUBLIC "-//W3C//DTD SVG 1.1//EN" "http://www.w3.org/Graphics/SVG/1.1/DTD/svg11.dtd">
<svg version="1.1" id="图层_1" xmlns="http://www.w3.org/2000/svg" xmlns:xlink="http://www.w3.org/1999/xlink" x="0px" y="0px"
	 width="61.594px" height="62.682px" viewBox="0 0 61.594 62.682" enable-background="new 0 0 61.594 62.682" xml:space="preserve">
<g>
	<g>
		<radialGradient id="SVGID_1_" cx="47.9063" cy="24.3193" r="2.6228" gradientUnits="userSpaceOnUse">
			<stop  offset="0" style="stop-color:#FFFFFF"/>
			<stop  offset="0.0823" style="stop-color:#FDFEFE"/>
			<stop  offset="0.1484" style="stop-color:#F5F8FC"/>
			<stop  offset="0.2086" style="stop-color:#E6EEF7"/>
			<stop  offset="0.2637" style="stop-color:#D1E0F0"/>
			<stop  offset="0.5714" style="stop-color:#6B99CC"/>
			<stop  offset="0.5981" style="stop-color:#5E8AC2"/>
			<stop  offset="0.653" style="stop-color:#4772B3"/>
			<stop  offset="0.6992" style="stop-color:#3864A9"/>
			<stop  offset="0.7308" style="stop-color:#325FA6"/>
			<stop  offset="0.7618" style="stop-color:#2E59A0"/>
			<stop  offset="0.8152" style="stop-color:#234892"/>
			<stop  offset="0.8297" style="stop-color:#1F438E"/>
			<stop  offset="0.8481" style="stop-color:#1F428A"/>
			<stop  offset="0.8726" style="stop-color:#1F3E7E"/>
			<stop  offset="0.9005" style="stop-color:#1E386A"/>
			<stop  offset="0.9309" style="stop-color:#192E4F"/>
			<stop  offset="0.9634" style="stop-color:#101F2F"/>
			<stop  offset="0.9971" style="stop-color:#050304"/>
			<stop  offset="1" style="stop-color:#040000"/>
		</radialGradient>
		<path fill="url(#SVGID_1_)" d="M36.095,27.978c2.312-0.815,4.914-1.276,7.666-1.276c2.7,0,5.258,0.442,7.539,1.231"/>
		
			<radialGradient id="SVGID_2_" cx="46.1436" cy="60.4775" r="206.8173" gradientTransform="matrix(1 0 0 0.7174 0 -106.8783)" gradientUnits="userSpaceOnUse">
			<stop  offset="0" style="stop-color:#FFFFFF"/>
			<stop  offset="0.0823" style="stop-color:#FDFEFE"/>
			<stop  offset="0.1484" style="stop-color:#F5F8FC"/>
			<stop  offset="0.2086" style="stop-color:#E6EEF7"/>
			<stop  offset="0.2637" style="stop-color:#D1E0F0"/>
			<stop  offset="0.5714" style="stop-color:#6B99CC"/>
			<stop  offset="0.5981" style="stop-color:#5E8AC2"/>
			<stop  offset="0.653" style="stop-color:#4772B3"/>
			<stop  offset="0.6992" style="stop-color:#3864A9"/>
			<stop  offset="0.7308" style="stop-color:#325FA6"/>
			<stop  offset="0.7618" style="stop-color:#2E59A0"/>
			<stop  offset="0.8152" style="stop-color:#234892"/>
			<stop  offset="0.8297" style="stop-color:#1F438E"/>
			<stop  offset="0.8481" style="stop-color:#1F428A"/>
			<stop  offset="0.8726" style="stop-color:#1F3E7E"/>
			<stop  offset="0.9005" style="stop-color:#1E386A"/>
			<stop  offset="0.9309" style="stop-color:#192E4F"/>
			<stop  offset="0.9634" style="stop-color:#101F2F"/>
			<stop  offset="0.9971" style="stop-color:#050304"/>
			<stop  offset="1" style="stop-color:#040000"/>
		</radialGradient>
		<path fill="url(#SVGID_2_)" d="M51.476,27.225c0.555-0.581,4.264-5.454,4.264-9.119c0-6.566-5.323-11.892-11.893-11.892
			c-6.566,0-11.893,5.325-11.893,11.892c0,3.689,3.451,8.793,4.316,9.166s-0.176,0.706-0.176,0.706
			c-5.764,2.034-9.732,6.288-9.732,11.206c0,6.895,7.789,12.48,17.398,12.48c9.608,0,17.396-5.586,17.396-12.48
			c0-4.955-4.024-9.236-9.857-11.25C51.3,27.933,50.921,27.808,51.476,27.225z"/>
		<radialGradient id="SVGID_3_" cx="42.1387" cy="5.9775" r="44.9818" gradientUnits="userSpaceOnUse">
			<stop  offset="0" style="stop-color:#FFFFFF"/>
			<stop  offset="0.0823" style="stop-color:#FDFEFE"/>
			<stop  offset="0.1484" style="stop-color:#F5F8FC"/>
			<stop  offset="0.2086" style="stop-color:#E6EEF7"/>
			<stop  offset="0.2637" style="stop-color:#D1E0F0"/>
			<stop  offset="0.5714" style="stop-color:#6B99CC"/>
			<stop  offset="0.5981" style="stop-color:#5E8AC2"/>
			<stop  offset="0.653" style="stop-color:#4772B3"/>
			<stop  offset="0.6992" style="stop-color:#3864A9"/>
			<stop  offset="0.7308" style="stop-color:#325FA6"/>
			<stop  offset="0.7618" style="stop-color:#2E59A0"/>
			<stop  offset="0.8152" style="stop-color:#234892"/>
			<stop  offset="0.8297" style="stop-color:#1F438E"/>
			<stop  offset="0.8481" style="stop-color:#1F428A"/>
			<stop  offset="0.8726" style="stop-color:#1F3E7E"/>
			<stop  offset="0.9005" style="stop-color:#1E386A"/>
			<stop  offset="0.9309" style="stop-color:#192E4F"/>
			<stop  offset="0.9634" style="stop-color:#101F2F"/>
			<stop  offset="0.9971" style="stop-color:#050304"/>
			<stop  offset="1" style="stop-color:#040000"/>
		</radialGradient>
		<path fill="url(#SVGID_3_)" d="M43.761,50.674c-9.049,0-16.41-5.152-16.41-11.49c0-4.361,3.477-8.298,9.073-10.271
			c0.71-0.227,1.149-0.696,1.179-1.273c0.014-0.319-0.087-0.906-0.941-1.275c-0.705-0.487-3.717-5.032-3.717-8.258
			c0-6.011,4.893-10.902,10.902-10.902c6.013,0,10.902,4.892,10.902,10.902c0,3.147-3.284,7.7-3.989,8.438
			c-0.479,0.502-0.66,1.005-0.538,1.493c0.115,0.465,0.472,0.734,0.767,0.834c5.573,1.924,9.181,5.974,9.181,10.312
			C60.169,45.521,52.809,50.674,43.761,50.674L43.761,50.674z"/>
		<radialGradient id="SVGID_4_" cx="39.7842" cy="-59.2534" r="132.1126" gradientUnits="userSpaceOnUse">
			<stop  offset="0" style="stop-color:#FFFFFF"/>
			<stop  offset="0.0823" style="stop-color:#FDFEFE"/>
			<stop  offset="0.1484" style="stop-color:#F5F8FC"/>
			<stop  offset="0.2086" style="stop-color:#E6EEF7"/>
			<stop  offset="0.2637" style="stop-color:#D1E0F0"/>
			<stop  offset="0.5714" style="stop-color:#6B99CC"/>
			<stop  offset="0.5981" style="stop-color:#5E8AC2"/>
			<stop  offset="0.653" style="stop-color:#4772B3"/>
			<stop  offset="0.6992" style="stop-color:#3864A9"/>
			<stop  offset="0.7308" style="stop-color:#325FA6"/>
			<stop  offset="0.7618" style="stop-color:#2E59A0"/>
			<stop  offset="0.8152" style="stop-color:#234892"/>
			<stop  offset="0.8297" style="stop-color:#1F438E"/>
			<stop  offset="0.8481" style="stop-color:#1F428A"/>
			<stop  offset="0.8726" style="stop-color:#1F3E7E"/>
			<stop  offset="0.9005" style="stop-color:#1E386A"/>
			<stop  offset="0.9309" style="stop-color:#192E4F"/>
			<stop  offset="0.9634" style="stop-color:#101F2F"/>
			<stop  offset="0.9971" style="stop-color:#050304"/>
			<stop  offset="1" style="stop-color:#040000"/>
		</radialGradient>
		<path fill="url(#SVGID_4_)" d="M42.966,39.891c-5.036,0-9.678-1.781-13.408-4.777c-0.787,1.266-1.217,2.645-1.217,4.07
			c0,5.791,6.916,10.502,15.42,10.502c8.502,0,15.417-4.711,15.417-10.502c0-1.729-0.653-3.412-1.829-4.908
			C53.468,37.775,48.451,39.891,42.966,39.891z"/>
		<radialGradient id="SVGID_5_" cx="42.8447" cy="-36.4087" r="109.034" gradientUnits="userSpaceOnUse">
			<stop  offset="0" style="stop-color:#FFFFFF"/>
			<stop  offset="0.0823" style="stop-color:#FDFEFE"/>
			<stop  offset="0.1484" style="stop-color:#F5F8FC"/>
			<stop  offset="0.2086" style="stop-color:#E6EEF7"/>
			<stop  offset="0.2637" style="stop-color:#D1E0F0"/>
			<stop  offset="0.5714" style="stop-color:#6B99CC"/>
			<stop  offset="0.5981" style="stop-color:#5E8AC2"/>
			<stop  offset="0.653" style="stop-color:#4772B3"/>
			<stop  offset="0.6992" style="stop-color:#3864A9"/>
			<stop  offset="0.7308" style="stop-color:#325FA6"/>
			<stop  offset="0.7618" style="stop-color:#2E59A0"/>
			<stop  offset="0.8152" style="stop-color:#234892"/>
			<stop  offset="0.8297" style="stop-color:#1F438E"/>
			<stop  offset="0.8481" style="stop-color:#1F428A"/>
			<stop  offset="0.8726" style="stop-color:#1F3E7E"/>
			<stop  offset="0.9005" style="stop-color:#1E386A"/>
			<stop  offset="0.9309" style="stop-color:#192E4F"/>
			<stop  offset="0.9634" style="stop-color:#101F2F"/>
			<stop  offset="0.9971" style="stop-color:#050304"/>
			<stop  offset="1" style="stop-color:#040000"/>
		</radialGradient>
		<path fill="url(#SVGID_5_)" d="M57.349,34.275c-1.482-1.887-3.792-3.472-6.672-4.467c-0.545-0.18-1.203-0.678-1.416-1.531
			c-0.144-0.577-0.125-1.465,0.784-2.416c0.763-0.798,3.716-5.088,3.716-7.755c0-5.466-4.446-9.913-9.914-9.913
			c-5.467,0-9.914,4.447-9.914,9.913c0,2.76,2.607,6.787,3.266,7.417c0.917,0.449,1.437,1.251,1.391,2.165
			c-0.048,0.998-0.744,1.809-1.836,2.157c-3.307,1.164-5.809,3.043-7.195,5.268c3.73,2.996,8.372,4.777,13.408,4.777
			C48.451,39.891,53.468,37.775,57.349,34.275z"/>
		<radialGradient id="SVGID_6_" cx="42.8447" cy="-37.3535" r="103.1571" gradientUnits="userSpaceOnUse">
			<stop  offset="0" style="stop-color:#FFFFFF"/>
			<stop  offset="0.0823" style="stop-color:#FDFEFE"/>
			<stop  offset="0.1484" style="stop-color:#F5F8FC"/>
			<stop  offset="0.2086" style="stop-color:#E6EEF7"/>
			<stop  offset="0.2637" style="stop-color:#D1E0F0"/>
			<stop  offset="0.5714" style="stop-color:#6B99CC"/>
			<stop  offset="0.5981" style="stop-color:#5E8AC2"/>
			<stop  offset="0.653" style="stop-color:#4772B3"/>
			<stop  offset="0.6992" style="stop-color:#3864A9"/>
			<stop  offset="0.7308" style="stop-color:#325FA6"/>
			<stop  offset="0.7618" style="stop-color:#2E59A0"/>
			<stop  offset="0.8152" style="stop-color:#234892"/>
			<stop  offset="0.8297" style="stop-color:#1F438E"/>
			<stop  offset="0.8481" style="stop-color:#1F428A"/>
			<stop  offset="0.8726" style="stop-color:#1F3E7E"/>
			<stop  offset="0.9005" style="stop-color:#1E386A"/>
			<stop  offset="0.9309" style="stop-color:#192E4F"/>
			<stop  offset="0.9634" style="stop-color:#101F2F"/>
			<stop  offset="0.9971" style="stop-color:#050304"/>
			<stop  offset="1" style="stop-color:#040000"/>
		</radialGradient>
		<path fill="url(#SVGID_6_)" d="M57.349,34.275c-1.482-1.887-3.792-3.472-6.672-4.467c-0.545-0.18-1.203-0.678-1.416-1.531
			c-0.144-0.577-0.125-1.465,0.784-2.416c0.763-0.798,3.716-5.088,3.716-7.755c0-5.466-4.446-9.913-9.914-9.913
			c-5.467,0-9.914,4.447-9.914,9.913c0,2.76,2.607,6.787,3.266,7.417c0.917,0.449,1.437,1.251,1.391,2.165
			c-0.048,0.998-0.744,1.809-1.836,2.157c-3.307,1.164-5.809,3.043-7.195,5.268c3.73,2.996,8.372,4.777,13.408,4.777
			C48.451,39.891,53.468,37.775,57.349,34.275z"/>
	</g>
	<g>
		<radialGradient id="SVGID_7_" cx="29.7168" cy="25.0596" r="3.5653" gradientUnits="userSpaceOnUse">
			<stop  offset="0" style="stop-color:#E8F1D5"/>
			<stop  offset="0.118" style="stop-color:#E8F1D5"/>
			<stop  offset="0.1654" style="stop-color:#E4EFCF"/>
			<stop  offset="0.23" style="stop-color:#DAE8C0"/>
			<stop  offset="0.3043" style="stop-color:#CADBA5"/>
			<stop  offset="0.386" style="stop-color:#B3CA81"/>
			<stop  offset="0.4726" style="stop-color:#94B557"/>
			<stop  offset="0.5562" style="stop-color:#6DA130"/>
			<stop  offset="0.6288" style="stop-color:#629231"/>
			<stop  offset="0.7744" style="stop-color:#496C2F"/>
			<stop  offset="0.8315" style="stop-color:#3E5D2D"/>
			<stop  offset="1" style="stop-color:#3E5D2D"/>
		</radialGradient>
		<path fill="url(#SVGID_7_)" d="M13.664,30.034c3.144-1.107,6.679-1.735,10.419-1.735c3.672,0,7.146,0.602,10.246,1.672"/>
		
			<linearGradient id="SVGID_8_" gradientUnits="userSpaceOnUse" x1="0.4365" y1="192.667" x2="47.7285" y2="192.667" gradientTransform="matrix(1 0 0 0.7174 0 -106.8783)">
			<stop  offset="0" style="stop-color:#427836"/>
			<stop  offset="0.2692" style="stop-color:#5AA433"/>
			<stop  offset="1" style="stop-color:#9AC82E"/>
		</linearGradient>
		<path fill="url(#SVGID_8_)" d="M34.569,29.011c0.754-0.791,5.796-7.416,5.796-12.395c0-8.927-7.236-16.163-16.163-16.163
			c-8.928,0-16.164,7.236-16.164,16.163c0,5.014,4.689,11.951,5.865,12.457c1.177,0.506-0.239,0.96-0.239,0.96
			c-7.835,2.765-13.228,8.544-13.228,15.23c0,9.369,10.586,16.965,23.646,16.965s23.646-7.596,23.646-16.965
			c0-6.736-5.471-12.553-13.399-15.293C34.329,29.97,33.815,29.801,34.569,29.011z"/>
		<radialGradient id="SVGID_9_" cx="21.8789" cy="0.1309" r="61.1332" gradientUnits="userSpaceOnUse">
			<stop  offset="0" style="stop-color:#E8F1D5"/>
			<stop  offset="0.118" style="stop-color:#E8F1D5"/>
			<stop  offset="0.1654" style="stop-color:#E4EFCF"/>
			<stop  offset="0.23" style="stop-color:#DAE8C0"/>
			<stop  offset="0.3043" style="stop-color:#CADBA5"/>
			<stop  offset="0.386" style="stop-color:#B3CA81"/>
			<stop  offset="0.4726" style="stop-color:#94B557"/>
			<stop  offset="0.5562" style="stop-color:#6DA130"/>
			<stop  offset="0.6288" style="stop-color:#629231"/>
			<stop  offset="0.7744" style="stop-color:#496C2F"/>
			<stop  offset="0.8315" style="stop-color:#3E5D2D"/>
			<stop  offset="1" style="stop-color:#3E5D2D"/>
		</radialGradient>
		<path fill="url(#SVGID_9_)" d="M24.083,60.881c-12.299,0-22.303-7.004-22.303-15.617c0-5.928,4.725-11.277,12.332-13.961
			c0.965-0.308,1.563-0.946,1.601-1.731c0.021-0.433-0.117-1.231-1.277-1.733C13.476,27.176,9.382,21,9.382,16.616
			c0-8.171,6.648-14.818,14.818-14.818c8.172,0,14.819,6.647,14.819,14.818c0,4.277-4.464,10.465-5.422,11.469
			c-0.651,0.682-0.899,1.365-0.733,2.028c0.158,0.635,0.642,1,1.043,1.134c7.574,2.617,12.478,8.121,12.478,14.018
			C46.385,53.877,36.38,60.881,24.083,60.881L24.083,60.881z"/>
		<linearGradient id="SVGID_10_" gradientUnits="userSpaceOnUse" x1="3.125" y1="49.0635" x2="45.04" y2="49.0635">
			<stop  offset="0" style="stop-color:#427836"/>
			<stop  offset="0.2692" style="stop-color:#5AA433"/>
			<stop  offset="1" style="stop-color:#9AC82E"/>
		</linearGradient>
		<path fill="url(#SVGID_10_)" d="M23.001,46.225c-6.842,0-13.152-2.42-18.221-6.494c-1.071,1.721-1.655,3.596-1.655,5.533
			c0,7.869,9.401,14.271,20.958,14.271c11.555,0,20.957-6.402,20.957-14.271c0-2.352-0.892-4.639-2.488-6.672
			C37.278,43.35,30.458,46.225,23.001,46.225z"/>
		<radialGradient id="SVGID_11_" cx="22.8428" cy="-57.479" r="148.1944" gradientUnits="userSpaceOnUse">
			<stop  offset="0" style="stop-color:#E8F1D5"/>
			<stop  offset="0.118" style="stop-color:#E8F1D5"/>
			<stop  offset="0.1654" style="stop-color:#E4EFCF"/>
			<stop  offset="0.23" style="stop-color:#DAE8C0"/>
			<stop  offset="0.3043" style="stop-color:#CADBA5"/>
			<stop  offset="0.386" style="stop-color:#B3CA81"/>
			<stop  offset="0.4726" style="stop-color:#94B557"/>
			<stop  offset="0.5562" style="stop-color:#6DA130"/>
			<stop  offset="0.6288" style="stop-color:#629231"/>
			<stop  offset="0.7744" style="stop-color:#496C2F"/>
			<stop  offset="0.8315" style="stop-color:#3E5D2D"/>
			<stop  offset="1" style="stop-color:#3E5D2D"/>
		</radialGradient>
		<path fill="url(#SVGID_11_)" d="M42.552,38.592c-2.014-2.564-5.154-4.719-9.067-6.07c-0.742-0.246-1.635-0.924-1.925-2.083
			c-0.195-0.784-0.17-1.989,1.066-3.283c1.035-1.085,5.05-6.915,5.05-10.54c0-7.43-6.044-13.474-13.474-13.474
			c-7.431,0-13.477,6.044-13.477,13.474c0,3.75,3.544,9.223,4.438,10.08c1.248,0.611,1.953,1.7,1.892,2.942
			c-0.065,1.359-1.013,2.459-2.495,2.93c-4.494,1.586-7.896,4.139-9.779,7.162c5.068,4.074,11.379,6.494,18.221,6.494
			C30.458,46.225,37.278,43.35,42.552,38.592z"/>
		<linearGradient id="SVGID_12_" gradientUnits="userSpaceOnUse" x1="4.7803" y1="24.6836" x2="42.5518" y2="24.6836">
			<stop  offset="0" style="stop-color:#427836"/>
			<stop  offset="0.2692" style="stop-color:#5AA433"/>
			<stop  offset="1" style="stop-color:#9AC82E"/>
		</linearGradient>
		<path fill="url(#SVGID_12_)" d="M42.552,38.592c-2.014-2.564-5.154-4.719-9.067-6.07c-0.742-0.246-1.635-0.924-1.925-2.083
			c-0.195-0.784-0.17-1.989,1.066-3.283c1.035-1.085,5.05-6.915,5.05-10.54c0-7.43-6.044-13.474-13.474-13.474
			c-7.431,0-13.477,6.044-13.477,13.474c0,3.75,3.544,9.223,4.438,10.08c1.248,0.611,1.953,1.7,1.892,2.942
			c-0.065,1.359-1.013,2.459-2.495,2.93c-4.494,1.586-7.896,4.139-9.779,7.162c5.068,4.074,11.379,6.494,18.221,6.494
			C30.458,46.225,37.278,43.35,42.552,38.592z"/>
	</g>
</g>
</svg>
