<?xml version="1.0" encoding="utf-8"?>
<!-- Generator: Adobe Illustrator 14.0.0, SVG Export Plug-In . SVG Version: 6.00 Build 43363)  -->
<!DOCTYPE svg PUBLIC "-//W3C//DTD SVG 1.1//EN" "http://www.w3.org/Graphics/SVG/1.1/DTD/svg11.dtd">
<svg version="1.1" id="图层_1" xmlns="http://www.w3.org/2000/svg" xmlns:xlink="http://www.w3.org/1999/xlink" x="0px" y="0px"
	 width="51.5px" height="54.635px" viewBox="0 0 51.5 54.635" enable-background="new 0 0 51.5 54.635" xml:space="preserve">
<g>
	<g>
		<path opacity="0.3362" fill="#D8D8D8" enable-background="new    " d="M26.061,53.69c-9.194,0-16.646-2.088-16.646-4.67
			c0-2.578,7.452-4.668,16.646-4.668c9.192,0,16.644,2.09,16.644,4.668C42.705,51.603,35.254,53.69,26.061,53.69z"/>
		<path opacity="0.3448" fill="#D7D7D7" enable-background="new    " d="M26.061,53.636c-9.089,0-16.457-2.063-16.457-4.613
			c0-2.549,7.368-4.611,16.457-4.611c9.088,0,16.452,2.064,16.452,4.611C42.513,51.571,35.15,53.636,26.061,53.636z"/>
		<path opacity="0.3621" fill="#D5D5D5" enable-background="new    " d="M26.061,53.524c-8.878,0-16.075-2.016-16.075-4.504
			c0-2.486,7.197-4.5,16.075-4.5c8.877,0,16.071,2.014,16.071,4.5C42.133,51.511,34.939,53.524,26.061,53.524z"/>
		<path opacity="0.4052" fill="#D0D0D0" enable-background="new    " d="M26.061,53.243c-8.352,0-15.122-1.887-15.122-4.223
			c0-2.332,6.771-4.223,15.122-4.223c8.351,0,15.118,1.891,15.118,4.223C41.179,51.356,34.412,53.243,26.061,53.243z"/>
		<path opacity="0.431" fill="#CDCDCD" enable-background="new    " d="M26.061,53.077c-8.036,0-14.55-1.813-14.55-4.057
			c0-2.238,6.514-4.055,14.55-4.055c8.034,0,14.545,1.813,14.545,4.055C40.607,51.265,34.095,53.077,26.061,53.077z"/>
		<path opacity="0.4397" fill="#CCCCCC" enable-background="new    " d="M26.061,53.021c-7.93,0-14.359-1.789-14.359-4
			c0-2.207,6.43-3.998,14.359-3.998s14.354,1.791,14.354,3.998C40.416,51.231,33.991,53.021,26.061,53.021z"/>
		<path opacity="0.4483" fill="#CBCBCB" enable-background="new    " d="M26.061,52.966c-7.825,0-14.168-1.764-14.168-3.941
			c0-2.18,6.344-3.941,14.168-3.941s14.165,1.764,14.165,3.941S33.886,52.966,26.061,52.966z"/>
		<path opacity="0.4655" fill="#C9C9C9" enable-background="new    " d="M26.061,52.853c-7.614,0-13.787-1.715-13.787-3.832
			c0-2.115,6.173-3.83,13.787-3.83s13.784,1.715,13.784,3.83C39.845,51.142,33.676,52.853,26.061,52.853z"/>
		<path opacity="0.4741" fill="#C8C8C8" enable-background="new    " d="M26.061,52.798c-7.509,0-13.597-1.688-13.597-3.773
			s6.088-3.773,13.597-3.773c7.508,0,13.592,1.688,13.592,3.773C39.653,51.108,33.569,52.798,26.061,52.798z"/>
		<path opacity="0.4828" fill="#C7C7C7" enable-background="new    " d="M26.061,52.741c-7.403,0-13.406-1.664-13.406-3.721
			c0-2.055,6.002-3.719,13.406-3.719c7.403,0,13.401,1.664,13.401,3.719C39.463,51.077,33.465,52.741,26.061,52.741z"/>
		<path opacity="0.4914" fill="#C6C6C6" enable-background="new    " d="M26.061,52.685c-7.298,0-13.215-1.639-13.215-3.664
			c0-2.021,5.917-3.662,13.215-3.662c7.297,0,13.211,1.641,13.211,3.662C39.273,51.048,33.359,52.685,26.061,52.685z"/>
		<path opacity="0.5" fill="#C5C5C5" enable-background="new    " d="M26.061,52.63c-7.192,0-13.023-1.611-13.023-3.605
			c0-1.992,5.832-3.605,13.023-3.605c7.192,0,13.021,1.613,13.021,3.605S33.254,52.63,26.061,52.63z"/>
		<ellipse opacity="0.5086" fill="#C5C5C5" enable-background="new    " cx="26.061" cy="49.021" rx="12.834" ry="3.552"/>
		<ellipse opacity="0.5172" fill="#C4C4C4" enable-background="new    " cx="26.061" cy="49.022" rx="12.645" ry="3.496"/>
		<path opacity="0.5259" fill="#C3C3C3" enable-background="new    " d="M26.061,52.462c-6.876,0-12.453-1.537-12.453-3.438
			c0-1.898,5.576-3.438,12.453-3.438s12.448,1.539,12.448,3.438C38.51,50.925,32.939,52.462,26.061,52.462z"/>
		<ellipse opacity="0.5345" fill="#C2C2C2" enable-background="new    " cx="26.061" cy="49.021" rx="12.262" ry="3.384"/>
		<ellipse opacity="0.5431" fill="#C1C1C1" enable-background="new    " cx="26.061" cy="49.022" rx="12.071" ry="3.328"/>
		<ellipse opacity="0.5517" fill="#C0C0C0" enable-background="new    " cx="26.061" cy="49.022" rx="11.881" ry="3.271"/>
		<path opacity="0.5603" fill="#BFBFBF" enable-background="new    " d="M26.061,52.237c-6.455,0-11.689-1.438-11.689-3.217
			c0-1.775,5.234-3.217,11.689-3.217c6.456,0,11.687,1.438,11.687,3.217C37.748,50.802,32.517,52.237,26.061,52.237z"/>
		<path opacity="0.569" fill="#BEBEBE" enable-background="new    " d="M26.061,52.183c-6.35,0-11.5-1.41-11.5-3.158
			c0-1.746,5.15-3.16,11.5-3.16c6.351,0,11.495,1.414,11.495,3.16C37.556,50.769,32.412,52.183,26.061,52.183z"/>
		<ellipse opacity="0.5776" fill="#BDBDBD" enable-background="new    " cx="26.061" cy="49.022" rx="11.31" ry="3.104"/>
		<ellipse opacity="0.5862" fill="#BCBCBC" enable-background="new    " cx="26.061" cy="49.022" rx="11.118" ry="3.049"/>
		<ellipse opacity="0.5948" fill="#BBBBBB" enable-background="new    " cx="26.061" cy="49.021" rx="10.926" ry="2.993"/>
		<ellipse opacity="0.6034" fill="#BABABA" enable-background="new    " cx="26.061" cy="49.022" rx="10.737" ry="2.938"/>
		<ellipse opacity="0.6121" fill="#B9B9B9" enable-background="new    " cx="26.061" cy="49.022" rx="10.545" ry="2.881"/>
		<ellipse opacity="0.6207" fill="#B8B8B8" enable-background="new    " cx="26.061" cy="49.021" rx="10.355" ry="2.825"/>
		<ellipse opacity="0.6293" fill="#B7B7B7" enable-background="new    " cx="26.061" cy="49.022" rx="10.165" ry="2.77"/>
		<ellipse opacity="0.6379" fill="#B6B6B6" enable-background="new    " cx="26.061" cy="49.022" rx="9.973" ry="2.713"/>
		<ellipse opacity="0.6466" fill="#B5B5B5" enable-background="new    " cx="26.061" cy="49.021" rx="9.784" ry="2.657"/>
		<ellipse opacity="0.6552" fill="#B4B4B4" enable-background="new    " cx="26.061" cy="49.022" rx="9.592" ry="2.602"/>
		<ellipse opacity="0.6638" fill="#B3B3B3" enable-background="new    " cx="26.061" cy="49.021" rx="9.402" ry="2.546"/>
		<ellipse opacity="0.6724" fill="#B2B2B2" enable-background="new    " cx="26.061" cy="49.022" rx="9.211" ry="2.49"/>
		<ellipse opacity="0.681" fill="#B1B1B1" enable-background="new    " cx="26.061" cy="49.022" rx="9.021" ry="2.434"/>
		<ellipse opacity="0.6897" fill="#B0B0B0" enable-background="new    " cx="26.061" cy="49.021" rx="8.831" ry="2.378"/>
		<ellipse opacity="0.6983" fill="#AFAFAF" enable-background="new    " cx="26.061" cy="49.022" rx="8.639" ry="2.322"/>
		<ellipse opacity="0.7069" fill="#AEAEAE" enable-background="new    " cx="26.061" cy="49.022" rx="8.449" ry="2.268"/>
		<ellipse opacity="0.7155" fill="#ADADAD" enable-background="new    " cx="26.061" cy="49.021" rx="8.258" ry="2.21"/>
		<ellipse opacity="0.7241" fill="#ACACAC" enable-background="new    " cx="26.061" cy="49.022" rx="8.068" ry="2.154"/>
		<ellipse opacity="0.7328" fill="#ABABAB" enable-background="new    " cx="26.061" cy="49.021" rx="7.877" ry="2.099"/>
		<ellipse opacity="0.7414" fill="#AAAAAA" enable-background="new    " cx="26.061" cy="49.022" rx="7.688" ry="2.043"/>
		<ellipse opacity="0.75" fill="#A9A9A9" enable-background="new    " cx="26.061" cy="49.022" rx="7.496" ry="1.986"/>
		<ellipse opacity="0.7586" fill="#A8A8A8" enable-background="new    " cx="26.061" cy="49.021" rx="7.305" ry="1.931"/>
		<ellipse opacity="0.7672" fill="#A7A7A7" enable-background="new    " cx="26.061" cy="49.022" rx="7.114" ry="1.875"/>
		<ellipse opacity="0.7759" fill="#A6A6A6" enable-background="new    " cx="26.061" cy="49.021" rx="6.924" ry="1.819"/>
		<ellipse opacity="0.7845" fill="#A5A5A5" enable-background="new    " cx="26.061" cy="49.022" rx="6.733" ry="1.764"/>
		<path opacity="0.7931" fill="#A4A4A4" enable-background="new    " d="M26.061,50.729c-3.61,0-6.542-0.766-6.542-1.707
			c0-0.943,2.932-1.707,6.542-1.707c3.612,0,6.54,0.764,6.54,1.707S29.674,50.729,26.061,50.729z"/>
		<path opacity="0.8017" fill="#A3A3A3" enable-background="new    " d="M26.061,50.675c-3.505,0-6.352-0.736-6.352-1.65
			c0-0.912,2.847-1.65,6.352-1.65c3.508,0,6.348,0.738,6.348,1.65S29.569,50.675,26.061,50.675z"/>
		<path opacity="0.8103" fill="#A2A2A2" enable-background="new    " d="M26.061,50.618c-3.398,0-6.161-0.715-6.161-1.596
			c0-0.885,2.763-1.598,6.161-1.598c3.403,0,6.159,0.713,6.159,1.598C32.22,49.903,29.465,50.618,26.061,50.618z"/>
		<ellipse opacity="0.819" fill="#A1A1A1" enable-background="new    " cx="26.061" cy="49.021" rx="5.971" ry="1.54"/>
		<ellipse opacity="0.8276" fill="#A0A0A0" enable-background="new    " cx="26.061" cy="49.022" rx="5.78" ry="1.482"/>
		<path opacity="0.8362" fill="#9F9F9F" enable-background="new    " d="M26.061,50.45c-3.084,0-5.589-0.639-5.589-1.428
			s2.505-1.43,5.589-1.43c3.086,0,5.586,0.641,5.586,1.43S29.148,50.45,26.061,50.45z"/>
		<path opacity="0.8448" fill="#9E9E9E" enable-background="new    " d="M26.061,50.394c-2.979,0-5.397-0.613-5.397-1.371
			c0-0.76,2.42-1.373,5.397-1.373c2.981,0,5.396,0.613,5.396,1.373C31.457,49.78,29.043,50.394,26.061,50.394z"/>
		<path opacity="0.8534" fill="#9D9D9D" enable-background="new    " d="M26.061,50.339c-2.873,0-5.208-0.588-5.208-1.314
			c0-0.729,2.335-1.314,5.208-1.314c2.875,0,5.206,0.588,5.206,1.314S28.937,50.339,26.061,50.339z"/>
		<path opacity="0.8621" fill="#9C9C9C" enable-background="new    " d="M26.061,50.282c-2.768,0-5.017-0.563-5.017-1.26
			s2.25-1.264,5.017-1.264c2.771,0,5.014,0.564,5.014,1.264C31.075,49.72,28.832,50.282,26.061,50.282z"/>
		<path opacity="0.8707" fill="#9B9B9B" enable-background="new    " d="M26.061,50.226c-2.662,0-4.827-0.537-4.827-1.203
			s2.165-1.205,4.827-1.205c2.665,0,4.825,0.539,4.825,1.205S28.726,50.226,26.061,50.226z"/>
		<path opacity="0.8793" fill="#9A9A9A" enable-background="new    " d="M26.061,50.171c-2.557,0-4.636-0.514-4.636-1.146
			c0-0.637,2.079-1.148,4.636-1.148c2.56,0,4.633,0.514,4.633,1.148C30.694,49.657,28.621,50.171,26.061,50.171z"/>
		<path opacity="0.8879" fill="#999999" enable-background="new    " d="M26.061,50.114c-2.451,0-4.445-0.488-4.445-1.092
			s1.994-1.096,4.445-1.096c2.456,0,4.442,0.49,4.442,1.096C30.504,49.626,28.517,50.114,26.061,50.114z"/>
		<path opacity="0.8966" fill="#989898" enable-background="new    " d="M26.061,50.06c-2.347,0-4.254-0.467-4.254-1.037
			c0-0.572,1.908-1.037,4.254-1.037c2.351,0,4.252,0.465,4.252,1.037C30.314,49.597,28.412,50.06,26.061,50.06z"/>
		<path opacity="0.9052" fill="#979797" enable-background="new    " d="M26.061,50.003c-2.241,0-4.063-0.438-4.063-0.979
			c0-0.543,1.822-0.98,4.063-0.98c2.245,0,4.062,0.438,4.062,0.98C30.123,49.563,28.306,50.003,26.061,50.003z"/>
		<path opacity="0.9138" fill="#969696" enable-background="new    " d="M26.061,49.946c-2.136,0-3.873-0.414-3.873-0.924
			c0-0.514,1.737-0.928,3.873-0.928c2.139,0,3.872,0.414,3.872,0.928C29.933,49.532,28.2,49.946,26.061,49.946z"/>
		<path opacity="0.9224" fill="#959595" enable-background="new    " d="M26.061,49.892c-2.03,0-3.683-0.391-3.683-0.867
			c0-0.48,1.651-0.871,3.683-0.871c2.034,0,3.68,0.391,3.68,0.871C29.741,49.503,28.095,49.892,26.061,49.892z"/>
		<path opacity="0.931" fill="#949494" enable-background="new    " d="M26.061,49.837c-1.925,0-3.492-0.365-3.492-0.814
			s1.567-0.813,3.492-0.813c1.928,0,3.491,0.363,3.491,0.813S27.989,49.837,26.061,49.837z"/>
		<path opacity="0.9397" fill="#939393" enable-background="new    " d="M26.061,49.78c-1.819,0-3.302-0.34-3.302-0.758
			s1.481-0.76,3.302-0.76c1.823,0,3.299,0.342,3.299,0.76S27.885,49.78,26.061,49.78z"/>
		<path opacity="0.9483" fill="#929292" enable-background="new    " d="M26.061,49.724c-1.714,0-3.11-0.313-3.11-0.697
			c0-0.391,1.396-0.703,3.11-0.703c1.717,0,3.108,0.314,3.108,0.703C29.17,49.409,27.778,49.724,26.061,49.724z"/>
		<path opacity="0.9569" fill="#919191" enable-background="new    " d="M26.061,49.669c-1.607,0-2.92-0.289-2.92-0.646
			c0-0.355,1.313-0.645,2.92-0.645c1.612,0,2.918,0.289,2.918,0.645C28.98,49.38,27.674,49.669,26.061,49.669z"/>
		<path opacity="0.9655" fill="#909090" enable-background="new    " d="M26.061,49.612c-1.504,0-2.729-0.266-2.729-0.59
			c0-0.326,1.226-0.592,2.729-0.592c1.506,0,2.728,0.266,2.728,0.592S27.567,49.612,26.061,49.612z"/>
		<path opacity="0.9741" fill="#8F8F8F" enable-background="new    " d="M26.061,49.558c-1.397,0-2.539-0.238-2.539-0.531
			c0-0.297,1.142-0.535,2.539-0.535c1.401,0,2.538,0.238,2.538,0.535C28.599,49.317,27.463,49.558,26.061,49.558z"/>
		<path opacity="0.9828" fill="#8E8E8E" enable-background="new    " d="M26.061,49.501c-1.293,0-2.348-0.215-2.348-0.479
			c0-0.266,1.055-0.479,2.348-0.479c1.297,0,2.346,0.215,2.346,0.479S27.359,49.501,26.061,49.501z"/>
		<path opacity="0.9914" fill="#8D8D8D" enable-background="new    " d="M26.061,49.444c-1.188,0-2.157-0.188-2.157-0.422
			c0-0.232,0.971-0.422,2.157-0.422c1.192,0,2.155,0.188,2.155,0.422S27.254,49.444,26.061,49.444z"/>
		<path fill="#8C8C8C" d="M28.026,49.022c0,0.199-0.879,0.363-1.965,0.363c-1.082,0-1.967-0.164-1.967-0.363
			c0-0.203,0.885-0.367,1.967-0.367C27.148,48.655,28.026,48.819,28.026,49.022z"/>
	</g>
	<path fill="#666666" d="M1.471,25.221c0,13.393,10.891,24.282,24.278,24.282c13.389,0,24.278-10.893,24.278-24.282
		c0-13.387-10.892-24.277-24.278-24.277C12.361,0.941,1.471,11.834,1.471,25.221z"/>
	
		<linearGradient id="SVGID_1_" gradientUnits="userSpaceOnUse" x1="748.6443" y1="-1086.2031" x2="748.6443" y2="-1040.562" gradientTransform="matrix(1 0 0 -1 -722.894 -1038.1592)">
		<stop  offset="0" style="stop-color:#7F7F7F"/>
		<stop  offset="0.5" style="stop-color:#D9D9D9"/>
		<stop  offset="0.5211" style="stop-color:#D0D0D0"/>
		<stop  offset="0.5981" style="stop-color:#B2B2B2"/>
		<stop  offset="0.6802" style="stop-color:#9C9C9C"/>
		<stop  offset="0.7685" style="stop-color:#8C8C8C"/>
		<stop  offset="0.8677" style="stop-color:#828282"/>
		<stop  offset="1" style="stop-color:#7F7F7F"/>
	</linearGradient>
	<path fill="url(#SVGID_1_)" d="M2.927,25.223c0,12.584,10.238,22.821,22.822,22.821s22.821-10.236,22.821-22.821
		c0-12.586-10.236-22.82-22.821-22.82C13.166,2.4,2.927,12.637,2.927,25.223z"/>
	<g opacity="0.5">
		
			<linearGradient id="SVGID_2_" gradientUnits="userSpaceOnUse" x1="748.615" y1="-1051.5625" x2="748.615" y2="-1062.6429" gradientTransform="matrix(1 0 0 -1 -722.894 -1038.1592)">
			<stop  offset="0" style="stop-color:#FFFFFF"/>
			<stop  offset="0.1089" style="stop-color:#FAFAFA"/>
			<stop  offset="0.2343" style="stop-color:#ECECEC"/>
			<stop  offset="0.3679" style="stop-color:#D5D5D5"/>
			<stop  offset="0.5073" style="stop-color:#B5B5B5"/>
			<stop  offset="0.6512" style="stop-color:#8C8B8B"/>
			<stop  offset="0.7988" style="stop-color:#595858"/>
			<stop  offset="0.9468" style="stop-color:#1E1D1D"/>
			<stop  offset="1" style="stop-color:#070606"/>
		</linearGradient>
		<path fill="url(#SVGID_2_)" d="M4.875,20.371c5.818,4.298,12.588,5.546,20.737,5.546c8.252,0,15.114-1.156,20.956-5.425
			C44.13,12.064,36.099,4.053,25.702,4.053C15.364,4.053,7.369,12.006,4.875,20.371z"/>
	</g>
	<g opacity="0.5">
		
			<linearGradient id="SVGID_3_" gradientUnits="userSpaceOnUse" x1="-687.5989" y1="892.9834" x2="-687.5989" y2="881.9031" gradientTransform="matrix(-1 0 0 1 -661.8013 -856.1445)">
			<stop  offset="0" style="stop-color:#FFFFFF"/>
			<stop  offset="0.1089" style="stop-color:#FAFAFA"/>
			<stop  offset="0.2343" style="stop-color:#ECECEC"/>
			<stop  offset="0.3679" style="stop-color:#D5D5D5"/>
			<stop  offset="0.5073" style="stop-color:#B5B5B5"/>
			<stop  offset="0.6512" style="stop-color:#8C8B8B"/>
			<stop  offset="0.7988" style="stop-color:#595858"/>
			<stop  offset="0.9468" style="stop-color:#1E1D1D"/>
			<stop  offset="1" style="stop-color:#070606"/>
		</linearGradient>
		<path fill="url(#SVGID_3_)" d="M46.72,29.868c-5.84-4.294-12.633-5.542-20.815-5.542c-8.281,0-15.167,1.154-21.03,5.425
			c2.451,8.428,10.508,16.438,20.942,16.438C36.191,46.188,44.217,38.235,46.72,29.868z"/>
	</g>
	<path fill="#404040" d="M7.069,25.221c0,10.303,8.38,18.684,18.68,18.684c10.301,0,18.68-8.381,18.68-18.684
		c0-10.299-8.379-18.68-18.68-18.68C15.449,6.542,7.069,14.922,7.069,25.221z"/>
	
		<radialGradient id="SVGID_4_" cx="748.6433" cy="-1063.3818" r="17.1882" gradientTransform="matrix(1 0 0 -1 -722.894 -1038.1592)" gradientUnits="userSpaceOnUse">
		<stop  offset="0" style="stop-color:#FFFFFF"/>
		<stop  offset="0.3769" style="stop-color:#FDFDFD"/>
		<stop  offset="0.5695" style="stop-color:#F5F5F5"/>
		<stop  offset="0.7202" style="stop-color:#E8E8E8"/>
		<stop  offset="0.8494" style="stop-color:#D5D5D5"/>
		<stop  offset="0.9635" style="stop-color:#BDBDBD"/>
		<stop  offset="1" style="stop-color:#B3B3B3"/>
	</radialGradient>
	<circle fill="url(#SVGID_4_)" cx="25.75" cy="25.223" r="17.188"/>
	<path opacity="0.7" fill="#FFFFFF" enable-background="new    " d="M25.491,9.742c5.167,0,10.054,2.763,12.987,6.966
		c-2.58-4.746-7.428-7.947-12.987-7.947S15.082,11.967,12.5,16.715C15.436,12.508,20.32,9.742,25.491,9.742z"/>
	<path opacity="0.7" fill="#FFFFFF" enable-background="new    " d="M25.487,40.356c-5.169,0-10.052-2.764-12.987-6.965
		c2.581,4.744,7.429,7.945,12.987,7.945c5.56,0,10.409-3.205,12.991-7.955C35.541,37.593,30.655,40.356,25.487,40.356z"/>
	<path opacity="0.7" fill="#FFFFFF" enable-background="new    " d="M5.386,25.025c0,6.335,4.396,13.062,6.964,15.148
		c-4.745-3.01-7.946-8.664-7.946-15.148c0-6.483,3.206-12.144,7.955-15.151C8.151,13.299,5.386,18.994,5.386,25.025z"/>
	<g>
		<path fill="#BF0000" d="M16.859,34.835c-0.605,0.605-1.153,1.043-1.762,0.438l0,0c-0.606-0.607-0.172-1.156,0.435-1.766
			l8.97-8.972c0.606-0.604,1.157-1.041,1.764-0.434l0,0c0.608,0.604,0.172,1.153-0.434,1.762L16.859,34.835z"/>
		<g>
			<path fill="#333333" d="M26.469,25.5c0,0.856-0.694,1.553-1.553,1.553l0,0c-0.859,0-1.554-0.693-1.554-1.553v-9.404
				c0-0.857,0.693-1.553,1.554-1.553l0,0c0.858,0,1.553,0.692,1.553,1.553V25.5z"/>
			<path fill="#333333" d="M24.918,27.053c-0.857,0-1.556-0.693-1.556-1.553l0,0c0-0.855,0.697-1.556,1.556-1.556h12.475
				c0.857,0,1.555,0.697,1.555,1.556l0,0c0,0.856-0.694,1.553-1.555,1.553H24.918z"/>
		</g>
		<circle fill="#FFFFFF" cx="25.066" cy="25.291" r="1.323"/>
	</g>
</g>
</svg>
