<?xml version="1.0" encoding="utf-8"?>
<!-- Generator: Adobe Illustrator 14.0.0, SVG Export Plug-In . SVG Version: 6.00 Build 43363)  -->
<!DOCTYPE svg PUBLIC "-//W3C//DTD SVG 1.1//EN" "http://www.w3.org/Graphics/SVG/1.1/DTD/svg11.dtd">
<svg version="1.1" id="图层_1" xmlns="http://www.w3.org/2000/svg" xmlns:xlink="http://www.w3.org/1999/xlink" x="0px" y="0px"
	 width="79.348px" height="86.348px" viewBox="0 0 79.348 86.348" enable-background="new 0 0 79.348 86.348" xml:space="preserve">
<g>
	
		<linearGradient id="SVGID_1_" gradientUnits="userSpaceOnUse" x1="22.8748" y1="830.8684" x2="22.8748" y2="758.718" gradientTransform="matrix(1 0 0 1 16.7998 -755.6328)">
		<stop  offset="0" style="stop-color:#F5BB1F"/>
		<stop  offset="1" style="stop-color:#EC8F25"/>
	</linearGradient>
	<path fill="url(#SVGID_1_)" stroke="#E24926" d="M75.749,62.86c0,6.834-5.539,12.375-12.375,12.375H15.975
		C9.138,75.235,3.6,69.694,3.6,62.86v-47.4c0-6.835,5.538-12.375,12.375-12.375h47.399c6.836,0,12.375,5.54,12.375,12.375V62.86z"/>
	
		<linearGradient id="SVGID_2_" gradientUnits="userSpaceOnUse" x1="22.6033" y1="760.0442" x2="22.6033" y2="784.4231" gradientTransform="matrix(1 0 0 1 16.7998 -755.6328)">
		<stop  offset="0" style="stop-color:#FFFFFF"/>
		<stop  offset="1" style="stop-color:#040000"/>
	</linearGradient>
	<path fill="url(#SVGID_2_)" d="M73.931,28.79V16.785c0-6.833-5.539-12.374-12.371-12.374H17.249
		c-6.832,0-12.374,5.541-12.374,12.374V28.79H73.931z"/>
	
		<radialGradient id="SVGID_3_" cx="-6.6917" cy="765.9622" r="60.6589" gradientTransform="matrix(1 0 0 1 16.7998 -755.6328)" gradientUnits="userSpaceOnUse">
		<stop  offset="0" style="stop-color:#FFFFFF"/>
		<stop  offset="1" style="stop-color:#040000"/>
	</radialGradient>
	<path fill="url(#SVGID_3_)" d="M9.542,63.735V20.351c0-6.254,5.069-11.325,11.324-11.325h43.385c2.396,0,4.621,0.75,6.451,2.023
		c-2.043-2.942-5.445-4.873-9.303-4.873H18.018c-6.254,0-11.325,5.069-11.325,11.324v43.385c0,3.855,1.931,7.255,4.873,9.3
		C10.293,68.356,9.542,66.135,9.542,63.735z"/>
	
		<radialGradient id="SVGID_4_" cx="-1126.3381" cy="-846.9153" r="60.658" gradientTransform="matrix(-1 0 0 -1 -1055.8237 -778.0015)" gradientUnits="userSpaceOnUse">
		<stop  offset="0" style="stop-color:#FFFFFF"/>
		<stop  offset="1" style="stop-color:#040000"/>
	</radialGradient>
	<path fill="url(#SVGID_4_)" d="M71.085,15.507v43.386c0,6.254-5.072,11.323-11.324,11.323H16.375c-2.402,0-4.622-0.75-6.452-2.022
		c2.045,2.942,5.444,4.873,9.302,4.873h43.383c6.254,0,11.322-5.069,11.322-11.325V18.355c0-3.854-1.926-7.255-4.869-9.3
		C70.331,10.885,71.085,13.108,71.085,15.507z"/>
	<g>
		<g>
			<g>
				<path fill="#FFFFFF" d="M62.628,42.409h-4.002c-0.297-1.059-0.729-2.06-1.275-2.986l2.846-2.847
					c0.607-0.607,0.607-1.595,0-2.201l-2.529-2.531c-0.609-0.607-1.596-0.607-2.203,0l-2.904,2.904
					c-0.936-0.521-1.941-0.933-3.004-1.209v-4.128c0-0.859-0.697-1.559-1.559-1.559h-3.58c-0.859,0-1.559,0.697-1.559,1.559v4.172
					c-1.08,0.297-2.102,0.729-3.046,1.278L36.949,32c-0.606-0.607-1.594-0.607-2.201,0l-2.531,2.532
					c-0.606,0.607-0.606,1.594,0,2.201l2.888,2.888c-0.507,0.896-0.905,1.855-1.185,2.868h-4.136c-0.86,0-1.56,0.695-1.56,1.556
					v3.581c0,0.86,0.697,1.558,1.56,1.558h4.136c0.289,1.049,0.707,2.043,1.241,2.967l-3.022,3.021
					c-0.604,0.606-0.604,1.595,0,2.201l2.531,2.533c0.607,0.606,1.594,0.606,2.202,0l3.04-3.041c0.895,0.51,1.856,0.916,2.87,1.198
					v4.194c0,0.859,0.695,1.558,1.559,1.558h3.578c0.859,0,1.559-0.696,1.559-1.558v-4.106c1.09-0.276,2.125-0.694,3.082-1.229
					l2.982,2.984c0.605,0.606,1.594,0.606,2.203,0l2.529-2.533c0.607-0.606,0.607-1.595,0-2.201l-2.924-2.924
					c0.572-0.972,1.021-2.026,1.32-3.142h3.957c0.86,0,1.559-0.698,1.559-1.558v-3.582C64.187,43.106,63.489,42.409,62.628,42.409z
					 M46.284,51.24c-3.012,0-5.449-2.421-5.449-5.407c0-2.983,2.438-5.402,5.449-5.402c3.008,0,5.445,2.418,5.445,5.402
					C51.731,48.819,49.292,51.24,46.284,51.24z"/>
			</g>
			<g>
				<path fill="none" stroke="#E24926" stroke-width="0.6" d="M62.628,42.409h-4.002c-0.297-1.059-0.729-2.06-1.275-2.986
					l2.846-2.847c0.607-0.607,0.607-1.595,0-2.201l-2.529-2.531c-0.609-0.607-1.596-0.607-2.203,0l-2.904,2.904
					c-0.936-0.521-1.941-0.933-3.004-1.209v-4.128c0-0.859-0.697-1.559-1.559-1.559h-3.58c-0.859,0-1.559,0.697-1.559,1.559v4.172
					c-1.08,0.297-2.102,0.729-3.046,1.278L36.949,32c-0.606-0.607-1.594-0.607-2.201,0l-2.531,2.532
					c-0.606,0.607-0.606,1.594,0,2.201l2.888,2.888c-0.507,0.896-0.905,1.855-1.185,2.868h-4.136c-0.86,0-1.56,0.695-1.56,1.556
					v3.581c0,0.86,0.697,1.558,1.56,1.558h4.136c0.289,1.049,0.707,2.043,1.241,2.967l-3.022,3.021
					c-0.604,0.606-0.604,1.595,0,2.201l2.531,2.533c0.607,0.606,1.594,0.606,2.202,0l3.04-3.041c0.895,0.51,1.856,0.916,2.87,1.198
					v4.194c0,0.859,0.695,1.558,1.559,1.558h3.578c0.859,0,1.559-0.696,1.559-1.558v-4.106c1.09-0.276,2.125-0.694,3.082-1.229
					l2.982,2.984c0.605,0.606,1.594,0.606,2.203,0l2.529-2.533c0.607-0.606,0.607-1.595,0-2.201l-2.924-2.924
					c0.572-0.972,1.021-2.026,1.32-3.142h3.957c0.86,0,1.559-0.698,1.559-1.558v-3.582C64.187,43.106,63.489,42.409,62.628,42.409z
					 M46.284,51.24c-3.012,0-5.449-2.421-5.449-5.407c0-2.983,2.438-5.402,5.449-5.402c3.008,0,5.445,2.418,5.445,5.402
					C51.731,48.819,49.292,51.24,46.284,51.24z"/>
			</g>
		</g>
		<g>
			<g>
				<path fill="#FFFFFF" stroke="#E24926" stroke-width="0.6" d="M43.081,29.385c0-0.493,0.281-0.886,0.494-1.065
					c0.311-0.262,0.74-0.247,1.48-0.247c0.742,0,2.287,0,2.781,0c0.604,0,1.063,0.139,1.283,0.557
					c0.105,0.208,0.17,0.31,0.184,0.927c0.012,0.493,0.016,1.606,0.016,1.606s-0.104-0.722-0.287-1.523
					c-0.186-0.804-0.246-1.093-0.74-1.154c-0.496-0.063-3.459-0.021-4.078,0.042c-0.617,0.063-0.771,0.661-0.824,1.153
					c-0.076,0.74-0.309,1.482-0.309,1.482V29.385z"/>
				<path fill="#FFFFFF" stroke="#E24926" stroke-width="0.6" d="M32.396,36.475c-0.348-0.352-0.424-0.829-0.398-1.104
					c0.03-0.405,0.351-0.699,0.875-1.223s1.62-1.613,1.97-1.962c0.428-0.425,0.854-0.653,1.301-0.512
					c0.228,0.072,0.339,0.1,0.786,0.526c0.357,0.34,1.146,1.127,1.146,1.127s-0.656-0.534-1.355-0.973
					c-0.696-0.438-0.965-0.265-1.359,0.041c-0.394,0.306-2.444,2.279-2.841,2.761c-0.396,0.48,0.062,1.18,0.37,1.564
					c0.469,0.581,0.763,1.009,0.763,1.009L32.396,36.475z"/>
				<path opacity="0.44" fill="#FFFFFF" stroke="#E24926" stroke-width="0.6" enable-background="new    " d="M29.839,48.929
					c-0.495,0.01-0.896-0.269-1.075-0.474c-0.269-0.306-0.261-0.738-0.271-1.479c-0.017-0.74-0.045-2.285-0.054-2.777
					c-0.011-0.604,0.119-1.068,0.532-1.292c0.207-0.113,0.306-0.178,0.922-0.203c0.495-0.021,1.607-0.044,1.607-0.044
					s-1.049,0.065-1.852,0.266c-0.799,0.2-0.854,0.465-0.906,0.959c-0.055,0.495-0.02,3.307,0.056,3.924
					c0.074,0.616,0.621,0.862,1.114,0.905c0.741,0.063,1.703,0.185,1.703,0.185L29.839,48.929z"/>
				<path fill="#FFFFFF" stroke="#E24926" stroke-width="0.6" d="M55.62,32.031c0.346-0.354,0.82-0.438,1.1-0.419
					c0.402,0.028,0.701,0.342,1.232,0.859c0.531,0.516,1.639,1.595,1.99,1.939c0.434,0.421,0.666,0.842,0.529,1.293
					c-0.064,0.225-0.092,0.34-0.514,0.793c-0.336,0.361-1.109,1.16-1.109,1.16s0.699-0.784,1.127-1.488
					c0.426-0.706,0.283-0.933-0.025-1.32c-0.313-0.391-2.313-2.362-2.801-2.75c-0.482-0.388-1.049-0.179-1.43,0.138
					c-0.572,0.479-1.342,1.065-1.342,1.065L55.62,32.031z"/>
				<path fill="#FFFFFF" stroke="#E24926" stroke-width="0.6" d="M35.193,39.771c0,0-0.729,0.938-1.028,2.72l0.423-0.051
					c0,0,0.237-1.433,0.926-2.349L35.193,39.771z"/>
				<path fill="#FFFFFF" stroke="#E24926" stroke-width="0.6" d="M42.739,33.757c0,0-1.66,0.455-2.757,1.288l0.318,0.287
					c0,0,1.359-0.929,2.438-1.143L42.739,33.757L42.739,33.757z"/>
				<path fill="#FFFFFF" stroke="#E24926" stroke-width="0.6" d="M52.442,34.899c0,0-1.357-0.987-2.813-1.081v0.372
					c0,0,1.648,0.315,2.473,1.019L52.442,34.899z"/>
				<path fill="#FFFFFF" stroke="#E24926" stroke-width="0.6" d="M40.95,47.813c0,0,1.107,3.582,5.375,3.646
					c3.553,0.053,5.344-2.996,5.527-4.851c0,0-0.217,5.16-5.561,5.19C41.876,51.825,40.95,47.813,40.95,47.813z"/>
			</g>
			<g>
				<path fill="#FFFFFF" stroke="#E24926" stroke-width="0.6" d="M49.261,62.349c0,0.493-0.285,0.889-0.496,1.065
					c-0.309,0.262-0.74,0.248-1.48,0.248s-2.285,0-2.779,0c-0.604,0-1.066-0.142-1.283-0.56c-0.106-0.207-0.17-0.308-0.186-0.927
					c-0.014-0.493-0.018-1.604-0.018-1.604s0.031,0.862,0.217,1.668c0.186,0.803,0.525,0.803,1.021,0.862
					c0.494,0.063,3.305,0.095,3.924,0.03c0.619-0.061,0.875-0.59,0.926-1.082c0.078-0.739,0.156-1.479,0.156-1.479L49.261,62.349
					L49.261,62.349z"/>
				<path fill="#FFFFFF" stroke="#E24926" stroke-width="0.6" d="M60.159,55.284c0.354,0.346,0.438,0.823,0.418,1.1
					c-0.025,0.404-0.34,0.703-0.857,1.234c-0.516,0.528-1.594,1.639-1.938,1.991c-0.422,0.435-0.846,0.668-1.295,0.531
					c-0.225-0.067-0.34-0.095-0.793-0.515c-0.361-0.336-1.16-1.108-1.16-1.108s0.641,0.582,1.346,1.008
					c0.705,0.431,0.939,0.187,1.33-0.125c0.389-0.313,2.373-2.308,2.76-2.791c0.387-0.485,0.188-1.039-0.129-1.42
					c-0.479-0.571-0.953-1.146-0.953-1.146L60.159,55.284z"/>
			</g>
		</g>
	</g>
</g>
</svg>
