<?xml version="1.0" encoding="utf-8"?>
<!-- Generator: Adobe Illustrator 14.0.0, SVG Export Plug-In . SVG Version: 6.00 Build 43363)  -->
<!DOCTYPE svg PUBLIC "-//W3C//DTD SVG 1.1//EN" "http://www.w3.org/Graphics/SVG/1.1/DTD/svg11.dtd">
<svg version="1.1" id="图层_1" xmlns="http://www.w3.org/2000/svg" xmlns:xlink="http://www.w3.org/1999/xlink" x="0px" y="0px"
	 width="35.333px" height="52px" viewBox="0 0 35.333 52" enable-background="new 0 0 35.333 52" xml:space="preserve">
<g>
	<path opacity="0.25" fill="#38424E" enable-background="new    " d="M18.528,14.64h2.133c2.337,0,4.229-1.896,4.229-4.229V8.276
		c0-2.336-1.896-4.229-4.229-4.229h-2.133c-2.333,0-4.227,1.896-4.227,4.229v2.134C14.301,12.746,16.195,14.64,18.528,14.64z
		 M20.818,16.912v-0.054h-2.053h-1.15H9.24L7.793,9.157C7.572,7.976,6.481,7.194,5.356,7.403C4.23,7.616,3.496,8.742,3.719,9.922
		l1.402,7.47c0.476,4.741,3.349,8.776,7.402,10.848c-0.07,0.285-0.119,0.576-0.119,0.883v17.01c0,2.021,1.635,3.651,3.654,3.651
		h7.505c2.018,0,3.654-1.634,3.654-3.651v-16.4h6.266C33.069,22.884,27.641,17.405,20.818,16.912z"/>
	<g>
		<path fill="#38424E" d="M16.698,12.808h2.132c2.336,0,4.23-1.895,4.23-4.229V6.446c0-2.336-1.896-4.229-4.23-4.229h-2.132
			c-2.334,0-4.227,1.894-4.227,4.229v2.133C12.471,10.915,14.364,12.808,16.698,12.808z M18.987,15.082v-0.054h-2.05h-1.152H7.411
			L5.963,7.327C5.742,6.144,4.65,5.362,3.526,5.573c-1.127,0.213-1.858,1.34-1.638,2.519L3.29,15.56
			c0.475,4.742,3.349,8.776,7.405,10.85c-0.071,0.283-0.12,0.576-0.12,0.881V44.3c0,2.021,1.635,3.652,3.654,3.652h7.504
			c2.018,0,3.652-1.633,3.652-3.652V27.901h6.268C31.239,21.052,25.812,15.574,18.987,15.082z"/>
		<path fill="#38424E" d="M30.612,35.492c0,1.046-0.849,1.894-1.894,1.894l0,0c-1.048,0-1.896-0.848-1.896-1.894V24.897
			c0-1.045,0.848-1.896,1.896-1.896l0,0c1.045,0,1.894,0.851,1.894,1.896V35.492z"/>
	</g>
</g>
</svg>
