<?xml version="1.0" encoding="utf-8"?>
<!-- Generator: Adobe Illustrator 14.0.0, SVG Export Plug-In . SVG Version: 6.00 Build 43363)  -->
<!DOCTYPE svg PUBLIC "-//W3C//DTD SVG 1.1//EN" "http://www.w3.org/Graphics/SVG/1.1/DTD/svg11.dtd">
<svg version="1.1" id="图层_1" xmlns="http://www.w3.org/2000/svg" xmlns:xlink="http://www.w3.org/1999/xlink" x="0px" y="0px"
	 width="62px" height="49.75px" viewBox="0 0 62 49.75" enable-background="new 0 0 62 49.75" xml:space="preserve">
<g>
	
		<radialGradient id="SVGID_1_" cx="711.3884" cy="-617.5298" r="59.5649" gradientTransform="matrix(1.0872 0 0 -1.4961 -741.8244 -979.6498)" gradientUnits="userSpaceOnUse">
		<stop  offset="0" style="stop-color:#FFFFFF"/>
		<stop  offset="0.1541" style="stop-color:#FBFBFB"/>
		<stop  offset="0.3547" style="stop-color:#EDECEC"/>
		<stop  offset="0.5812" style="stop-color:#D5D3D3"/>
		<stop  offset="0.8246" style="stop-color:#B5B3B3"/>
		<stop  offset="1" style="stop-color:#999999"/>
	</radialGradient>
	<path fill="url(#SVGID_1_)" d="M49.367,5.53H22.738c0,0,0-1.719,0-2.644s-0.959-1.321-1.919-1.321c-0.959,0-10.248,0-10.248,0
		c-6.419,0-8.696,7.475-8.696,14.083v20.198c0,6.609,3.894,11.969,8.696,11.969h35.605c4.805,0,8.696-5.357,8.696-11.969V17.82
		C54.875,10.146,54.406,6.479,49.367,5.53z"/>
	
		<radialGradient id="SVGID_2_" cx="769.0154" cy="-941.1533" r="142.2951" gradientTransform="matrix(0.9593 0 0 -1.0571 -712.8234 -1011.1672)" gradientUnits="userSpaceOnUse">
		<stop  offset="0" style="stop-color:#FFFFFF"/>
		<stop  offset="0.1541" style="stop-color:#FBFBFB"/>
		<stop  offset="0.3547" style="stop-color:#EDECEC"/>
		<stop  offset="0.5812" style="stop-color:#D5D3D3"/>
		<stop  offset="0.8246" style="stop-color:#B5B3B3"/>
		<stop  offset="1" style="stop-color:#999999"/>
	</radialGradient>
	<path fill="url(#SVGID_2_)" d="M46.177,46.761H10.571c-4.268,0-7.739-4.896-7.739-10.913V15.648c0-2.176,0.373-13.024,7.739-13.024
		h10.247c0.604,0,0.923,0.201,0.965,0.271L21.78,5.534v1.059h0.958h26.536c4.027,0.783,4.641,3.253,4.641,11.23v18.027
		C53.914,41.864,50.444,46.761,46.177,46.761L46.177,46.761z"/>
	
		<radialGradient id="SVGID_3_" cx="754.6423" cy="-946.7764" r="146.0201" gradientTransform="matrix(1 0 0 -1 -722.894 -1014.7041)" gradientUnits="userSpaceOnUse">
		<stop  offset="0" style="stop-color:#E8F1D5"/>
		<stop  offset="0.118" style="stop-color:#E8F1D5"/>
		<stop  offset="0.1654" style="stop-color:#E4EFCF"/>
		<stop  offset="0.23" style="stop-color:#DAE8C0"/>
		<stop  offset="0.3043" style="stop-color:#CADBA5"/>
		<stop  offset="0.386" style="stop-color:#B3CA81"/>
		<stop  offset="0.4726" style="stop-color:#94B557"/>
		<stop  offset="0.5562" style="stop-color:#6DA130"/>
		<stop  offset="0.6288" style="stop-color:#629231"/>
		<stop  offset="0.7744" style="stop-color:#496C2F"/>
		<stop  offset="0.8315" style="stop-color:#3E5D2D"/>
		<stop  offset="1" style="stop-color:#3E5D2D"/>
	</radialGradient>
	<path fill="url(#SVGID_3_)" d="M61,41.351c0,3.775-3.375,6.834-7.537,6.834H11.536C7.375,48.185,4,45.126,4,41.351V24.816
		c0-3.772,3.375-8,7.536-8h27.089c0,0-0.073-3.815,1.375-5.25c1.447-1.432,3-1.5,6.75-1.5s6.713,0,6.713,0
		c4.162,0,7.537,2.312,7.537,6.084V41.351z"/>
	
		<radialGradient id="SVGID_4_" cx="747.8923" cy="-981.9678" r="119.1365" gradientTransform="matrix(1 0 0 -1 -722.894 -1014.7041)" gradientUnits="userSpaceOnUse">
		<stop  offset="0" style="stop-color:#E8F1D5"/>
		<stop  offset="0.118" style="stop-color:#E8F1D5"/>
		<stop  offset="0.1654" style="stop-color:#E4EFCF"/>
		<stop  offset="0.23" style="stop-color:#DAE8C0"/>
		<stop  offset="0.3043" style="stop-color:#CADBA5"/>
		<stop  offset="0.386" style="stop-color:#B3CA81"/>
		<stop  offset="0.4726" style="stop-color:#94B557"/>
		<stop  offset="0.5562" style="stop-color:#6DA130"/>
		<stop  offset="0.6288" style="stop-color:#629231"/>
		<stop  offset="0.7744" style="stop-color:#496C2F"/>
		<stop  offset="0.8315" style="stop-color:#3E5D2D"/>
		<stop  offset="1" style="stop-color:#3E5D2D"/>
	</radialGradient>
	<path fill="url(#SVGID_4_)" d="M53.462,47.185H11.536c-3.604,0-6.535-2.617-6.535-5.832V24.816c0-3.172,2.914-7,6.535-7h27.339
		h0.406l0.291-0.285c0,0,0.014-4.026,1.256-5.271c1.244-1.244,2.814-1.193,5.923-1.193h6.711c3.604,0,6.539,1.867,6.539,5.084
		v25.202C60.001,44.567,57.065,47.185,53.462,47.185L53.462,47.185z"/>
</g>
</svg>
