<?xml version="1.0" encoding="utf-8"?>
<!-- Generator: Adobe Illustrator 14.0.0, SVG Export Plug-In . SVG Version: 6.00 Build 43363)  -->
<!DOCTYPE svg PUBLIC "-//W3C//DTD SVG 1.1//EN" "http://www.w3.org/Graphics/SVG/1.1/DTD/svg11.dtd">
<svg version="1.1" id="图层_1" xmlns="http://www.w3.org/2000/svg" xmlns:xlink="http://www.w3.org/1999/xlink" x="0px" y="0px"
	 width="47.849px" height="58.333px" viewBox="0 0 47.849 58.333" enable-background="new 0 0 47.849 58.333" xml:space="preserve">
<g>
	
		<radialGradient id="SVGID_1_" cx="747.2788" cy="-961.4253" r="85.5917" gradientTransform="matrix(1 0 0 -1 -722.894 -1006.1211)" gradientUnits="userSpaceOnUse">
		<stop  offset="0" style="stop-color:#E8F1D5"/>
		<stop  offset="0.118" style="stop-color:#E8F1D5"/>
		<stop  offset="0.1654" style="stop-color:#E4EFCF"/>
		<stop  offset="0.23" style="stop-color:#DAE8C0"/>
		<stop  offset="0.3043" style="stop-color:#CADBA5"/>
		<stop  offset="0.386" style="stop-color:#B3CA81"/>
		<stop  offset="0.4726" style="stop-color:#94B557"/>
		<stop  offset="0.5562" style="stop-color:#6DA130"/>
		<stop  offset="0.6288" style="stop-color:#629231"/>
		<stop  offset="0.7744" style="stop-color:#496C2F"/>
		<stop  offset="0.8315" style="stop-color:#3E5D2D"/>
		<stop  offset="1" style="stop-color:#3E5D2D"/>
	</radialGradient>
	<path fill="url(#SVGID_1_)" d="M45.735,45.459c0,6.137-5.283,11.107-11.798,11.107H14.278c-6.517,0-11.797-4.975-11.797-11.107
		V12.875c0-6.134,5.282-11.109,11.797-11.109h19.659c6.515,0,11.798,4.978,11.798,11.109V45.459z"/>
	<path fill="#FFFFFF" d="M44.636,44.645c0,5.875-4.992,10.646-11.148,10.646H14.91c-6.158,0-11.148-4.771-11.148-10.646V13.43
		C3.761,7.551,8.44,3.1,14.597,3.1h18.578c6.155,0,11.461,4.451,11.461,10.33V44.645z"/>
	
		<radialGradient id="SVGID_2_" cx="747.9927" cy="-935.6792" r="133.4956" gradientTransform="matrix(1.0044 0 0 -1 -723.7857 -1006.1211)" gradientUnits="userSpaceOnUse">
		<stop  offset="0" style="stop-color:#E8F1D5"/>
		<stop  offset="0.118" style="stop-color:#E8F1D5"/>
		<stop  offset="0.1654" style="stop-color:#E4EFCF"/>
		<stop  offset="0.23" style="stop-color:#DAE8C0"/>
		<stop  offset="0.3043" style="stop-color:#CADBA5"/>
		<stop  offset="0.386" style="stop-color:#B3CA81"/>
		<stop  offset="0.4726" style="stop-color:#94B557"/>
		<stop  offset="0.5562" style="stop-color:#6DA130"/>
		<stop  offset="0.6288" style="stop-color:#629231"/>
		<stop  offset="0.7744" style="stop-color:#496C2F"/>
		<stop  offset="0.8315" style="stop-color:#3E5D2D"/>
		<stop  offset="1" style="stop-color:#3E5D2D"/>
	</radialGradient>
	<path fill="url(#SVGID_2_)" d="M45.277,45.692c0,5.756-5.158,10.42-11.521,10.42H14.55c-6.363,0-11.521-4.664-11.521-10.42v-30.57
		c0-3.579,0.421-5.865,1.475-7.671c1.961-3.358,5.153-4.399,5.153-4.397c0,0-0.733,0.551-0.183,1.19
		c0.468,0.544,1.843,0.457,5.078,0.457h19.203c6.363,0,11.521,4.667,11.521,10.421V45.692z"/>
	
		<radialGradient id="SVGID_3_" cx="748.9155" cy="-996.895" r="99.9208" gradientTransform="matrix(0.9956 0 0 -1 -721.7905 -1006.1211)" gradientUnits="userSpaceOnUse">
		<stop  offset="0" style="stop-color:#E8F1D5"/>
		<stop  offset="0.118" style="stop-color:#E8F1D5"/>
		<stop  offset="0.1654" style="stop-color:#E4EFCF"/>
		<stop  offset="0.23" style="stop-color:#DAE8C0"/>
		<stop  offset="0.3043" style="stop-color:#CADBA5"/>
		<stop  offset="0.386" style="stop-color:#B3CA81"/>
		<stop  offset="0.4726" style="stop-color:#94B557"/>
		<stop  offset="0.5562" style="stop-color:#6DA130"/>
		<stop  offset="0.6288" style="stop-color:#629231"/>
		<stop  offset="0.7744" style="stop-color:#496C2F"/>
		<stop  offset="0.8315" style="stop-color:#3E5D2D"/>
		<stop  offset="1" style="stop-color:#3E5D2D"/>
	</radialGradient>
	<path fill="url(#SVGID_3_)" d="M44.909,45.692c0,5.756-5.112,10.42-11.424,10.42H14.45c-6.308,0-11.421-4.664-11.421-10.42v-30.57
		c0-3.579,0.418-5.865,1.461-7.671c1.943-3.358,5.107-4.399,5.107-4.397c0,0-1.185,0.641-0.638,1.281
		c0.464,0.544,1.658,1.422,2.874,1.422c1.215,0,21.242-0.064,21.242-0.064c6.311,0,11.833,4.252,11.833,10.006V45.692z"/>
	
		<radialGradient id="SVGID_4_" cx="764.4116" cy="-993.5435" r="121.1892" gradientTransform="matrix(0.9738 0 0 -0.9706 -716.1404 -1005.9249)" gradientUnits="userSpaceOnUse">
		<stop  offset="0" style="stop-color:#E8F1D5"/>
		<stop  offset="0.118" style="stop-color:#E8F1D5"/>
		<stop  offset="0.1654" style="stop-color:#E4EFCF"/>
		<stop  offset="0.23" style="stop-color:#DAE8C0"/>
		<stop  offset="0.3043" style="stop-color:#CADBA5"/>
		<stop  offset="0.386" style="stop-color:#B3CA81"/>
		<stop  offset="0.4726" style="stop-color:#94B557"/>
		<stop  offset="0.5562" style="stop-color:#6DA130"/>
		<stop  offset="0.6288" style="stop-color:#629231"/>
		<stop  offset="0.7744" style="stop-color:#496C2F"/>
		<stop  offset="0.8315" style="stop-color:#3E5D2D"/>
		<stop  offset="1" style="stop-color:#3E5D2D"/>
	</radialGradient>
	<path fill="url(#SVGID_4_)" d="M43.993,45.358c0,5.586-5.004,10.113-11.176,10.113H14.201c-6.17,0-11.173-4.527-11.173-10.113
		V15.686c0-3.475,0.409-5.691,1.43-7.447c1.9-3.258,3.705-3.996,3.705-3.994c0,0,0.134,0.352,0.668,0.975
		c0.454,0.527,1.622,1.377,2.812,1.377s20.779-0.062,20.779-0.062c6.17,0,11.572,4.128,11.572,9.713L43.993,45.358L43.993,45.358z"
		/>
	
		<radialGradient id="SVGID_5_" cx="792.6313" cy="-973.9063" r="160.9315" gradientTransform="matrix(0.9738 0 0 -0.9706 -716.1404 -1005.9249)" gradientUnits="userSpaceOnUse">
		<stop  offset="0" style="stop-color:#E8F1D5"/>
		<stop  offset="0.118" style="stop-color:#E8F1D5"/>
		<stop  offset="0.1654" style="stop-color:#E4EFCF"/>
		<stop  offset="0.23" style="stop-color:#DAE8C0"/>
		<stop  offset="0.3043" style="stop-color:#CADBA5"/>
		<stop  offset="0.386" style="stop-color:#B3CA81"/>
		<stop  offset="0.4726" style="stop-color:#94B557"/>
		<stop  offset="0.5562" style="stop-color:#6DA130"/>
		<stop  offset="0.6288" style="stop-color:#629231"/>
		<stop  offset="0.7744" style="stop-color:#496C2F"/>
		<stop  offset="0.8315" style="stop-color:#3E5D2D"/>
		<stop  offset="1" style="stop-color:#3E5D2D"/>
	</radialGradient>
	<path fill="url(#SVGID_5_)" d="M4.75,7.78C4.652,7.936,4.556,8.071,4.458,8.239c-1.021,1.755-1.43,3.974-1.43,7.447v29.672
		c0,5.584,5.003,10.113,11.173,10.113h18.616c6.172,0,11.176-4.529,11.176-10.113v-5.486c-2.134-0.2-4.294-0.525-6.469-0.999
		C18.658,34.766,5.167,21.505,4.75,7.78z"/>
	
		<radialGradient id="SVGID_6_" cx="811.8286" cy="-984.8154" r="161.4706" gradientTransform="matrix(0.9738 0 0 -0.9706 -716.1404 -1005.9249)" gradientUnits="userSpaceOnUse">
		<stop  offset="0" style="stop-color:#E8F1D5"/>
		<stop  offset="0.118" style="stop-color:#E8F1D5"/>
		<stop  offset="0.1654" style="stop-color:#E4EFCF"/>
		<stop  offset="0.23" style="stop-color:#DAE8C0"/>
		<stop  offset="0.3043" style="stop-color:#CADBA5"/>
		<stop  offset="0.386" style="stop-color:#B3CA81"/>
		<stop  offset="0.4726" style="stop-color:#94B557"/>
		<stop  offset="0.5562" style="stop-color:#6DA130"/>
		<stop  offset="0.6288" style="stop-color:#629231"/>
		<stop  offset="0.7744" style="stop-color:#496C2F"/>
		<stop  offset="0.8315" style="stop-color:#3E5D2D"/>
		<stop  offset="1" style="stop-color:#3E5D2D"/>
	</radialGradient>
	<path fill="url(#SVGID_6_)" d="M32.419,6.533c0,0-19.588,0.062-20.779,0.062c-1.188,0-2.355-0.85-2.811-1.378
		C8.294,4.594,8.162,4.243,8.162,4.243c0-0.002-1.623,0.689-3.413,3.537c0.417,13.727,13.909,26.984,32.775,31.092
		c2.175,0.473,4.335,0.799,6.469,0.999V16.246C43.993,10.661,38.589,6.533,32.419,6.533z"/>
	
		<linearGradient id="SVGID_7_" gradientUnits="userSpaceOnUse" x1="763.9077" y1="-1036.6597" x2="725.051" y2="-1034.4603" gradientTransform="matrix(1 0 0 -1 -722.894 -1006.1211)">
		<stop  offset="0" style="stop-color:#FFFFFF"/>
		<stop  offset="1" style="stop-color:#000000"/>
	</linearGradient>
	<path fill="url(#SVGID_7_)" d="M13.66,4.7c0,0.001-0.273,1.01-0.273,1.01S11.093,5.708,10.452,5.8
		c-1.138,0.162-3.207,1.833-3.207,5.315c0,3.48,0,34.549,0,37.572c0,3.022,1.74,5.313,2.291,6.049
		c0.55,0.73,1.009,1.373,1.009,1.373S6.3,55.432,3.855,51.256c-1.559-2.658-1.741-4.768-1.741-7.423c0-2.66,0-28.138,0-31.438
		c0-3.297,1.923-6.229,4.489-8.338c2.568-2.106,5.775-2.291,6.232-2.291c0.459,0,2.109,0,2.109,0l-0.322,0.961
		c0,0-1.792-0.049-2.52,0.045c-2.109,0.277-3.094,1.396-1.649,1.651C11.735,4.655,13.66,4.7,13.66,4.7z"/>
	
		<radialGradient id="SVGID_8_" cx="707.1382" cy="-975.4224" r="40.3444" gradientTransform="matrix(1 0 0 -1 -722.894 -1006.1211)" gradientUnits="userSpaceOnUse">
		<stop  offset="0" style="stop-color:#FFFFFF"/>
		<stop  offset="1" style="stop-color:#000000"/>
	</radialGradient>
	<path fill="url(#SVGID_8_)" d="M4.614,50.809c-1.502-2.563-1.623-4.59-1.623-6.977V12.397c0-3.685,2.612-6.379,4.171-7.658
		c0.582-0.477,1.202-0.848,1.811-1.131c-0.07,0.177-0.103,0.356-0.09,0.539C8.89,4.293,8.97,4.86,9.591,5.141
		C8.071,5.792,6.367,7.79,6.367,11.118V48.69c0,2.399,1.578,4.666,2.346,5.867C8.712,54.557,5.611,52.512,4.614,50.809z"/>
</g>
</svg>
