<?xml version="1.0" encoding="utf-8"?>
<!-- Generator: Adobe Illustrator 14.0.0, SVG Export Plug-In . SVG Version: 6.00 Build 43363)  -->
<!DOCTYPE svg PUBLIC "-//W3C//DTD SVG 1.1//EN" "http://www.w3.org/Graphics/SVG/1.1/DTD/svg11.dtd">
<svg version="1.1" id="图层_1" xmlns="http://www.w3.org/2000/svg" xmlns:xlink="http://www.w3.org/1999/xlink" x="0px" y="0px"
	 width="79.348px" height="86.348px" viewBox="0 0 79.348 86.348" enable-background="new 0 0 79.348 86.348" xml:space="preserve">
<g>
	
		<linearGradient id="SVGID_1_" gradientUnits="userSpaceOnUse" x1="22.8748" y1="831.5725" x2="22.8748" y2="759.4231" gradientTransform="matrix(1 0 0 1 16.7998 -755.6328)">
		<stop  offset="0" style="stop-color:#F5BB1F"/>
		<stop  offset="1" style="stop-color:#EC8F25"/>
	</linearGradient>
	<path fill="url(#SVGID_1_)" stroke="#E24926" d="M75.749,63.564c0,6.834-5.539,12.375-12.375,12.375H15.975
		C9.138,75.939,3.6,70.398,3.6,63.564V16.164c0-6.835,5.538-12.375,12.375-12.375h47.399c6.836,0,12.375,5.54,12.375,12.375V63.564z
		"/>
	
		<linearGradient id="SVGID_2_" gradientUnits="userSpaceOnUse" x1="22.6033" y1="760.7493" x2="22.6033" y2="785.1272" gradientTransform="matrix(1 0 0 1 16.7998 -755.6328)">
		<stop  offset="0" style="stop-color:#FFFFFF"/>
		<stop  offset="1" style="stop-color:#040000"/>
	</linearGradient>
	<path fill="url(#SVGID_2_)" d="M73.931,29.494V17.49c0-6.833-5.539-12.374-12.371-12.374H17.249
		c-6.832,0-12.374,5.541-12.374,12.374v12.004H73.931z"/>
	
		<radialGradient id="SVGID_3_" cx="-6.6917" cy="766.6663" r="60.6593" gradientTransform="matrix(1 0 0 1 16.7998 -755.6328)" gradientUnits="userSpaceOnUse">
		<stop  offset="0" style="stop-color:#FFFFFF"/>
		<stop  offset="1" style="stop-color:#040000"/>
	</radialGradient>
	<path fill="url(#SVGID_3_)" d="M9.542,64.44V21.056c0-6.255,5.069-11.325,11.324-11.325h43.385c2.396,0,4.621,0.75,6.451,2.023
		c-2.043-2.942-5.445-4.873-9.303-4.873H18.018c-6.254,0-11.325,5.069-11.325,11.324V61.59c0,3.854,1.931,7.256,4.873,9.301
		C10.293,69.061,9.542,66.84,9.542,64.44z"/>
	
		<radialGradient id="SVGID_4_" cx="-1126.3381" cy="-847.6194" r="60.6576" gradientTransform="matrix(-1 0 0 -1 -1055.8237 -778.0015)" gradientUnits="userSpaceOnUse">
		<stop  offset="0" style="stop-color:#FFFFFF"/>
		<stop  offset="1" style="stop-color:#040000"/>
	</radialGradient>
	<path fill="url(#SVGID_4_)" d="M71.085,16.211v43.384c0,6.255-5.072,11.325-11.324,11.325H16.375c-2.402,0-4.622-0.751-6.452-2.023
		c2.045,2.942,5.444,4.873,9.302,4.873h43.383c6.254,0,11.322-5.069,11.322-11.325V19.06c0-3.854-1.926-7.255-4.869-9.301
		C70.331,11.591,71.085,13.813,71.085,16.211z"/>
	<g>
		<g>
			<g>
				<path fill="#FFFFFF" d="M50.618,41.434h-2.678c-0.197-0.707-0.484-1.377-0.852-1.997l1.902-1.902
					c0.404-0.406,0.404-1.066,0-1.473L47.3,34.369c-0.406-0.407-1.066-0.407-1.473,0l-1.941,1.941
					c-0.627-0.35-1.301-0.623-2.01-0.809v-2.761c0-0.575-0.467-1.042-1.041-1.042H38.44c-0.573,0-1.041,0.467-1.041,1.042v2.79
					c-0.722,0.198-1.403,0.487-2.037,0.854l-1.915-1.914c-0.404-0.407-1.063-0.407-1.472,0l-1.691,1.692
					c-0.405,0.406-0.405,1.065,0,1.473l1.932,1.931c-0.339,0.599-0.607,1.241-0.792,1.917h-2.768c-0.574,0-1.042,0.467-1.042,1.04
					v2.396c0,0.575,0.468,1.041,1.042,1.041h2.768c0.19,0.702,0.473,1.366,0.829,1.982l-2.021,2.021
					c-0.404,0.406-0.404,1.063,0,1.473l1.692,1.692c0.407,0.406,1.063,0.406,1.473,0l2.033-2.032
					c0.598,0.341,1.241,0.611,1.919,0.802v2.808c0,0.574,0.466,1.04,1.041,1.04h2.396c0.574,0,1.04-0.466,1.04-1.04v-2.748
					c0.729-0.187,1.423-0.465,2.063-0.821l1.994,1.994c0.406,0.406,1.063,0.406,1.473,0l1.693-1.692
					c0.406-0.406,0.406-1.064,0-1.473l-1.955-1.954c0.383-0.65,0.682-1.354,0.883-2.103h2.646c0.574,0,1.043-0.468,1.043-1.041
					v-2.396C51.661,41.9,51.194,41.434,50.618,41.434z M39.689,47.338c-2.012,0-3.643-1.616-3.643-3.614
					c0-1.996,1.631-3.613,3.643-3.613c2.015,0,3.646,1.617,3.646,3.613C43.333,45.721,41.702,47.338,39.689,47.338z"/>
			</g>
			<g>
				<path fill="none" stroke="#E24926" stroke-width="0.6" d="M50.618,41.434h-2.678c-0.197-0.707-0.484-1.377-0.852-1.997
					l1.902-1.902c0.404-0.406,0.404-1.066,0-1.473L47.3,34.369c-0.406-0.407-1.066-0.407-1.473,0l-1.941,1.941
					c-0.627-0.35-1.301-0.623-2.01-0.809v-2.761c0-0.575-0.467-1.042-1.041-1.042H38.44c-0.573,0-1.041,0.467-1.041,1.042v2.79
					c-0.722,0.198-1.403,0.487-2.037,0.854l-1.915-1.914c-0.404-0.407-1.063-0.407-1.472,0l-1.691,1.692
					c-0.405,0.406-0.405,1.065,0,1.473l1.932,1.931c-0.339,0.599-0.607,1.241-0.792,1.917h-2.768c-0.574,0-1.042,0.467-1.042,1.04
					v2.396c0,0.575,0.468,1.041,1.042,1.041h2.768c0.19,0.702,0.473,1.366,0.829,1.982l-2.021,2.021
					c-0.404,0.406-0.404,1.063,0,1.473l1.692,1.692c0.407,0.406,1.063,0.406,1.473,0l2.033-2.032
					c0.598,0.341,1.241,0.611,1.919,0.802v2.808c0,0.574,0.466,1.04,1.041,1.04h2.396c0.574,0,1.04-0.466,1.04-1.04v-2.748
					c0.729-0.187,1.423-0.465,2.063-0.821l1.994,1.994c0.406,0.406,1.063,0.406,1.473,0l1.693-1.692
					c0.406-0.406,0.406-1.064,0-1.473l-1.955-1.954c0.383-0.65,0.682-1.354,0.883-2.103h2.646c0.574,0,1.043-0.468,1.043-1.041
					v-2.396C51.661,41.9,51.194,41.434,50.618,41.434z M39.689,47.338c-2.012,0-3.643-1.616-3.643-3.614
					c0-1.996,1.631-3.613,3.643-3.613c2.015,0,3.646,1.617,3.646,3.613C43.333,45.721,41.702,47.338,39.689,47.338z"/>
			</g>
		</g>
		<g>
			<g>
				<path fill="#FFFFFF" stroke="#E24926" stroke-width="0.6" d="M37.547,32.726c0-0.331,0.188-0.593,0.331-0.713
					c0.207-0.176,0.496-0.166,0.991-0.166c0.497,0,1.527,0,1.858,0c0.402,0,0.713,0.093,0.857,0.372
					c0.072,0.14,0.113,0.206,0.123,0.619c0.008,0.331,0.012,1.075,0.012,1.075s-0.07-0.481-0.193-1.02
					c-0.125-0.537-0.166-0.729-0.494-0.771c-0.332-0.041-2.313-0.014-2.728,0.027c-0.414,0.042-0.517,0.441-0.552,0.771
					c-0.052,0.496-0.207,0.992-0.207,0.992L37.547,32.726L37.547,32.726z"/>
				<path fill="#FFFFFF" stroke="#E24926" stroke-width="0.6" d="M30.403,37.466c-0.23-0.233-0.281-0.554-0.268-0.737
					c0.021-0.271,0.234-0.469,0.585-0.816c0.352-0.352,1.083-1.079,1.317-1.313c0.284-0.284,0.569-0.438,0.867-0.343
					c0.151,0.049,0.229,0.066,0.526,0.353c0.238,0.229,0.765,0.755,0.765,0.755s-0.438-0.357-0.904-0.65
					c-0.466-0.293-0.646-0.176-0.909,0.027s-1.636,1.524-1.899,1.845c-0.265,0.321,0.04,0.789,0.248,1.047
					c0.313,0.389,0.512,0.676,0.512,0.676L30.403,37.466z"/>
				<path opacity="0.44" fill="#FFFFFF" stroke="#E24926" stroke-width="0.6" enable-background="new    " d="M28.693,45.794
					c-0.331,0.006-0.598-0.18-0.719-0.316c-0.18-0.203-0.174-0.492-0.183-0.988c-0.012-0.495-0.029-1.528-0.035-1.858
					c-0.007-0.402,0.08-0.714,0.354-0.863c0.141-0.075,0.204-0.118,0.616-0.137c0.331-0.015,1.075-0.028,1.075-0.028
					s-0.701,0.044-1.237,0.177c-0.532,0.135-0.569,0.311-0.605,0.643c-0.035,0.331-0.014,2.21,0.038,2.624
					c0.049,0.412,0.415,0.577,0.744,0.604c0.495,0.043,1.14,0.123,1.14,0.123L28.693,45.794z"/>
				<path fill="#FFFFFF" stroke="#E24926" stroke-width="0.6" d="M45.933,34.494c0.232-0.236,0.549-0.292,0.734-0.279
					c0.27,0.02,0.471,0.229,0.826,0.574c0.354,0.345,1.096,1.065,1.332,1.297c0.285,0.282,0.441,0.563,0.354,0.865
					c-0.045,0.149-0.063,0.227-0.344,0.529c-0.227,0.242-0.742,0.775-0.742,0.775s0.467-0.523,0.754-0.996
					c0.285-0.472,0.189-0.622-0.018-0.883c-0.209-0.261-1.547-1.58-1.873-1.838c-0.324-0.259-0.701-0.119-0.955,0.092
					c-0.383,0.32-0.896,0.714-0.896,0.714L45.933,34.494z"/>
				<path fill="#FFFFFF" stroke="#E24926" stroke-width="0.6" d="M32.273,39.67c0,0-0.487,0.627-0.688,1.817l0.282-0.033
					c0,0,0.157-0.958,0.617-1.57L32.273,39.67z"/>
				<path fill="#FFFFFF" stroke="#E24926" stroke-width="0.6" d="M37.32,35.648c0,0-1.11,0.305-1.845,0.86l0.213,0.192
					c0,0,0.909-0.621,1.632-0.765V35.648z"/>
				<path fill="#FFFFFF" stroke="#E24926" stroke-width="0.6" d="M43.808,36.413c0,0-0.91-0.661-1.881-0.724v0.249
					c0,0,1.104,0.211,1.654,0.681L43.808,36.413z"/>
				<path fill="#FFFFFF" stroke="#E24926" stroke-width="0.6" d="M36.123,45.048c0,0,0.742,2.396,3.595,2.438
					c2.375,0.036,3.573-2.003,3.698-3.241c0,0-0.146,3.448-3.721,3.471C36.742,47.73,36.123,45.048,36.123,45.048z"/>
			</g>
			<g>
				<path fill="#FFFFFF" stroke="#E24926" stroke-width="0.6" d="M41.681,54.768c0,0.33-0.189,0.594-0.332,0.713
					c-0.207,0.177-0.496,0.166-0.991,0.166c-0.496,0-1.526,0-1.857,0c-0.403,0-0.713-0.095-0.858-0.373
					c-0.071-0.141-0.113-0.206-0.123-0.62c-0.008-0.328-0.012-1.072-0.012-1.072s0.021,0.578,0.146,1.114
					c0.123,0.537,0.354,0.537,0.684,0.578c0.331,0.041,2.209,0.063,2.624,0.021c0.414-0.041,0.586-0.395,0.619-0.725
					c0.053-0.494,0.104-0.989,0.104-0.989L41.681,54.768L41.681,54.768z"/>
				<path fill="#FFFFFF" stroke="#E24926" stroke-width="0.6" d="M48.968,50.044c0.236,0.23,0.293,0.55,0.279,0.733
					c-0.02,0.271-0.229,0.471-0.572,0.825c-0.345,0.354-1.066,1.097-1.297,1.332c-0.281,0.29-0.564,0.446-0.865,0.354
					c-0.146-0.045-0.227-0.063-0.529-0.344c-0.24-0.225-0.775-0.74-0.775-0.74s0.43,0.389,0.898,0.673
					c0.473,0.287,0.629,0.124,0.891-0.084c0.262-0.209,1.588-1.542,1.846-1.865c0.258-0.324,0.125-0.694-0.086-0.948
					c-0.318-0.384-0.637-0.767-0.637-0.767L48.968,50.044z"/>
			</g>
		</g>
	</g>
	<g>
		<g>
			<path fill="#FFFFFF" stroke="#E24926" stroke-width="0.8" d="M39.958,60.705c-9.904,0-17.935-8.028-17.935-17.933
				c0-9.903,8.028-17.932,17.935-17.932v-5.452c-12.916,0-23.388,10.469-23.388,23.384c0,12.916,10.472,23.386,23.388,23.386
				c12.914,0,23.382-10.47,23.382-23.386h-5.453C57.888,52.677,49.86,60.705,39.958,60.705z"/>
			<polygon fill="#FFFFFF" stroke="#E24926" stroke-width="0.8" points="39.266,24.857 39.266,19.401 39.266,14.909 45.507,18.512 
				51.747,22.116 45.507,25.719 39.266,29.323 			"/>
		</g>
		<rect x="38.702" y="19.847" fill="#FFFFFF" width="1.838" height="4.616"/>
	</g>
</g>
</svg>
