<?xml version="1.0" encoding="utf-8"?>
<!-- Generator: Adobe Illustrator 14.0.0, SVG Export Plug-In . SVG Version: 6.00 Build 43363)  -->
<!DOCTYPE svg PUBLIC "-//W3C//DTD SVG 1.1//EN" "http://www.w3.org/Graphics/SVG/1.1/DTD/svg11.dtd">
<svg version="1.1" id="图层_1" xmlns="http://www.w3.org/2000/svg" xmlns:xlink="http://www.w3.org/1999/xlink" x="0px" y="0px"
	 width="42.451px" height="52.578px" viewBox="0 0 42.451 52.578" enable-background="new 0 0 42.451 52.578" xml:space="preserve">
<g>
	<g>
		<ellipse fill="#FFFFFF" fill-opacity="0" cx="21.226" cy="49.081" rx="26.148" ry="7.441"/>
		<path opacity="0.0256" fill="#FEFEFE" enable-background="new    " d="M21.227,56.34c-14.104,0-25.536-3.25-25.536-7.26
			c0-4.008,11.432-7.256,25.536-7.256c14.104,0,25.53,3.248,25.53,7.256C46.757,53.09,35.331,56.34,21.227,56.34z"/>
		<ellipse opacity="0.0513" fill="#FDFDFD" enable-background="new    " cx="21.227" cy="49.083" rx="24.92" ry="7.078"/>
		<path opacity="0.0769" fill="#FCFCFC" enable-background="new    " d="M21.227,55.98c-13.425,0-24.306-3.088-24.306-6.899
			c0-3.809,10.88-6.895,24.306-6.895c13.422,0,24.301,3.086,24.301,6.895C45.528,52.892,34.649,55.98,21.227,55.98z"/>
		<ellipse opacity="0.1026" fill="#FBFBFB" enable-background="new    " cx="21.227" cy="49.083" rx="23.688" ry="6.717"/>
		<ellipse opacity="0.1282" fill="#FAFAFA" enable-background="new    " cx="21.227" cy="49.083" rx="23.071" ry="6.537"/>
		<ellipse opacity="0.1538" fill="#F9F9F9" enable-background="new    " cx="21.227" cy="49.083" rx="22.456" ry="6.356"/>
		<ellipse opacity="0.1795" fill="#F8F8F8" enable-background="new    " cx="21.227" cy="49.083" rx="21.84" ry="6.175"/>
		<ellipse opacity="0.2051" fill="#F7F7F7" enable-background="new    " cx="21.227" cy="49.083" rx="21.225" ry="5.995"/>
		<ellipse opacity="0.2308" fill="#F6F6F6" enable-background="new    " cx="21.227" cy="49.083" rx="20.608" ry="5.814"/>
		<ellipse opacity="0.2564" fill="#F5F5F5" enable-background="new    " cx="21.227" cy="49.083" rx="19.993" ry="5.633"/>
		<ellipse opacity="0.2821" fill="#F4F4F4" enable-background="new    " cx="21.227" cy="49.083" rx="19.377" ry="5.453"/>
		<ellipse opacity="0.3077" fill="#F3F3F3" enable-background="new    " cx="21.227" cy="49.083" rx="18.762" ry="5.273"/>
		<ellipse opacity="0.3333" fill="#F2F2F2" enable-background="new    " cx="21.227" cy="49.083" rx="18.145" ry="5.092"/>
		<ellipse opacity="0.359" fill="#F1F1F1" enable-background="new    " cx="21.227" cy="49.083" rx="17.53" ry="4.912"/>
		<ellipse opacity="0.3846" fill="#F0F0F0" enable-background="new    " cx="21.227" cy="49.083" rx="16.913" ry="4.731"/>
		<ellipse opacity="0.4103" fill="#EFEFEF" enable-background="new    " cx="21.227" cy="49.083" rx="16.299" ry="4.55"/>
		<ellipse opacity="0.4359" fill="#EEEEEE" enable-background="new    " cx="21.227" cy="49.083" rx="15.684" ry="4.37"/>
		<ellipse opacity="0.4615" fill="#EDEDED" enable-background="new    " cx="21.227" cy="49.083" rx="15.067" ry="4.189"/>
		<ellipse opacity="0.4872" fill="#ECECEC" enable-background="new    " cx="21.227" cy="49.083" rx="14.45" ry="4.008"/>
		<ellipse opacity="0.5128" fill="#ECECEC" enable-background="new    " cx="21.227" cy="49.083" rx="13.836" ry="3.829"/>
		<ellipse opacity="0.5385" fill="#EBEBEB" enable-background="new    " cx="21.227" cy="49.083" rx="13.221" ry="3.648"/>
		<ellipse opacity="0.5641" fill="#EAEAEA" enable-background="new    " cx="21.227" cy="49.083" rx="12.604" ry="3.467"/>
		<ellipse opacity="0.5897" fill="#E9E9E9" enable-background="new    " cx="21.227" cy="49.083" rx="11.987" ry="3.287"/>
		<ellipse opacity="0.6154" fill="#E8E8E8" enable-background="new    " cx="21.227" cy="49.083" rx="11.374" ry="3.106"/>
		<ellipse opacity="0.641" fill="#E7E7E7" enable-background="new    " cx="21.227" cy="49.083" rx="10.756" ry="2.925"/>
		<ellipse opacity="0.6667" fill="#E6E6E6" enable-background="new    " cx="21.227" cy="49.083" rx="10.141" ry="2.745"/>
		<ellipse opacity="0.6923" fill="#E5E5E5" enable-background="new    " cx="21.227" cy="49.083" rx="9.524" ry="2.564"/>
		<ellipse opacity="0.7179" fill="#E4E4E4" enable-background="new    " cx="21.227" cy="49.083" rx="8.909" ry="2.384"/>
		<ellipse opacity="0.7436" fill="#E3E3E3" enable-background="new    " cx="21.227" cy="49.083" rx="8.293" ry="2.204"/>
		<ellipse opacity="0.7692" fill="#E2E2E2" enable-background="new    " cx="21.227" cy="49.083" rx="7.678" ry="2.023"/>
		<ellipse opacity="0.7949" fill="#E1E1E1" enable-background="new    " cx="21.227" cy="49.083" rx="7.063" ry="1.842"/>
		<ellipse opacity="0.8205" fill="#E0E0E0" enable-background="new    " cx="21.227" cy="49.083" rx="6.446" ry="1.662"/>
		<ellipse opacity="0.8462" fill="#DFDFDF" enable-background="new    " cx="21.227" cy="49.083" rx="5.831" ry="1.481"/>
		<ellipse opacity="0.8718" fill="#DEDEDE" enable-background="new    " cx="21.227" cy="49.083" rx="5.215" ry="1.3"/>
		<ellipse opacity="0.8974" fill="#DDDDDD" enable-background="new    " cx="21.227" cy="49.083" rx="4.6" ry="1.12"/>
		<ellipse opacity="0.9231" fill="#DCDCDC" enable-background="new    " cx="21.227" cy="49.083" rx="3.983" ry="0.94"/>
		<ellipse opacity="0.9487" fill="#DBDBDB" enable-background="new    " cx="21.227" cy="49.083" rx="3.366" ry="0.759"/>
		<path opacity="0.9744" fill="#DADADA" enable-background="new    " d="M21.227,49.663c-1.519,0-2.755-0.258-2.755-0.578
			c0-0.319,1.236-0.58,2.755-0.58c1.518,0,2.749,0.261,2.749,0.58C23.975,49.405,22.745,49.663,21.227,49.663z"/>
		<ellipse fill="#D9D9D9" cx="21.224" cy="49.085" rx="2.136" ry="0.396"/>
	</g>
	<path fill="#7F7F7F" d="M41.985,14.983c0-1.871-11.527-13.395-13.396-13.395h-22.7c-1.87,0-3.393,1.521-3.393,3.396v43.072
		c0,1.873,1.521,2.629,3.393,2.629h32.7c1.869,0,3.396-0.756,3.396-2.629"/>
	
		<linearGradient id="SVGID_1_" gradientUnits="userSpaceOnUse" x1="504.1707" y1="702.0981" x2="504.1707" y2="749.7886" gradientTransform="matrix(1 0 0 1 -481.9292 -700.1895)">
		<stop  offset="0" style="stop-color:#FFFFFF"/>
		<stop  offset="0.477" style="stop-color:#FDFDFD"/>
		<stop  offset="0.7019" style="stop-color:#F5F5F5"/>
		<stop  offset="0.8734" style="stop-color:#E9E9E9"/>
		<stop  offset="1" style="stop-color:#D9D9D9"/>
	</linearGradient>
	<path fill="url(#SVGID_1_)" d="M40.893,47.292c0,1.271-1.033,2.308-2.307,2.308H5.889c-1.273,0-2.303-1.035-2.303-2.308V4.217
		c0-1.273,1.028-2.309,2.303-2.309h22.7c1.273,0,12.307,11.03,12.307,12.305L40.893,47.292L40.893,47.292z"/>
	<g>
		
			<radialGradient id="SVGID_2_" cx="515.5349" cy="709.4946" r="7.1251" gradientTransform="matrix(1 0 0 1 -481.9292 -700.1895)" gradientUnits="userSpaceOnUse">
			<stop  offset="0" style="stop-color:#FFFFFF"/>
			<stop  offset="0.4752" style="stop-color:#FDFDFD"/>
			<stop  offset="0.6464" style="stop-color:#F6F6F6"/>
			<stop  offset="0.7685" style="stop-color:#EBEBEB"/>
			<stop  offset="0.8671" style="stop-color:#DADADA"/>
			<stop  offset="0.9506" style="stop-color:#C4C4C4"/>
			<stop  offset="1" style="stop-color:#B3B3B3"/>
		</radialGradient>
		<path fill="url(#SVGID_2_)" d="M40.772,16.04l-10.629-0.842c-1.391,0-2.518-1.125-2.518-2.517L27.27,2.221l0.008,0.771
			l-0.84,9.688c0,2.042,1.658,3.706,3.705,3.706l9.861-0.35L40.772,16.04L40.772,16.04z"/>
	</g>
	
		<linearGradient id="SVGID_3_" gradientUnits="userSpaceOnUse" x1="-66.2947" y1="-930.8345" x2="-62.0916" y2="-935.0377" gradientTransform="matrix(-1 0 0 -1 -32.8345 -921.6895)">
		<stop  offset="0" style="stop-color:#FFFFFF"/>
		<stop  offset="0.3287" style="stop-color:#F2F2F2"/>
		<stop  offset="0.9341" style="stop-color:#D0D0D0"/>
		<stop  offset="1" style="stop-color:#CCCCCC"/>
	</linearGradient>
	<path fill="url(#SVGID_3_)" d="M28.71,4.646v6.603c0,1.391,1.125,2.521,2.518,2.521h6.857L28.71,4.646z"/>
	<g>
		
			<linearGradient id="SVGID_4_" gradientUnits="userSpaceOnUse" x1="549.073" y1="679.1587" x2="566.7783" y2="679.1587" gradientTransform="matrix(1 0 0 1 -527.3433 -630.7207)">
			<stop  offset="0" style="stop-color:#FFFFFF"/>
			<stop  offset="1" style="stop-color:#070606"/>
		</linearGradient>
		<polygon fill="url(#SVGID_4_)" points="38.368,49.092 21.729,47.432 21.729,49.442 38.368,49.442 		"/>
		
			<linearGradient id="SVGID_5_" gradientUnits="userSpaceOnUse" x1="-165.6946" y1="-802.7222" x2="-147.9847" y2="-802.7222" gradientTransform="matrix(-1 0 0 -1 -143.8813 -754.2832)">
			<stop  offset="0" style="stop-color:#FFFFFF"/>
			<stop  offset="1" style="stop-color:#070606"/>
		</linearGradient>
		<polygon fill="url(#SVGID_5_)" points="21.813,49.442 21.813,47.436 5.17,48.793 5.17,49.442 		"/>
	</g>
	<g>
		
			<linearGradient id="SVGID_6_" gradientUnits="userSpaceOnUse" x1="-562.4143" y1="191.6812" x2="-546.3422" y2="191.6812" gradientTransform="matrix(0 -1 1 0 -152.4104 -530.4236)">
			<stop  offset="0" style="stop-color:#FFFFFF"/>
			<stop  offset="1" style="stop-color:#070606"/>
		</linearGradient>
		<polygon fill="url(#SVGID_6_)" points="39.768,16.886 38.51,31.991 40.03,31.991 40.03,16.886 		"/>
		
			<linearGradient id="SVGID_7_" gradientUnits="userSpaceOnUse" x1="945.7898" y1="-315.2446" x2="963.5023" y2="-315.2446" gradientTransform="matrix(0 1 -1 0 -275.9734 -913.886)">
			<stop  offset="0" style="stop-color:#FFFFFF"/>
			<stop  offset="1" style="stop-color:#070606"/>
		</linearGradient>
		<polygon fill="url(#SVGID_7_)" points="40.03,31.905 38.512,31.905 39.54,48.549 40.03,48.549 		"/>
	</g>
	<g>
		
			<linearGradient id="SVGID_8_" gradientUnits="userSpaceOnUse" x1="1042.1824" y1="-470.5298" x2="1059.895" y2="-470.5298" gradientTransform="matrix(0 1 -1 0 -464.8962 -1010.2786)">
			<stop  offset="0" style="stop-color:#FFFFFF"/>
			<stop  offset="1" style="stop-color:#070606"/>
		</linearGradient>
		<polygon fill="url(#SVGID_8_)" points="5.021,48.549 6.561,31.905 4.706,31.905 4.706,48.549 		"/>
		
			<linearGradient id="SVGID_9_" gradientUnits="userSpaceOnUse" x1="-658.8049" y1="346.9644" x2="-642.7307" y2="346.9644" gradientTransform="matrix(0 -1 1 0 -341.3323 -626.8142)">
			<stop  offset="0" style="stop-color:#FFFFFF"/>
			<stop  offset="1" style="stop-color:#070606"/>
		</linearGradient>
		<polygon fill="url(#SVGID_9_)" points="4.701,31.991 6.561,31.991 5.303,16.884 4.701,16.884 		"/>
	</g>
	<g>
		<line fill="none" x1="8.56" y1="22.282" x2="24.616" y2="22.282"/>
		<rect x="8.56" y="21.79" fill="#B3B3B3" width="16.056" height="0.984"/>
	</g>
	<g>
		<g>
			<rect x="8.56" y="25.522" fill="#B3B3B3" width="25.9" height="0.982"/>
		</g>
		<rect x="8.56" y="29.28" fill="#B3B3B3" width="25.9" height="0.983"/>
		<rect x="8.56" y="33.038" fill="#B3B3B3" width="25.9" height="0.983"/>
		<g>
			<rect x="8.56" y="36.795" fill="#B3B3B3" width="25.9" height="0.984"/>
		</g>
	</g>
</g>
</svg>
