<?xml version="1.0" encoding="utf-8"?>
<!-- Generator: Adobe Illustrator 14.0.0, SVG Export Plug-In . SVG Version: 6.00 Build 43363)  -->
<!DOCTYPE svg PUBLIC "-//W3C//DTD SVG 1.1//EN" "http://www.w3.org/Graphics/SVG/1.1/DTD/svg11.dtd">
<svg version="1.1" id="图层_1" xmlns="http://www.w3.org/2000/svg" xmlns:xlink="http://www.w3.org/1999/xlink" x="0px" y="0px"
	 width="65.75px" height="52.467px" viewBox="0 0 65.75 52.467" enable-background="new 0 0 65.75 52.467" xml:space="preserve">
<g>
	<g>
		
			<radialGradient id="SVGID_1_" cx="995.2673" cy="1333.3369" r="120.6183" gradientTransform="matrix(1 0 0 1 -963.8589 -1400.3789)" gradientUnits="userSpaceOnUse">
			<stop  offset="0" style="stop-color:#FAFAFB"/>
			<stop  offset="0.2344" style="stop-color:#F7F8F8"/>
			<stop  offset="0.4199" style="stop-color:#EFEEEE"/>
			<stop  offset="0.5887" style="stop-color:#E0DFDF"/>
			<stop  offset="0.7474" style="stop-color:#CBCACA"/>
			<stop  offset="0.8979" style="stop-color:#B1B0B0"/>
			<stop  offset="1" style="stop-color:#9B9B9B"/>
		</radialGradient>
		<path fill="url(#SVGID_1_)" d="M62.04,36.833c0,5.013-4.426,9.08-9.887,9.08H12.101c-5.461,0-9.888-4.066-9.888-9.08V10.958
			c0-5.014,4.427-9.077,9.888-9.077h40.052c5.461,0,9.887,4.063,9.887,9.077V36.833z"/>
		
			<linearGradient id="SVGID_2_" gradientUnits="userSpaceOnUse" x1="995.9861" y1="1404.4922" x2="995.9861" y2="1440.2324" gradientTransform="matrix(1 0 0 1 -963.8589 -1400.3789)">
			<stop  offset="0.3516" style="stop-color:#FAFAFB"/>
			<stop  offset="0.5036" style="stop-color:#F7F8F8"/>
			<stop  offset="0.6239" style="stop-color:#EFEEEE"/>
			<stop  offset="0.7333" style="stop-color:#E0DFDF"/>
			<stop  offset="0.8362" style="stop-color:#CBCACA"/>
			<stop  offset="0.9338" style="stop-color:#B1B0B0"/>
			<stop  offset="1" style="stop-color:#9B9B9B"/>
		</linearGradient>
		<path fill="url(#SVGID_2_)" d="M52.152,44.956H12.103c-4.924,0-8.933-3.646-8.933-8.123V10.958c0-4.479,4.009-8.121,8.933-8.121
			h40.048c4.924,0,8.932,3.646,8.932,8.121v25.875C61.083,41.313,57.075,44.956,52.152,44.956L52.152,44.956z"/>
		
			<radialGradient id="SVGID_3_" cx="991.9138" cy="1369.7129" r="139.1214" gradientTransform="matrix(1 0 0 1 -963.8589 -1400.3789)" gradientUnits="userSpaceOnUse">
			<stop  offset="0" style="stop-color:#FAFAFB"/>
			<stop  offset="0.2344" style="stop-color:#F7F8F8"/>
			<stop  offset="0.4199" style="stop-color:#EFEEEE"/>
			<stop  offset="0.5887" style="stop-color:#E0DFDF"/>
			<stop  offset="0.7474" style="stop-color:#CBCACA"/>
			<stop  offset="0.8979" style="stop-color:#B1B0B0"/>
			<stop  offset="1" style="stop-color:#9B9B9B"/>
		</radialGradient>
		<path fill="url(#SVGID_3_)" d="M52.152,44.956H12.103c-4.924,0-8.933-3.563-8.933-7.938V11.733c0-4.381,4.009-7.938,8.933-7.938
			h40.048c4.924,0,8.932,3.563,8.932,7.938v25.283C61.083,41.395,57.075,44.956,52.152,44.956L52.152,44.956z"/>
		
			<radialGradient id="SVGID_4_" cx="997.6589" cy="1349.6211" r="105.3123" gradientTransform="matrix(1 0 0 1 -963.8589 -1400.3789)" gradientUnits="userSpaceOnUse">
			<stop  offset="0" style="stop-color:#FAFAFB"/>
			<stop  offset="0.2344" style="stop-color:#F7F8F8"/>
			<stop  offset="0.4199" style="stop-color:#EFEEEE"/>
			<stop  offset="0.5887" style="stop-color:#E0DFDF"/>
			<stop  offset="0.7474" style="stop-color:#CBCACA"/>
			<stop  offset="0.8979" style="stop-color:#B1B0B0"/>
			<stop  offset="1" style="stop-color:#9B9B9B"/>
		</radialGradient>
		<path fill="url(#SVGID_4_)" d="M3.171,37.019c0,4.375,4.009,7.938,8.933,7.938h40.048c4.924,0,8.932-3.563,8.932-7.938
			c0,0-0.326-2.464-1.195-3.068c-0.869-0.61-27.042-17.709-27.042-17.709S6.81,32.368,5.565,32.991
			C3.171,34.186,3.171,37.019,3.171,37.019z"/>
		
			<radialGradient id="SVGID_5_" cx="995.1052" cy="1366.5879" r="179.0267" gradientTransform="matrix(1 0 0 1.0119 -963.8589 -1414.7361)" gradientUnits="userSpaceOnUse">
			<stop  offset="0" style="stop-color:#FAFAFB"/>
			<stop  offset="0.2344" style="stop-color:#F7F8F8"/>
			<stop  offset="0.4199" style="stop-color:#EFEEEE"/>
			<stop  offset="0.5887" style="stop-color:#E0DFDF"/>
			<stop  offset="0.7474" style="stop-color:#CBCACA"/>
			<stop  offset="0.8979" style="stop-color:#B1B0B0"/>
			<stop  offset="1" style="stop-color:#9B9B9B"/>
		</radialGradient>
		<path fill="url(#SVGID_5_)" d="M3.171,37.243c0,4.429,4.009,8.031,8.933,8.031h40.048c4.924,0,8.932-3.604,8.932-8.031
			c0,0-0.326-1.688-1.195-2.301c-0.87-0.617-27.042-16.789-27.042-16.789S6.81,33.343,5.565,33.973
			C3.171,35.182,3.171,37.243,3.171,37.243z"/>
		
			<radialGradient id="SVGID_6_" cx="1000.0574" cy="1351.5215" r="97.1721" gradientTransform="matrix(1 0 0 1 -963.8589 -1400.3789)" gradientUnits="userSpaceOnUse">
			<stop  offset="0" style="stop-color:#FAFAFB"/>
			<stop  offset="0.2344" style="stop-color:#F7F8F8"/>
			<stop  offset="0.4199" style="stop-color:#EFEEEE"/>
			<stop  offset="0.5887" style="stop-color:#E0DFDF"/>
			<stop  offset="0.7474" style="stop-color:#CBCACA"/>
			<stop  offset="0.8979" style="stop-color:#B1B0B0"/>
			<stop  offset="1" style="stop-color:#9B9B9B"/>
		</radialGradient>
		<path fill="url(#SVGID_6_)" d="M52.152,3.795H12.103c-4.924,0-8.933,4.391-8.933,7.938c0,3.549,25.607,14.795,28.957,14.795
			c3.349,0,28.956-10.054,28.956-14.795C61.083,8.342,57.075,3.795,52.152,3.795z"/>
		
			<radialGradient id="SVGID_7_" cx="995.2673" cy="1426.1904" r="103.9218" gradientTransform="matrix(1 0 0 1 -963.8589 -1400.3789)" gradientUnits="userSpaceOnUse">
			<stop  offset="0" style="stop-color:#FAFAFB"/>
			<stop  offset="0.2344" style="stop-color:#F7F8F8"/>
			<stop  offset="0.4199" style="stop-color:#EFEEEE"/>
			<stop  offset="0.5887" style="stop-color:#E0DFDF"/>
			<stop  offset="0.7474" style="stop-color:#CBCACA"/>
			<stop  offset="0.8979" style="stop-color:#B1B0B0"/>
			<stop  offset="1" style="stop-color:#9B9B9B"/>
		</radialGradient>
		<path fill="url(#SVGID_7_)" d="M52.152,3.795H12.103c-4.924,0-8.933,3.63-8.933,7.179c0,3.553,25.367,14.119,28.716,14.119
			c3.353,0,29.196-9.373,29.196-14.119C61.083,7.583,57.075,3.795,52.152,3.795z"/>
	</g>
	<g>
		
			<radialGradient id="SVGID_8_" cx="1923.0994" cy="270.1729" r="76.0549" gradientTransform="matrix(0 1 -1 0 326.804 -1932.7742)" gradientUnits="userSpaceOnUse">
			<stop  offset="0" style="stop-color:#E8F1D5"/>
			<stop  offset="0.118" style="stop-color:#E8F1D5"/>
			<stop  offset="0.1654" style="stop-color:#E4EFCF"/>
			<stop  offset="0.23" style="stop-color:#DAE8C0"/>
			<stop  offset="0.3043" style="stop-color:#CADBA5"/>
			<stop  offset="0.386" style="stop-color:#B3CA81"/>
			<stop  offset="0.4726" style="stop-color:#94B557"/>
			<stop  offset="0.5562" style="stop-color:#6DA130"/>
			<stop  offset="0.6288" style="stop-color:#629231"/>
			<stop  offset="0.7744" style="stop-color:#496C2F"/>
			<stop  offset="0.8315" style="stop-color:#3E5D2D"/>
			<stop  offset="1" style="stop-color:#3E5D2D"/>
		</radialGradient>
		<path fill="url(#SVGID_8_)" d="M49.548,28.833c0,0.822,0,4.984,0,4.984s-10.686,0-11.891,0s-2.306,0.215-2.306,2.368
			c0,2.157,0,5.709,0,6.979c0,1.27,0.781,2.113,2.367,2.113s11.828,0,11.828,0s0,3.148,0,4.986c0,1.396,1.301,1.521,2.211,0.66
			c0.754-0.715,9.403-8.229,10.633-9.223c1.334-1.076,1.729-2.629-0.055-4.137c-1.785-1.511-6.82-6.021-10.5-9.271
			C50.476,27.096,49.548,28.008,49.548,28.833z"/>
		
			<radialGradient id="SVGID_9_" cx="1949.3191" cy="275.248" r="46.0126" gradientTransform="matrix(0 1 -1 0 326.804 -1932.7742)" gradientUnits="userSpaceOnUse">
			<stop  offset="0" style="stop-color:#E8F1D5"/>
			<stop  offset="0.118" style="stop-color:#E8F1D5"/>
			<stop  offset="0.1654" style="stop-color:#E4EFCF"/>
			<stop  offset="0.23" style="stop-color:#DAE8C0"/>
			<stop  offset="0.3043" style="stop-color:#CADBA5"/>
			<stop  offset="0.386" style="stop-color:#B3CA81"/>
			<stop  offset="0.4726" style="stop-color:#94B557"/>
			<stop  offset="0.5562" style="stop-color:#6DA130"/>
			<stop  offset="0.6288" style="stop-color:#629231"/>
			<stop  offset="0.7744" style="stop-color:#496C2F"/>
			<stop  offset="0.8315" style="stop-color:#3E5D2D"/>
			<stop  offset="1" style="stop-color:#3E5D2D"/>
		</radialGradient>
		<path fill="url(#SVGID_9_)" d="M35.861,43.165v-6.979c0-1.732,0.711-1.861,1.797-1.861h12.396v-5.492
			c0-0.204,0.113-0.465,0.332-0.563c0.273-0.123,0.682,0.025,1.111,0.409c1.242,1.099,9.322,8.276,10.512,9.28
			c0.676,0.572,1.02,1.152,1.02,1.729c0,0.703-0.521,1.271-0.955,1.625c-1.27,1.021-9.912,8.539-10.662,9.25
			c-0.409,0.393-0.842,0.459-1.067,0.361c-0.235-0.102-0.287-0.412-0.287-0.654v-5.492H37.719
			C36.872,44.774,35.861,44.495,35.861,43.165L35.861,43.165z"/>
		
			<radialGradient id="SVGID_10_" cx="1929.5242" cy="272.8799" r="74.3241" gradientTransform="matrix(0 1 -1 0 326.804 -1932.7742)" gradientUnits="userSpaceOnUse">
			<stop  offset="0" style="stop-color:#E8F1D5"/>
			<stop  offset="0.118" style="stop-color:#E8F1D5"/>
			<stop  offset="0.1654" style="stop-color:#E4EFCF"/>
			<stop  offset="0.23" style="stop-color:#DAE8C0"/>
			<stop  offset="0.3043" style="stop-color:#CADBA5"/>
			<stop  offset="0.386" style="stop-color:#B3CA81"/>
			<stop  offset="0.4726" style="stop-color:#94B557"/>
			<stop  offset="0.5562" style="stop-color:#6DA130"/>
			<stop  offset="0.6288" style="stop-color:#629231"/>
			<stop  offset="0.7744" style="stop-color:#496C2F"/>
			<stop  offset="0.8315" style="stop-color:#3E5D2D"/>
			<stop  offset="1" style="stop-color:#3E5D2D"/>
		</radialGradient>
		<path fill="url(#SVGID_10_)" d="M36.368,43.165v-6.979c0-1.354,0.377-1.354,1.289-1.354h12.906v-6.002
			c0-0.035,0.022-0.09,0.04-0.104c0.023-0.002,0.228,0.034,0.562,0.328c1.066,0.943,9.357,8.313,10.516,9.289
			c0.563,0.475,0.84,0.922,0.84,1.342c0,0.508-0.418,0.947-0.768,1.23c-1.264,1.018-9.934,8.559-10.691,9.275
			c-0.209,0.195-0.393,0.252-0.479,0.262c-0.01-0.037-0.018-0.104-0.018-0.188v-6.004H37.719
			C36.521,44.266,36.368,43.678,36.368,43.165L36.368,43.165z"/>
		
			<radialGradient id="SVGID_11_" cx="1929.53" cy="272.8799" r="74.3133" gradientTransform="matrix(0 1 -1 0 326.804 -1932.7742)" gradientUnits="userSpaceOnUse">
			<stop  offset="0" style="stop-color:#E8F1D5"/>
			<stop  offset="0.118" style="stop-color:#E8F1D5"/>
			<stop  offset="0.1654" style="stop-color:#E4EFCF"/>
			<stop  offset="0.23" style="stop-color:#DAE8C0"/>
			<stop  offset="0.3043" style="stop-color:#CADBA5"/>
			<stop  offset="0.386" style="stop-color:#B3CA81"/>
			<stop  offset="0.4726" style="stop-color:#94B557"/>
			<stop  offset="0.5562" style="stop-color:#6DA130"/>
			<stop  offset="0.6288" style="stop-color:#629231"/>
			<stop  offset="0.7744" style="stop-color:#496C2F"/>
			<stop  offset="0.8315" style="stop-color:#3E5D2D"/>
			<stop  offset="1" style="stop-color:#3E5D2D"/>
		</radialGradient>
		<path fill="url(#SVGID_11_)" d="M36.368,38.553v4.612c0,0.513,0.151,1.101,1.352,1.101h12.847v6.004
			c0,0.086,0.008,0.148,0.018,0.188c0.091-0.01,0.271-0.063,0.479-0.262c0.76-0.721,9.43-8.262,10.69-9.275
			c0.35-0.283,0.771-0.727,0.771-1.229c0-0.258-0.117-0.521-0.322-0.801c-3.59,0.369-7.455,0.572-11.486,0.572
			C45.583,39.461,40.726,39.133,36.368,38.553z"/>
		
			<radialGradient id="SVGID_12_" cx="1929.5408" cy="272.8789" r="74.2932" gradientTransform="matrix(0 1 -1 0 326.804 -1932.7742)" gradientUnits="userSpaceOnUse">
			<stop  offset="0" style="stop-color:#E8F1D5"/>
			<stop  offset="0.118" style="stop-color:#E8F1D5"/>
			<stop  offset="0.1654" style="stop-color:#E4EFCF"/>
			<stop  offset="0.23" style="stop-color:#DAE8C0"/>
			<stop  offset="0.3043" style="stop-color:#CADBA5"/>
			<stop  offset="0.386" style="stop-color:#B3CA81"/>
			<stop  offset="0.4726" style="stop-color:#94B557"/>
			<stop  offset="0.5562" style="stop-color:#6DA130"/>
			<stop  offset="0.6288" style="stop-color:#629231"/>
			<stop  offset="0.7744" style="stop-color:#496C2F"/>
			<stop  offset="0.8315" style="stop-color:#3E5D2D"/>
			<stop  offset="1" style="stop-color:#3E5D2D"/>
		</radialGradient>
		<path fill="url(#SVGID_12_)" d="M61.679,38.346c-1.156-0.979-9.447-8.345-10.518-9.289c-0.334-0.294-0.535-0.33-0.563-0.328
			c-0.018,0.017-0.041,0.067-0.041,0.104v6h-12.9c-0.912,0-1.289,0-1.289,1.354v2.364c4.358,0.58,9.215,0.908,14.342,0.908
			c4.033,0,7.898-0.203,11.488-0.572C62.064,38.711,61.902,38.532,61.679,38.346z"/>
		
			<radialGradient id="SVGID_13_" cx="947.6199" cy="1732.7119" r="86.5091" gradientTransform="matrix(1.2523 0 0 0.7566 -1137.5128 -1308.2935)" gradientUnits="userSpaceOnUse">
			<stop  offset="0" style="stop-color:#E8F1D5"/>
			<stop  offset="0.118" style="stop-color:#E8F1D5"/>
			<stop  offset="0.1654" style="stop-color:#E4EFCF"/>
			<stop  offset="0.23" style="stop-color:#DAE8C0"/>
			<stop  offset="0.3043" style="stop-color:#CADBA5"/>
			<stop  offset="0.386" style="stop-color:#B3CA81"/>
			<stop  offset="0.4726" style="stop-color:#94B557"/>
			<stop  offset="0.5562" style="stop-color:#6DA130"/>
			<stop  offset="0.6288" style="stop-color:#629231"/>
			<stop  offset="0.7744" style="stop-color:#496C2F"/>
			<stop  offset="0.8315" style="stop-color:#3E5D2D"/>
			<stop  offset="1" style="stop-color:#3E5D2D"/>
		</radialGradient>
		<path fill="url(#SVGID_13_)" d="M61.679,38.346c-1.156-0.979-9.447-8.345-10.518-9.289c-0.334-0.294-0.535-0.33-0.563-0.328
			c-0.018,0.017-0.041,0.067-0.041,0.104v6h-12.9c-0.912,0-1.289,0-1.289,1.354v2.364c4.358,0.58,9.215,0.908,14.342,0.908
			c4.033,0,7.898-0.203,11.488-0.572C62.064,38.711,61.902,38.532,61.679,38.346z"/>
	</g>
</g>
</svg>
