<?xml version="1.0" encoding="utf-8"?>
<!-- Generator: Adobe Illustrator 14.0.0, SVG Export Plug-In . SVG Version: 6.00 Build 43363)  -->
<!DOCTYPE svg PUBLIC "-//W3C//DTD SVG 1.1//EN" "http://www.w3.org/Graphics/SVG/1.1/DTD/svg11.dtd">
<svg version="1.1" id="图层_1" xmlns="http://www.w3.org/2000/svg" xmlns:xlink="http://www.w3.org/1999/xlink" x="0px" y="0px"
	 width="61.667px" height="54.35px" viewBox="0 0 61.667 54.35" enable-background="new 0 0 61.667 54.35" xml:space="preserve">
<g>
	<g>
		
			<radialGradient id="SVGID_1_" cx="1117.9563" cy="1329.0798" r="153.06" gradientTransform="matrix(0.8542 0 0 1 -921.7856 -1400.3789)" gradientUnits="userSpaceOnUse">
			<stop  offset="0" style="stop-color:#E8F1D5"/>
			<stop  offset="0.118" style="stop-color:#E8F1D5"/>
			<stop  offset="0.1654" style="stop-color:#E4EFCF"/>
			<stop  offset="0.23" style="stop-color:#DAE8C0"/>
			<stop  offset="0.3043" style="stop-color:#CADBA5"/>
			<stop  offset="0.386" style="stop-color:#B3CA81"/>
			<stop  offset="0.4726" style="stop-color:#94B557"/>
			<stop  offset="0.5562" style="stop-color:#6DA130"/>
			<stop  offset="0.6288" style="stop-color:#629231"/>
			<stop  offset="0.7744" style="stop-color:#496C2F"/>
			<stop  offset="0.8315" style="stop-color:#3E5D2D"/>
			<stop  offset="1" style="stop-color:#3E5D2D"/>
		</radialGradient>
		<path fill="url(#SVGID_1_)" d="M58.85,10.698c0,4.526-3.135,8.199-7.004,8.199H9.822c-3.869,0-7.004-3.673-7.004-8.199l0,0
			c0-4.529,3.135-8.2,7.004-8.2h42.024C55.716,2.497,58.85,6.168,58.85,10.698L58.85,10.698z"/>
		
			<linearGradient id="SVGID_2_" gradientUnits="userSpaceOnUse" x1="994.6926" y1="1401.5095" x2="994.6926" y2="1435.6797" gradientTransform="matrix(1 0 0 1 -963.8589 -1400.3789)">
			<stop  offset="0" style="stop-color:#E8F1D5"/>
			<stop  offset="0.118" style="stop-color:#E8F1D5"/>
			<stop  offset="0.1654" style="stop-color:#E4EFCF"/>
			<stop  offset="0.23" style="stop-color:#DAE8C0"/>
			<stop  offset="0.3043" style="stop-color:#CADBA5"/>
			<stop  offset="0.386" style="stop-color:#B3CA81"/>
			<stop  offset="0.4726" style="stop-color:#94B557"/>
			<stop  offset="0.5562" style="stop-color:#6DA130"/>
			<stop  offset="0.6288" style="stop-color:#629231"/>
			<stop  offset="0.7744" style="stop-color:#496C2F"/>
			<stop  offset="0.8315" style="stop-color:#3E5D2D"/>
			<stop  offset="1" style="stop-color:#3E5D2D"/>
		</linearGradient>
		<path fill="url(#SVGID_2_)" d="M51.846,17.529H9.82c-3.215,0-5.836-3.064-5.836-6.831c0-3.771,2.621-6.836,5.836-6.836h42.026
			c3.218,0,5.836,3.063,5.836,6.836C57.682,14.464,55.064,17.529,51.846,17.529L51.846,17.529z"/>
		
			<radialGradient id="SVGID_3_" cx="1112.8176" cy="1341.1794" r="138.0141" gradientTransform="matrix(0.8542 0 0 1 -921.7856 -1400.3789)" gradientUnits="userSpaceOnUse">
			<stop  offset="0" style="stop-color:#E8F1D5"/>
			<stop  offset="0.118" style="stop-color:#E8F1D5"/>
			<stop  offset="0.1654" style="stop-color:#E4EFCF"/>
			<stop  offset="0.23" style="stop-color:#DAE8C0"/>
			<stop  offset="0.3043" style="stop-color:#CADBA5"/>
			<stop  offset="0.386" style="stop-color:#B3CA81"/>
			<stop  offset="0.4726" style="stop-color:#94B557"/>
			<stop  offset="0.5562" style="stop-color:#6DA130"/>
			<stop  offset="0.6288" style="stop-color:#629231"/>
			<stop  offset="0.7744" style="stop-color:#496C2F"/>
			<stop  offset="0.8315" style="stop-color:#3E5D2D"/>
			<stop  offset="1" style="stop-color:#3E5D2D"/>
		</radialGradient>
		<path fill="url(#SVGID_3_)" d="M51.846,16.159H9.82c-2.574,0-4.666-2.448-4.666-5.461c0-3.015,2.092-5.468,4.666-5.468h42.026
			c2.572,0,4.668,2.453,4.668,5.468C56.514,13.711,54.419,16.159,51.846,16.159L51.846,16.159z"/>
	</g>
	<g>
		
			<radialGradient id="SVGID_4_" cx="1117.9563" cy="1345.488" r="153.0464" gradientTransform="matrix(0.8542 0 0 1 -921.7856 -1400.3789)" gradientUnits="userSpaceOnUse">
			<stop  offset="0" style="stop-color:#E8F1D5"/>
			<stop  offset="0.118" style="stop-color:#E8F1D5"/>
			<stop  offset="0.1654" style="stop-color:#E4EFCF"/>
			<stop  offset="0.23" style="stop-color:#DAE8C0"/>
			<stop  offset="0.3043" style="stop-color:#CADBA5"/>
			<stop  offset="0.386" style="stop-color:#B3CA81"/>
			<stop  offset="0.4726" style="stop-color:#94B557"/>
			<stop  offset="0.5562" style="stop-color:#6DA130"/>
			<stop  offset="0.6288" style="stop-color:#629231"/>
			<stop  offset="0.7744" style="stop-color:#496C2F"/>
			<stop  offset="0.8315" style="stop-color:#3E5D2D"/>
			<stop  offset="1" style="stop-color:#3E5D2D"/>
		</radialGradient>
		<path fill="url(#SVGID_4_)" d="M58.85,27.098c0,4.524-3.135,8.198-7.004,8.198H9.822c-3.869,0-7.004-3.674-7.004-8.198l0,0
			c0-4.53,3.135-8.2,7.004-8.2h42.024C55.716,18.897,58.85,22.567,58.85,27.098L58.85,27.098z"/>
		
			<linearGradient id="SVGID_5_" gradientUnits="userSpaceOnUse" x1="994.6926" y1="1417.9109" x2="994.6926" y2="1452.0737" gradientTransform="matrix(1 0 0 1 -963.8589 -1400.3789)">
			<stop  offset="0" style="stop-color:#E8F1D5"/>
			<stop  offset="0.118" style="stop-color:#E8F1D5"/>
			<stop  offset="0.1654" style="stop-color:#E4EFCF"/>
			<stop  offset="0.23" style="stop-color:#DAE8C0"/>
			<stop  offset="0.3043" style="stop-color:#CADBA5"/>
			<stop  offset="0.386" style="stop-color:#B3CA81"/>
			<stop  offset="0.4726" style="stop-color:#94B557"/>
			<stop  offset="0.5562" style="stop-color:#6DA130"/>
			<stop  offset="0.6288" style="stop-color:#629231"/>
			<stop  offset="0.7744" style="stop-color:#496C2F"/>
			<stop  offset="0.8315" style="stop-color:#3E5D2D"/>
			<stop  offset="1" style="stop-color:#3E5D2D"/>
		</linearGradient>
		<path fill="url(#SVGID_5_)" d="M51.846,33.928H9.82c-3.215,0-5.836-3.064-5.836-6.831c0-3.771,2.621-6.834,5.836-6.834h42.026
			c3.218,0,5.836,3.063,5.836,6.834C57.682,30.864,55.064,33.928,51.846,33.928L51.846,33.928z"/>
		
			<radialGradient id="SVGID_6_" cx="1112.8176" cy="1357.5447" r="138.0774" gradientTransform="matrix(0.8542 0 0 1 -921.7856 -1400.3789)" gradientUnits="userSpaceOnUse">
			<stop  offset="0" style="stop-color:#E8F1D5"/>
			<stop  offset="0.118" style="stop-color:#E8F1D5"/>
			<stop  offset="0.1654" style="stop-color:#E4EFCF"/>
			<stop  offset="0.23" style="stop-color:#DAE8C0"/>
			<stop  offset="0.3043" style="stop-color:#CADBA5"/>
			<stop  offset="0.386" style="stop-color:#B3CA81"/>
			<stop  offset="0.4726" style="stop-color:#94B557"/>
			<stop  offset="0.5562" style="stop-color:#6DA130"/>
			<stop  offset="0.6288" style="stop-color:#629231"/>
			<stop  offset="0.7744" style="stop-color:#496C2F"/>
			<stop  offset="0.8315" style="stop-color:#3E5D2D"/>
			<stop  offset="1" style="stop-color:#3E5D2D"/>
		</radialGradient>
		<path fill="url(#SVGID_6_)" d="M51.846,32.561H9.82c-2.574,0-4.666-2.451-4.666-5.462c0-3.018,2.092-5.472,4.666-5.472h42.026
			c2.572,0,4.668,2.454,4.668,5.472C56.514,30.11,54.419,32.561,51.846,32.561L51.846,32.561z"/>
	</g>
	<g>
		
			<radialGradient id="SVGID_7_" cx="1117.9563" cy="1361.8748" r="153.067" gradientTransform="matrix(0.8542 0 0 1 -921.7856 -1400.3789)" gradientUnits="userSpaceOnUse">
			<stop  offset="0" style="stop-color:#E8F1D5"/>
			<stop  offset="0.118" style="stop-color:#E8F1D5"/>
			<stop  offset="0.1654" style="stop-color:#E4EFCF"/>
			<stop  offset="0.23" style="stop-color:#DAE8C0"/>
			<stop  offset="0.3043" style="stop-color:#CADBA5"/>
			<stop  offset="0.386" style="stop-color:#B3CA81"/>
			<stop  offset="0.4726" style="stop-color:#94B557"/>
			<stop  offset="0.5562" style="stop-color:#6DA130"/>
			<stop  offset="0.6288" style="stop-color:#629231"/>
			<stop  offset="0.7744" style="stop-color:#496C2F"/>
			<stop  offset="0.8315" style="stop-color:#3E5D2D"/>
			<stop  offset="1" style="stop-color:#3E5D2D"/>
		</radialGradient>
		<path fill="url(#SVGID_7_)" d="M58.85,43.497c0,4.527-3.135,8.201-7.004,8.201H9.822c-3.869,0-7.004-3.674-7.004-8.201l0,0
			c0-4.525,3.135-8.199,7.004-8.199h42.024C55.716,35.298,58.85,38.969,58.85,43.497L58.85,43.497z"/>
		
			<linearGradient id="SVGID_8_" gradientUnits="userSpaceOnUse" x1="994.6926" y1="1434.3113" x2="994.6926" y2="1468.4753" gradientTransform="matrix(1 0 0 1 -963.8589 -1400.3789)">
			<stop  offset="0" style="stop-color:#E8F1D5"/>
			<stop  offset="0.118" style="stop-color:#E8F1D5"/>
			<stop  offset="0.1654" style="stop-color:#E4EFCF"/>
			<stop  offset="0.23" style="stop-color:#DAE8C0"/>
			<stop  offset="0.3043" style="stop-color:#CADBA5"/>
			<stop  offset="0.386" style="stop-color:#B3CA81"/>
			<stop  offset="0.4726" style="stop-color:#94B557"/>
			<stop  offset="0.5562" style="stop-color:#6DA130"/>
			<stop  offset="0.6288" style="stop-color:#629231"/>
			<stop  offset="0.7744" style="stop-color:#496C2F"/>
			<stop  offset="0.8315" style="stop-color:#3E5D2D"/>
			<stop  offset="1" style="stop-color:#3E5D2D"/>
		</linearGradient>
		<path fill="url(#SVGID_8_)" d="M51.846,50.329H9.82c-3.215,0-5.836-3.063-5.836-6.832s2.621-6.832,5.836-6.832h42.026
			c3.218,0,5.836,3.063,5.836,6.832C57.682,47.264,55.064,50.329,51.846,50.329L51.846,50.329z"/>
		
			<radialGradient id="SVGID_9_" cx="1112.8176" cy="1373.9304" r="138.0917" gradientTransform="matrix(0.8542 0 0 1 -921.7856 -1400.3789)" gradientUnits="userSpaceOnUse">
			<stop  offset="0" style="stop-color:#E8F1D5"/>
			<stop  offset="0.118" style="stop-color:#E8F1D5"/>
			<stop  offset="0.1654" style="stop-color:#E4EFCF"/>
			<stop  offset="0.23" style="stop-color:#DAE8C0"/>
			<stop  offset="0.3043" style="stop-color:#CADBA5"/>
			<stop  offset="0.386" style="stop-color:#B3CA81"/>
			<stop  offset="0.4726" style="stop-color:#94B557"/>
			<stop  offset="0.5562" style="stop-color:#6DA130"/>
			<stop  offset="0.6288" style="stop-color:#629231"/>
			<stop  offset="0.7744" style="stop-color:#496C2F"/>
			<stop  offset="0.8315" style="stop-color:#3E5D2D"/>
			<stop  offset="1" style="stop-color:#3E5D2D"/>
		</radialGradient>
		<path fill="url(#SVGID_9_)" d="M51.846,48.962H9.82c-2.574,0-4.666-2.445-4.666-5.463c0-3.014,2.092-5.469,4.666-5.469h42.026
			c2.572,0,4.668,2.455,4.668,5.469S54.419,48.962,51.846,48.962L51.846,48.962z"/>
	</g>
</g>
</svg>
