<?xml version="1.0" encoding="utf-8"?>
<!-- Generator: Adobe Illustrator 14.0.0, SVG Export Plug-In . SVG Version: 6.00 Build 43363)  -->
<!DOCTYPE svg PUBLIC "-//W3C//DTD SVG 1.1//EN" "http://www.w3.org/Graphics/SVG/1.1/DTD/svg11.dtd">
<svg version="1.1" id="图层_1" xmlns="http://www.w3.org/2000/svg" xmlns:xlink="http://www.w3.org/1999/xlink" x="0px" y="0px"
	 width="57.333px" height="53.333px" viewBox="0 0 57.333 53.333" enable-background="new 0 0 57.333 53.333" xml:space="preserve">
<g>
	
		<radialGradient id="SVGID_1_" cx="992.8538" cy="1440.3169" r="136.4713" gradientTransform="matrix(1 0 0 0.9448 -963.8589 -1401.9427)" gradientUnits="userSpaceOnUse">
		<stop  offset="0" style="stop-color:#FAFAFB"/>
		<stop  offset="0.2344" style="stop-color:#F7F8F8"/>
		<stop  offset="0.4199" style="stop-color:#EFEEEE"/>
		<stop  offset="0.5887" style="stop-color:#E0DFDF"/>
		<stop  offset="0.7474" style="stop-color:#CBCACA"/>
		<stop  offset="0.8979" style="stop-color:#B1B0B0"/>
		<stop  offset="1" style="stop-color:#9B9B9B"/>
	</radialGradient>
	<path fill="url(#SVGID_1_)" d="M47.573,46.065c0,3.084-2.855,5.584-6.371,5.584h-26.01c-3.518,0-6.37-2.5-6.37-5.584v-27.45
		c0-3.083,2.853-5.583,6.37-5.583h26.008c3.52,0,6.371,2.5,6.371,5.583v27.45H47.573z"/>
	
		<radialGradient id="SVGID_2_" cx="1000.2834" cy="1373.7368" r="192.3195" gradientTransform="matrix(1 0 0 1 -963.8589 -1400.3789)" gradientUnits="userSpaceOnUse">
		<stop  offset="0" style="stop-color:#FAFAFB"/>
		<stop  offset="0.2344" style="stop-color:#F7F8F8"/>
		<stop  offset="0.4199" style="stop-color:#EFEEEE"/>
		<stop  offset="0.5887" style="stop-color:#E0DFDF"/>
		<stop  offset="0.7474" style="stop-color:#CBCACA"/>
		<stop  offset="0.8979" style="stop-color:#B1B0B0"/>
		<stop  offset="1" style="stop-color:#9B9B9B"/>
	</radialGradient>
	<path fill="url(#SVGID_2_)" d="M41.199,50.85H15.188c-3.072,0-5.571-2.146-5.571-4.785V18.613c0-2.64,2.499-4.785,5.571-4.785
		h26.011c3.074,0,5.572,2.146,5.572,4.785v27.448C46.774,48.704,44.276,50.85,41.199,50.85L41.199,50.85z"/>
	<g>
		
			<radialGradient id="SVGID_3_" cx="937.9622" cy="1377.3813" r="46.2059" gradientTransform="matrix(1.1127 0 0 1 -1008.4662 -1400.3789)" gradientUnits="userSpaceOnUse">
			<stop  offset="0" style="stop-color:#FFFFFF"/>
			<stop  offset="0.1541" style="stop-color:#FBFBFB"/>
			<stop  offset="0.3547" style="stop-color:#EDECEC"/>
			<stop  offset="0.5812" style="stop-color:#D5D3D3"/>
			<stop  offset="0.8246" style="stop-color:#B5B3B3"/>
			<stop  offset="1" style="stop-color:#999999"/>
		</radialGradient>
		<path fill="url(#SVGID_3_)" d="M19.869,12.733c0,1.762-1.589,3.188-3.545,3.188h-0.775c-1.956,0-3.545-1.425-3.545-3.188V5.17
			c0-1.759,1.589-3.188,3.545-3.188h0.775c1.956,0,3.545,1.428,3.545,3.188V12.733z"/>
		
			<radialGradient id="SVGID_4_" cx="983.1301" cy="1383.5532" r="55.8103" gradientTransform="matrix(1 0 0 1 -963.8589 -1400.3789)" gradientUnits="userSpaceOnUse">
			<stop  offset="0" style="stop-color:#FFFFFF"/>
			<stop  offset="0.1541" style="stop-color:#FBFBFB"/>
			<stop  offset="0.3547" style="stop-color:#EDECEC"/>
			<stop  offset="0.5812" style="stop-color:#D5D3D3"/>
			<stop  offset="0.8246" style="stop-color:#B5B3B3"/>
			<stop  offset="1" style="stop-color:#999999"/>
		</radialGradient>
		<path fill="url(#SVGID_4_)" d="M16.324,15.121h-0.775c-1.515,0-2.747-1.071-2.747-2.39V5.167c0-1.317,1.232-2.388,2.747-2.388
			h0.775c1.516,0,2.748,1.066,2.748,2.388v7.563C19.072,14.049,17.84,15.121,16.324,15.121L16.324,15.121z"/>
	</g>
	<path fill="#38424E" d="M55.531,20.864c0,4.035-4.188,5.568-8.227,5.568L28.114,12.631l-19.8,13.801
		c-4.036,0-6.396-1.533-6.396-5.568L27.506,2.283L55.531,20.864z"/>
	
		<radialGradient id="SVGID_5_" cx="1022.0442" cy="1329.4175" r="163.0807" gradientTransform="matrix(1 0 0 1 -963.8589 -1400.3789)" gradientUnits="userSpaceOnUse">
		<stop  offset="0.0112" style="stop-color:#FFFFFF"/>
		<stop  offset="0.1261" style="stop-color:#FDFDFE"/>
		<stop  offset="0.2135" style="stop-color:#F4F3F5"/>
		<stop  offset="0.2918" style="stop-color:#E5E3E7"/>
		<stop  offset="0.3648" style="stop-color:#CFCBD2"/>
		<stop  offset="0.4342" style="stop-color:#B4AEB9"/>
		<stop  offset="0.5008" style="stop-color:#938D9D"/>
		<stop  offset="0.5649" style="stop-color:#6C697F"/>
		<stop  offset="0.6261" style="stop-color:#404965"/>
		<stop  offset="0.6292" style="stop-color:#3D4763"/>
	</radialGradient>
	<path fill="url(#SVGID_5_)" d="M8.071,25.635c-3.595-0.055-5.215-1.379-5.346-4.371L27.53,3.25L54.717,21.28
		c-0.285,3.124-3.785,4.3-7.156,4.354L28.583,11.988l-0.457-0.329l-0.463,0.318L8.071,25.635L8.071,25.635z"/>
	
		<radialGradient id="SVGID_6_" cx="996.1838" cy="1276.8901" r="82.9744" gradientTransform="matrix(1.0238 0 0 1.0746 -974.9808 -1399.593)" gradientUnits="userSpaceOnUse">
		<stop  offset="0.0112" style="stop-color:#FFFFFF"/>
		<stop  offset="0.0916" style="stop-color:#FDFDFE"/>
		<stop  offset="0.1425" style="stop-color:#F6F5F7"/>
		<stop  offset="0.1853" style="stop-color:#E8E6E9"/>
		<stop  offset="0.2235" style="stop-color:#D4D0D7"/>
		<stop  offset="0.2587" style="stop-color:#BBB6C0"/>
		<stop  offset="0.2917" style="stop-color:#9D97A6"/>
		<stop  offset="0.323" style="stop-color:#7A7589"/>
		<stop  offset="0.3521" style="stop-color:#52556E"/>
		<stop  offset="0.3652" style="stop-color:#3D4763"/>
	</radialGradient>
	<path fill="url(#SVGID_6_)" d="M34.565,48.225V35.96c0-1.89-1.459-3.422-3.262-3.422h-4.889c-1.803,0-3.261,1.532-3.261,3.422
		v12.265c0,0.27,0.033,0.521,0.087,0.771h11.235C34.531,48.746,34.565,48.492,34.565,48.225z"/>
	
		<radialGradient id="SVGID_7_" cx="995.1506" cy="1385.5288" r="90.3672" gradientTransform="matrix(1 0 0 1 -963.8589 -1400.3789)" gradientUnits="userSpaceOnUse">
		<stop  offset="0.0112" style="stop-color:#FFFFFF"/>
		<stop  offset="0.1376" style="stop-color:#FDFDFE"/>
		<stop  offset="0.2337" style="stop-color:#F4F3F5"/>
		<stop  offset="0.3198" style="stop-color:#E5E3E7"/>
		<stop  offset="0.4002" style="stop-color:#CFCBD2"/>
		<stop  offset="0.4765" style="stop-color:#B4AEB9"/>
		<stop  offset="0.5497" style="stop-color:#938D9D"/>
		<stop  offset="0.6203" style="stop-color:#6C697F"/>
		<stop  offset="0.6876" style="stop-color:#404965"/>
		<stop  offset="0.691" style="stop-color:#3D4763"/>
	</radialGradient>
	<path fill="url(#SVGID_7_)" d="M33.77,48.201h-9.821V35.96c0-1.448,1.105-2.626,2.464-2.626h4.89c1.359,0,2.465,1.178,2.465,2.626
		L33.77,48.201L33.77,48.201z"/>
	<rect x="28.51" y="33.07" fill="#3D4763" width="0.698" height="15.653"/>
	
		<radialGradient id="SVGID_8_" cx="972.4856" cy="1420.103" r="44.5363" gradientTransform="matrix(1.04 0 0 1 -980.0031 -1400.3789)" gradientUnits="userSpaceOnUse">
		<stop  offset="0.0112" style="stop-color:#FFFFFF"/>
		<stop  offset="0.0916" style="stop-color:#FDFDFE"/>
		<stop  offset="0.1425" style="stop-color:#F6F5F7"/>
		<stop  offset="0.1853" style="stop-color:#E8E6E9"/>
		<stop  offset="0.2235" style="stop-color:#D4D0D7"/>
		<stop  offset="0.2587" style="stop-color:#BBB6C0"/>
		<stop  offset="0.2917" style="stop-color:#9D97A6"/>
		<stop  offset="0.323" style="stop-color:#7A7589"/>
		<stop  offset="0.3521" style="stop-color:#52556E"/>
		<stop  offset="0.3652" style="stop-color:#3D4763"/>
	</radialGradient>
	<rect x="22.092" y="48.727" fill="url(#SVGID_8_)" width="13.801" height="2.395"/>
	
		<radialGradient id="SVGID_9_" cx="1005.3274" cy="1390.2095" r="50.227" gradientTransform="matrix(1 0 0 1 -963.8589 -1400.3789)" gradientUnits="userSpaceOnUse">
		<stop  offset="0.0112" style="stop-color:#FFFFFF"/>
		<stop  offset="0.1376" style="stop-color:#FDFDFE"/>
		<stop  offset="0.2337" style="stop-color:#F4F3F5"/>
		<stop  offset="0.3198" style="stop-color:#E5E3E7"/>
		<stop  offset="0.4002" style="stop-color:#CFCBD2"/>
		<stop  offset="0.4765" style="stop-color:#B4AEB9"/>
		<stop  offset="0.5497" style="stop-color:#938D9D"/>
		<stop  offset="0.6203" style="stop-color:#6C697F"/>
		<stop  offset="0.6876" style="stop-color:#404965"/>
		<stop  offset="0.691" style="stop-color:#3D4763"/>
	</radialGradient>
	<circle fill="url(#SVGID_9_)" cx="28.329" cy="22.851" r="4.114"/>
	
		<radialGradient id="SVGID_10_" cx="1002.7795" cy="1396.5708" r="40.5489" gradientTransform="matrix(1 0 0 1 -963.8589 -1400.3789)" gradientUnits="userSpaceOnUse">
		<stop  offset="0" style="stop-color:#E8F1D5"/>
		<stop  offset="0.118" style="stop-color:#E8F1D5"/>
		<stop  offset="0.1654" style="stop-color:#E4EFCF"/>
		<stop  offset="0.23" style="stop-color:#DAE8C0"/>
		<stop  offset="0.3043" style="stop-color:#CADBA5"/>
		<stop  offset="0.386" style="stop-color:#B3CA81"/>
		<stop  offset="0.4726" style="stop-color:#94B557"/>
		<stop  offset="0.5562" style="stop-color:#6DA130"/>
		<stop  offset="0.6288" style="stop-color:#629231"/>
		<stop  offset="0.7744" style="stop-color:#496C2F"/>
		<stop  offset="0.8315" style="stop-color:#3E5D2D"/>
		<stop  offset="1" style="stop-color:#3E5D2D"/>
	</radialGradient>
	<path fill="url(#SVGID_10_)" d="M28.926,19.596v2.791h2.672C31.399,20.975,30.321,19.85,28.926,19.596z"/>
	
		<radialGradient id="SVGID_11_" cx="1002.0413" cy="1408.6216" r="54.5028" gradientTransform="matrix(1 0 0 1 -963.8589 -1400.3789)" gradientUnits="userSpaceOnUse">
		<stop  offset="0" style="stop-color:#FFFFFF"/>
		<stop  offset="0.1541" style="stop-color:#FBFBFB"/>
		<stop  offset="0.3547" style="stop-color:#EDECEC"/>
		<stop  offset="0.5812" style="stop-color:#D5D3D3"/>
		<stop  offset="0.8246" style="stop-color:#B5B3B3"/>
		<stop  offset="1" style="stop-color:#999999"/>
	</radialGradient>
	<path fill="url(#SVGID_11_)" d="M28.926,19.596v2.791h2.672C31.399,20.975,30.321,19.85,28.926,19.596z"/>
	
		<radialGradient id="SVGID_12_" cx="1002.7776" cy="1396.604" r="40.5052" gradientTransform="matrix(1 0 0 1 -963.8589 -1400.3789)" gradientUnits="userSpaceOnUse">
		<stop  offset="0" style="stop-color:#E8F1D5"/>
		<stop  offset="0.118" style="stop-color:#E8F1D5"/>
		<stop  offset="0.1654" style="stop-color:#E4EFCF"/>
		<stop  offset="0.23" style="stop-color:#DAE8C0"/>
		<stop  offset="0.3043" style="stop-color:#CADBA5"/>
		<stop  offset="0.386" style="stop-color:#B3CA81"/>
		<stop  offset="0.4726" style="stop-color:#94B557"/>
		<stop  offset="0.5562" style="stop-color:#6DA130"/>
		<stop  offset="0.6288" style="stop-color:#629231"/>
		<stop  offset="0.7744" style="stop-color:#496C2F"/>
		<stop  offset="0.8315" style="stop-color:#3E5D2D"/>
		<stop  offset="1" style="stop-color:#3E5D2D"/>
	</radialGradient>
	<path fill="url(#SVGID_12_)" d="M27.631,19.614c-1.312,0.279-2.332,1.343-2.562,2.675h2.562V19.614z"/>
	
		<radialGradient id="SVGID_13_" cx="1002.0393" cy="1408.6382" r="54.4566" gradientTransform="matrix(1 0 0 1 -963.8589 -1400.3789)" gradientUnits="userSpaceOnUse">
		<stop  offset="0" style="stop-color:#FFFFFF"/>
		<stop  offset="0.1541" style="stop-color:#FBFBFB"/>
		<stop  offset="0.3547" style="stop-color:#EDECEC"/>
		<stop  offset="0.5812" style="stop-color:#D5D3D3"/>
		<stop  offset="0.8246" style="stop-color:#B5B3B3"/>
		<stop  offset="1" style="stop-color:#999999"/>
	</radialGradient>
	<path fill="url(#SVGID_13_)" d="M27.631,19.614c-1.312,0.279-2.332,1.343-2.562,2.675h2.562V19.614z"/>
	
		<radialGradient id="SVGID_14_" cx="1002.7834" cy="1396.6274" r="40.4762" gradientTransform="matrix(1 0 0 1 -963.8589 -1400.3789)" gradientUnits="userSpaceOnUse">
		<stop  offset="0" style="stop-color:#E8F1D5"/>
		<stop  offset="0.118" style="stop-color:#E8F1D5"/>
		<stop  offset="0.1654" style="stop-color:#E4EFCF"/>
		<stop  offset="0.23" style="stop-color:#DAE8C0"/>
		<stop  offset="0.3043" style="stop-color:#CADBA5"/>
		<stop  offset="0.386" style="stop-color:#B3CA81"/>
		<stop  offset="0.4726" style="stop-color:#94B557"/>
		<stop  offset="0.5562" style="stop-color:#6DA130"/>
		<stop  offset="0.6288" style="stop-color:#629231"/>
		<stop  offset="0.7744" style="stop-color:#496C2F"/>
		<stop  offset="0.8315" style="stop-color:#3E5D2D"/>
		<stop  offset="1" style="stop-color:#3E5D2D"/>
	</radialGradient>
	<path fill="url(#SVGID_14_)" d="M25.099,23.582c0.275,1.218,1.224,2.177,2.434,2.479v-2.479H25.099z"/>
	
		<radialGradient id="SVGID_15_" cx="1002.0432" cy="1408.6538" r="54.4191" gradientTransform="matrix(1 0 0 1 -963.8589 -1400.3789)" gradientUnits="userSpaceOnUse">
		<stop  offset="0" style="stop-color:#FFFFFF"/>
		<stop  offset="0.1541" style="stop-color:#FBFBFB"/>
		<stop  offset="0.3547" style="stop-color:#EDECEC"/>
		<stop  offset="0.5812" style="stop-color:#D5D3D3"/>
		<stop  offset="0.8246" style="stop-color:#B5B3B3"/>
		<stop  offset="1" style="stop-color:#999999"/>
	</radialGradient>
	<path fill="url(#SVGID_15_)" d="M25.099,23.582c0.275,1.218,1.224,2.177,2.434,2.479v-2.479H25.099z"/>
	
		<radialGradient id="SVGID_16_" cx="1002.7825" cy="1396.6011" r="40.5073" gradientTransform="matrix(1 0 0 1 -963.8589 -1400.3789)" gradientUnits="userSpaceOnUse">
		<stop  offset="0.0112" style="stop-color:#FFFFFF"/>
		<stop  offset="0.1376" style="stop-color:#FDFDFE"/>
		<stop  offset="0.2337" style="stop-color:#F4F3F5"/>
		<stop  offset="0.3198" style="stop-color:#E5E3E7"/>
		<stop  offset="0.4002" style="stop-color:#CFCBD2"/>
		<stop  offset="0.4765" style="stop-color:#B4AEB9"/>
		<stop  offset="0.5497" style="stop-color:#938D9D"/>
		<stop  offset="0.6203" style="stop-color:#6C697F"/>
		<stop  offset="0.6876" style="stop-color:#404965"/>
		<stop  offset="0.691" style="stop-color:#3D4763"/>
	</radialGradient>
	<path fill="url(#SVGID_16_)" d="M31.58,23.481c0.041-0.2,0.066-0.414,0.066-0.631c0-0.158-0.025-0.31-0.049-0.463h-2.672v-2.791
		c-0.193-0.035-0.392-0.061-0.596-0.061c-0.24,0-0.473,0.023-0.699,0.078v2.675h-2.562c-0.031,0.183-0.058,0.37-0.058,0.562
		c0,0.254,0.033,0.496,0.087,0.732h2.434v2.479c0.257,0.064,0.52,0.106,0.797,0.106c0.204,0,0.402-0.022,0.596-0.062v-2.627
		L31.58,23.481L31.58,23.481z"/>
	
		<radialGradient id="SVGID_17_" cx="1002.7747" cy="1396.5845" r="40.527" gradientTransform="matrix(1 0 0 1 -963.8589 -1400.3789)" gradientUnits="userSpaceOnUse">
		<stop  offset="0" style="stop-color:#E8F1D5"/>
		<stop  offset="0.118" style="stop-color:#E8F1D5"/>
		<stop  offset="0.1654" style="stop-color:#E4EFCF"/>
		<stop  offset="0.23" style="stop-color:#DAE8C0"/>
		<stop  offset="0.3043" style="stop-color:#CADBA5"/>
		<stop  offset="0.386" style="stop-color:#B3CA81"/>
		<stop  offset="0.4726" style="stop-color:#94B557"/>
		<stop  offset="0.5562" style="stop-color:#6DA130"/>
		<stop  offset="0.6288" style="stop-color:#629231"/>
		<stop  offset="0.7744" style="stop-color:#496C2F"/>
		<stop  offset="0.8315" style="stop-color:#3E5D2D"/>
		<stop  offset="1" style="stop-color:#3E5D2D"/>
	</radialGradient>
	<path fill="url(#SVGID_17_)" d="M31.58,23.481h-2.655v2.627C30.264,25.863,31.324,24.815,31.58,23.481z"/>
	
		<radialGradient id="SVGID_18_" cx="1002.0364" cy="1408.6294" r="54.4734" gradientTransform="matrix(1 0 0 1 -963.8589 -1400.3789)" gradientUnits="userSpaceOnUse">
		<stop  offset="0" style="stop-color:#FFFFFF"/>
		<stop  offset="0.1541" style="stop-color:#FBFBFB"/>
		<stop  offset="0.3547" style="stop-color:#EDECEC"/>
		<stop  offset="0.5812" style="stop-color:#D5D3D3"/>
		<stop  offset="0.8246" style="stop-color:#B5B3B3"/>
		<stop  offset="1" style="stop-color:#999999"/>
	</radialGradient>
	<path fill="url(#SVGID_18_)" d="M31.58,23.481h-2.655v2.627C30.264,25.863,31.324,24.815,31.58,23.481z"/>
</g>
</svg>
