<?xml version="1.0" encoding="utf-8"?>
<!-- Generator: Adobe Illustrator 14.0.0, SVG Export Plug-In . SVG Version: 6.00 Build 43363)  -->
<!DOCTYPE svg PUBLIC "-//W3C//DTD SVG 1.1//EN" "http://www.w3.org/Graphics/SVG/1.1/DTD/svg11.dtd">
<svg version="1.1" id="图层_1" xmlns="http://www.w3.org/2000/svg" xmlns:xlink="http://www.w3.org/1999/xlink" x="0px" y="0px"
	 width="54.667px" height="49.667px" viewBox="0 0 54.667 49.667" enable-background="new 0 0 54.667 49.667" xml:space="preserve">
<g>
	
		<radialGradient id="SVGID_1_" cx="991.1174" cy="1415.6929" r="15.751" gradientTransform="matrix(1 0 0 1 -963.8589 -1400.3789)" gradientUnits="userSpaceOnUse">
		<stop  offset="0" style="stop-color:#FFFFFF"/>
		<stop  offset="0.1541" style="stop-color:#FBFBFB"/>
		<stop  offset="0.3547" style="stop-color:#EDECEC"/>
		<stop  offset="0.5812" style="stop-color:#D5D3D3"/>
		<stop  offset="0.8246" style="stop-color:#B5B3B3"/>
		<stop  offset="1" style="stop-color:#999999"/>
	</radialGradient>
	<rect x="15.485" y="45.701" fill="url(#SVGID_1_)" width="23.756" height="1.688"/>
	
		<radialGradient id="SVGID_2_" cx="992.6643" cy="1429.9712" r="30.2536" gradientTransform="matrix(1 0 0 1 -963.8589 -1400.3789)" gradientUnits="userSpaceOnUse">
		<stop  offset="0" style="stop-color:#FAFAFB"/>
		<stop  offset="0.2344" style="stop-color:#F7F8F8"/>
		<stop  offset="0.4199" style="stop-color:#EFEEEE"/>
		<stop  offset="0.5887" style="stop-color:#E0DFDF"/>
		<stop  offset="0.7474" style="stop-color:#CBCACA"/>
		<stop  offset="0.8979" style="stop-color:#B1B0B0"/>
		<stop  offset="1" style="stop-color:#9B9B9B"/>
	</radialGradient>
	<rect x="15.922" y="45.701" fill="url(#SVGID_2_)" width="22.936" height="1.417"/>
	
		<radialGradient id="SVGID_3_" cx="991.1194" cy="1398.7017" r="11.8417" gradientTransform="matrix(1 0 0 1 -963.8589 -1400.3789)" gradientUnits="userSpaceOnUse">
		<stop  offset="0" style="stop-color:#FAFAFB"/>
		<stop  offset="0.2344" style="stop-color:#F7F8F8"/>
		<stop  offset="0.4199" style="stop-color:#EFEEEE"/>
		<stop  offset="0.5887" style="stop-color:#E0DFDF"/>
		<stop  offset="0.7474" style="stop-color:#CBCACA"/>
		<stop  offset="0.8979" style="stop-color:#B1B0B0"/>
		<stop  offset="1" style="stop-color:#9B9B9B"/>
	</radialGradient>
	<path fill="url(#SVGID_3_)" d="M34.716,40.365c0,0,0.021,0.838,0.543,1.354c0.392,0.394,2.656,2.66,3.761,3.764
		c0.629,0.628-0.16,0.6-0.599,0.6s-21.415,0-22.014,0c-0.598,0-1.279-0.025-0.652-0.652c1.084-1.084,3.174-3.176,3.595-3.599
		c0.572-0.569,0.655-1.577,0.655-1.577v-5.287h14.708v5.397H34.716z"/>
	
		<linearGradient id="SVGID_4_" gradientUnits="userSpaceOnUse" x1="991.2395" y1="1435.7837" x2="991.2395" y2="1446.4053" gradientTransform="matrix(1 0 0 1 -963.8589 -1400.3789)">
		<stop  offset="0.3407" style="stop-color:#9B9B9B"/>
		<stop  offset="0.4931" style="stop-color:#ADACAC"/>
		<stop  offset="0.8046" style="stop-color:#DBD9D9"/>
		<stop  offset="1" style="stop-color:#FAFAFB"/>
	</linearGradient>
	<path fill="url(#SVGID_4_)" d="M38.531,45.885h-0.106H16.409c-0.41,0-0.648-0.022-0.709-0.074c0.011-0.004,0.037-0.084,0.197-0.242
		l3.592-3.6c0.619-0.609,0.71-1.652,0.714-1.701v-5.102h14.318v5.197c0,0.041,0.032,0.928,0.604,1.496l1.063,1.063l2.694,2.695
		c0.166,0.168,0.177,0.238,0.177,0.238h-0.005C39.02,45.859,38.89,45.885,38.531,45.885L38.531,45.885z"/>
	
		<radialGradient id="SVGID_5_" cx="1004.5178" cy="1335.5669" r="49.4072" gradientTransform="matrix(0.9805 0 0 1.006 -962.9031 -1398.8619)" gradientUnits="userSpaceOnUse">
		<stop  offset="0" style="stop-color:#FAFAFB"/>
		<stop  offset="0.2344" style="stop-color:#F7F8F8"/>
		<stop  offset="0.4199" style="stop-color:#EFEEEE"/>
		<stop  offset="0.5887" style="stop-color:#E0DFDF"/>
		<stop  offset="0.7474" style="stop-color:#CBCACA"/>
		<stop  offset="0.8979" style="stop-color:#B1B0B0"/>
		<stop  offset="1" style="stop-color:#9B9B9B"/>
	</radialGradient>
	<path fill="url(#SVGID_5_)" d="M52.041,35.904c0,1.591-1.048,2.877-2.339,2.877H4.966c-1.293,0-2.34-1.286-2.34-2.877V5.156
		c0-1.588,1.047-2.877,2.34-2.877h44.736c1.291,0,2.339,1.289,2.339,2.877V35.904z"/>
	
		<radialGradient id="SVGID_6_" cx="1031.0305" cy="1421.8228" r="177.8216" gradientTransform="matrix(0.9598 0 0 0.9882 -961.1121 -1402.5814)" gradientUnits="userSpaceOnUse">
		<stop  offset="0" style="stop-color:#FAFAFB"/>
		<stop  offset="0.2344" style="stop-color:#F7F8F8"/>
		<stop  offset="0.4199" style="stop-color:#EFEEEE"/>
		<stop  offset="0.5887" style="stop-color:#E0DFDF"/>
		<stop  offset="0.7474" style="stop-color:#CBCACA"/>
		<stop  offset="0.8979" style="stop-color:#B1B0B0"/>
		<stop  offset="1" style="stop-color:#9B9B9B"/>
	</radialGradient>
	<path fill="url(#SVGID_6_)" d="M51.204,35.363c0,1.526-1.014,2.771-2.266,2.771H5.624c-1.25,0-2.265-1.242-2.265-2.771V5.699
		c0-1.53,1.015-2.774,2.265-2.774H48.94c1.252,0,2.268,1.244,2.268,2.774v29.664H51.204z"/>
	
		<radialGradient id="SVGID_7_" cx="1037.0286" cy="1392.8452" r="137.5826" gradientTransform="matrix(0.9565 0 0 0.9882 -960.7014 -1402.5814)" gradientUnits="userSpaceOnUse">
		<stop  offset="0" style="stop-color:#FAFAFB"/>
		<stop  offset="0.2344" style="stop-color:#F7F8F8"/>
		<stop  offset="0.4199" style="stop-color:#EFEEEE"/>
		<stop  offset="0.5887" style="stop-color:#E0DFDF"/>
		<stop  offset="0.7474" style="stop-color:#CBCACA"/>
		<stop  offset="0.8979" style="stop-color:#B1B0B0"/>
		<stop  offset="1" style="stop-color:#9B9B9B"/>
	</radialGradient>
	<path fill="url(#SVGID_7_)" d="M50.684,35.002c0,1.492-0.995,2.701-2.22,2.701H6.054c-1.228,0-2.219-1.209-2.219-2.701V6.112
		c0-1.491,0.991-2.702,2.219-2.702h42.411c1.227,0,2.222,1.211,2.222,2.702L50.684,35.002L50.684,35.002z"/>
	
		<radialGradient id="SVGID_8_" cx="990.4592" cy="1446.1636" r="48.1356" gradientTransform="matrix(1 0 0 1 -963.8589 -1400.3789)" gradientUnits="userSpaceOnUse">
		<stop  offset="0" style="stop-color:#FFFFFF"/>
		<stop  offset="0.1541" style="stop-color:#FBFBFB"/>
		<stop  offset="0.3547" style="stop-color:#EDECEC"/>
		<stop  offset="0.5812" style="stop-color:#D5D3D3"/>
		<stop  offset="0.8246" style="stop-color:#B5B3B3"/>
		<stop  offset="1" style="stop-color:#999999"/>
	</radialGradient>
	<path fill="url(#SVGID_8_)" d="M38.941,45.946c0,0.137-0.108,0.244-0.245,0.244H16.057c-0.135,0-0.244-0.107-0.244-0.244l0,0
		c0-0.139,0.109-0.244,0.244-0.244h22.638C38.829,45.701,38.941,45.811,38.941,45.946L38.941,45.946z"/>
	<path fill="#3D4763" d="M48.07,32.122c0,1.497-1.17,2.709-2.612,2.709H8.952c-1.445,0-2.615-1.212-2.615-2.709V8.99
		c0-1.497,1.169-2.707,2.615-2.707h36.505c1.442,0,2.612,1.21,2.612,2.707V32.122z"/>
	
		<radialGradient id="SVGID_9_" cx="991.5852" cy="1485.9478" r="84.494" gradientTransform="matrix(0.9652 0 0 0.9485 -950.4152 -1418.0679)" gradientUnits="userSpaceOnUse">
		<stop  offset="0" style="stop-color:#FDF3F8"/>
		<stop  offset="0.2143" style="stop-color:#84B0DA"/>
		<stop  offset="0.4396" style="stop-color:#4A7ABC"/>
		<stop  offset="0.5549" style="stop-color:#376AB3"/>
		<stop  offset="0.7857" style="stop-color:#224394"/>
		<stop  offset="0.8068" style="stop-color:#21428E"/>
		<stop  offset="0.8427" style="stop-color:#213C7A"/>
		<stop  offset="0.8892" style="stop-color:#1C315B"/>
		<stop  offset="0.9444" style="stop-color:#101F31"/>
		<stop  offset="1" style="stop-color:#040000"/>
	</radialGradient>
	<path fill="url(#SVGID_9_)" d="M44.873,33.654H9.643c-1.112,0-2.02-0.931-2.02-2.071V9.639c0-1.145,0.906-2.07,2.02-2.07h35.229
		c1.113,0,2.021,0.929,2.021,2.07v21.942C46.895,32.725,45.987,33.654,44.873,33.654L44.873,33.654z"/>
	
		<radialGradient id="SVGID_10_" cx="991.5852" cy="1485.9478" r="84.4944" gradientTransform="matrix(0.9652 0 0 0.9485 -950.4152 -1418.0698)" gradientUnits="userSpaceOnUse">
		<stop  offset="0.0112" style="stop-color:#FFFFFF"/>
		<stop  offset="0.1261" style="stop-color:#FDFDFE"/>
		<stop  offset="0.2135" style="stop-color:#F4F3F5"/>
		<stop  offset="0.2918" style="stop-color:#E5E3E7"/>
		<stop  offset="0.3648" style="stop-color:#CFCBD2"/>
		<stop  offset="0.4342" style="stop-color:#B4AEB9"/>
		<stop  offset="0.5008" style="stop-color:#938D9D"/>
		<stop  offset="0.5649" style="stop-color:#6C697F"/>
		<stop  offset="0.6261" style="stop-color:#404965"/>
		<stop  offset="0.6292" style="stop-color:#3D4763"/>
	</radialGradient>
	<path fill="url(#SVGID_10_)" d="M44.873,7.567h-2.933C36.588,19.152,23.59,27.332,8.395,27.332c-0.259,0-0.514-0.012-0.771-0.018
		v4.268c0,1.144,0.906,2.071,2.02,2.071h35.23c1.109,0,2.021-0.932,2.021-2.071V9.639C46.895,8.495,45.987,7.567,44.873,7.567z"/>
	
		<radialGradient id="SVGID_11_" cx="991.5823" cy="1485.9507" r="84.4882" gradientTransform="matrix(0.9652 0 0 0.9485 -950.4152 -1418.0698)" gradientUnits="userSpaceOnUse">
		<stop  offset="0" style="stop-color:#FDF3F8"/>
		<stop  offset="0.2143" style="stop-color:#84B0DA"/>
		<stop  offset="0.4396" style="stop-color:#4A7ABC"/>
		<stop  offset="0.5549" style="stop-color:#376AB3"/>
		<stop  offset="0.7857" style="stop-color:#224394"/>
		<stop  offset="0.8068" style="stop-color:#21428E"/>
		<stop  offset="0.8427" style="stop-color:#213C7A"/>
		<stop  offset="0.8892" style="stop-color:#1C315B"/>
		<stop  offset="0.9444" style="stop-color:#101F31"/>
		<stop  offset="1" style="stop-color:#040000"/>
	</radialGradient>
	<path fill="url(#SVGID_11_)" d="M41.942,7.567H9.643c-1.112,0-2.02,0.929-2.02,2.07v17.678c0.257,0.005,0.512,0.018,0.771,0.018
		C23.59,27.332,36.588,19.152,41.942,7.567z"/>
	
		<radialGradient id="SVGID_12_" cx="963.7502" cy="1358.5327" r="156.1211" gradientTransform="matrix(1 0 0 1 -963.8589 -1400.3789)" gradientUnits="userSpaceOnUse">
		<stop  offset="0.0112" style="stop-color:#FFFFFF"/>
		<stop  offset="0.1261" style="stop-color:#FDFDFE"/>
		<stop  offset="0.2135" style="stop-color:#F4F3F5"/>
		<stop  offset="0.2918" style="stop-color:#E5E3E7"/>
		<stop  offset="0.3648" style="stop-color:#CFCBD2"/>
		<stop  offset="0.4342" style="stop-color:#B4AEB9"/>
		<stop  offset="0.5008" style="stop-color:#938D9D"/>
		<stop  offset="0.5649" style="stop-color:#6C697F"/>
		<stop  offset="0.6261" style="stop-color:#404965"/>
		<stop  offset="0.6292" style="stop-color:#3D4763"/>
	</radialGradient>
	<path fill="url(#SVGID_12_)" d="M41.942,7.567H9.643c-1.112,0-2.02,0.929-2.02,2.07v17.678c0.257,0.005,0.512,0.018,0.771,0.018
		C23.59,27.332,36.588,19.152,41.942,7.567z"/>
</g>
</svg>
