<?xml version="1.0" encoding="utf-8"?>
<!-- Generator: Adobe Illustrator 14.0.0, SVG Export Plug-In . SVG Version: 6.00 Build 43363)  -->
<!DOCTYPE svg PUBLIC "-//W3C//DTD SVG 1.1//EN" "http://www.w3.org/Graphics/SVG/1.1/DTD/svg11.dtd">
<svg version="1.1" id="图层_1" xmlns="http://www.w3.org/2000/svg" xmlns:xlink="http://www.w3.org/1999/xlink" x="0px" y="0px"
	 width="44.667px" height="44.667px" viewBox="0 0 44.667 44.667" enable-background="new 0 0 44.667 44.667" xml:space="preserve">
<g>
	<g>
		<g>
			<g>
				<defs>
					<circle id="SVGID_1_" cx="30.527" cy="16.244" r="33.113"/>
				</defs>
				<clipPath id="SVGID_2_">
					<use xlink:href="#SVGID_1_"  overflow="visible"/>
				</clipPath>
				<path opacity="0.25" clip-path="url(#SVGID_2_)" fill="#38424E" enable-background="new    " d="M43.171,10.456l-8.295,8.299
					l-0.764-0.768l-4.658-4.654l-0.768-0.767l8.301-8.294c-3.986-1.587-8.703-0.807-11.932,2.425
					c-3.004,2.999-3.917,7.298-2.76,11.091L3.366,36.718c-0.247,0.248-0.247,0.65,0,0.896l6.462,6.465
					c0.247,0.242,0.646,0.242,0.896,0l18.93-18.936c3.797,1.154,8.094,0.244,11.092-2.764
					C43.974,19.155,44.757,14.444,43.171,10.456z"/>
			</g>
		</g>
	</g>
	<g>
		<g>
			<g>
				<defs>
					<circle id="SVGID_3_" cx="30.527" cy="16.244" r="33.113"/>
				</defs>
				<clipPath id="SVGID_4_">
					<use xlink:href="#SVGID_3_"  overflow="visible"/>
				</clipPath>
				<path clip-path="url(#SVGID_4_)" fill="#38424E" d="M41.675,8.956l-8.295,8.299l-0.768-0.768l-4.658-4.652l-0.764-0.768
					l8.303-8.292c-3.986-1.588-8.705-0.812-11.932,2.422c-3.005,3-3.919,7.298-2.762,11.093L1.867,35.218
					c-0.244,0.25-0.244,0.652,0,0.9l6.463,6.465c0.246,0.242,0.647,0.242,0.896,0l18.934-18.938
					c3.793,1.154,8.088,0.244,11.088-2.762C42.476,17.657,43.261,12.945,41.675,8.956z"/>
			</g>
		</g>
	</g>
</g>
</svg>
