<?xml version="1.0" encoding="utf-8"?>
<!-- Generator: Adobe Illustrator 14.0.0, SVG Export Plug-In . SVG Version: 6.00 Build 43363)  -->
<!DOCTYPE svg PUBLIC "-//W3C//DTD SVG 1.1//EN" "http://www.w3.org/Graphics/SVG/1.1/DTD/svg11.dtd">
<svg version="1.1" id="图层_1" xmlns="http://www.w3.org/2000/svg" xmlns:xlink="http://www.w3.org/1999/xlink" x="0px" y="0px"
	 width="110.195px" height="37px" viewBox="0 0 110.195 37" enable-background="new 0 0 110.195 37" xml:space="preserve">
<g>
	<g>
		<polygon fill="#F09A69" points="108.323,18.26 97.292,31.783 9.626,31.783 9.626,5.219 97.292,5.219 		"/>
		
			<polygon opacity="0.25" fill="none" stroke="#EF8F57" stroke-width="4" stroke-linecap="round" stroke-linejoin="round" enable-background="new    " points="
			108.323,18.26 97.292,31.783 9.626,31.783 9.626,5.219 97.292,5.219 		"/>
		
			<polygon opacity="0.3" fill="none" stroke="#EE753E" stroke-width="3.15" stroke-linecap="round" stroke-linejoin="round" enable-background="new    " points="
			108.323,18.26 97.292,31.783 9.626,31.783 9.626,5.219 97.292,5.219 		"/>
		<polygon fill="none" stroke="#E94C1B" stroke-width="2.5" stroke-linecap="round" stroke-linejoin="round" points="108.323,18.26 
			97.292,31.783 9.626,31.783 9.626,5.219 97.292,5.219 		"/>
		<polygon fill="none" stroke="#E86C3C" stroke-width="1.95" stroke-linecap="round" stroke-linejoin="round" points="
			108.323,18.26 97.292,31.783 9.626,31.783 9.626,5.219 97.292,5.219 		"/>
		<polygon fill="none" stroke="#EC8B59" stroke-width="1.25" stroke-linecap="round" stroke-linejoin="round" points="
			108.323,18.26 97.292,31.783 9.626,31.783 9.626,5.219 97.292,5.219 		"/>
		<polygon fill="none" stroke="#F1B380" stroke-width="0.5" stroke-linecap="round" stroke-linejoin="round" points="108.323,18.26 
			97.292,31.783 9.626,31.783 9.626,5.219 97.292,5.219 		"/>
	</g>
	<g>
		<path opacity="0.2" fill="#F09A69" enable-background="new    " d="M9.626,2.719c-1.381,0-2.5,1.119-2.5,2.5v26.563
			c0,1.381,1.119,2.5,2.5,2.5h87.667c0.752,0,1.463-0.338,1.938-0.92l11.03-13.521c0.761-0.934,0.749-2.273-0.028-3.194
			L99.201,3.604c-0.475-0.562-1.173-0.886-1.908-0.886H9.626z M96.132,7.719c1.133,1.338,7.031,8.313,8.938,10.568
			c-1.88,2.307-7.829,9.603-8.968,10.994c-2.243,0-79.326,0-83.979,0c0-3.678,0-17.889,0-21.563
			C16.781,7.719,93.939,7.719,96.132,7.719z"/>
	</g>
</g>
</svg>
