<?xml version="1.0" encoding="utf-8"?>
<!-- Generator: Adobe Illustrator 14.0.0, SVG Export Plug-In . SVG Version: 6.00 Build 43363)  -->
<!DOCTYPE svg PUBLIC "-//W3C//DTD SVG 1.1//EN" "http://www.w3.org/Graphics/SVG/1.1/DTD/svg11.dtd">
<svg version="1.1" id="图层_1" xmlns="http://www.w3.org/2000/svg" xmlns:xlink="http://www.w3.org/1999/xlink" x="0px" y="0px"
	 width="69.991px" height="69.607px" viewBox="0 0 69.991 69.607" enable-background="new 0 0 69.991 69.607" xml:space="preserve">
<g>
	<g>
		<path fill="#FFFFFF" d="M41.869,0.176c-1.35,0.657-4.444,4.478-6.067,7.514c-1.619-3.036-4.714-6.856-6.063-7.514
			c-0.551-0.267-0.965-0.179-1.229-0.059c-0.293-0.005-0.703,0.08-1.098,0.541c-0.949,1.112-2.231,5.917-2.486,9.361
			c-2.709-2.115-7.088-4.349-8.592-4.411c-0.613-0.024-0.918,0.205-1.116,0.425c-0.271,0.098-0.646,0.341-0.825,0.954
			c-0.079,0.255-0.117,0.635-0.117,1.107c0,2.06,0.698,5.798,1.642,8.451c-3.317-0.828-8.225-1.074-9.63-0.524
			c-0.619,0.241-0.836,0.649-0.906,0.931c-0.172,0.18-0.335,0.432-0.335,0.866c0,0.076,0,0.156,0.019,0.238
			c0.183,1.438,2.902,5.632,5.288,8.141c-3.365,0.592-7.947,2.343-9.013,3.423c-0.379,0.378-0.479,0.752-0.479,1.034
			c0,0.097,0.029,0.147,0.041,0.217c-0.041,0.111-0.097,0.168-0.097,0.324c0,0.22,0.06,0.484,0.233,0.777
			c0.754,1.235,4.934,3.976,8.141,5.3c-2.826,1.906-6.292,5.363-6.834,6.788c-0.085,0.228-0.116,0.43-0.116,0.609
			c0,0.305,0.093,0.508,0.194,0.666c0.025,0.285,0.133,0.662,0.61,0.988c1.2,0.832,6.142,1.613,9.595,1.51
			c-1.764,2.826-3.486,7.27-3.486,8.9c0,0.039,0,0.077,0,0.114c0.037,0.632,0.336,0.958,0.566,1.126
			c0.143,0.248,0.422,0.547,0.988,0.656c1.436,0.264,6.273-1.025,9.387-2.521c-0.158,1.167-0.236,2.509-0.236,3.834
			c0,2.532,0.26,4.97,0.711,5.825c0.289,0.551,0.652,0.691,0.939,0.744c0.222,0.189,0.591,0.387,1.211,0.236
			c1.425-0.354,5.307-3.49,7.534-6.114c0.966,3.294,3.226,7.729,4.378,8.638c0.498,0.394,0.902,0.361,1.181,0.288
			c0.282,0.073,0.681,0.105,1.185-0.288c1.162-0.909,3.414-5.344,4.374-8.638c2.231,2.624,6.111,5.761,7.542,6.114
			c0.62,0.15,0.982-0.047,1.209-0.236c0.285-0.053,0.654-0.193,0.939-0.744c0.449-0.855,0.713-3.293,0.713-5.82
			c0-1.33-0.082-2.672-0.238-3.839c3.113,1.495,7.947,2.784,9.386,2.521c0.569-0.109,0.843-0.408,0.985-0.656
			c0.24-0.168,0.535-0.494,0.567-1.126c0.006-0.037,0.006-0.075,0.006-0.114c0-1.631-1.726-6.074-3.495-8.9
			c3.461,0.104,8.402-0.68,9.601-1.51c0.476-0.326,0.583-0.703,0.61-0.988c0.102-0.154,0.199-0.359,0.199-0.666
			c0-0.18-0.035-0.382-0.125-0.609c-0.542-1.425-4-4.882-6.828-6.788c3.203-1.324,7.381-4.064,8.132-5.3
			c0.181-0.293,0.233-0.558,0.233-0.777c0-0.155-0.053-0.213-0.09-0.324c0.016-0.07,0.037-0.12,0.037-0.217
			c0-0.282-0.1-0.656-0.473-1.034c-1.076-1.08-5.655-2.831-9.017-3.423c2.394-2.508,5.101-6.703,5.29-8.141
			c0.008-0.082,0.019-0.162,0.019-0.235c0-0.437-0.169-0.689-0.333-0.869c-0.076-0.282-0.291-0.69-0.913-0.931
			c-1.405-0.55-6.312-0.304-9.628,0.524c0.947-2.653,1.641-6.391,1.641-8.451c0-0.472-0.034-0.852-0.115-1.107
			c-0.178-0.613-0.554-0.856-0.828-0.954c-0.199-0.22-0.501-0.449-1.105-0.425c-1.512,0.062-5.896,2.296-8.603,4.411
			c-0.252-3.445-1.536-8.249-2.479-9.361c-0.396-0.456-0.813-0.546-1.1-0.541C42.834-0.005,42.422-0.091,41.869,0.176z"/>
		<linearGradient id="SVGID_1_" gradientUnits="userSpaceOnUse" x1="35.8037" y1="1.0332" x2="35.8037" y2="68.5918">
			<stop  offset="0" style="stop-color:#FFFF00"/>
			<stop  offset="0.1952" style="stop-color:#D6E506"/>
			<stop  offset="1" style="stop-color:#307C1F"/>
		</linearGradient>
		<path fill="url(#SVGID_1_)" d="M35.802,10.599c0-2.553,7.69-12.305,6.953-8.823c0.737-3.481,3.786,8.552,2.768,10.886
			c1.019-2.334,12.007-8.119,9.938-5.229c2.068-2.891-0.039,9.346-1.904,11.064c1.865-1.718,14.246-2.536,11.206-0.735
			c3.04-1.801-3.845,8.522-6.239,9.337c2.395-0.815,14.035,3.481,10.537,3.886c3.498-0.404-7.003,6.219-9.505,5.993
			c2.502,0.226,11.399,8.887,8.055,7.838c3.345,1.049-8.948,2.828-11.12,1.607c2.172,1.221,6.778,12.75,4.164,10.434
			c2.614,2.316-9.336-1.055-10.809-3.051c1.473,1.996,0.991,14.399-0.438,11.224c1.429,3.176-8.113-4.764-8.644-7.185
			c0.53,2.421-4.963,13.559-4.963,10.076c0,3.482-5.485-7.655-4.966-10.076c-0.52,2.421-10.063,10.36-8.635,7.185
			c-1.429,3.176-1.914-9.228-0.438-11.224c-1.477,1.996-13.428,5.367-10.811,3.051c-2.617,2.316,1.99-9.213,4.166-10.434
			c-2.176,1.221-14.463-0.559-11.118-1.607c-3.345,1.049,5.551-7.612,8.048-7.838c-2.497,0.226-13.002-6.397-9.5-5.993
			c-3.502-0.404,8.148-4.701,10.539-3.886c-2.391-0.815-9.287-11.138-6.241-9.337c-3.046-1.801,9.339-0.983,11.206,0.735
			c-1.867-1.718-3.977-13.955-1.906-11.064c-2.07-2.891,8.92,2.894,9.937,5.229c-1.017-2.334,2.036-14.368,2.768-10.886
			C28.119-1.706,35.802,8.046,35.802,10.599z"/>
	</g>
	<g>
		<linearGradient id="SVGID_2_" gradientUnits="userSpaceOnUse" x1="20.1758" y1="11.8452" x2="22.188" y2="82.1896">
			<stop  offset="0" style="stop-color:#E3EAA8"/>
			<stop  offset="0.2545" style="stop-color:#CED600"/>
			<stop  offset="1" style="stop-color:#7F9627"/>
		</linearGradient>
		<rect x="18.586" y="44.562" fill="url(#SVGID_2_)" width="5.157" height="3.718"/>
		<linearGradient id="SVGID_3_" gradientUnits="userSpaceOnUse" x1="20.3438" y1="11.8276" x2="22.357" y2="82.2076">
			<stop  offset="0" style="stop-color:#E3EAA8"/>
			<stop  offset="0.2545" style="stop-color:#CED600"/>
			<stop  offset="1" style="stop-color:#7F9627"/>
		</linearGradient>
		<rect x="18.586" y="38.684" fill="url(#SVGID_3_)" width="5.157" height="3.719"/>
		<linearGradient id="SVGID_4_" gradientUnits="userSpaceOnUse" x1="27.127" y1="11.6572" x2="29.1387" y2="81.9865">
			<stop  offset="0" style="stop-color:#E3EAA8"/>
			<stop  offset="0.2545" style="stop-color:#CED600"/>
			<stop  offset="1" style="stop-color:#7F9627"/>
		</linearGradient>
		<rect x="25.542" y="44.562" fill="url(#SVGID_4_)" width="5.157" height="3.718"/>
		<linearGradient id="SVGID_5_" gradientUnits="userSpaceOnUse" x1="27.2939" y1="11.6338" x2="29.3067" y2="81.9987">
			<stop  offset="0" style="stop-color:#E3EAA8"/>
			<stop  offset="0.2545" style="stop-color:#CED600"/>
			<stop  offset="1" style="stop-color:#7F9627"/>
		</linearGradient>
		<rect x="25.542" y="38.684" fill="url(#SVGID_5_)" width="5.157" height="3.719"/>
		<rect x="25.542" y="32.807" fill="#FFFFFF" width="5.157" height="3.718"/>
		<linearGradient id="SVGID_6_" gradientUnits="userSpaceOnUse" x1="34.0776" y1="11.4468" x2="36.0899" y2="81.7939">
			<stop  offset="0" style="stop-color:#E3EAA8"/>
			<stop  offset="0.2545" style="stop-color:#CED600"/>
			<stop  offset="1" style="stop-color:#7F9627"/>
		</linearGradient>
		<rect x="32.499" y="44.562" fill="url(#SVGID_6_)" width="5.157" height="3.718"/>
		<linearGradient id="SVGID_7_" gradientUnits="userSpaceOnUse" x1="34.2456" y1="11.4419" x2="36.2579" y2="81.789">
			<stop  offset="0" style="stop-color:#E3EAA8"/>
			<stop  offset="0.2545" style="stop-color:#CED600"/>
			<stop  offset="1" style="stop-color:#7F9627"/>
		</linearGradient>
		<rect x="32.499" y="38.684" fill="url(#SVGID_7_)" width="5.157" height="3.719"/>
		<linearGradient id="SVGID_8_" gradientUnits="userSpaceOnUse" x1="34.4136" y1="11.436" x2="36.4259" y2="81.7831">
			<stop  offset="0" style="stop-color:#E3EAA8"/>
			<stop  offset="0.2545" style="stop-color:#CED600"/>
			<stop  offset="1" style="stop-color:#7F9627"/>
		</linearGradient>
		<rect x="32.499" y="32.807" fill="url(#SVGID_8_)" width="5.157" height="3.718"/>
		<linearGradient id="SVGID_9_" gradientUnits="userSpaceOnUse" x1="34.5815" y1="11.4331" x2="36.5938" y2="81.7802">
			<stop  offset="0" style="stop-color:#E3EAA8"/>
			<stop  offset="0.2545" style="stop-color:#CED600"/>
			<stop  offset="1" style="stop-color:#7F9627"/>
		</linearGradient>
		<rect x="32.499" y="26.929" fill="url(#SVGID_9_)" width="5.157" height="3.718"/>
		<rect x="32.499" y="21.052" fill="#FFFFFF" width="5.157" height="3.718"/>
		<linearGradient id="SVGID_10_" gradientUnits="userSpaceOnUse" x1="41.0303" y1="11.2563" x2="43.042" y2="81.5857">
			<stop  offset="0" style="stop-color:#E3EAA8"/>
			<stop  offset="0.2545" style="stop-color:#CED600"/>
			<stop  offset="1" style="stop-color:#7F9627"/>
		</linearGradient>
		<rect x="39.457" y="44.562" fill="url(#SVGID_10_)" width="5.157" height="3.718"/>
		<linearGradient id="SVGID_11_" gradientUnits="userSpaceOnUse" x1="41.1982" y1="11.2432" x2="43.2105" y2="81.5903">
			<stop  offset="0" style="stop-color:#E3EAA8"/>
			<stop  offset="0.2545" style="stop-color:#CED600"/>
			<stop  offset="1" style="stop-color:#7F9627"/>
		</linearGradient>
		<rect x="39.457" y="38.684" fill="url(#SVGID_11_)" width="5.157" height="3.719"/>
		<linearGradient id="SVGID_12_" gradientUnits="userSpaceOnUse" x1="41.3662" y1="11.2393" x2="43.3785" y2="81.5863">
			<stop  offset="0" style="stop-color:#E3EAA8"/>
			<stop  offset="0.2545" style="stop-color:#CED600"/>
			<stop  offset="0.3999" style="stop-color:#C6CE00"/>
			<stop  offset="1" style="stop-color:#7F9627"/>
		</linearGradient>
		<rect x="39.457" y="32.807" fill="url(#SVGID_12_)" width="5.157" height="3.718"/>
		<linearGradient id="SVGID_13_" gradientUnits="userSpaceOnUse" x1="41.5332" y1="11.2285" x2="43.5459" y2="81.5907">
			<stop  offset="0" style="stop-color:#E3EAA8"/>
			<stop  offset="0.2545" style="stop-color:#CED600"/>
			<stop  offset="1" style="stop-color:#7F9627"/>
		</linearGradient>
		<rect x="39.457" y="26.929" fill="url(#SVGID_13_)" width="5.157" height="3.718"/>
		<linearGradient id="SVGID_14_" gradientUnits="userSpaceOnUse" x1="41.7012" y1="11.2246" x2="43.7139" y2="81.5868">
			<stop  offset="0" style="stop-color:#E3EAA8"/>
			<stop  offset="0.2545" style="stop-color:#CED600"/>
			<stop  offset="1" style="stop-color:#7F9627"/>
		</linearGradient>
		<rect x="39.457" y="21.052" fill="url(#SVGID_14_)" width="5.157" height="3.718"/>
		<linearGradient id="SVGID_15_" gradientUnits="userSpaceOnUse" x1="41.8691" y1="11.2207" x2="43.8819" y2="81.5829">
			<stop  offset="0" style="stop-color:#E3EAA8"/>
			<stop  offset="0.2545" style="stop-color:#CED600"/>
			<stop  offset="1" style="stop-color:#7F9627"/>
		</linearGradient>
		<rect x="39.457" y="15.174" fill="url(#SVGID_15_)" width="5.157" height="3.718"/>
		<linearGradient id="SVGID_16_" gradientUnits="userSpaceOnUse" x1="47.9805" y1="11.0527" x2="49.9927" y2="81.3971">
			<stop  offset="0" style="stop-color:#E3EAA8"/>
			<stop  offset="0.2545" style="stop-color:#CED600"/>
			<stop  offset="1" style="stop-color:#7F9627"/>
		</linearGradient>
		<rect x="46.413" y="44.562" fill="url(#SVGID_16_)" width="5.157" height="3.718"/>
		<linearGradient id="SVGID_17_" gradientUnits="userSpaceOnUse" x1="48.1475" y1="11.0303" x2="50.1607" y2="81.4102">
			<stop  offset="0" style="stop-color:#E3EAA8"/>
			<stop  offset="0.2545" style="stop-color:#CED600"/>
			<stop  offset="1" style="stop-color:#7F9627"/>
		</linearGradient>
		<rect x="46.413" y="38.684" fill="url(#SVGID_17_)" width="5.157" height="3.719"/>
		<linearGradient id="SVGID_18_" gradientUnits="userSpaceOnUse" x1="48.3154" y1="11.0337" x2="50.3281" y2="81.3958">
			<stop  offset="0" style="stop-color:#E3EAA8"/>
			<stop  offset="0.2545" style="stop-color:#CED600"/>
			<stop  offset="1" style="stop-color:#7F9627"/>
		</linearGradient>
		<rect x="46.413" y="32.807" fill="url(#SVGID_18_)" width="5.157" height="3.718"/>
	</g>
</g>
</svg>
