<?xml version="1.0" encoding="utf-8"?>
<!-- Generator: Adobe Illustrator 14.0.0, SVG Export Plug-In . SVG Version: 6.00 Build 43363)  -->
<!DOCTYPE svg PUBLIC "-//W3C//DTD SVG 1.1//EN" "http://www.w3.org/Graphics/SVG/1.1/DTD/svg11.dtd">
<svg version="1.1" id="图层_1" xmlns="http://www.w3.org/2000/svg" xmlns:xlink="http://www.w3.org/1999/xlink" x="0px" y="0px"
	 width="90.252px" height="60.25px" viewBox="0 0 90.252 60.25" enable-background="new 0 0 90.252 60.25" xml:space="preserve">
<g>
	<g>
		
			<radialGradient id="SVGID_1_" cx="700.1912" cy="1319.3564" r="170.5985" gradientTransform="matrix(1.4979 0 0 1 -1000.6462 -1400.3789)" gradientUnits="userSpaceOnUse">
			<stop  offset="0" style="stop-color:#E8F1D5"/>
			<stop  offset="0.118" style="stop-color:#E8F1D5"/>
			<stop  offset="0.1654" style="stop-color:#E4EFCF"/>
			<stop  offset="0.23" style="stop-color:#DAE8C0"/>
			<stop  offset="0.3043" style="stop-color:#CADBA5"/>
			<stop  offset="0.386" style="stop-color:#B3CA81"/>
			<stop  offset="0.4726" style="stop-color:#94B557"/>
			<stop  offset="0.5562" style="stop-color:#6DA130"/>
			<stop  offset="0.6288" style="stop-color:#629231"/>
			<stop  offset="0.7744" style="stop-color:#496C2F"/>
			<stop  offset="0.8315" style="stop-color:#3E5D2D"/>
			<stop  offset="1" style="stop-color:#3E5D2D"/>
		</radialGradient>
		<ellipse fill="url(#SVGID_1_)" cx="45.126" cy="30.125" rx="45.127" ry="30.125"/>
		
			<radialGradient id="SVGID_2_" cx="696.8962" cy="1384.6377" r="106.9646" gradientTransform="matrix(1.4979 0 0 1 -1000.6462 -1400.3789)" gradientUnits="userSpaceOnUse">
			<stop  offset="0" style="stop-color:#E8F1D5"/>
			<stop  offset="0.118" style="stop-color:#E8F1D5"/>
			<stop  offset="0.1654" style="stop-color:#E4EFCF"/>
			<stop  offset="0.23" style="stop-color:#DAE8C0"/>
			<stop  offset="0.3043" style="stop-color:#CADBA5"/>
			<stop  offset="0.386" style="stop-color:#B3CA81"/>
			<stop  offset="0.4726" style="stop-color:#94B557"/>
			<stop  offset="0.5562" style="stop-color:#6DA130"/>
			<stop  offset="0.6288" style="stop-color:#629231"/>
			<stop  offset="0.7744" style="stop-color:#496C2F"/>
			<stop  offset="0.8315" style="stop-color:#3E5D2D"/>
			<stop  offset="1" style="stop-color:#3E5D2D"/>
		</radialGradient>
		<path fill="url(#SVGID_2_)" d="M45.129,58.135c-23.137,0-41.956-12.563-41.956-28.013c0-15.44,18.819-28.01,41.956-28.01
			s41.959,12.565,41.959,28.01C87.088,45.57,68.264,58.135,45.129,58.135L45.129,58.135z"/>
		
			<radialGradient id="SVGID_3_" cx="723.7156" cy="1371.2861" r="147.3816" gradientTransform="matrix(1.4979 0 0 1 -1000.6462 -1400.3789)" gradientUnits="userSpaceOnUse">
			<stop  offset="0" style="stop-color:#E8F1D5"/>
			<stop  offset="0.118" style="stop-color:#E8F1D5"/>
			<stop  offset="0.1654" style="stop-color:#E4EFCF"/>
			<stop  offset="0.23" style="stop-color:#DAE8C0"/>
			<stop  offset="0.3043" style="stop-color:#CADBA5"/>
			<stop  offset="0.386" style="stop-color:#B3CA81"/>
			<stop  offset="0.4726" style="stop-color:#94B557"/>
			<stop  offset="0.5562" style="stop-color:#6DA130"/>
			<stop  offset="0.6288" style="stop-color:#629231"/>
			<stop  offset="0.7744" style="stop-color:#496C2F"/>
			<stop  offset="0.8315" style="stop-color:#3E5D2D"/>
			<stop  offset="1" style="stop-color:#3E5D2D"/>
		</radialGradient>
		<path fill="url(#SVGID_3_)" d="M45.129,56.506c-21.788,0-39.518-11.834-39.518-26.379c0-14.55,17.729-26.385,39.518-26.385
			c21.795,0,39.52,11.835,39.52,26.385C84.647,44.672,66.924,56.506,45.129,56.506L45.129,56.506z"/>
	</g>
	<g>
		<path fill="#FFFFFF" d="M65.719,19.611c-0.638,0.313-2.099,2.113-2.863,3.545c-0.764-1.434-2.225-3.232-2.861-3.545
			c-0.26-0.126-0.455-0.084-0.578-0.028c-0.139-0.002-0.332,0.038-0.52,0.259c-0.447,0.521-1.053,2.791-1.173,4.416
			c-1.278-0.998-3.345-2.055-4.055-2.082c-0.289-0.015-0.434,0.098-0.526,0.197c-0.128,0.049-0.305,0.161-0.39,0.45
			c-0.037,0.121-0.057,0.3-0.057,0.522c0,0.972,0.33,2.732,0.772,3.984c-1.563-0.391-3.881-0.507-4.544-0.244
			c-0.292,0.111-0.396,0.307-0.431,0.438c-0.08,0.085-0.155,0.204-0.155,0.409c0,0.035,0,0.074,0.009,0.111
			c0.086,0.678,1.369,2.655,2.495,3.842c-1.588,0.275-3.75,1.104-4.253,1.615c-0.182,0.178-0.229,0.354-0.229,0.484
			c0,0.046,0.017,0.068,0.021,0.104c-0.021,0.053-0.046,0.08-0.046,0.15c0,0.104,0.025,0.229,0.107,0.367
			c0.354,0.583,2.328,1.876,3.84,2.501c-1.332,0.899-2.969,2.53-3.225,3.202c-0.039,0.107-0.055,0.203-0.055,0.289
			c0,0.144,0.044,0.238,0.092,0.313c0.012,0.137,0.063,0.313,0.288,0.469c0.564,0.393,2.896,0.76,4.525,0.711
			c-0.832,1.334-1.646,3.431-1.646,4.201c0,0.018,0,0.033,0,0.053c0.02,0.299,0.159,0.453,0.27,0.531
			c0.065,0.114,0.199,0.258,0.469,0.311c0.677,0.123,2.96-0.481,4.429-1.188c-0.072,0.55-0.109,1.185-0.109,1.81
			c0,1.195,0.123,2.345,0.336,2.748c0.138,0.261,0.31,0.326,0.441,0.352c0.104,0.094,0.278,0.186,0.571,0.111
			c0.672-0.166,2.504-1.646,3.555-2.885c0.456,1.555,1.521,3.646,2.065,4.076c0.233,0.186,0.427,0.17,0.558,0.135
			c0.134,0.035,0.321,0.051,0.56-0.135c0.552-0.434,1.61-2.521,2.063-4.076c1.054,1.236,2.886,2.719,3.56,2.885
			c0.293,0.07,0.465-0.021,0.569-0.111c0.136-0.021,0.31-0.091,0.443-0.352c0.212-0.403,0.337-1.553,0.337-2.746
			c0-0.627-0.039-1.26-0.112-1.812c1.47,0.703,3.75,1.313,4.431,1.188c0.271-0.053,0.396-0.191,0.465-0.311
			c0.113-0.078,0.255-0.232,0.27-0.531c0.003-0.02,0.003-0.035,0.003-0.053c0-0.771-0.813-2.867-1.648-4.201
			c1.637,0.049,3.968-0.32,4.531-0.711c0.227-0.154,0.273-0.332,0.287-0.469C78.655,40.84,78.7,40.741,78.7,40.6
			c0-0.086-0.018-0.18-0.06-0.289c-0.256-0.672-1.888-2.303-3.222-3.202c1.511-0.625,3.479-1.918,3.837-2.501
			c0.085-0.139,0.107-0.264,0.107-0.367c0-0.07-0.022-0.102-0.043-0.15c0.008-0.033,0.021-0.06,0.021-0.104
			c0-0.133-0.047-0.311-0.226-0.484c-0.508-0.514-2.668-1.34-4.254-1.615c1.129-1.188,2.405-3.164,2.496-3.842
			c0.004-0.039,0.008-0.076,0.008-0.111c0-0.207-0.08-0.324-0.154-0.409c-0.036-0.134-0.141-0.326-0.434-0.438
			c-0.662-0.263-2.979-0.146-4.543,0.244c0.445-1.252,0.772-3.016,0.772-3.984c0-0.227-0.018-0.402-0.057-0.522
			c-0.084-0.289-0.262-0.401-0.392-0.45c-0.095-0.104-0.235-0.212-0.521-0.197c-0.715,0.026-2.78,1.084-4.061,2.082
			c-0.119-1.625-0.728-3.896-1.172-4.416c-0.188-0.219-0.383-0.262-0.521-0.259C66.174,19.525,65.978,19.485,65.719,19.611z"/>
		
			<linearGradient id="SVGID_4_" gradientUnits="userSpaceOnUse" x1="1026.7195" y1="1420.3945" x2="1026.7195" y2="1452.2715" gradientTransform="matrix(1 0 0 1 -963.8589 -1400.3789)">
			<stop  offset="0" style="stop-color:#EFEA3C"/>
			<stop  offset="0.0772" style="stop-color:#E3E13A"/>
			<stop  offset="1" style="stop-color:#337938"/>
		</linearGradient>
		<path fill="url(#SVGID_4_)" d="M62.854,24.529c0-1.205,3.63-5.807,3.281-4.163c0.349-1.644,1.786,4.035,1.306,5.14
			c0.48-1.104,5.666-3.83,4.689-2.47c0.977-1.36-0.019,4.41-0.898,5.224c0.881-0.813,6.723-1.196,5.288-0.35
			c1.435-0.85-1.813,4.021-2.944,4.406c1.131-0.385,6.623,1.646,4.977,1.833c1.646-0.191-3.309,2.938-4.483,2.827
			c1.182,0.104,5.379,4.193,3.801,3.699c1.578,0.494-4.225,1.334-5.246,0.758c1.021,0.576,3.197,6.018,1.966,4.924
			c1.231,1.094-4.405-0.498-5.103-1.438c0.693,0.938,0.469,6.795-0.207,5.297c0.676,1.498-3.828-2.248-4.078-3.395
			c0.25,1.146-2.344,6.396-2.344,4.754c0,1.646-2.588-3.607-2.343-4.754c-0.245,1.146-4.749,4.893-4.074,3.395
			c-0.675,1.498-0.901-4.355-0.206-5.297c-0.695,0.938-6.337,2.529-5.103,1.438c-1.234,1.094,0.938-4.348,1.966-4.924
			c-1.023,0.576-6.824-0.264-5.246-0.758c-1.578,0.494,2.619-3.596,3.799-3.699c-1.18,0.104-6.137-3.021-4.481-2.827
			c-1.651-0.191,3.847-2.218,4.975-1.833c-1.128-0.385-4.383-5.256-2.945-4.406c-1.438-0.85,4.406-0.464,5.289,0.35
			c-0.883-0.813-1.877-6.584-0.898-5.224c-0.979-1.36,4.209,1.366,4.688,2.47c-0.479-1.104,0.961-6.779,1.305-5.14
			C59.229,18.723,62.854,23.324,62.854,24.529z"/>
	</g>
	<g>
		<g>
			<path fill="#FFFFFF" d="M27.689,42.789l-0.613-1.626h-5.231l-0.613,1.661c-0.24,0.646-0.445,1.085-0.615,1.313
				c-0.17,0.227-0.446,0.34-0.834,0.34c-0.328,0-0.617-0.119-0.869-0.359c-0.252-0.236-0.377-0.512-0.377-0.813
				c0-0.18,0.029-0.356,0.088-0.545c0.06-0.188,0.154-0.447,0.289-0.781l3.291-8.36c0.095-0.237,0.207-0.524,0.338-0.862
				c0.134-0.338,0.273-0.615,0.423-0.841c0.149-0.223,0.346-0.399,0.588-0.54c0.244-0.138,0.543-0.205,0.899-0.205
				c0.363,0,0.666,0.067,0.908,0.205c0.242,0.141,0.439,0.314,0.588,0.531c0.15,0.217,0.275,0.449,0.377,0.698
				c0.104,0.249,0.232,0.581,0.392,0.997l3.362,8.307c0.263,0.632,0.396,1.091,0.396,1.378c0,0.3-0.125,0.572-0.373,0.821
				c-0.25,0.249-0.549,0.373-0.9,0.373c-0.205,0-0.381-0.037-0.526-0.11c-0.146-0.071-0.269-0.174-0.367-0.301
				c-0.101-0.126-0.207-0.32-0.32-0.582C27.869,43.221,27.771,42.988,27.689,42.789z M22.529,39.225h3.844l-1.938-5.313
				L22.529,39.225z"/>
			<path fill="#FFFFFF" d="M31.732,38.934v-6.19c0-0.522,0.119-0.921,0.354-1.185s0.547-0.396,0.932-0.396
				c0.4,0,0.719,0.135,0.955,0.396c0.235,0.261,0.354,0.658,0.354,1.187v6.337c0,0.725,0.082,1.323,0.242,1.809
				c0.162,0.48,0.447,0.855,0.859,1.125c0.41,0.268,0.983,0.397,1.725,0.397c1.021,0,1.742-0.271,2.166-0.813
				c0.422-0.541,0.633-1.363,0.633-2.465v-6.393c0-0.529,0.117-0.93,0.351-1.188c0.232-0.258,0.545-0.395,0.936-0.395
				c0.39,0,0.705,0.133,0.947,0.395c0.24,0.261,0.361,0.656,0.361,1.188v6.193c0,1.008-0.099,1.849-0.291,2.521
				c-0.195,0.678-0.564,1.268-1.105,1.774c-0.469,0.432-1.012,0.745-1.633,0.944c-0.619,0.194-1.346,0.297-2.176,0.297
				c-0.988,0-1.841-0.106-2.554-0.32c-0.715-0.214-1.297-0.544-1.746-0.992c-0.45-0.445-0.78-1.021-0.991-1.721
				C31.84,40.739,31.732,39.906,31.732,38.934z"/>
			<path fill="#FFFFFF" d="M53.757,33.538h-2.849v9.353c0,0.539-0.119,0.938-0.355,1.197c-0.238,0.26-0.553,0.392-0.932,0.392
				c-0.387,0-0.695-0.132-0.938-0.396c-0.244-0.263-0.362-0.657-0.362-1.19v-9.352H45.47c-0.445,0-0.775-0.098-0.992-0.295
				c-0.217-0.193-0.326-0.456-0.326-0.775c0-0.334,0.113-0.602,0.34-0.793c0.226-0.192,0.552-0.291,0.979-0.291h8.289
				c0.448,0,0.787,0.101,1.008,0.299c0.221,0.201,0.328,0.462,0.328,0.783c0,0.32-0.109,0.584-0.334,0.776
				C54.534,33.44,54.2,33.538,53.757,33.538z"/>
			<path fill="#FFFFFF" d="M62.05,31.163c1.334,0,2.479,0.271,3.435,0.813c0.957,0.541,1.68,1.312,2.172,2.31
				c0.489,0.998,0.735,2.17,0.735,3.521c0,0.994-0.135,1.896-0.403,2.713c-0.268,0.813-0.672,1.52-1.209,2.117
				c-0.539,0.597-1.199,1.054-1.979,1.369c-0.783,0.313-1.685,0.475-2.693,0.475c-1.006,0-1.904-0.163-2.699-0.487
				c-0.795-0.323-1.459-0.782-1.99-1.374c-0.531-0.591-0.936-1.303-1.204-2.134c-0.272-0.831-0.407-1.729-0.407-2.696
				c0-0.986,0.142-1.896,0.426-2.722c0.283-0.825,0.693-1.528,1.229-2.106c0.538-0.578,1.192-1.021,1.966-1.328
				C60.189,31.317,61.066,31.163,62.05,31.163z M65.765,37.784c0-0.94-0.152-1.763-0.459-2.455c-0.306-0.688-0.74-1.216-1.308-1.567
				c-0.566-0.355-1.217-0.533-1.95-0.533c-0.521,0-1.004,0.099-1.447,0.295c-0.443,0.197-0.826,0.482-1.146,0.857
				s-0.573,0.854-0.758,1.438c-0.188,0.584-0.276,1.239-0.276,1.967c0,0.733,0.092,1.396,0.276,1.989
				c0.185,0.593,0.442,1.084,0.78,1.474c0.341,0.394,0.728,0.685,1.162,0.875c0.438,0.194,0.918,0.291,1.438,0.291
				c0.672,0,1.285-0.167,1.849-0.501c0.563-0.334,1.006-0.851,1.338-1.549S65.765,38.805,65.765,37.784z"/>
		</g>
		<g>
			
				<linearGradient id="SVGID_5_" gradientUnits="userSpaceOnUse" x1="987.1785" y1="1456.3506" x2="987.4285" y2="1438.3501" gradientTransform="matrix(1 0 0 1 -963.8589 -1400.3789)">
				<stop  offset="0" style="stop-color:#E8F1D5"/>
				<stop  offset="0.118" style="stop-color:#E8F1D5"/>
				<stop  offset="0.1654" style="stop-color:#E4EFCF"/>
				<stop  offset="0.23" style="stop-color:#DAE8C0"/>
				<stop  offset="0.3043" style="stop-color:#CADBA5"/>
				<stop  offset="0.386" style="stop-color:#B3CA81"/>
				<stop  offset="0.4726" style="stop-color:#94B557"/>
				<stop  offset="0.5562" style="stop-color:#6DA130"/>
				<stop  offset="0.6288" style="stop-color:#629231"/>
				<stop  offset="0.7744" style="stop-color:#496C2F"/>
				<stop  offset="0.8315" style="stop-color:#3E5D2D"/>
				<stop  offset="1" style="stop-color:#3E5D2D"/>
			</linearGradient>
			<path fill="url(#SVGID_5_)" d="M26.689,42.038l-0.613-1.625h-5.231l-0.613,1.661c-0.24,0.648-0.445,1.085-0.615,1.313
				c-0.17,0.227-0.446,0.34-0.834,0.34c-0.328,0-0.617-0.119-0.869-0.359c-0.252-0.236-0.377-0.512-0.377-0.813
				c0-0.176,0.029-0.356,0.088-0.545c0.06-0.188,0.154-0.447,0.289-0.781l3.291-8.36c0.095-0.237,0.207-0.524,0.338-0.862
				c0.134-0.338,0.273-0.615,0.423-0.841c0.149-0.223,0.346-0.399,0.588-0.54c0.244-0.138,0.543-0.205,0.899-0.205
				c0.363,0,0.666,0.067,0.908,0.205c0.242,0.141,0.439,0.314,0.588,0.531c0.15,0.217,0.275,0.449,0.377,0.698
				c0.104,0.249,0.232,0.581,0.392,0.997l3.362,8.307c0.263,0.632,0.396,1.092,0.396,1.378c0,0.3-0.125,0.572-0.373,0.821
				c-0.25,0.249-0.549,0.373-0.9,0.373c-0.205,0-0.381-0.037-0.526-0.11c-0.146-0.071-0.269-0.174-0.367-0.301
				c-0.101-0.126-0.207-0.32-0.32-0.582C26.869,42.471,26.771,42.239,26.689,42.038z M21.529,38.475h3.844l-1.938-5.313
				L21.529,38.475z"/>
			
				<linearGradient id="SVGID_6_" gradientUnits="userSpaceOnUse" x1="999.7058" y1="1456.5264" x2="999.9558" y2="1438.5244" gradientTransform="matrix(1 0 0 1 -963.8589 -1400.3789)">
				<stop  offset="0" style="stop-color:#E8F1D5"/>
				<stop  offset="0.118" style="stop-color:#E8F1D5"/>
				<stop  offset="0.1654" style="stop-color:#E4EFCF"/>
				<stop  offset="0.23" style="stop-color:#DAE8C0"/>
				<stop  offset="0.3043" style="stop-color:#CADBA5"/>
				<stop  offset="0.386" style="stop-color:#B3CA81"/>
				<stop  offset="0.4726" style="stop-color:#94B557"/>
				<stop  offset="0.5562" style="stop-color:#6DA130"/>
				<stop  offset="0.6288" style="stop-color:#629231"/>
				<stop  offset="0.7744" style="stop-color:#496C2F"/>
				<stop  offset="0.8315" style="stop-color:#3E5D2D"/>
				<stop  offset="1" style="stop-color:#3E5D2D"/>
			</linearGradient>
			<path fill="url(#SVGID_6_)" d="M30.732,38.184v-6.19c0-0.522,0.119-0.921,0.354-1.185s0.547-0.396,0.932-0.396
				c0.4,0,0.719,0.135,0.955,0.396c0.235,0.261,0.354,0.658,0.354,1.187v6.337c0,0.725,0.082,1.323,0.242,1.809
				c0.162,0.48,0.447,0.855,0.859,1.125c0.41,0.268,0.983,0.397,1.725,0.397c1.021,0,1.742-0.271,2.166-0.813
				c0.422-0.541,0.633-1.363,0.633-2.465v-6.393c0-0.529,0.117-0.93,0.351-1.188c0.232-0.258,0.545-0.395,0.936-0.395
				c0.39,0,0.705,0.133,0.947,0.395c0.24,0.261,0.361,0.656,0.361,1.188v6.193c0,1.008-0.099,1.849-0.291,2.521
				c-0.195,0.678-0.564,1.268-1.105,1.774c-0.469,0.432-1.012,0.745-1.633,0.944c-0.619,0.194-1.346,0.297-2.176,0.297
				c-0.988,0-1.841-0.106-2.554-0.32c-0.715-0.214-1.297-0.544-1.746-0.992c-0.45-0.445-0.78-1.021-0.991-1.721
				C30.84,39.989,30.732,39.156,30.732,38.184z"/>
			
				<linearGradient id="SVGID_7_" gradientUnits="userSpaceOnUse" x1="1012.1414" y1="1456.6953" x2="1012.3914" y2="1438.6969" gradientTransform="matrix(1 0 0 1 -963.8589 -1400.3789)">
				<stop  offset="0" style="stop-color:#E8F1D5"/>
				<stop  offset="0.118" style="stop-color:#E8F1D5"/>
				<stop  offset="0.1654" style="stop-color:#E4EFCF"/>
				<stop  offset="0.23" style="stop-color:#DAE8C0"/>
				<stop  offset="0.3043" style="stop-color:#CADBA5"/>
				<stop  offset="0.386" style="stop-color:#B3CA81"/>
				<stop  offset="0.4726" style="stop-color:#94B557"/>
				<stop  offset="0.5562" style="stop-color:#6DA130"/>
				<stop  offset="0.6288" style="stop-color:#629231"/>
				<stop  offset="0.7744" style="stop-color:#496C2F"/>
				<stop  offset="0.8315" style="stop-color:#3E5D2D"/>
				<stop  offset="1" style="stop-color:#3E5D2D"/>
			</linearGradient>
			<path fill="url(#SVGID_7_)" d="M52.757,32.788h-2.849v9.353c0,0.539-0.119,0.938-0.355,1.197
				c-0.238,0.26-0.553,0.392-0.932,0.392c-0.387,0-0.695-0.132-0.938-0.396c-0.244-0.263-0.362-0.657-0.362-1.19v-9.352H44.47
				c-0.445,0-0.775-0.098-0.992-0.295c-0.217-0.193-0.326-0.456-0.326-0.775c0-0.334,0.113-0.602,0.34-0.793
				c0.226-0.192,0.552-0.291,0.979-0.291h8.289c0.448,0,0.787,0.101,1.008,0.299c0.221,0.201,0.328,0.462,0.328,0.783
				c0,0.32-0.109,0.584-0.334,0.776C53.534,32.69,53.2,32.788,52.757,32.788z"/>
			
				<linearGradient id="SVGID_8_" gradientUnits="userSpaceOnUse" x1="1024.6863" y1="1456.873" x2="1024.9364" y2="1438.8722" gradientTransform="matrix(1 0 0 1 -963.8589 -1400.3789)">
				<stop  offset="0" style="stop-color:#E8F1D5"/>
				<stop  offset="0.118" style="stop-color:#E8F1D5"/>
				<stop  offset="0.1654" style="stop-color:#E4EFCF"/>
				<stop  offset="0.23" style="stop-color:#DAE8C0"/>
				<stop  offset="0.3043" style="stop-color:#CADBA5"/>
				<stop  offset="0.386" style="stop-color:#B3CA81"/>
				<stop  offset="0.4726" style="stop-color:#94B557"/>
				<stop  offset="0.5562" style="stop-color:#6DA130"/>
				<stop  offset="0.6288" style="stop-color:#629231"/>
				<stop  offset="0.7744" style="stop-color:#496C2F"/>
				<stop  offset="0.8315" style="stop-color:#3E5D2D"/>
				<stop  offset="1" style="stop-color:#3E5D2D"/>
			</linearGradient>
			<path fill="url(#SVGID_8_)" d="M61.05,30.413c1.334,0,2.479,0.271,3.435,0.813c0.957,0.541,1.68,1.312,2.172,2.31
				c0.489,0.998,0.735,2.17,0.735,3.521c0,0.994-0.135,1.896-0.403,2.713c-0.268,0.813-0.672,1.52-1.209,2.117
				c-0.539,0.597-1.199,1.054-1.979,1.369c-0.783,0.313-1.685,0.475-2.693,0.475c-1.006,0-1.904-0.163-2.699-0.487
				c-0.795-0.323-1.459-0.782-1.99-1.374c-0.531-0.591-0.936-1.303-1.204-2.134c-0.272-0.831-0.407-1.729-0.407-2.696
				c0-0.986,0.142-1.896,0.426-2.722c0.283-0.825,0.693-1.528,1.229-2.106c0.538-0.578,1.192-1.021,1.966-1.328
				C59.189,30.567,60.066,30.413,61.05,30.413z M64.765,37.034c0-0.94-0.152-1.763-0.459-2.455c-0.306-0.688-0.74-1.216-1.308-1.567
				c-0.566-0.355-1.217-0.533-1.95-0.533c-0.521,0-1.004,0.099-1.447,0.295c-0.443,0.197-0.826,0.482-1.146,0.857
				s-0.573,0.854-0.758,1.438c-0.188,0.584-0.276,1.239-0.276,1.967c0,0.733,0.092,1.396,0.276,1.989
				c0.185,0.593,0.442,1.084,0.78,1.474c0.341,0.394,0.728,0.685,1.162,0.875c0.438,0.194,0.918,0.291,1.438,0.291
				c0.672,0,1.285-0.167,1.849-0.501c0.563-0.334,1.006-0.851,1.338-1.549S64.765,38.055,64.765,37.034z"/>
		</g>
	</g>
</g>
</svg>
