<?xml version="1.0" encoding="utf-8"?>
<!-- Generator: Adobe Illustrator 14.0.0, SVG Export Plug-In . SVG Version: 6.00 Build 43363)  -->
<!DOCTYPE svg PUBLIC "-//W3C//DTD SVG 1.1//EN" "http://www.w3.org/Graphics/SVG/1.1/DTD/svg11.dtd">
<svg version="1.1" id="图层_1" xmlns="http://www.w3.org/2000/svg" xmlns:xlink="http://www.w3.org/1999/xlink" x="0px" y="0px"
	 width="95.805px" height="80.254px" viewBox="0 0 95.805 80.254" enable-background="new 0 0 95.805 80.254" xml:space="preserve">
<g>
	<radialGradient id="SVGID_1_" cx="30.043" cy="15.9307" r="16.8986" gradientUnits="userSpaceOnUse">
		<stop  offset="0" style="stop-color:#FFFFFF"/>
		<stop  offset="0.1541" style="stop-color:#FBFBFB"/>
		<stop  offset="0.3547" style="stop-color:#EDECEC"/>
		<stop  offset="0.5812" style="stop-color:#D5D3D3"/>
		<stop  offset="0.8246" style="stop-color:#B5B3B3"/>
		<stop  offset="1" style="stop-color:#999999"/>
	</radialGradient>
	<rect x="17.407" y="48.532" fill="url(#SVGID_1_)" width="25.495" height="1.813"/>
	<radialGradient id="SVGID_2_" cx="31.7031" cy="31.2344" r="32.4796" gradientUnits="userSpaceOnUse">
		<stop  offset="0" style="stop-color:#FAFAFB"/>
		<stop  offset="0.2344" style="stop-color:#F7F8F8"/>
		<stop  offset="0.4199" style="stop-color:#EFEEEE"/>
		<stop  offset="0.5887" style="stop-color:#E0DFDF"/>
		<stop  offset="0.7474" style="stop-color:#CBCACA"/>
		<stop  offset="0.8979" style="stop-color:#B1B0B0"/>
		<stop  offset="1" style="stop-color:#9B9B9B"/>
	</radialGradient>
	<rect x="17.875" y="48.532" fill="url(#SVGID_2_)" width="24.618" height="1.521"/>
	<radialGradient id="SVGID_3_" cx="30.0449" cy="-2.3149" r="12.7096" gradientUnits="userSpaceOnUse">
		<stop  offset="0" style="stop-color:#FAFAFB"/>
		<stop  offset="0.2344" style="stop-color:#F7F8F8"/>
		<stop  offset="0.4199" style="stop-color:#EFEEEE"/>
		<stop  offset="0.5887" style="stop-color:#E0DFDF"/>
		<stop  offset="0.7474" style="stop-color:#CBCACA"/>
		<stop  offset="0.8979" style="stop-color:#B1B0B0"/>
		<stop  offset="1" style="stop-color:#9B9B9B"/>
	</radialGradient>
	<path fill="url(#SVGID_3_)" d="M38.049,42.804c0,0,0.025,0.9,0.582,1.459c0.42,0.418,2.854,2.854,4.037,4.036
		c0.674,0.675-0.173,0.644-0.643,0.644c-0.467,0-22.983,0-23.625,0c-0.644,0-1.374-0.029-0.701-0.701
		c1.164-1.164,3.407-3.41,3.858-3.861c0.614-0.612,0.703-1.694,0.703-1.694v-5.673h15.788V42.804z"/>
	<linearGradient id="SVGID_4_" gradientUnits="userSpaceOnUse" x1="30.1719" y1="37.4814" x2="30.1719" y2="48.8826">
		<stop  offset="0.3407" style="stop-color:#9B9B9B"/>
		<stop  offset="0.4931" style="stop-color:#ADACAC"/>
		<stop  offset="0.8046" style="stop-color:#DBD9D9"/>
		<stop  offset="1" style="stop-color:#FAFAFB"/>
	</linearGradient>
	<path fill="url(#SVGID_4_)" d="M42.144,48.731h-0.116H18.398c-0.44,0-0.695-0.028-0.762-0.081c0.012-0.003,0.041-0.089,0.211-0.263
		l3.857-3.858c0.662-0.66,0.761-1.778,0.766-1.827v-5.477h15.368v5.578c0,0.045,0.034,0.996,0.647,1.607l1.138,1.143l2.895,2.895
		c0.178,0.179,0.188,0.253,0.188,0.253s-0.004,0-0.006,0C42.668,48.701,42.527,48.731,42.144,48.731L42.144,48.731z"/>
	
		<radialGradient id="SVGID_5_" cx="25.0615" cy="-60.981" r="53.032" gradientTransform="matrix(0.9805 0 0 1.006 -0.1455 1.4895)" gradientUnits="userSpaceOnUse">
		<stop  offset="0" style="stop-color:#FAFAFB"/>
		<stop  offset="0.2344" style="stop-color:#F7F8F8"/>
		<stop  offset="0.4199" style="stop-color:#EFEEEE"/>
		<stop  offset="0.5887" style="stop-color:#E0DFDF"/>
		<stop  offset="0.7474" style="stop-color:#CBCACA"/>
		<stop  offset="0.8979" style="stop-color:#B1B0B0"/>
		<stop  offset="1" style="stop-color:#9B9B9B"/>
	</radialGradient>
	<path fill="url(#SVGID_5_)" d="M56.643,38.017c0,1.707-1.123,3.089-2.51,3.089H6.116c-1.388,0-2.51-1.382-2.51-3.089V5.014
		c0-1.706,1.122-3.088,2.51-3.088h48.017c1.387,0,2.51,1.383,2.51,3.088V38.017z"/>
	
		<radialGradient id="SVGID_6_" cx="32.165" cy="4.3262" r="190.8666" gradientTransform="matrix(0.9598 0 0 0.9882 0.4767 -2.1467)" gradientUnits="userSpaceOnUse">
		<stop  offset="0" style="stop-color:#FAFAFB"/>
		<stop  offset="0.2344" style="stop-color:#F7F8F8"/>
		<stop  offset="0.4199" style="stop-color:#EFEEEE"/>
		<stop  offset="0.5887" style="stop-color:#E0DFDF"/>
		<stop  offset="0.7474" style="stop-color:#CBCACA"/>
		<stop  offset="0.8979" style="stop-color:#B1B0B0"/>
		<stop  offset="1" style="stop-color:#9B9B9B"/>
	</radialGradient>
	<path fill="url(#SVGID_6_)" d="M55.748,37.435c0,1.645-1.09,2.979-2.433,2.979H6.821c-1.341,0-2.429-1.334-2.429-2.979V5.598
		c0-1.644,1.087-2.978,2.429-2.978h46.495c1.343,0,2.433,1.334,2.433,2.978V37.435z"/>
	
		<radialGradient id="SVGID_7_" cx="35.1201" cy="-26.7803" r="147.6669" gradientTransform="matrix(0.9565 0 0 0.9882 0.7007 -2.1467)" gradientUnits="userSpaceOnUse">
		<stop  offset="0" style="stop-color:#FAFAFB"/>
		<stop  offset="0.2344" style="stop-color:#F7F8F8"/>
		<stop  offset="0.4199" style="stop-color:#EFEEEE"/>
		<stop  offset="0.5887" style="stop-color:#E0DFDF"/>
		<stop  offset="0.7474" style="stop-color:#CBCACA"/>
		<stop  offset="0.8979" style="stop-color:#B1B0B0"/>
		<stop  offset="1" style="stop-color:#9B9B9B"/>
	</radialGradient>
	<path fill="url(#SVGID_7_)" d="M55.186,37.05c0,1.602-1.067,2.899-2.381,2.899H7.283c-1.315,0-2.381-1.298-2.381-2.899V6.04
		c0-1.601,1.066-2.9,2.381-2.9h45.522c1.313,0,2.381,1.299,2.381,2.9V37.05z"/>
	<radialGradient id="SVGID_8_" cx="29.335" cy="48.6211" r="51.6727" gradientUnits="userSpaceOnUse">
		<stop  offset="0" style="stop-color:#FFFFFF"/>
		<stop  offset="0.1541" style="stop-color:#FBFBFB"/>
		<stop  offset="0.3547" style="stop-color:#EDECEC"/>
		<stop  offset="0.5812" style="stop-color:#D5D3D3"/>
		<stop  offset="0.8246" style="stop-color:#B5B3B3"/>
		<stop  offset="1" style="stop-color:#999999"/>
	</radialGradient>
	<path fill="url(#SVGID_8_)" d="M42.582,48.796c0,0.146-0.119,0.263-0.263,0.263h-24.3c-0.145,0-0.263-0.116-0.263-0.263l0,0
		c0-0.146,0.118-0.264,0.263-0.264h24.3C42.463,48.532,42.582,48.65,42.582,48.796L42.582,48.796z"/>
	
		<radialGradient id="SVGID_9_" cx="22.0479" cy="-43.6934" r="85.1547" gradientTransform="matrix(1 0 0 1.0356 -0.4268 12.2918)" gradientUnits="userSpaceOnUse">
		<stop  offset="0" style="stop-color:#FDF3F8"/>
		<stop  offset="0.2143" style="stop-color:#84B0DA"/>
		<stop  offset="0.4396" style="stop-color:#4A7ABC"/>
		<stop  offset="0.5549" style="stop-color:#376AB3"/>
		<stop  offset="0.7857" style="stop-color:#224394"/>
		<stop  offset="0.8068" style="stop-color:#21428E"/>
		<stop  offset="0.8427" style="stop-color:#213C7A"/>
		<stop  offset="0.8892" style="stop-color:#1C315B"/>
		<stop  offset="0.9444" style="stop-color:#101F31"/>
		<stop  offset="1" style="stop-color:#040000"/>
	</radialGradient>
	<path fill="url(#SVGID_9_)" d="M52.382,33.959c0,1.605-1.256,2.907-2.806,2.907H10.395c-1.552,0-2.808-1.302-2.808-2.907V9.13
		c0-1.605,1.256-2.905,2.808-2.905h39.181c1.55,0,2.806,1.3,2.806,2.905V33.959z"/>
	
		<radialGradient id="SVGID_10_" cx="-3.666" cy="8.0669" r="90.6843" gradientTransform="matrix(0.9652 0 0 0.9485 11.4783 -17.4522)" gradientUnits="userSpaceOnUse">
		<stop  offset="0" style="stop-color:#FDF3F8"/>
		<stop  offset="0.2143" style="stop-color:#84B0DA"/>
		<stop  offset="0.4396" style="stop-color:#4A7ABC"/>
		<stop  offset="0.5549" style="stop-color:#376AB3"/>
		<stop  offset="0.7857" style="stop-color:#224394"/>
		<stop  offset="0.8068" style="stop-color:#21428E"/>
		<stop  offset="0.8427" style="stop-color:#213C7A"/>
		<stop  offset="0.8892" style="stop-color:#1C315B"/>
		<stop  offset="0.9444" style="stop-color:#101F31"/>
		<stop  offset="1" style="stop-color:#040000"/>
	</radialGradient>
	<path fill="url(#SVGID_10_)" d="M48.949,35.603H11.136c-1.194,0-2.168-0.996-2.168-2.224V9.828c0-1.229,0.974-2.226,2.168-2.226
		h37.813c1.194,0,2.17,0.997,2.17,2.226v23.551C51.119,34.606,50.144,35.603,48.949,35.603L48.949,35.603z"/>
	
		<radialGradient id="SVGID_11_" cx="-3.666" cy="8.0674" r="90.6829" gradientTransform="matrix(0.9652 0 0 0.9485 11.4783 -17.4527)" gradientUnits="userSpaceOnUse">
		<stop  offset="0" style="stop-color:#FDF3F8"/>
		<stop  offset="0.2143" style="stop-color:#84B0DA"/>
		<stop  offset="0.4396" style="stop-color:#4A7ABC"/>
		<stop  offset="0.5549" style="stop-color:#376AB3"/>
		<stop  offset="0.7857" style="stop-color:#224394"/>
		<stop  offset="0.8068" style="stop-color:#21428E"/>
		<stop  offset="0.8427" style="stop-color:#213C7A"/>
		<stop  offset="0.8892" style="stop-color:#1C315B"/>
		<stop  offset="0.9444" style="stop-color:#101F31"/>
		<stop  offset="1" style="stop-color:#040000"/>
	</radialGradient>
	<path fill="url(#SVGID_11_)" d="M48.949,7.602h-3.145c-5.747,12.436-19.699,21.215-36.01,21.215c-0.277,0-0.551-0.013-0.827-0.018
		v4.58c0,1.228,0.974,2.224,2.168,2.224h37.813c1.194,0,2.17-0.996,2.17-2.224V9.828C51.119,8.599,50.144,7.602,48.949,7.602z"/>
	
		<radialGradient id="SVGID_12_" cx="-3.6689" cy="8.0684" r="90.6815" gradientTransform="matrix(0.9652 0 0 0.9485 11.4783 -17.4527)" gradientUnits="userSpaceOnUse">
		<stop  offset="0" style="stop-color:#FDF3F8"/>
		<stop  offset="0.2143" style="stop-color:#84B0DA"/>
		<stop  offset="0.4396" style="stop-color:#4A7ABC"/>
		<stop  offset="0.5549" style="stop-color:#376AB3"/>
		<stop  offset="0.7857" style="stop-color:#224394"/>
		<stop  offset="0.8068" style="stop-color:#21428E"/>
		<stop  offset="0.8427" style="stop-color:#213C7A"/>
		<stop  offset="0.8892" style="stop-color:#1C315B"/>
		<stop  offset="0.9444" style="stop-color:#101F31"/>
		<stop  offset="1" style="stop-color:#040000"/>
	</radialGradient>
	<path fill="url(#SVGID_12_)" d="M45.805,7.602H11.136c-1.194,0-2.168,0.997-2.168,2.226v18.971
		c0.276,0.005,0.549,0.018,0.827,0.018C26.105,28.817,40.058,20.038,45.805,7.602z"/>
	<radialGradient id="SVGID_13_" cx="0.6694" cy="-45.4351" r="167.5741" gradientUnits="userSpaceOnUse">
		<stop  offset="0" style="stop-color:#FDF3F8"/>
		<stop  offset="0.2143" style="stop-color:#84B0DA"/>
		<stop  offset="0.4396" style="stop-color:#4A7ABC"/>
		<stop  offset="0.5549" style="stop-color:#376AB3"/>
		<stop  offset="0.7857" style="stop-color:#224394"/>
		<stop  offset="0.8068" style="stop-color:#21428E"/>
		<stop  offset="0.8427" style="stop-color:#213C7A"/>
		<stop  offset="0.8892" style="stop-color:#1C315B"/>
		<stop  offset="0.9444" style="stop-color:#101F31"/>
		<stop  offset="1" style="stop-color:#040000"/>
	</radialGradient>
	<path fill="url(#SVGID_13_)" d="M45.805,7.602H11.136c-1.194,0-2.168,0.997-2.168,2.226v18.971
		c0.276,0.005,0.549,0.018,0.827,0.018C26.105,28.817,40.058,20.038,45.805,7.602z"/>
</g>
<g>
	<linearGradient id="SVGID_14_" gradientUnits="userSpaceOnUse" x1="85.2783" y1="69.7627" x2="85.2783" y2="114.9369">
		<stop  offset="0" style="stop-color:#87BC43"/>
		<stop  offset="0.5" style="stop-color:#60A33D"/>
		<stop  offset="0.5" style="stop-color:#49963C"/>
		<stop  offset="0.7022" style="stop-color:#298A3A"/>
		<stop  offset="1" style="stop-color:#076B38"/>
	</linearGradient>
	<circle fill="url(#SVGID_14_)" cx="85.278" cy="74.587" r="3.947"/>
	<linearGradient id="SVGID_15_" gradientUnits="userSpaceOnUse" x1="60.2783" y1="69.7627" x2="60.2783" y2="114.9369">
		<stop  offset="0" style="stop-color:#87BC43"/>
		<stop  offset="0.5" style="stop-color:#60A33D"/>
		<stop  offset="0.5" style="stop-color:#49963C"/>
		<stop  offset="0.7022" style="stop-color:#298A3A"/>
		<stop  offset="1" style="stop-color:#076B38"/>
	</linearGradient>
	<circle fill="url(#SVGID_15_)" cx="60.278" cy="74.587" r="3.947"/>
	<g>
		<linearGradient id="SVGID_16_" gradientUnits="userSpaceOnUse" x1="70.335" y1="32.9199" x2="70.335" y2="78.0942">
			<stop  offset="0" style="stop-color:#87BC43"/>
			<stop  offset="0.5" style="stop-color:#60A33D"/>
			<stop  offset="0.5" style="stop-color:#49963C"/>
			<stop  offset="0.7022" style="stop-color:#298A3A"/>
			<stop  offset="1" style="stop-color:#076B38"/>
		</linearGradient>
		<path fill="url(#SVGID_16_)" d="M58.893,46.954c-1.649,0-3-0.592-3-1.315s-1.351-1.315-3-1.315h-4.088c-1.649,0-3,1.35-3,3v0.141
			c0,1.65,1.351,3,3,3h3.723c1.649,0,3.353,1.303,3.784,2.896l3.183,11.752c0.432,1.593,2.134,2.896,3.784,2.896h20.755
			c1.65,0,3.52-1.246,4.153-2.77l6.465-15.514c0.634-1.523-0.196-2.77-1.847-2.77H58.893z"/>
	</g>
</g>
</svg>
