<?xml version="1.0" encoding="utf-8"?>
<!-- Generator: Adobe Illustrator 14.0.0, SVG Export Plug-In . SVG Version: 6.00 Build 43363)  -->
<!DOCTYPE svg PUBLIC "-//W3C//DTD SVG 1.1//EN" "http://www.w3.org/Graphics/SVG/1.1/DTD/svg11.dtd">
<svg version="1.1" id="图层_1" xmlns="http://www.w3.org/2000/svg" xmlns:xlink="http://www.w3.org/1999/xlink" x="0px" y="0px"
	 width="49px" height="48.537px" viewBox="0 0 49 48.537" enable-background="new 0 0 49 48.537" xml:space="preserve">
<g>
	<g>
		<g>
			<radialGradient id="SVGID_1_" cx="38.52" cy="14.2354" r="1.9465" gradientUnits="userSpaceOnUse">
				<stop  offset="0" style="stop-color:#E8F1D5"/>
				<stop  offset="0.118" style="stop-color:#E8F1D5"/>
				<stop  offset="0.1654" style="stop-color:#E4EFCF"/>
				<stop  offset="0.23" style="stop-color:#DAE8C0"/>
				<stop  offset="0.3043" style="stop-color:#CADBA5"/>
				<stop  offset="0.386" style="stop-color:#B3CA81"/>
				<stop  offset="0.4726" style="stop-color:#94B557"/>
				<stop  offset="0.5562" style="stop-color:#6DA130"/>
				<stop  offset="0.6288" style="stop-color:#629231"/>
				<stop  offset="0.7744" style="stop-color:#496C2F"/>
				<stop  offset="0.8315" style="stop-color:#3E5D2D"/>
				<stop  offset="1" style="stop-color:#3E5D2D"/>
			</radialGradient>
			<path fill="url(#SVGID_1_)" d="M29.756,16.951c1.715-0.605,3.644-0.947,5.687-0.947c2.005,0,3.903,0.329,5.596,0.913"/>
			
				<linearGradient id="SVGID_2_" gradientUnits="userSpaceOnUse" x1="22.5327" y1="173.8252" x2="48.353" y2="173.8252" gradientTransform="matrix(1 0 0 0.7174 0 -107.0381)">
				<stop  offset="0" style="stop-color:#427836"/>
				<stop  offset="0.2692" style="stop-color:#5AA433"/>
				<stop  offset="1" style="stop-color:#9AC82E"/>
			</linearGradient>
			<path fill="url(#SVGID_2_)" d="M41.167,16.392c0.412-0.432,3.164-4.048,3.164-6.766c0-4.875-3.951-8.826-8.823-8.826
				c-4.874,0-8.825,3.951-8.825,8.826c0,2.737,2.561,6.523,3.203,6.801c0.642,0.275-0.13,0.523-0.13,0.523
				c-4.277,1.509-7.224,4.665-7.224,8.315c0,5.113,5.78,9.261,12.91,9.261c7.129,0,12.91-4.148,12.91-9.261
				c0-3.679-2.986-6.854-7.314-8.35C41.039,16.917,40.756,16.823,41.167,16.392z"/>
			<radialGradient id="SVGID_3_" cx="34.2407" cy="0.626" r="33.3742" gradientUnits="userSpaceOnUse">
				<stop  offset="0.0112" style="stop-color:#FFFFFF"/>
				<stop  offset="0.1261" style="stop-color:#FDFDFE"/>
				<stop  offset="0.2135" style="stop-color:#F4F3F5"/>
				<stop  offset="0.2918" style="stop-color:#E5E3E7"/>
				<stop  offset="0.3648" style="stop-color:#CFCBD2"/>
				<stop  offset="0.4342" style="stop-color:#B4AEB9"/>
				<stop  offset="0.5008" style="stop-color:#938D9D"/>
				<stop  offset="0.5649" style="stop-color:#6C697F"/>
				<stop  offset="0.6261" style="stop-color:#404965"/>
				<stop  offset="0.6292" style="stop-color:#3D4763"/>
			</radialGradient>
			<path fill="url(#SVGID_3_)" d="M35.443,33.791c-6.716,0-12.174-3.824-12.174-8.525c0-3.236,2.576-6.158,6.731-7.623
				c0.524-0.169,0.851-0.517,0.873-0.943c0.012-0.237-0.064-0.674-0.7-0.948c-0.521-0.361-2.757-3.732-2.757-6.125
				c0-4.462,3.63-8.091,8.092-8.091c4.46,0,8.088,3.629,8.088,8.091c0,2.333-2.438,5.711-2.959,6.26
				c-0.355,0.373-0.49,0.746-0.398,1.107c0.084,0.347,0.349,0.545,0.566,0.619c4.137,1.427,6.813,4.433,6.813,7.653
				C47.618,29.967,42.157,33.791,35.443,33.791L35.443,33.791z"/>
			<linearGradient id="SVGID_4_" gradientUnits="userSpaceOnUse" x1="23.9995" y1="27.3389" x2="46.8843" y2="27.3389">
				<stop  offset="0" style="stop-color:#427836"/>
				<stop  offset="0.2692" style="stop-color:#5AA433"/>
				<stop  offset="1" style="stop-color:#9AC82E"/>
			</linearGradient>
			<path fill="url(#SVGID_4_)" d="M34.855,25.791c-3.738,0-7.182-1.323-9.95-3.546C24.318,23.184,24,24.208,24,25.266
				c0,4.295,5.135,7.791,11.443,7.791s11.441-3.496,11.441-7.791c0-1.285-0.486-2.534-1.357-3.645
				C42.648,24.22,38.923,25.791,34.855,25.791z"/>
			<linearGradient id="SVGID_5_" gradientUnits="userSpaceOnUse" x1="24.9048" y1="14.0303" x2="45.5269" y2="14.0303">
				<stop  offset="0" style="stop-color:#427836"/>
				<stop  offset="0.2692" style="stop-color:#5AA433"/>
				<stop  offset="1" style="stop-color:#9AC82E"/>
			</linearGradient>
			<path fill="url(#SVGID_5_)" d="M45.527,21.622c-1.101-1.398-2.814-2.576-4.953-3.313c-0.403-0.134-0.891-0.503-1.046-1.136
				c-0.109-0.429-0.098-1.086,0.578-1.792c0.565-0.593,2.757-3.776,2.757-5.753c0-4.058-3.298-7.357-7.354-7.357
				s-7.356,3.299-7.356,7.357c0,2.046,1.934,5.034,2.42,5.502c0.683,0.334,1.067,0.928,1.033,1.607
				c-0.033,0.74-0.552,1.341-1.36,1.601c-2.454,0.864-4.312,2.258-5.34,3.908c2.769,2.223,6.212,3.546,9.95,3.546
				C38.923,25.791,42.648,24.22,45.527,21.622z"/>
		</g>
	</g>
	<g>
		<g>
			<radialGradient id="SVGID_6_" cx="16.7031" cy="20.7021" r="1.9475" gradientUnits="userSpaceOnUse">
				<stop  offset="0" style="stop-color:#E8F1D5"/>
				<stop  offset="0.118" style="stop-color:#E8F1D5"/>
				<stop  offset="0.1654" style="stop-color:#E4EFCF"/>
				<stop  offset="0.23" style="stop-color:#DAE8C0"/>
				<stop  offset="0.3043" style="stop-color:#CADBA5"/>
				<stop  offset="0.386" style="stop-color:#B3CA81"/>
				<stop  offset="0.4726" style="stop-color:#94B557"/>
				<stop  offset="0.5562" style="stop-color:#6DA130"/>
				<stop  offset="0.6288" style="stop-color:#629231"/>
				<stop  offset="0.7744" style="stop-color:#496C2F"/>
				<stop  offset="0.8315" style="stop-color:#3E5D2D"/>
				<stop  offset="1" style="stop-color:#3E5D2D"/>
			</radialGradient>
			<path fill="url(#SVGID_6_)" d="M7.94,23.42c1.714-0.606,3.646-0.948,5.688-0.948c2.005,0,3.899,0.33,5.593,0.915"/>
			
				<linearGradient id="SVGID_7_" gradientUnits="userSpaceOnUse" x1="0.7183" y1="182.8428" x2="26.5386" y2="182.8428" gradientTransform="matrix(1 0 0 0.7174 0 -107.0381)">
				<stop  offset="0" style="stop-color:#427836"/>
				<stop  offset="0.2692" style="stop-color:#5AA433"/>
				<stop  offset="1" style="stop-color:#9AC82E"/>
			</linearGradient>
			<path fill="url(#SVGID_7_)" d="M19.351,22.862c0.414-0.432,3.165-4.049,3.165-6.767c0-4.874-3.949-8.825-8.823-8.825
				c-4.875,0-8.824,3.951-8.824,8.825c0,2.737,2.561,6.524,3.202,6.802C8.712,23.172,7.94,23.42,7.94,23.42
				c-4.278,1.51-7.222,4.664-7.222,8.314c0,5.115,5.779,9.262,12.91,9.262c7.128,0,12.91-4.146,12.91-9.262
				c0-3.677-2.988-6.853-7.317-8.347C19.221,23.387,18.939,23.293,19.351,22.862z"/>
			<radialGradient id="SVGID_8_" cx="12.4243" cy="7.0942" r="33.3766" gradientUnits="userSpaceOnUse">
				<stop  offset="0.0112" style="stop-color:#FFFFFF"/>
				<stop  offset="0.1261" style="stop-color:#FDFDFE"/>
				<stop  offset="0.2135" style="stop-color:#F4F3F5"/>
				<stop  offset="0.2918" style="stop-color:#E5E3E7"/>
				<stop  offset="0.3648" style="stop-color:#CFCBD2"/>
				<stop  offset="0.4342" style="stop-color:#B4AEB9"/>
				<stop  offset="0.5008" style="stop-color:#938D9D"/>
				<stop  offset="0.5649" style="stop-color:#6C697F"/>
				<stop  offset="0.6261" style="stop-color:#404965"/>
				<stop  offset="0.6292" style="stop-color:#3D4763"/>
			</radialGradient>
			<path fill="url(#SVGID_8_)" d="M13.628,40.262c-6.715,0-12.176-3.826-12.176-8.527c0-3.237,2.577-6.158,6.731-7.622
				c0.525-0.169,0.854-0.517,0.873-0.944c0.011-0.236-0.065-0.673-0.696-0.947c-0.523-0.36-2.759-3.734-2.759-6.126
				c0-4.462,3.631-8.091,8.09-8.091c4.461,0,8.09,3.629,8.09,8.091c0,2.335-2.438,5.712-2.96,6.261
				c-0.356,0.373-0.49,0.746-0.4,1.107c0.086,0.346,0.35,0.545,0.569,0.619c4.133,1.427,6.812,4.434,6.812,7.652
				C25.802,36.436,20.343,40.262,13.628,40.262L13.628,40.262z"/>
			<linearGradient id="SVGID_9_" gradientUnits="userSpaceOnUse" x1="2.1851" y1="33.8086" x2="25.0698" y2="33.8086">
				<stop  offset="0" style="stop-color:#427836"/>
				<stop  offset="0.2692" style="stop-color:#5AA433"/>
				<stop  offset="1" style="stop-color:#9AC82E"/>
			</linearGradient>
			<path fill="url(#SVGID_9_)" d="M13.037,32.258c-3.736,0-7.18-1.32-9.947-3.544c-0.585,0.94-0.904,1.962-0.904,3.021
				c0,4.297,5.135,7.791,11.443,7.791c6.307,0,11.441-3.494,11.441-7.791c0-1.283-0.485-2.533-1.359-3.642
				C20.831,30.689,17.111,32.258,13.037,32.258z"/>
			<linearGradient id="SVGID_10_" gradientUnits="userSpaceOnUse" x1="3.0894" y1="20.498" x2="23.7104" y2="20.498">
				<stop  offset="0" style="stop-color:#427836"/>
				<stop  offset="0.2692" style="stop-color:#5AA433"/>
				<stop  offset="1" style="stop-color:#9AC82E"/>
			</linearGradient>
			<path fill="url(#SVGID_10_)" d="M23.71,28.092c-1.103-1.4-2.815-2.576-4.951-3.314c-0.402-0.133-0.893-0.504-1.049-1.137
				c-0.109-0.428-0.095-1.086,0.58-1.793c0.566-0.592,2.759-3.774,2.759-5.753c0-4.057-3.301-7.356-7.356-7.356
				c-4.06,0-7.358,3.299-7.358,7.356c0,2.047,1.936,5.035,2.423,5.503c0.684,0.334,1.067,0.928,1.033,1.605
				c-0.036,0.742-0.553,1.342-1.364,1.602c-2.453,0.864-4.311,2.258-5.337,3.908c2.768,2.224,6.211,3.544,9.947,3.544
				C17.111,32.258,20.831,30.689,23.71,28.092z"/>
		</g>
	</g>
	<g>
		<g>
			<radialGradient id="SVGID_11_" cx="32.4146" cy="28.2456" r="1.9465" gradientUnits="userSpaceOnUse">
				<stop  offset="0" style="stop-color:#E8F1D5"/>
				<stop  offset="0.118" style="stop-color:#E8F1D5"/>
				<stop  offset="0.1654" style="stop-color:#E4EFCF"/>
				<stop  offset="0.23" style="stop-color:#DAE8C0"/>
				<stop  offset="0.3043" style="stop-color:#CADBA5"/>
				<stop  offset="0.386" style="stop-color:#B3CA81"/>
				<stop  offset="0.4726" style="stop-color:#94B557"/>
				<stop  offset="0.5562" style="stop-color:#6DA130"/>
				<stop  offset="0.6288" style="stop-color:#629231"/>
				<stop  offset="0.7744" style="stop-color:#496C2F"/>
				<stop  offset="0.8315" style="stop-color:#3E5D2D"/>
				<stop  offset="1" style="stop-color:#3E5D2D"/>
			</radialGradient>
			<path fill="url(#SVGID_11_)" d="M23.649,30.961c1.717-0.605,3.646-0.947,5.689-0.947c2.005,0,3.901,0.328,5.595,0.912"/>
			
				<radialGradient id="SVGID_12_" cx="31.1069" cy="97.751" r="153.4632" gradientTransform="matrix(1 0 0 0.7174 0 -107.0381)" gradientUnits="userSpaceOnUse">
				<stop  offset="0" style="stop-color:#FDF3F8"/>
				<stop  offset="0.2143" style="stop-color:#84B0DA"/>
				<stop  offset="0.4396" style="stop-color:#4A7ABC"/>
				<stop  offset="0.5549" style="stop-color:#376AB3"/>
				<stop  offset="0.7857" style="stop-color:#224394"/>
				<stop  offset="0.8068" style="stop-color:#21428E"/>
				<stop  offset="0.8427" style="stop-color:#213C7A"/>
				<stop  offset="0.8892" style="stop-color:#1C315B"/>
				<stop  offset="0.9444" style="stop-color:#101F31"/>
				<stop  offset="1" style="stop-color:#040000"/>
			</radialGradient>
			<path fill="url(#SVGID_12_)" d="M35.063,30.402c0.413-0.431,3.165-4.048,3.165-6.767c0-4.872-3.954-8.823-8.824-8.823
				c-4.874,0-8.826,3.951-8.826,8.823c0,2.738,2.563,6.525,3.202,6.8c0.643,0.277-0.131,0.525-0.131,0.525
				c-4.275,1.51-7.22,4.666-7.22,8.314c0,5.115,5.779,9.262,12.909,9.262c7.128,0,12.91-4.146,12.91-9.262
				c0-3.678-2.988-6.854-7.315-8.35C34.933,30.926,34.652,30.834,35.063,30.402z"/>
			<radialGradient id="SVGID_13_" cx="28.1353" cy="14.6362" r="33.3749" gradientUnits="userSpaceOnUse">
				<stop  offset="0.0112" style="stop-color:#FFFFFF"/>
				<stop  offset="0.1261" style="stop-color:#FDFDFE"/>
				<stop  offset="0.2135" style="stop-color:#F4F3F5"/>
				<stop  offset="0.2918" style="stop-color:#E5E3E7"/>
				<stop  offset="0.3648" style="stop-color:#CFCBD2"/>
				<stop  offset="0.4342" style="stop-color:#B4AEB9"/>
				<stop  offset="0.5008" style="stop-color:#938D9D"/>
				<stop  offset="0.5649" style="stop-color:#6C697F"/>
				<stop  offset="0.6261" style="stop-color:#404965"/>
				<stop  offset="0.6292" style="stop-color:#3D4763"/>
			</radialGradient>
			<path fill="url(#SVGID_13_)" d="M29.338,47.803c-6.716,0-12.175-3.826-12.175-8.527c0-3.236,2.577-6.158,6.731-7.623
				c0.525-0.168,0.851-0.516,0.874-0.943c0.012-0.236-0.066-0.674-0.698-0.947c-0.523-0.361-2.759-3.732-2.759-6.127
				c0-4.46,3.63-8.09,8.091-8.09s8.088,3.63,8.088,8.09c0,2.336-2.437,5.713-2.957,6.261c-0.356,0.374-0.493,0.747-0.4,1.108
				c0.084,0.346,0.351,0.545,0.566,0.619c4.137,1.428,6.813,4.432,6.813,7.652C41.513,43.977,36.052,47.803,29.338,47.803
				L29.338,47.803z"/>
			<path fill="#3360AA" d="M28.748,39.799c-3.734,0-7.182-1.32-9.948-3.545c-0.585,0.941-0.904,1.963-0.904,3.021
				c0,4.297,5.134,7.791,11.443,7.791s11.439-3.494,11.439-7.791c0-1.283-0.483-2.533-1.357-3.643
				C36.542,38.23,32.819,39.799,28.748,39.799z"/>
			<radialGradient id="SVGID_14_" cx="28.6606" cy="-17.5112" r="76.5355" gradientUnits="userSpaceOnUse">
				<stop  offset="0" style="stop-color:#FFFFFF"/>
				<stop  offset="0.0823" style="stop-color:#FDFEFE"/>
				<stop  offset="0.1484" style="stop-color:#F5F8FC"/>
				<stop  offset="0.2086" style="stop-color:#E6EEF7"/>
				<stop  offset="0.2637" style="stop-color:#D1E0F0"/>
				<stop  offset="0.5714" style="stop-color:#6B99CC"/>
				<stop  offset="0.5981" style="stop-color:#5E8AC2"/>
				<stop  offset="0.653" style="stop-color:#4772B3"/>
				<stop  offset="0.6992" style="stop-color:#3864A9"/>
				<stop  offset="0.7308" style="stop-color:#325FA6"/>
				<stop  offset="0.7618" style="stop-color:#2E59A0"/>
				<stop  offset="0.8152" style="stop-color:#234892"/>
				<stop  offset="0.8297" style="stop-color:#1F438E"/>
				<stop  offset="0.8481" style="stop-color:#1F428A"/>
				<stop  offset="0.8726" style="stop-color:#1F3E7E"/>
				<stop  offset="0.9005" style="stop-color:#1E386A"/>
				<stop  offset="0.9309" style="stop-color:#192E4F"/>
				<stop  offset="0.9634" style="stop-color:#101F2F"/>
				<stop  offset="0.9971" style="stop-color:#050304"/>
				<stop  offset="1" style="stop-color:#040000"/>
			</radialGradient>
			<path fill="url(#SVGID_14_)" d="M39.42,35.633c-1.1-1.398-2.813-2.576-4.949-3.314c-0.405-0.135-0.893-0.502-1.051-1.137
				c-0.105-0.428-0.095-1.086,0.582-1.792c0.566-0.593,2.756-3.775,2.756-5.755c0-4.057-3.297-7.355-7.354-7.355
				c-4.059,0-7.357,3.298-7.357,7.355c0,2.047,1.936,5.035,2.421,5.504c0.684,0.334,1.066,0.927,1.033,1.607
				c-0.034,0.74-0.551,1.34-1.361,1.6c-2.455,0.865-4.311,2.258-5.34,3.908c2.767,2.225,6.214,3.545,9.948,3.545
				C32.819,39.799,36.542,38.23,39.42,35.633z"/>
		</g>
	</g>
</g>
</svg>
