<?xml version="1.0" encoding="utf-8"?>
<!-- Generator: Adobe Illustrator 14.0.0, SVG Export Plug-In . SVG Version: 6.00 Build 43363)  -->
<!DOCTYPE svg PUBLIC "-//W3C//DTD SVG 1.1//EN" "http://www.w3.org/Graphics/SVG/1.1/DTD/svg11.dtd">
<svg version="1.1" id="图层_1" xmlns="http://www.w3.org/2000/svg" xmlns:xlink="http://www.w3.org/1999/xlink" x="0px" y="0px"
	 width="63.834px" height="74.514px" viewBox="0 0 63.834 74.514" enable-background="new 0 0 63.834 74.514" xml:space="preserve">
<g>
	<radialGradient id="SVGID_1_" cx="7.98" cy="9.9048" r="2.4034" gradientUnits="userSpaceOnUse">
		<stop  offset="0" style="stop-color:#FFFFFF"/>
		<stop  offset="1" style="stop-color:#818166"/>
	</radialGradient>
	<circle fill="url(#SVGID_1_)" cx="8.834" cy="10.203" r="1.959"/>
	<radialGradient id="SVGID_2_" cx="53.6885" cy="9.6689" r="2.4038" gradientUnits="userSpaceOnUse">
		<stop  offset="0" style="stop-color:#FFFFFF"/>
		<stop  offset="1" style="stop-color:#818166"/>
	</radialGradient>
	<circle fill="url(#SVGID_2_)" cx="54.542" cy="9.964" r="1.959"/>
	<linearGradient id="SVGID_3_" gradientUnits="userSpaceOnUse" x1="0.6416" y1="26.0522" x2="39.8778" y2="8.5435">
		<stop  offset="0.0056" style="stop-color:#818166"/>
		<stop  offset="0.35" style="stop-color:#5C5C3F"/>
		<stop  offset="0.95" style="stop-color:#3B3520"/>
	</linearGradient>
	<path fill="url(#SVGID_3_)" d="M5.622,14.264c0,0,0.553,0.79,1.265,1.107c0.708,0.317,12.959-5.454,13.751-6.244
		c0.789-0.791,0.789-1.345,1.224-2.451c0.435-1.104,0.355-2.882,3.519-3.359c3.16-0.475,3.318-0.434,6.242-0.434
		c2.925,0,6.205,0.355,6.205,0.355s1.539-0.116,2.134,1.501c0.592,1.621,0.855,3.949,4.861,5.329
		c4.008,1.382,12.467,4.676,12.467,4.676l1.172-0.978L45.58,8.303c0,0-3.385-0.413-4.63-5.166c0,0,0.059-1.6-3.444-1.723
		C34.003,1.298,24.15,0.526,22.192,2.661c0,0-1.071,1.606-1.605,3.683c0,0-0.829,1.603-2.849,2.374
		C15.723,9.487,5.571,14.12,5.571,14.12"/>
	<radialGradient id="SVGID_4_" cx="39.8516" cy="19.3682" r="18.048" gradientUnits="userSpaceOnUse">
		<stop  offset="0" style="stop-color:#FFFFFF"/>
		<stop  offset="0.5222" style="stop-color:#818166"/>
		<stop  offset="1" style="stop-color:#5C5C3F"/>
	</radialGradient>
	<path fill="url(#SVGID_4_)" d="M60.154,29.089c0,0,8.441-9.303-6.148-16.597C39.415,5.197,36.477,15.33,36.477,15.33L60.154,29.089
		z"/>
	<linearGradient id="SVGID_5_" gradientUnits="userSpaceOnUse" x1="37.5244" y1="27.1006" x2="51.246" y2="20.9775">
		<stop  offset="0.0056" style="stop-color:#818166"/>
		<stop  offset="0.35" style="stop-color:#5C5C3F"/>
		<stop  offset="0.95" style="stop-color:#3B3520"/>
	</linearGradient>
	<path fill="url(#SVGID_5_)" d="M36.339,15.541c0.822-1.449,6.821,0.409,13.398,4.152c6.577,3.741,11.242,7.945,10.417,9.396
		c-0.823,1.447-6.823-0.411-13.398-4.154C40.178,21.194,35.513,16.987,36.339,15.541z"/>
	<radialGradient id="SVGID_6_" cx="4.6318" cy="19.8755" r="18.0466" gradientUnits="userSpaceOnUse">
		<stop  offset="0" style="stop-color:#FFFFFF"/>
		<stop  offset="0.5222" style="stop-color:#818166"/>
		<stop  offset="1" style="stop-color:#5C5C3F"/>
	</radialGradient>
	<path fill="url(#SVGID_6_)" d="M3.68,29.597c0,0-8.441-9.303,6.148-16.599c14.592-7.292,17.53,2.837,17.53,2.837L3.68,29.597z"/>
	<linearGradient id="SVGID_7_" gradientUnits="userSpaceOnUse" x1="-1.6748" y1="30.5254" x2="20.4146" y2="20.6682">
		<stop  offset="0.0056" style="stop-color:#818166"/>
		<stop  offset="0.35" style="stop-color:#5C5C3F"/>
		<stop  offset="0.95" style="stop-color:#3B3520"/>
	</linearGradient>
	<path fill="url(#SVGID_7_)" d="M27.498,16.045c-0.822-1.444-6.822,0.414-13.399,4.154C7.521,23.941,2.857,28.146,3.68,29.597
		c0.825,1.446,6.823-0.413,13.402-4.153C23.658,21.703,28.324,17.494,27.498,16.045z"/>
	<radialGradient id="SVGID_8_" cx="17.8857" cy="74.709" r="2.0704" gradientUnits="userSpaceOnUse">
		<stop  offset="0" style="stop-color:#FFFFFF"/>
		<stop  offset="1" style="stop-color:#040000"/>
	</radialGradient>
	<path fill="url(#SVGID_8_)" d="M16.497,71.864c0,0-0.894,2.227-0.154,2.604c0.739,0.375,2.174-1.651,2.174-1.651L16.497,71.864z"/>
	<radialGradient id="SVGID_9_" cx="47.9424" cy="74.4424" r="2.0742" gradientUnits="userSpaceOnUse">
		<stop  offset="0" style="stop-color:#FFFFFF"/>
		<stop  offset="1" style="stop-color:#040000"/>
	</radialGradient>
	<path fill="url(#SVGID_9_)" d="M48.128,71.597c0,0,0.893,2.227,0.154,2.604c-0.739,0.374-2.175-1.65-2.175-1.65L48.128,71.597z"/>
	<linearGradient id="SVGID_10_" gradientUnits="userSpaceOnUse" x1="18.2095" y1="68.2988" x2="20.7622" y2="69.3462">
		<stop  offset="0" style="stop-color:#D4D4C5"/>
		<stop  offset="0.1333" style="stop-color:#FFFFFF"/>
		<stop  offset="0.6778" style="stop-color:#818166"/>
		<stop  offset="1" style="stop-color:#5C5C3F"/>
	</linearGradient>
	<path fill="url(#SVGID_10_)" d="M18.517,72.816l3.961-7.201l-3.368-1.635l-2.601,7.878c-0.001,0.001-0.009,0.001-0.012,0.006
		c-0.077,0.163,0.315,0.508,0.873,0.771c0.527,0.248,1.003,0.327,1.12,0.198l0.014,0.006L18.517,72.816L18.517,72.816L18.517,72.816
		z"/>
	<linearGradient id="SVGID_11_" gradientUnits="userSpaceOnUse" x1="44.4375" y1="69.0049" x2="46.7276" y2="67.7618">
		<stop  offset="0" style="stop-color:#D4D4C5"/>
		<stop  offset="0.1333" style="stop-color:#FFFFFF"/>
		<stop  offset="0.6778" style="stop-color:#818166"/>
		<stop  offset="1" style="stop-color:#5C5C3F"/>
	</linearGradient>
	<path fill="url(#SVGID_11_)" d="M48.116,71.594l-2.6-7.877l-3.368,1.633l3.972,7.224l0.016-0.007
		c0.114,0.129,0.589,0.052,1.118-0.2c0.561-0.261,0.95-0.607,0.874-0.77C48.126,71.595,48.119,71.595,48.116,71.594z"/>
	<radialGradient id="SVGID_12_" cx="32.2031" cy="42.5137" r="25.751" gradientUnits="userSpaceOnUse">
		<stop  offset="0" style="stop-color:#FFFFFF"/>
		<stop  offset="1" style="stop-color:#818166"/>
	</radialGradient>
	<path fill="url(#SVGID_12_)" d="M57.905,42.513c0,14.249-11.509,25.801-25.703,25.801c-14.191,0-25.7-11.552-25.7-25.801
		c0-14.25,11.509-25.8,25.7-25.8C46.396,16.713,57.905,28.263,57.905,42.513z"/>
	<linearGradient id="SVGID_13_" gradientUnits="userSpaceOnUse" x1="21.3179" y1="29.8833" x2="70.8597" y2="85.5842">
		<stop  offset="0" style="stop-color:#FFFFFF"/>
		<stop  offset="1" style="stop-color:#EFF09A"/>
	</linearGradient>
	<ellipse fill="url(#SVGID_13_)" cx="32.506" cy="42.464" rx="22.154" ry="22.714"/>
	<linearGradient id="SVGID_14_" gradientUnits="userSpaceOnUse" x1="-9.1387" y1="19.9644" x2="57.0934" y2="3.5544">
		<stop  offset="0" style="stop-color:#FFFFFF"/>
		<stop  offset="0.5222" style="stop-color:#818166"/>
		<stop  offset="1" style="stop-color:#5C5C3F"/>
	</linearGradient>
	<path fill="url(#SVGID_14_)" d="M5.622,14.264l12.96-5.532c0,0,1.937-1.027,2.332-2.53c0.456-1.733,0.91-3.478,2.687-4.03
		c1.779-0.552,5.372-0.789,7.861-0.789c2.492,0,6.877,0.356,6.877,0.356s2.136-0.356,3.005,3.516
		c0.038,0.317,0.631,1.739,2.884,2.726c2.252,0.99,14.026,5.771,14.026,5.771s0.712-0.354-0.078-0.712
		c-0.792-0.355-13.79-5.613-13.79-5.613s-1.778-0.552-2.411-2.526c-0.354-1.305-0.908-3.874-4.227-3.791
		c0,0-9.326-0.635-13.12,0.075c0,0-2.371,0.159-3.28,1.7c-0.908,1.543-0.905,2.959-1.502,3.873
		c-0.591,0.907-1.342,1.381-4.583,2.567c-3.285,1.205-9.522,3.993-9.522,3.993S5.188,13.711,5.622,14.264z"/>
	<linearGradient id="SVGID_15_" gradientUnits="userSpaceOnUse" x1="31.7031" y1="10.856" x2="31.7031" y2="13.2305">
		<stop  offset="0" style="stop-color:#D4D4C5"/>
		<stop  offset="0.1333" style="stop-color:#FFFFFF"/>
		<stop  offset="0.6778" style="stop-color:#818166"/>
		<stop  offset="1" style="stop-color:#5C5C3F"/>
	</linearGradient>
	<path fill="url(#SVGID_15_)" d="M34.386,10.734c-0.005,0-0.006,0.008-0.01,0.008v-0.021h-5.352v0.013
		c-0.173,0-0.311,0.602-0.311,1.342c0,0.746,0.138,1.346,0.311,1.346v0.006h5.352v-0.01c0.004,0,0.005,0.004,0.01,0.004
		c0.169,0,0.308-0.6,0.308-1.346C34.693,11.336,34.555,10.734,34.386,10.734z"/>
	<linearGradient id="SVGID_16_" gradientUnits="userSpaceOnUse" x1="31.5703" y1="14.8774" x2="32.0399" y2="14.8774">
		<stop  offset="0" style="stop-color:#D4D4C5"/>
		<stop  offset="0.1333" style="stop-color:#FFFFFF"/>
		<stop  offset="0.6778" style="stop-color:#818166"/>
		<stop  offset="1" style="stop-color:#5C5C3F"/>
	</linearGradient>
	<rect x="31.574" y="12.985" fill="url(#SVGID_16_)" width="0.484" height="3.784"/>
	<linearGradient id="SVGID_17_" gradientUnits="userSpaceOnUse" x1="17.1396" y1="35.9619" x2="32.5146" y2="35.9619">
		<stop  offset="0" style="stop-color:#040000"/>
		<stop  offset="1" style="stop-color:#1F1F1F"/>
	</linearGradient>
	<path fill="url(#SVGID_17_)" d="M32.291,41.217c-0.017-0.01-0.038-0.018-0.052-0.029c-0.285-0.199-1.63-1.194-1.761-2.073
		l-13.339-9.52l11.903,11.231c0,0,1.427,0.247,2.424,1.341c0.006,0.005,0.008,0.014,0.014,0.018c0.003,0.002,0.005,0.002,0.01,0.005
		c0,0,0.002,0,0.002,0.003l0,0c0.267,0.211,0.656,0.174,0.874-0.088C32.59,41.837,32.557,41.44,32.291,41.217z"/>
	<g>
		<linearGradient id="SVGID_18_" gradientUnits="userSpaceOnUse" x1="31.3047" y1="38.4658" x2="40.6592" y2="38.4658">
			<stop  offset="0" style="stop-color:#040000"/>
			<stop  offset="1" style="stop-color:#1F1F1F"/>
		</linearGradient>
		<path fill="url(#SVGID_18_)" d="M32.653,38.275c0.6,1.417-0.976,2.799-1.107,2.914c-0.004,0.005-0.013,0.005-0.016,0.01
			c-0.267,0.223-0.302,0.618-0.078,0.883c0.22,0.264,0.606,0.301,0.872,0.088h0.004c0.001-0.003,0.004-0.003,0.008-0.007
			c0,0,0.001,0,0.002-0.003c0,0,0.002,0,0.003-0.004c1.198-1.251,3.012-0.67,3.012-0.67l5.307-6.862L32.653,38.275z"/>
	</g>
	<polygon fill="#424242" points="29.703,26.062 29.703,22.046 28.905,22.046 28.905,21.289 30.579,21.289 30.579,26.062 	"/>
	<path fill="#424242" d="M32.411,26.062V25.3l1.627-1.589l0.038-0.046c0.214-0.207,0.353-0.36,0.42-0.455
		c0.11-0.156,0.162-0.315,0.162-0.481c0-0.208-0.066-0.376-0.199-0.511c-0.131-0.133-0.303-0.195-0.519-0.195
		c-0.226,0-0.398,0.063-0.521,0.195c-0.114,0.135-0.174,0.341-0.174,0.607v0.18h-0.835V22.88c0-0.5,0.147-0.906,0.444-1.215
		c0.297-0.31,0.678-0.464,1.146-0.464c0.419,0,0.773,0.145,1.07,0.447c0.298,0.302,0.445,0.665,0.445,1.076
		c0,0.242-0.059,0.473-0.176,0.693c-0.107,0.209-0.277,0.427-0.507,0.649L33.6,25.238h1.909v0.823H32.411z"/>
	<path fill="#424242" d="M49.386,43.478c0,0.281,0.065,0.499,0.192,0.652c0.127,0.146,0.298,0.223,0.521,0.223
		c0.217,0,0.4-0.076,0.546-0.223c0.14-0.148,0.212-0.333,0.212-0.556c0-0.259-0.072-0.451-0.212-0.58
		c-0.149-0.133-0.367-0.198-0.653-0.198c-0.038,0-0.07,0-0.096,0c-0.048,0.003-0.103,0.011-0.167,0.017v-0.874
		c0.06,0.011,0.111,0.023,0.155,0.026c0.024,0.002,0.052,0.006,0.081,0.006c0.208,0,0.36-0.038,0.458-0.113
		c0.096-0.076,0.143-0.194,0.143-0.357c0-0.141-0.039-0.253-0.119-0.336c-0.081-0.076-0.181-0.116-0.308-0.116
		c-0.152,0-0.26,0.04-0.333,0.122c-0.076,0.089-0.115,0.234-0.118,0.435h-0.823c0.011-0.43,0.139-0.771,0.382-1.022
		c0.233-0.24,0.537-0.358,0.913-0.358c0.34,0,0.632,0.12,0.88,0.368c0.241,0.247,0.361,0.536,0.361,0.864
		c0,0.167-0.03,0.317-0.088,0.453c-0.058,0.135-0.146,0.267-0.264,0.381c0.214,0.126,0.376,0.295,0.488,0.506
		c0.117,0.214,0.175,0.46,0.175,0.733c0,0.452-0.15,0.835-0.457,1.159c-0.31,0.323-0.683,0.489-1.12,0.489
		c-0.484,0-0.869-0.151-1.152-0.445c-0.288-0.304-0.43-0.722-0.43-1.255H49.386z"/>
	<path fill="#424242" d="M33.228,57.973l-0.979,1.471h0.107c0.418,0,0.778,0.159,1.085,0.479c0.309,0.326,0.462,0.714,0.462,1.158
		c0,0.148-0.024,0.294-0.067,0.446c-0.043,0.156-0.103,0.302-0.181,0.442c-0.15,0.272-0.354,0.483-0.607,0.634
		c-0.25,0.148-0.533,0.224-0.848,0.224c-0.225,0-0.44-0.046-0.653-0.133c-0.202-0.087-0.38-0.207-0.529-0.363
		c-0.158-0.162-0.283-0.346-0.371-0.554c-0.085-0.205-0.125-0.408-0.125-0.609c0-0.277,0.065-0.562,0.201-0.849
		c0.081-0.176,0.246-0.442,0.486-0.802l0.008-0.003l1.032-1.541H33.228 M31.588,61.737c0.162,0.169,0.365,0.251,0.608,0.251
		c0.257,0,0.462-0.076,0.612-0.236c0.158-0.157,0.238-0.375,0.238-0.646c0-0.271-0.078-0.489-0.231-0.651
		c-0.151-0.155-0.351-0.231-0.602-0.231c-0.26,0-0.47,0.081-0.632,0.243c-0.159,0.164-0.238,0.367-0.238,0.607
		C31.344,61.343,31.426,61.563,31.588,61.737z"/>
	<path fill="#424242" d="M11.574,45.138l0.978-1.481h-0.106c-0.422,0-0.785-0.161-1.091-0.488c-0.307-0.324-0.457-0.706-0.457-1.155
		c0-0.152,0.022-0.302,0.062-0.454c0.044-0.149,0.107-0.293,0.189-0.428c0.145-0.28,0.348-0.491,0.602-0.645
		c0.251-0.15,0.532-0.224,0.845-0.224c0.226,0,0.443,0.042,0.647,0.126c0.203,0.087,0.385,0.215,0.545,0.374
		c0.154,0.16,0.274,0.345,0.363,0.556c0.088,0.206,0.13,0.407,0.13,0.614c0,0.275-0.069,0.557-0.213,0.846
		c-0.082,0.186-0.246,0.455-0.486,0.813l-1.029,1.546H11.574 M13.207,41.351c-0.163-0.168-0.366-0.254-0.608-0.254
		c-0.257,0-0.463,0.08-0.612,0.239c-0.155,0.161-0.232,0.38-0.232,0.658c0,0.269,0.077,0.484,0.228,0.643
		c0.145,0.162,0.345,0.24,0.605,0.24c0.251,0,0.458-0.081,0.628-0.251c0.159-0.164,0.242-0.363,0.242-0.598
		C13.457,41.75,13.374,41.525,13.207,41.351z"/>
	<path fill="#424242" d="M22.535,25.134c0,0.307-0.247,0.556-0.551,0.556c-0.305,0-0.55-0.249-0.55-0.556
		c0-0.302,0.245-0.548,0.55-0.548C22.288,24.586,22.535,24.832,22.535,25.134z"/>
	<path fill="#424242" d="M15.364,32.441c0,0.307-0.245,0.556-0.549,0.556c-0.306,0-0.554-0.249-0.554-0.556
		c0-0.303,0.248-0.551,0.554-0.551C15.119,31.891,15.364,32.139,15.364,32.441z"/>
	<path fill="#424242" d="M15.502,52.162c0,0.308-0.245,0.55-0.552,0.55c-0.302,0-0.551-0.242-0.551-0.55
		c0-0.304,0.249-0.551,0.551-0.551C15.257,51.611,15.502,51.858,15.502,52.162z"/>
	<circle fill="#424242" cx="22.122" cy="59.195" r="0.552"/>
	<circle fill="#424242" cx="41.701" cy="59.195" r="0.551"/>
	<path fill="#424242" d="M49.561,52.025c0,0.303-0.247,0.549-0.551,0.549s-0.553-0.246-0.553-0.549c0-0.309,0.249-0.555,0.553-0.555
		S49.561,51.717,49.561,52.025z"/>
	<path fill="#424242" d="M49.698,32.169c0,0.303-0.247,0.549-0.551,0.549s-0.552-0.246-0.552-0.549c0-0.308,0.248-0.552,0.552-0.552
		S49.698,31.861,49.698,32.169z"/>
	<circle fill="#424242" cx="41.839" cy="24.861" r="0.552"/>
	<radialGradient id="SVGID_19_" cx="31.7832" cy="41.6777" r="1.1138" gradientUnits="userSpaceOnUse">
		<stop  offset="0" style="stop-color:#FFFFFF"/>
		<stop  offset="1" style="stop-color:#818166"/>
	</radialGradient>
	<circle fill="url(#SVGID_19_)" cx="31.783" cy="41.678" r="1.114"/>
</g>
</svg>
