<?xml version="1.0" encoding="utf-8"?>
<!-- Generator: Adobe Illustrator 14.0.0, SVG Export Plug-In . SVG Version: 6.00 Build 43363)  -->
<!DOCTYPE svg PUBLIC "-//W3C//DTD SVG 1.1//EN" "http://www.w3.org/Graphics/SVG/1.1/DTD/svg11.dtd">
<svg version="1.1" id="图层_1" xmlns="http://www.w3.org/2000/svg" xmlns:xlink="http://www.w3.org/1999/xlink" x="0px" y="0px"
	 width="90.252px" height="60.25px" viewBox="0 0 90.252 60.25" enable-background="new 0 0 90.252 60.25" xml:space="preserve">
<g>
	<g>
		
			<radialGradient id="SVGID_1_" cx="700.1941" cy="1319.3564" r="170.5978" gradientTransform="matrix(1.4979 0 0 1 -1000.6462 -1400.3789)" gradientUnits="userSpaceOnUse">
			<stop  offset="0" style="stop-color:#E8F1D5"/>
			<stop  offset="0.118" style="stop-color:#E8F1D5"/>
			<stop  offset="0.1654" style="stop-color:#E4EFCF"/>
			<stop  offset="0.23" style="stop-color:#DAE8C0"/>
			<stop  offset="0.3043" style="stop-color:#CADBA5"/>
			<stop  offset="0.386" style="stop-color:#B3CA81"/>
			<stop  offset="0.4726" style="stop-color:#94B557"/>
			<stop  offset="0.5562" style="stop-color:#6DA130"/>
			<stop  offset="0.6288" style="stop-color:#629231"/>
			<stop  offset="0.7744" style="stop-color:#496C2F"/>
			<stop  offset="0.8315" style="stop-color:#3E5D2D"/>
			<stop  offset="1" style="stop-color:#3E5D2D"/>
		</radialGradient>
		<ellipse fill="url(#SVGID_1_)" cx="45.125" cy="30.125" rx="45.127" ry="30.125"/>
		
			<radialGradient id="SVGID_2_" cx="696.8972" cy="1384.6377" r="106.9646" gradientTransform="matrix(1.4979 0 0 1 -1000.6462 -1400.3789)" gradientUnits="userSpaceOnUse">
			<stop  offset="0" style="stop-color:#E8F1D5"/>
			<stop  offset="0.118" style="stop-color:#E8F1D5"/>
			<stop  offset="0.1654" style="stop-color:#E4EFCF"/>
			<stop  offset="0.23" style="stop-color:#DAE8C0"/>
			<stop  offset="0.3043" style="stop-color:#CADBA5"/>
			<stop  offset="0.386" style="stop-color:#B3CA81"/>
			<stop  offset="0.4726" style="stop-color:#94B557"/>
			<stop  offset="0.5562" style="stop-color:#6DA130"/>
			<stop  offset="0.6288" style="stop-color:#629231"/>
			<stop  offset="0.7744" style="stop-color:#496C2F"/>
			<stop  offset="0.8315" style="stop-color:#3E5D2D"/>
			<stop  offset="1" style="stop-color:#3E5D2D"/>
		</radialGradient>
		<path fill="url(#SVGID_2_)" d="M45.128,58.135c-23.137,0-41.956-12.563-41.956-28.013c0-15.44,18.819-28.01,41.956-28.01
			c23.136,0,41.958,12.565,41.958,28.01C87.087,45.57,68.264,58.135,45.128,58.135L45.128,58.135z"/>
		
			<radialGradient id="SVGID_3_" cx="723.7175" cy="1371.2861" r="147.3814" gradientTransform="matrix(1.4979 0 0 1 -1000.6462 -1400.3789)" gradientUnits="userSpaceOnUse">
			<stop  offset="0" style="stop-color:#E8F1D5"/>
			<stop  offset="0.118" style="stop-color:#E8F1D5"/>
			<stop  offset="0.1654" style="stop-color:#E4EFCF"/>
			<stop  offset="0.23" style="stop-color:#DAE8C0"/>
			<stop  offset="0.3043" style="stop-color:#CADBA5"/>
			<stop  offset="0.386" style="stop-color:#B3CA81"/>
			<stop  offset="0.4726" style="stop-color:#94B557"/>
			<stop  offset="0.5562" style="stop-color:#6DA130"/>
			<stop  offset="0.6288" style="stop-color:#629231"/>
			<stop  offset="0.7744" style="stop-color:#496C2F"/>
			<stop  offset="0.8315" style="stop-color:#3E5D2D"/>
			<stop  offset="1" style="stop-color:#3E5D2D"/>
		</radialGradient>
		<path fill="url(#SVGID_3_)" d="M45.128,56.506c-21.788,0-39.518-11.834-39.518-26.379c0-14.55,17.729-26.385,39.518-26.385
			c21.794,0,39.519,11.835,39.519,26.385C84.647,44.672,66.923,56.506,45.128,56.506L45.128,56.506z"/>
	</g>
	<g>
		<path fill="#FFFFFF" d="M65.718,19.611c-0.637,0.313-2.098,2.113-2.863,3.545c-0.764-1.434-2.225-3.232-2.861-3.545
			c-0.26-0.126-0.455-0.084-0.578-0.028c-0.139-0.002-0.332,0.038-0.52,0.259c-0.447,0.521-1.053,2.791-1.172,4.416
			c-1.279-0.998-3.346-2.055-4.055-2.082c-0.289-0.015-0.434,0.098-0.527,0.197c-0.127,0.049-0.305,0.161-0.389,0.45
			c-0.037,0.121-0.057,0.3-0.057,0.522c0,0.972,0.33,2.732,0.771,3.984c-1.563-0.391-3.881-0.507-4.543-0.244
			c-0.293,0.111-0.396,0.307-0.432,0.438c-0.08,0.085-0.154,0.204-0.154,0.409c0,0.035,0,0.074,0.008,0.111
			c0.086,0.678,1.369,2.655,2.496,3.842c-1.588,0.275-3.75,1.104-4.254,1.615c-0.182,0.178-0.229,0.354-0.229,0.484
			c0,0.046,0.018,0.068,0.021,0.104c-0.021,0.053-0.045,0.08-0.045,0.15c0,0.104,0.025,0.229,0.107,0.367
			c0.354,0.583,2.328,1.876,3.84,2.501c-1.332,0.899-2.969,2.53-3.225,3.202c-0.039,0.107-0.055,0.203-0.055,0.289
			c0,0.144,0.043,0.238,0.092,0.313c0.012,0.137,0.063,0.313,0.287,0.469c0.564,0.393,2.896,0.76,4.525,0.711
			c-0.832,1.334-1.645,3.431-1.645,4.201c0,0.018,0,0.033,0,0.053c0.02,0.299,0.158,0.453,0.27,0.531
			c0.064,0.114,0.199,0.258,0.469,0.311c0.676,0.123,2.959-0.481,4.428-1.188c-0.072,0.55-0.109,1.185-0.109,1.81
			c0,1.195,0.123,2.345,0.336,2.748c0.139,0.261,0.311,0.326,0.441,0.352c0.104,0.094,0.279,0.186,0.572,0.111
			c0.672-0.166,2.504-1.646,3.555-2.885c0.455,1.555,1.521,3.646,2.064,4.076c0.234,0.186,0.428,0.17,0.559,0.135
			c0.133,0.035,0.32,0.051,0.559-0.135c0.553-0.434,1.611-2.521,2.064-4.076c1.053,1.236,2.885,2.719,3.559,2.885
			c0.293,0.07,0.465-0.021,0.57-0.111c0.135-0.021,0.309-0.091,0.443-0.352c0.211-0.403,0.336-1.553,0.336-2.746
			c0-0.627-0.039-1.26-0.111-1.812c1.469,0.703,3.75,1.313,4.43,1.188c0.271-0.053,0.396-0.191,0.465-0.311
			c0.113-0.078,0.256-0.232,0.27-0.531c0.004-0.02,0.004-0.035,0.004-0.053c0-0.771-0.814-2.867-1.648-4.201
			c1.637,0.049,3.967-0.32,4.531-0.711c0.227-0.154,0.273-0.332,0.287-0.469C78.655,40.84,78.7,40.741,78.7,40.6
			c0-0.086-0.018-0.18-0.061-0.289c-0.256-0.672-1.887-2.303-3.221-3.202c1.51-0.625,3.479-1.918,3.836-2.501
			c0.086-0.139,0.107-0.264,0.107-0.367c0-0.07-0.021-0.102-0.043-0.15c0.008-0.033,0.021-0.06,0.021-0.104
			c0-0.133-0.047-0.311-0.227-0.484c-0.508-0.514-2.668-1.34-4.254-1.615c1.129-1.188,2.406-3.164,2.496-3.842
			c0.004-0.039,0.008-0.076,0.008-0.111c0-0.207-0.08-0.324-0.154-0.409c-0.035-0.134-0.141-0.326-0.434-0.438
			c-0.662-0.263-2.979-0.146-4.543,0.244c0.445-1.252,0.773-3.016,0.773-3.984c0-0.227-0.018-0.402-0.057-0.522
			c-0.084-0.289-0.262-0.401-0.393-0.45c-0.094-0.104-0.234-0.212-0.521-0.197c-0.715,0.026-2.779,1.084-4.061,2.082
			c-0.119-1.625-0.727-3.896-1.172-4.416c-0.188-0.219-0.383-0.262-0.52-0.259C66.173,19.525,65.977,19.485,65.718,19.611z"/>
		
			<linearGradient id="SVGID_4_" gradientUnits="userSpaceOnUse" x1="1026.7175" y1="1420.3945" x2="1026.7175" y2="1452.2715" gradientTransform="matrix(1 0 0 1 -963.8589 -1400.3789)">
			<stop  offset="0" style="stop-color:#EFEA3C"/>
			<stop  offset="0.0772" style="stop-color:#E3E13A"/>
			<stop  offset="1" style="stop-color:#337938"/>
		</linearGradient>
		<path fill="url(#SVGID_4_)" d="M62.854,24.529c0-1.205,3.629-5.807,3.281-4.163c0.348-1.644,1.785,4.035,1.305,5.14
			c0.48-1.104,5.666-3.83,4.689-2.47c0.977-1.36-0.018,4.41-0.898,5.224c0.881-0.813,6.723-1.196,5.289-0.35
			c1.434-0.85-1.814,4.021-2.945,4.406c1.131-0.385,6.623,1.646,4.977,1.833c1.646-0.191-3.309,2.938-4.482,2.827
			c1.182,0.104,5.379,4.193,3.801,3.699c1.578,0.494-4.225,1.334-5.246,0.758c1.021,0.576,3.197,6.018,1.965,4.924
			c1.232,1.094-4.404-0.498-5.102-1.438c0.693,0.938,0.469,6.795-0.207,5.297c0.676,1.498-3.828-2.248-4.078-3.395
			c0.25,1.146-2.344,6.396-2.344,4.754c0,1.646-2.588-3.607-2.344-4.754c-0.244,1.146-4.748,4.893-4.074,3.395
			c-0.674,1.498-0.9-4.355-0.205-5.297c-0.695,0.938-6.338,2.529-5.104,1.438c-1.234,1.094,0.938-4.348,1.967-4.924
			c-1.023,0.576-6.824-0.264-5.246-0.758c-1.578,0.494,2.619-3.596,3.799-3.699c-1.18,0.104-6.137-3.021-4.482-2.827
			c-1.651-0.191,3.848-2.218,4.975-1.833c-1.127-0.385-4.383-5.256-2.945-4.406c-1.438-0.85,4.406-0.464,5.289,0.35
			c-0.883-0.813-1.877-6.584-0.898-5.224c-0.979-1.36,4.209,1.366,4.688,2.47c-0.479-1.104,0.961-6.779,1.305-5.14
			C59.229,18.723,62.854,23.324,62.854,24.529z"/>
	</g>
</g>
</svg>
