<?xml version="1.0" encoding="UTF-8" standalone="no"?>
<!DOCTYPE svg PUBLIC "-//W3C//DTD SVG 1.0//EN" "http://www.w3.org/TR/2001/REC-SVG-20010904/DTD/svg10.dtd">
<!-- 由 Microsoft Visio 11.0, SVG Export, v1.0 生成 EMPAutoActivity.svg 页-1 -->
<svg xmlns="http://www.w3.org/2000/svg" xmlns:v="http://schemas.microsoft.com/visio/2003/SVGExtensions/" width="8.13086in"
		height="4.58755in" viewBox="0 0 585.422 330.304" xml:space="preserve" color-interpolation-filters="sRGB" class="st4">
	<v:documentProperties v:langID="2052" v:metric="true" v:viewMarkup="false"/>

	<style type="text/css">
	<![CDATA[
		.st1 {fill:#e8eef7;stroke:#ff0000;stroke-linecap:round;stroke-linejoin:round;stroke-width:2.16}
		.st2 {fill:#ffc000;stroke:#404040;stroke-linecap:round;stroke-linejoin:round;stroke-width:2.16}
		.st3 {fill:#e8eef7;stroke:#000000;stroke-linecap:round;stroke-linejoin:round;stroke-width:2.16}
		.st4 {fill:none;fill-rule:evenodd;font-size:12;overflow:visible;stroke-linecap:square;stroke-miterlimit:3}
	]]>
	</style>

	<g v:mID="0" v:index="1" v:groupContext="foregroundPage">
		<title>页-1</title>
		<v:pageProperties v:drawingScale="0.0393701" v:pageScale="0.0393701" v:drawingUnits="24" v:shadowOffsetX="8.50394"
				v:shadowOffsetY="-8.50394"/>
		<g id="group1-1" transform="translate(2.161,-2.16)" v:mID="1" v:groupContext="group">
			<title>工作表.1</title>
			<g id="shape2-2" v:mID="2" v:groupContext="shape">
				<title>椭圆</title>
				<v:userDefs>
					<v:ud v:nameU="visVersion" v:val="VT0(12):26"/>
				</v:userDefs>
				<path d="M-0 166.88 A290.551 162.992 180 0 1 581.1 166.88 A290.551 162.992 180 1 1 0 166.88 Z" class="st1"/>
			</g>
			<g id="shape6-4" v:mID="6" v:groupContext="shape" transform="translate(331.611,-14.602)">
				<title>七角星形</title>
				<v:userDefs>
					<v:ud v:nameU="visVersion" v:val="VT0(12):26"/>
				</v:userDefs>
				<path d="M42.42 243.06 L11.52 239.38 L21.9 268.29 L0 289.84 L29.08 299.75 L32.27 330.3 L58.15 313.75 L84.03 330.3
							 L87.23 299.75 L116.3 289.84 L94.41 268.29 L104.79 239.38 L74.29 243.06 L58.15 216.92 L42.42 243.06 Z"
						class="st2"/>
			</g>
			<g id="shape7-6" v:mID="7" v:groupContext="shape" transform="translate(368.504,-42.9485)">
				<title>圆形</title>
				<v:userDefs>
					<v:ud v:nameU="visVersion" v:val="VT0(12):26"/>
				</v:userDefs>
				<path d="M0 309.04 A21.26 21.26 0 0 1 42.52 309.04 A21.26 21.26 0 0 1 0 309.04 Z" class="st3"/>
			</g>
		</g>
	</g>
</svg>
