<?xml version="1.0" encoding="UTF-8" standalone="no"?>
<!DOCTYPE svg PUBLIC "-//W3C//DTD SVG 1.0//EN" "http://www.w3.org/TR/2001/REC-SVG-20010904/DTD/svg10.dtd">
<!-- 由 Microsoft Visio 11.0, SVG Export, v1.0 生成 EMPBatchActivity.svg 页-1 -->
<svg xmlns="http://www.w3.org/2000/svg" xmlns:v="http://schemas.microsoft.com/visio/2003/SVGExtensions/" width="16.6488in"
		height="8.77475in" viewBox="0 0 1198.71 631.782" xml:space="preserve" color-interpolation-filters="sRGB" class="st7">
	<v:documentProperties v:langID="2052" v:metric="true" v:viewMarkup="false"/>

	<style type="text/css">
	<![CDATA[
		.st1 {fill:#00b0f0;stroke:#ffffff;stroke-linecap:round;stroke-linejoin:round;stroke-width:4.08}
		.st2 {fill:#000000;font-family:宋体;font-size:0.666664em}
		.st3 {fill:#00b0f0;stroke:#000000;stroke-linecap:round;stroke-linejoin:round;stroke-width:4.08}
		.st4 {fill:#e8eef7;stroke:#ffffff;stroke-linecap:round;stroke-linejoin:round;stroke-width:4.08}
		.st5 {fill:#00b0f0;stroke:#00b0f0;stroke-linecap:round;stroke-linejoin:round;stroke-width:4.08}
		.st6 {stroke:#000000;stroke-linecap:round;stroke-linejoin:round;stroke-width:4.08}
		.st7 {fill:none;fill-rule:evenodd;font-size:12;overflow:visible;stroke-linecap:square;stroke-miterlimit:3}
	]]>
	</style>

	<g v:mID="0" v:index="1" v:groupContext="foregroundPage">
		<title>页-1</title>
		<v:pageProperties v:drawingScale="0.0393701" v:pageScale="0.0393701" v:drawingUnits="24" v:shadowOffsetX="8.50394"
				v:shadowOffsetY="-8.50394"/>
		<v:layer v:name="连接线" v:index="0"/>
		<g id="group13-1" transform="translate(4.08,-4.08)" v:mID="13" v:groupContext="group">
			<title>工作表.13</title>
			<g id="shape1-2" v:mID="1" v:groupContext="shape">
				<title>矩形</title>
				<desc>0</desc>
				<v:userDefs>
					<v:ud v:nameU="visVersion" v:val="VT0(12):26"/>
				</v:userDefs>
				<v:textBlock v:margins="rect(4,4,4,4)" v:tabSpace="42.5197"/>
				<v:textRect cx="595.276" cy="319.971" width="1190.56" height="623.622"/>
				<rect x="0" y="8.16" width="1190.55" height="623.622" class="st1"/>
				<text x="593.28" y="322.37" class="st2" v:langID="2052"><v:paragraph v:horizAlign="1"/><v:tabList/>0</text>			</g>
			<g id="shape2-5" v:mID="2" v:groupContext="shape" transform="translate(69.3766,-81.7865)">
				<title>正方形</title>
				<v:userDefs>
					<v:ud v:nameU="visVersion" v:val="VT0(12):26"/>
				</v:userDefs>
				<rect x="0" y="439.783" width="153.948" height="191.999" class="st3"/>
			</g>
			<g id="shape3-7" v:mID="3" v:groupContext="shape" transform="translate(923.089,-349.837)">
				<title>正方形.3</title>
				<v:userDefs>
					<v:ud v:nameU="visVersion" v:val="VT0(12):26"/>
				</v:userDefs>
				<rect x="0" y="439.783" width="153.948" height="191.999" class="st3"/>
			</g>
			<g id="shape4-9" v:mID="4" v:groupContext="shape" transform="translate(512.227,-235.76)">
				<title>矩形.4</title>
				<v:userDefs>
					<v:ud v:nameU="visVersion" v:val="VT0(12):26"/>
				</v:userDefs>
				<rect x="0" y="403.628" width="60.9795" height="228.154" class="st4"/>
			</g>
			<g id="shape6-11" v:mID="6" v:groupContext="shape" transform="translate(573.207,-235.76)">
				<title>矩形.6</title>
				<v:userDefs>
					<v:ud v:nameU="visVersion" v:val="VT0(12):26"/>
				</v:userDefs>
				<rect x="0" y="403.628" width="60.9795" height="228.154" class="st4"/>
			</g>
			<g id="shape12-13" v:mID="12" v:groupContext="shape" transform="translate(268.31,-190.129)">
				<title>矩形.12</title>
				<v:userDefs>
					<v:ud v:nameU="visVersion" v:val="VT0(12):26"/>
				</v:userDefs>
				<rect x="0" y="319.971" width="634.186" height="311.811" class="st5"/>
			</g>
			<g id="shape7-15" v:mID="7" v:groupContext="shape" v:layerMember="0"
					transform="translate(816.202,990.993) rotate(-19.6552) scale(1,-1)">
				<title>直线-曲线连接线.7</title>
				<v:userDefs>
					<v:ud v:nameU="AntiScale" v:val="VT0(1):26"/>
					<v:ud v:nameU="Scale" v:val="VT0(1):26"/>
					<v:ud v:nameU="visVersion" v:val="VT0(12):26"/>
				</v:userDefs>
				<path d="M0 631.78 L13.68 631.13 L27.41 630.54 L41.17 630 L54.97 629.52 L68.81 629.1 L82.69 628.73 L96.61 628.42
							 L110.56 628.16 L124.56 627.96 L138.59 627.82 L152.66 627.74 L166.78 627.71 L180.93 627.74 L195.12 627.82
							 L209.35 627.96 L223.61 628.16 L237.92 628.42 L252.26 628.73 L266.65 629.1 L281.07 629.52 L295.53 630
							 L310.04 630.54 L324.57 631.13 L339.15 631.78" class="st6"/>
			</g>
			<g id="shape8-18" v:mID="8" v:groupContext="shape" v:layerMember="0"
					transform="translate(1035.62,-227.349) rotate(51.2767)">
				<title>直线-曲线连接线.8</title>
				<v:userDefs>
					<v:ud v:nameU="AntiScale" v:val="VT0(1):26"/>
					<v:ud v:nameU="Scale" v:val="VT0(1):26"/>
					<v:ud v:nameU="visVersion" v:val="VT0(12):26"/>
				</v:userDefs>
				<path d="M0 631.78 L146.22 631.78 L146.22 631.78" class="st6"/>
			</g>
			<g id="shape5-21" v:mID="5" v:groupContext="shape" v:layerMember="0"
					transform="translate(219.553,-375.007) rotate(-30.7646) scale(-1,1)">
				<title>直线-曲线连接线</title>
				<v:userDefs>
					<v:ud v:nameU="AntiScale" v:val="VT0(1):26"/>
					<v:ud v:nameU="Scale" v:val="VT0(1):26"/>
					<v:ud v:nameU="visVersion" v:val="VT0(12):26"/>
				</v:userDefs>
				<path d="M0 631.78 L9.27 631.8 L18.47 631.83 L27.59 631.85 L36.65 631.86 L45.64 631.88 L54.56 631.9 L63.41 631.92
							 L72.18 631.93 L80.89 631.95 L89.53 631.96 L98.09 631.97 L106.59 631.99 L115.02 632 L123.37 632.01 L131.66
							 632.02 L139.88 632.02 L148.02 632.03 L156.1 632.04 L164.11 632.04 L172.04 632.05 L179.91 632.05 L187.71
							 632.05 L195.43 632.06 L203.09 632.06 L210.67 632.06 L218.19 632.06 L225.63 632.05 L233.01 632.05 L240.32
							 632.05 L247.55 632.04 L254.72 632.04 L261.81 632.03 L268.84 632.02 L275.79 632.02 L282.67 632.01 L289.49
							 632 L296.23 631.99 L302.91 631.97 L309.51 631.96 L316.05 631.95 L322.51 631.93 L328.9 631.92 L335.23
							 631.9 L341.48 631.88 L347.67 631.86 L353.78 631.85 L359.82 631.83 L365.8 631.8 L371.7 631.78"
						class="st6"/>
			</g>
			<g id="shape9-24" v:mID="9" v:groupContext="shape" v:layerMember="0"
					transform="translate(351.395,-329.022) rotate(-14.7481) scale(-1,1)">
				<title>直线-曲线连接线.9</title>
				<v:userDefs>
					<v:ud v:nameU="AntiScale" v:val="VT0(1):26"/>
					<v:ud v:nameU="Scale" v:val="VT0(1):26"/>
					<v:ud v:nameU="visVersion" v:val="VT0(12):26"/>
				</v:userDefs>
				<path d="M0 631.78 L298.74 631.78 L298.74 631.78" class="st6"/>
			</g>
			<g id="shape10-27" v:mID="10" v:groupContext="shape" v:layerMember="0"
					transform="translate(1005.13,-113.272) rotate(51.2767)">
				<title>直线-曲线连接线.10</title>
				<v:userDefs>
					<v:ud v:nameU="AntiScale" v:val="VT0(1):26"/>
					<v:ud v:nameU="Scale" v:val="VT0(1):26"/>
					<v:ud v:nameU="visVersion" v:val="VT0(12):26"/>
				</v:userDefs>
				<path d="M0 631.78 L4.3 630.64 L8.6 629.56 L12.9 628.56 L17.2 627.62 L21.5 626.75 L25.8 625.96 L30.1 625.23 L34.4
							 624.57 L38.71 623.98 L43.01 623.46 L47.31 623.01 L51.61 622.63 L55.91 622.31 L60.21 622.07 L64.51 621.9
							 L68.81 621.79 L73.11 621.76 L77.41 621.79 L81.71 621.9 L86.01 622.07 L90.31 622.31 L94.61 622.63 L98.91
							 623.01 L103.21 623.46 L107.51 623.98 L111.82 624.57 L116.12 625.23 L120.42 625.96 L124.72 626.75 L129.02
							 627.62 L133.32 628.56 L137.62 629.56 L141.92 630.64 L146.22 631.78" class="st6"/>
			</g>
			<g id="shape11-30" v:mID="11" v:groupContext="shape" v:layerMember="0"
					transform="translate(923.089,-349.837) scale(-1,1)">
				<title>直线-曲线连接线.11</title>
				<v:userDefs>
					<v:ud v:nameU="AntiScale" v:val="VT0(1):26"/>
					<v:ud v:nameU="Scale" v:val="VT0(1):26"/>
					<v:ud v:nameU="visVersion" v:val="VT0(12):26"/>
				</v:userDefs>
				<path d="M0 631.78 L8.18 631.52 L16.28 631.28 L24.32 631.05 L32.29 630.83 L40.19 630.62 L48.02 630.42 L55.78 630.24
							 L63.47 630.07 L71.09 629.91 L78.64 629.76 L86.13 629.62 L93.54 629.5 L100.88 629.39 L108.16 629.29 L115.36
							 629.21 L122.5 629.13 L129.56 629.07 L136.56 629.02 L143.49 628.99 L150.35 628.96 L157.13 628.95 L163.85
							 628.95 L170.5 628.96 L177.08 628.99 L183.59 629.02 L190.03 629.07 L196.4 629.13 L202.71 629.21 L208.94
							 629.29 L215.1 629.39 L221.2 629.5 L227.22 629.62 L233.17 629.76 L239.06 629.91 L244.88 630.07 L250.62
							 630.24 L256.3 630.42 L261.91 630.62 L267.44 630.83 L272.91 631.05 L278.31 631.28 L283.64 631.52 L288.9
							 631.78" class="st6"/>
			</g>
		</g>
	</g>
</svg>
