<?xml version="1.0" encoding="utf-8"?>
<!-- Generator: Adobe Illustrator 14.0.0, SVG Export Plug-In . SVG Version: 6.00 Build 43363)  -->
<!DOCTYPE svg PUBLIC "-//W3C//DTD SVG 1.1//EN" "http://www.w3.org/Graphics/SVG/1.1/DTD/svg11.dtd">
<svg version="1.1" id="图层_1" xmlns="http://www.w3.org/2000/svg" xmlns:xlink="http://www.w3.org/1999/xlink" x="0px" y="0px"
	 width="90.252px" height="60.016px" viewBox="0 0 90.252 60.016" enable-background="new 0 0 90.252 60.016" xml:space="preserve">
<g>
	<g>
		
			<radialGradient id="SVGID_1_" cx="700.1941" cy="1319.238" r="170.5994" gradientTransform="matrix(1.4979 0 0 1 -1000.6462 -1400.3789)" gradientUnits="userSpaceOnUse">
			<stop  offset="0" style="stop-color:#E8F1D5"/>
			<stop  offset="0.118" style="stop-color:#E8F1D5"/>
			<stop  offset="0.1654" style="stop-color:#E4EFCF"/>
			<stop  offset="0.23" style="stop-color:#DAE8C0"/>
			<stop  offset="0.3043" style="stop-color:#CADBA5"/>
			<stop  offset="0.386" style="stop-color:#B3CA81"/>
			<stop  offset="0.4726" style="stop-color:#94B557"/>
			<stop  offset="0.5562" style="stop-color:#6DA130"/>
			<stop  offset="0.6288" style="stop-color:#629231"/>
			<stop  offset="0.7744" style="stop-color:#496C2F"/>
			<stop  offset="0.8315" style="stop-color:#3E5D2D"/>
			<stop  offset="1" style="stop-color:#3E5D2D"/>
		</radialGradient>
		<ellipse fill="url(#SVGID_1_)" cx="45.125" cy="30.008" rx="45.127" ry="30.125"/>
		
			<radialGradient id="SVGID_2_" cx="696.8972" cy="1384.5125" r="106.9754" gradientTransform="matrix(1.4979 0 0 1 -1000.6462 -1400.3789)" gradientUnits="userSpaceOnUse">
			<stop  offset="0" style="stop-color:#E8F1D5"/>
			<stop  offset="0.118" style="stop-color:#E8F1D5"/>
			<stop  offset="0.1654" style="stop-color:#E4EFCF"/>
			<stop  offset="0.23" style="stop-color:#DAE8C0"/>
			<stop  offset="0.3043" style="stop-color:#CADBA5"/>
			<stop  offset="0.386" style="stop-color:#B3CA81"/>
			<stop  offset="0.4726" style="stop-color:#94B557"/>
			<stop  offset="0.5562" style="stop-color:#6DA130"/>
			<stop  offset="0.6288" style="stop-color:#629231"/>
			<stop  offset="0.7744" style="stop-color:#496C2F"/>
			<stop  offset="0.8315" style="stop-color:#3E5D2D"/>
			<stop  offset="1" style="stop-color:#3E5D2D"/>
		</radialGradient>
		<path fill="url(#SVGID_2_)" d="M45.127,58.018c-23.136,0-41.955-12.565-41.955-28.015c0-15.439,18.819-28.01,41.955-28.01
			c23.137,0,41.959,12.566,41.959,28.01C87.087,45.452,68.264,58.018,45.127,58.018L45.127,58.018z"/>
		
			<radialGradient id="SVGID_3_" cx="723.7195" cy="1371.1746" r="147.3729" gradientTransform="matrix(1.4979 0 0 1 -1000.6462 -1400.3789)" gradientUnits="userSpaceOnUse">
			<stop  offset="0" style="stop-color:#E8F1D5"/>
			<stop  offset="0.118" style="stop-color:#E8F1D5"/>
			<stop  offset="0.1654" style="stop-color:#E4EFCF"/>
			<stop  offset="0.23" style="stop-color:#DAE8C0"/>
			<stop  offset="0.3043" style="stop-color:#CADBA5"/>
			<stop  offset="0.386" style="stop-color:#B3CA81"/>
			<stop  offset="0.4726" style="stop-color:#94B557"/>
			<stop  offset="0.5562" style="stop-color:#6DA130"/>
			<stop  offset="0.6288" style="stop-color:#629231"/>
			<stop  offset="0.7744" style="stop-color:#496C2F"/>
			<stop  offset="0.8315" style="stop-color:#3E5D2D"/>
			<stop  offset="1" style="stop-color:#3E5D2D"/>
		</radialGradient>
		<path fill="url(#SVGID_3_)" d="M45.127,56.389c-21.787,0-39.517-11.834-39.517-26.385c0-14.546,17.729-26.381,39.517-26.381
			c21.795,0,39.52,11.835,39.52,26.381C84.645,44.555,66.923,56.389,45.127,56.389L45.127,56.389z"/>
	</g>
	<g>
		<g>
			<path fill="#FFFFFF" d="M30.689,43.172l-0.613-1.626h-5.231l-0.613,1.661c-0.24,0.647-0.445,1.085-0.615,1.313
				c-0.17,0.226-0.446,0.34-0.834,0.34c-0.328,0-0.617-0.12-0.869-0.36c-0.252-0.236-0.377-0.512-0.377-0.813
				c0-0.18,0.029-0.356,0.088-0.544c0.06-0.188,0.154-0.448,0.289-0.782l3.292-8.36c0.095-0.237,0.206-0.524,0.339-0.862
				c0.132-0.338,0.271-0.615,0.421-0.841c0.149-0.223,0.346-0.398,0.589-0.54c0.243-0.138,0.542-0.205,0.898-0.205
				c0.363,0,0.666,0.067,0.908,0.205c0.243,0.142,0.439,0.314,0.588,0.531c0.15,0.217,0.275,0.449,0.378,0.698
				c0.104,0.249,0.232,0.581,0.392,0.997l3.361,8.307c0.264,0.632,0.396,1.091,0.396,1.378c0,0.301-0.125,0.572-0.373,0.821
				c-0.249,0.249-0.549,0.373-0.9,0.373c-0.205,0-0.38-0.037-0.525-0.11c-0.146-0.071-0.27-0.174-0.368-0.301
				c-0.101-0.126-0.207-0.32-0.32-0.582C30.867,43.603,30.771,43.371,30.689,43.172z M25.529,39.608h3.844l-1.938-5.313
				L25.529,39.608z"/>
			<path fill="#FFFFFF" d="M34.733,39.317v-6.191c0-0.522,0.118-0.921,0.354-1.185c0.235-0.264,0.546-0.396,0.931-0.396
				c0.4,0,0.72,0.136,0.955,0.396c0.235,0.264,0.354,0.659,0.354,1.187v6.337c0,0.725,0.081,1.323,0.242,1.81
				c0.161,0.479,0.447,0.854,0.858,1.125c0.41,0.267,0.984,0.396,1.725,0.396c1.021,0,1.743-0.271,2.166-0.813
				c0.422-0.542,0.634-1.364,0.634-2.465v-6.394c0-0.529,0.116-0.93,0.35-1.188c0.232-0.258,0.545-0.395,0.936-0.395
				s0.705,0.134,0.947,0.395c0.241,0.261,0.362,0.657,0.362,1.188v6.194c0,1.007-0.099,1.848-0.292,2.521
				c-0.195,0.678-0.564,1.269-1.105,1.774c-0.469,0.432-1.012,0.746-1.633,0.944c-0.619,0.194-1.345,0.297-2.176,0.297
				c-0.988,0-1.841-0.106-2.554-0.32c-0.715-0.214-1.297-0.544-1.746-0.992c-0.45-0.444-0.78-1.021-0.991-1.721
				S34.733,40.289,34.733,39.317z"/>
			<path fill="#FFFFFF" d="M56.757,33.921h-2.85v9.353c0,0.539-0.119,0.938-0.355,1.198c-0.238,0.26-0.553,0.391-0.932,0.391
				c-0.387,0-0.695-0.132-0.938-0.396c-0.244-0.263-0.361-0.656-0.361-1.189v-9.353h-2.852c-0.443,0-0.771-0.098-0.992-0.295
				c-0.217-0.192-0.322-0.456-0.322-0.775c0-0.334,0.109-0.602,0.34-0.792c0.225-0.193,0.551-0.291,0.979-0.291h8.289
				c0.451,0,0.787,0.1,1.008,0.299c0.219,0.2,0.328,0.461,0.328,0.783c0,0.319-0.111,0.583-0.334,0.775
				C57.534,33.823,57.2,33.921,56.757,33.921z"/>
			<path fill="#FFFFFF" d="M65.05,31.546c1.334,0,2.479,0.271,3.434,0.813c0.957,0.542,1.68,1.312,2.172,2.31
				c0.49,0.998,0.736,2.17,0.736,3.521c0,0.995-0.135,1.896-0.404,2.713c-0.268,0.813-0.672,1.52-1.209,2.117
				c-0.539,0.597-1.199,1.054-1.979,1.37c-0.783,0.313-1.686,0.474-2.693,0.474c-1.006,0-1.904-0.163-2.699-0.487
				c-0.795-0.322-1.459-0.781-1.99-1.374c-0.531-0.591-0.936-1.303-1.205-2.134c-0.271-0.831-0.406-1.729-0.406-2.696
				c0-0.985,0.141-1.896,0.426-2.722c0.283-0.825,0.693-1.528,1.229-2.105c0.539-0.578,1.193-1.021,1.967-1.329
				C63.188,31.7,64.065,31.546,65.05,31.546z M68.764,38.167c0-0.94-0.152-1.763-0.459-2.455c-0.305-0.688-0.74-1.216-1.307-1.567
				c-0.566-0.355-1.217-0.533-1.951-0.533c-0.521,0-1.004,0.099-1.447,0.295c-0.443,0.197-0.826,0.483-1.145,0.858
				c-0.32,0.375-0.574,0.854-0.758,1.438c-0.188,0.584-0.277,1.239-0.277,1.967c0,0.733,0.092,1.396,0.277,1.989
				c0.184,0.593,0.441,1.084,0.779,1.474c0.342,0.394,0.729,0.686,1.162,0.875c0.438,0.194,0.918,0.291,1.438,0.291
				c0.672,0,1.285-0.167,1.85-0.501c0.563-0.334,1.006-0.851,1.338-1.549S68.764,39.188,68.764,38.167z"/>
		</g>
		<g>
			
				<linearGradient id="SVGID_4_" gradientUnits="userSpaceOnUse" x1="990.1775" y1="1456.738" x2="990.4275" y2="1438.7332" gradientTransform="matrix(1 0 0 1 -963.8589 -1400.3789)">
				<stop  offset="0" style="stop-color:#E8F1D5"/>
				<stop  offset="0.118" style="stop-color:#E8F1D5"/>
				<stop  offset="0.1654" style="stop-color:#E4EFCF"/>
				<stop  offset="0.23" style="stop-color:#DAE8C0"/>
				<stop  offset="0.3043" style="stop-color:#CADBA5"/>
				<stop  offset="0.386" style="stop-color:#B3CA81"/>
				<stop  offset="0.4726" style="stop-color:#94B557"/>
				<stop  offset="0.5562" style="stop-color:#6DA130"/>
				<stop  offset="0.6288" style="stop-color:#629231"/>
				<stop  offset="0.7744" style="stop-color:#496C2F"/>
				<stop  offset="0.8315" style="stop-color:#3E5D2D"/>
				<stop  offset="1" style="stop-color:#3E5D2D"/>
			</linearGradient>
			<path fill="url(#SVGID_4_)" d="M29.689,42.421l-0.613-1.625h-5.231l-0.613,1.661c-0.24,0.648-0.445,1.085-0.615,1.313
				c-0.17,0.226-0.446,0.34-0.834,0.34c-0.328,0-0.617-0.12-0.869-0.36c-0.252-0.236-0.377-0.512-0.377-0.813
				c0-0.176,0.029-0.356,0.088-0.544c0.06-0.188,0.154-0.448,0.289-0.782l3.292-8.36c0.095-0.237,0.206-0.524,0.339-0.862
				c0.132-0.338,0.271-0.615,0.421-0.841c0.149-0.223,0.346-0.398,0.589-0.54c0.243-0.138,0.542-0.205,0.898-0.205
				c0.363,0,0.666,0.067,0.908,0.205c0.243,0.142,0.439,0.314,0.588,0.531c0.15,0.217,0.275,0.449,0.378,0.698
				c0.104,0.249,0.232,0.581,0.392,0.997l3.361,8.307c0.264,0.632,0.396,1.092,0.396,1.378c0,0.301-0.125,0.572-0.373,0.821
				c-0.249,0.249-0.549,0.373-0.9,0.373c-0.205,0-0.38-0.037-0.525-0.11c-0.146-0.071-0.27-0.174-0.368-0.301
				c-0.101-0.126-0.207-0.32-0.32-0.582C29.867,42.853,29.771,42.622,29.689,42.421z M24.529,38.858h3.844l-1.938-5.313
				L24.529,38.858z"/>
			
				<linearGradient id="SVGID_5_" gradientUnits="userSpaceOnUse" x1="1002.7068" y1="1456.9138" x2="1002.9567" y2="1438.91" gradientTransform="matrix(1 0 0 1 -963.8589 -1400.3789)">
				<stop  offset="0" style="stop-color:#E8F1D5"/>
				<stop  offset="0.118" style="stop-color:#E8F1D5"/>
				<stop  offset="0.1654" style="stop-color:#E4EFCF"/>
				<stop  offset="0.23" style="stop-color:#DAE8C0"/>
				<stop  offset="0.3043" style="stop-color:#CADBA5"/>
				<stop  offset="0.386" style="stop-color:#B3CA81"/>
				<stop  offset="0.4726" style="stop-color:#94B557"/>
				<stop  offset="0.5562" style="stop-color:#6DA130"/>
				<stop  offset="0.6288" style="stop-color:#629231"/>
				<stop  offset="0.7744" style="stop-color:#496C2F"/>
				<stop  offset="0.8315" style="stop-color:#3E5D2D"/>
				<stop  offset="1" style="stop-color:#3E5D2D"/>
			</linearGradient>
			<path fill="url(#SVGID_5_)" d="M33.733,38.567v-6.191c0-0.522,0.118-0.921,0.354-1.185c0.235-0.264,0.546-0.396,0.931-0.396
				c0.4,0,0.72,0.136,0.955,0.396c0.235,0.264,0.354,0.659,0.354,1.187v6.337c0,0.725,0.081,1.323,0.242,1.81
				c0.161,0.479,0.447,0.854,0.858,1.125c0.41,0.267,0.984,0.396,1.725,0.396c1.021,0,1.743-0.271,2.166-0.813
				c0.422-0.542,0.634-1.364,0.634-2.465v-6.394c0-0.529,0.116-0.93,0.35-1.188c0.232-0.258,0.545-0.395,0.936-0.395
				s0.705,0.134,0.947,0.395c0.241,0.261,0.362,0.657,0.362,1.188v6.194c0,1.007-0.099,1.848-0.292,2.521
				c-0.195,0.678-0.564,1.269-1.105,1.774c-0.469,0.432-1.012,0.746-1.633,0.944c-0.619,0.194-1.345,0.297-2.176,0.297
				c-0.988,0-1.841-0.106-2.554-0.32c-0.715-0.214-1.297-0.544-1.746-0.992c-0.45-0.444-0.78-1.021-0.991-1.721
				S33.733,39.539,33.733,38.567z"/>
			
				<linearGradient id="SVGID_6_" gradientUnits="userSpaceOnUse" x1="1015.1443" y1="1457.0779" x2="1015.3943" y2="1439.078" gradientTransform="matrix(1 0 0 1 -963.8589 -1400.3789)">
				<stop  offset="0" style="stop-color:#E8F1D5"/>
				<stop  offset="0.118" style="stop-color:#E8F1D5"/>
				<stop  offset="0.1654" style="stop-color:#E4EFCF"/>
				<stop  offset="0.23" style="stop-color:#DAE8C0"/>
				<stop  offset="0.3043" style="stop-color:#CADBA5"/>
				<stop  offset="0.386" style="stop-color:#B3CA81"/>
				<stop  offset="0.4726" style="stop-color:#94B557"/>
				<stop  offset="0.5562" style="stop-color:#6DA130"/>
				<stop  offset="0.6288" style="stop-color:#629231"/>
				<stop  offset="0.7744" style="stop-color:#496C2F"/>
				<stop  offset="0.8315" style="stop-color:#3E5D2D"/>
				<stop  offset="1" style="stop-color:#3E5D2D"/>
			</linearGradient>
			<path fill="url(#SVGID_6_)" d="M55.757,33.171h-2.85v9.353c0,0.539-0.119,0.938-0.355,1.198c-0.238,0.26-0.553,0.391-0.932,0.391
				c-0.387,0-0.695-0.132-0.938-0.396c-0.244-0.263-0.361-0.656-0.361-1.189v-9.353h-2.852c-0.443,0-0.771-0.098-0.992-0.295
				c-0.217-0.192-0.322-0.456-0.322-0.775c0-0.334,0.109-0.602,0.34-0.792c0.225-0.193,0.551-0.291,0.979-0.291h8.289
				c0.451,0,0.787,0.1,1.008,0.299c0.219,0.2,0.328,0.461,0.328,0.783c0,0.319-0.111,0.583-0.334,0.775
				C56.534,33.073,56.2,33.171,55.757,33.171z"/>
			
				<linearGradient id="SVGID_7_" gradientUnits="userSpaceOnUse" x1="1027.6882" y1="1457.2566" x2="1027.9382" y2="1439.2552" gradientTransform="matrix(1 0 0 1 -963.8589 -1400.3789)">
				<stop  offset="0" style="stop-color:#E8F1D5"/>
				<stop  offset="0.118" style="stop-color:#E8F1D5"/>
				<stop  offset="0.1654" style="stop-color:#E4EFCF"/>
				<stop  offset="0.23" style="stop-color:#DAE8C0"/>
				<stop  offset="0.3043" style="stop-color:#CADBA5"/>
				<stop  offset="0.386" style="stop-color:#B3CA81"/>
				<stop  offset="0.4726" style="stop-color:#94B557"/>
				<stop  offset="0.5562" style="stop-color:#6DA130"/>
				<stop  offset="0.6288" style="stop-color:#629231"/>
				<stop  offset="0.7744" style="stop-color:#496C2F"/>
				<stop  offset="0.8315" style="stop-color:#3E5D2D"/>
				<stop  offset="1" style="stop-color:#3E5D2D"/>
			</linearGradient>
			<path fill="url(#SVGID_7_)" d="M64.05,30.796c1.334,0,2.479,0.271,3.434,0.813c0.957,0.542,1.68,1.312,2.172,2.31
				c0.49,0.998,0.736,2.17,0.736,3.521c0,0.995-0.135,1.896-0.404,2.713c-0.268,0.813-0.672,1.52-1.209,2.117
				c-0.539,0.597-1.199,1.054-1.979,1.37c-0.783,0.313-1.686,0.474-2.693,0.474c-1.006,0-1.904-0.163-2.699-0.487
				c-0.795-0.322-1.459-0.781-1.99-1.374c-0.531-0.591-0.936-1.303-1.205-2.134c-0.271-0.831-0.406-1.729-0.406-2.696
				c0-0.985,0.141-1.896,0.426-2.722c0.283-0.825,0.693-1.528,1.229-2.105c0.539-0.578,1.193-1.021,1.967-1.329
				C62.188,30.95,63.065,30.796,64.05,30.796z M67.764,37.417c0-0.94-0.152-1.763-0.459-2.455c-0.305-0.688-0.74-1.216-1.307-1.567
				c-0.566-0.355-1.217-0.533-1.951-0.533c-0.521,0-1.004,0.099-1.447,0.295c-0.443,0.197-0.826,0.483-1.145,0.858
				c-0.32,0.375-0.574,0.854-0.758,1.438c-0.188,0.584-0.277,1.239-0.277,1.967c0,0.733,0.092,1.396,0.277,1.989
				c0.184,0.593,0.441,1.084,0.779,1.474c0.342,0.394,0.729,0.686,1.162,0.875c0.438,0.194,0.918,0.291,1.438,0.291
				c0.672,0,1.285-0.167,1.85-0.501c0.563-0.334,1.006-0.851,1.338-1.549S67.764,38.438,67.764,37.417z"/>
		</g>
	</g>
</g>
</svg>
