<?xml version="1.0" encoding="utf-8"?>
<!-- Generator: Adobe Illustrator 14.0.0, SVG Export Plug-In . SVG Version: 6.00 Build 43363)  -->
<!DOCTYPE svg PUBLIC "-//W3C//DTD SVG 1.1//EN" "http://www.w3.org/Graphics/SVG/1.1/DTD/svg11.dtd">
<svg version="1.1" id="图层_1" xmlns="http://www.w3.org/2000/svg" xmlns:xlink="http://www.w3.org/1999/xlink" x="0px" y="0px"
	 width="69.991px" height="69.607px" viewBox="0 0 69.991 69.607" enable-background="new 0 0 69.991 69.607" xml:space="preserve">
<g>
	<g>
		<g>
			<ellipse opacity="0" fill="#FFFFFF" cx="35.527" cy="60.472" rx="31.638" ry="9.003"/>
			<ellipse opacity="0.0256" fill="#FEFEFE" cx="35.528" cy="60.475" rx="30.894" ry="8.781"/>
			<ellipse opacity="0.0513" fill="#FDFDFD" cx="35.528" cy="60.475" rx="30.149" ry="8.563"/>
			<ellipse opacity="0.0769" fill="#FCFCFC" cx="35.528" cy="60.475" rx="29.404" ry="8.345"/>
			<ellipse opacity="0.1026" fill="#FBFBFB" cx="35.528" cy="60.475" rx="28.659" ry="8.126"/>
			<ellipse opacity="0.1282" fill="#FAFAFA" cx="35.528" cy="60.475" rx="27.914" ry="7.908"/>
			<ellipse opacity="0.1538" fill="#F9F9F9" cx="35.528" cy="60.475" rx="27.169" ry="7.689"/>
			<ellipse opacity="0.1795" fill="#F8F8F8" cx="35.528" cy="60.475" rx="26.424" ry="7.471"/>
			<ellipse opacity="0.2051" fill="#F7F7F7" cx="35.528" cy="60.475" rx="25.679" ry="7.252"/>
			<ellipse opacity="0.2308" fill="#F6F6F6" cx="35.528" cy="60.475" rx="24.934" ry="7.034"/>
			<ellipse opacity="0.2564" fill="#F5F5F5" cx="35.528" cy="60.475" rx="24.189" ry="6.816"/>
			<ellipse opacity="0.2821" fill="#F4F4F4" cx="35.528" cy="60.475" rx="23.444" ry="6.597"/>
			<ellipse opacity="0.3077" fill="#F3F3F3" cx="35.528" cy="60.475" rx="22.699" ry="6.379"/>
			<ellipse opacity="0.3333" fill="#F2F2F2" cx="35.528" cy="60.475" rx="21.954" ry="6.161"/>
			<ellipse opacity="0.359" fill="#F1F1F1" cx="35.528" cy="60.475" rx="21.209" ry="5.942"/>
			<ellipse opacity="0.3846" fill="#F0F0F0" cx="35.528" cy="60.475" rx="20.464" ry="5.724"/>
			<ellipse opacity="0.4103" fill="#EFEFEF" cx="35.528" cy="60.475" rx="19.719" ry="5.505"/>
			<ellipse opacity="0.4359" fill="#EEEEEE" cx="35.528" cy="60.475" rx="18.974" ry="5.287"/>
			<ellipse opacity="0.4615" fill="#EDEDED" cx="35.528" cy="60.475" rx="18.229" ry="5.068"/>
			<ellipse opacity="0.4872" fill="#ECECEC" cx="35.528" cy="60.475" rx="17.484" ry="4.85"/>
			<ellipse opacity="0.5128" fill="#ECECEC" cx="35.528" cy="60.475" rx="16.739" ry="4.631"/>
			<ellipse opacity="0.5385" fill="#EBEBEB" cx="35.528" cy="60.474" rx="15.994" ry="4.413"/>
			<ellipse opacity="0.5641" fill="#EAEAEA" cx="35.528" cy="60.475" rx="15.249" ry="4.195"/>
			<ellipse opacity="0.5897" fill="#E9E9E9" cx="35.528" cy="60.475" rx="14.504" ry="3.976"/>
			<ellipse opacity="0.6154" fill="#E8E8E8" cx="35.528" cy="60.474" rx="13.759" ry="3.758"/>
			<ellipse opacity="0.641" fill="#E7E7E7" cx="35.528" cy="60.475" rx="13.014" ry="3.54"/>
			<ellipse opacity="0.6667" fill="#E6E6E6" cx="35.528" cy="60.475" rx="12.269" ry="3.321"/>
			<ellipse opacity="0.6923" fill="#E5E5E5" cx="35.528" cy="60.474" rx="11.524" ry="3.103"/>
			<path opacity="0.7179" fill="#E4E4E4" d="M35.528,63.359c-5.95,0-10.779-1.29-10.779-2.884c0-1.595,4.829-2.885,10.779-2.885
				c5.953,0,10.778,1.29,10.778,2.885C46.306,62.069,41.48,63.359,35.528,63.359z"/>
			<path opacity="0.7436" fill="#E3E3E3" d="M35.528,63.14c-5.539,0-10.034-1.192-10.034-2.665c0-1.475,4.495-2.666,10.034-2.666
				c5.542,0,10.033,1.191,10.033,2.666C45.561,61.948,41.069,63.14,35.528,63.14z"/>
			<path opacity="0.7692" fill="#E2E2E2" d="M35.528,62.921c-5.127,0-9.289-1.094-9.289-2.446c0-1.354,4.162-2.448,9.289-2.448
				c5.129,0,9.288,1.095,9.288,2.448C44.815,61.828,40.657,62.921,35.528,62.921z"/>
			<path opacity="0.7949" fill="#E1E1E1" d="M35.528,62.704c-4.715,0-8.544-0.997-8.544-2.229c0-1.233,3.829-2.229,8.544-2.229
				c4.718,0,8.542,0.996,8.542,2.229C44.07,61.707,40.246,62.704,35.528,62.704z"/>
			<path opacity="0.8205" fill="#E0E0E0" d="M35.528,62.485c-4.304,0-7.799-0.898-7.799-2.01c0-1.112,3.495-2.011,7.799-2.011
				c4.307,0,7.797,0.898,7.797,2.011C43.325,61.586,39.835,62.485,35.528,62.485z"/>
			<path opacity="0.8462" fill="#DFDFDF" d="M35.528,62.266c-3.893,0-7.054-0.8-7.054-1.791s3.161-1.793,7.054-1.793
				c3.895,0,7.052,0.802,7.052,1.793S39.423,62.266,35.528,62.266z"/>
			<path opacity="0.8718" fill="#DEDEDE" d="M35.528,62.047c-3.481,0-6.309-0.702-6.309-1.572c0-0.871,2.828-1.574,6.309-1.574
				c3.484,0,6.307,0.703,6.307,1.574C41.835,61.345,39.012,62.047,35.528,62.047z"/>
			<path opacity="0.8974" fill="#DDDDDD" d="M35.528,61.83c-3.069,0-5.564-0.604-5.564-1.354c0-0.751,2.495-1.357,5.564-1.357
				c3.073,0,5.562,0.606,5.562,1.357C41.09,61.225,38.601,61.83,35.528,61.83z"/>
			<path opacity="0.9231" fill="#DCDCDC" d="M35.528,61.611c-2.658,0-4.819-0.507-4.819-1.135c0-0.631,2.161-1.139,4.819-1.139
				c2.661,0,4.818,0.508,4.818,1.139C40.346,61.104,38.188,61.611,35.528,61.611z"/>
			<path opacity="0.9487" fill="#DBDBDB" d="M35.528,61.392c-2.246,0-4.074-0.408-4.074-0.916c0-0.51,1.828-0.92,4.074-0.92
				c2.25,0,4.073,0.41,4.073,0.92C39.601,60.984,37.777,61.392,35.528,61.392z"/>
			<path opacity="0.9744" fill="#DADADA" d="M35.528,61.174c-1.834,0-3.329-0.312-3.329-0.698c0-0.39,1.495-0.702,3.329-0.702
				c1.837,0,3.328,0.313,3.328,0.702C38.855,60.863,37.365,61.174,35.528,61.174z"/>
			<path fill="#D9D9D9" d="M38.11,60.476c0,0.267-1.156,0.479-2.583,0.479c-1.423,0-2.584-0.213-2.584-0.479
				c0-0.269,1.161-0.483,2.584-0.483C36.954,59.993,38.11,60.208,38.11,60.476z"/>
		</g>
		<path fill="#7F7F7F" d="M60.644,19.218c0-2.265-13.947-16.204-16.209-16.204H16.973c-2.264,0-4.104,1.841-4.104,4.109v52.11
			c0,2.266,1.841,3.181,4.104,3.181h39.559c2.264,0,4.111-0.915,4.111-3.181"/>
		<linearGradient id="SVGID_1_" gradientUnits="userSpaceOnUse" x1="36.7549" y1="3.4033" x2="36.7549" y2="61.0967">
			<stop  offset="0" style="stop-color:#FFFFFF"/>
			<stop  offset="0.477" style="stop-color:#FDFDFD"/>
			<stop  offset="0.7019" style="stop-color:#F5F5F5"/>
			<stop  offset="0.8734" style="stop-color:#E9E9E9"/>
			<stop  offset="1" style="stop-color:#D9D9D9"/>
		</linearGradient>
		<path fill="url(#SVGID_1_)" d="M59.321,58.306c0,1.538-1.25,2.79-2.789,2.79H16.973c-1.542,0-2.786-1.252-2.786-2.79V6.194
			c0-1.541,1.244-2.791,2.786-2.791h27.461c1.541,0,14.887,13.345,14.887,14.886V58.306z"/>
		<g>
			<radialGradient id="SVGID_2_" cx="50.5039" cy="12.3481" r="8.6203" gradientUnits="userSpaceOnUse">
				<stop  offset="0" style="stop-color:#FFFFFF"/>
				<stop  offset="0.4752" style="stop-color:#FDFDFD"/>
				<stop  offset="0.6464" style="stop-color:#F6F6F6"/>
				<stop  offset="0.7685" style="stop-color:#EBEBEB"/>
				<stop  offset="0.8671" style="stop-color:#DADADA"/>
				<stop  offset="0.9506" style="stop-color:#C4C4C4"/>
				<stop  offset="1" style="stop-color:#B3B3B3"/>
			</radialGradient>
			<path fill="url(#SVGID_2_)" d="M59.175,20.496l-12.857-1.018c-1.682,0-3.045-1.362-3.045-3.044L42.841,3.779l0.01,0.933
				l-1.018,11.722c0,2.471,2.01,4.483,4.484,4.483l11.932-0.421H59.175z"/>
		</g>
		
			<linearGradient id="SVGID_3_" gradientUnits="userSpaceOnUse" x1="369.9346" y1="-216.6924" x2="375.0204" y2="-221.7782" gradientTransform="matrix(-1 0 0 -1 420.2637 -204.54)">
			<stop  offset="0" style="stop-color:#FFFFFF"/>
			<stop  offset="0.3287" style="stop-color:#F2F2F2"/>
			<stop  offset="0.9341" style="stop-color:#D0D0D0"/>
			<stop  offset="1" style="stop-color:#CCCCCC"/>
		</linearGradient>
		<path fill="url(#SVGID_3_)" d="M44.581,6.713v7.988c0,1.681,1.361,3.048,3.045,3.048h8.299L44.581,6.713z"/>
		<g>
			
				<linearGradient id="SVGID_4_" gradientUnits="userSpaceOnUse" x1="81.5518" y1="-9.7759" x2="102.9709" y2="-9.7759" gradientTransform="matrix(1 0 0 1 -45.4141 69.4688)">
				<stop  offset="0" style="stop-color:#FFFFFF"/>
				<stop  offset="1" style="stop-color:#070606"/>
			</linearGradient>
			<polygon fill="url(#SVGID_4_)" points="56.267,60.486 36.138,58.477 36.138,60.909 56.267,60.909 			"/>
			
				<linearGradient id="SVGID_5_" gradientUnits="userSpaceOnUse" x1="272.9795" y1="-96.8306" x2="294.4049" y2="-96.8306" gradientTransform="matrix(-1 0 0 -1 309.2168 -37.1348)">
				<stop  offset="0" style="stop-color:#FFFFFF"/>
				<stop  offset="1" style="stop-color:#070606"/>
			</linearGradient>
			<polygon fill="url(#SVGID_5_)" points="36.237,60.909 36.237,58.483 16.103,60.125 16.103,60.909 			"/>
		</g>
		<g>
			
				<linearGradient id="SVGID_6_" gradientUnits="userSpaceOnUse" x1="124.0361" y1="-249.2637" x2="143.4809" y2="-249.2637" gradientTransform="matrix(0 -1 1 0 306.624 163.8315)">
				<stop  offset="0" style="stop-color:#FFFFFF"/>
				<stop  offset="1" style="stop-color:#070606"/>
			</linearGradient>
			<polygon fill="url(#SVGID_6_)" points="57.962,21.521 56.442,39.795 58.278,39.795 58.278,21.521 			"/>
			
				<linearGradient id="SVGID_7_" gradientUnits="userSpaceOnUse" x1="230.4902" y1="142.6577" x2="251.9198" y2="142.6577" gradientTransform="matrix(0 1 -1 0 200.019 -190.8003)">
				<stop  offset="0" style="stop-color:#FFFFFF"/>
				<stop  offset="1" style="stop-color:#070606"/>
			</linearGradient>
			<polygon fill="url(#SVGID_7_)" points="58.278,39.69 56.444,39.69 57.685,59.829 58.278,59.829 			"/>
		</g>
		<g>
			
				<linearGradient id="SVGID_8_" gradientUnits="userSpaceOnUse" x1="326.8818" y1="-5.5664" x2="348.3114" y2="-5.5664" gradientTransform="matrix(0 1 -1 0 11.0972 -287.1919)">
				<stop  offset="0" style="stop-color:#FFFFFF"/>
				<stop  offset="1" style="stop-color:#070606"/>
			</linearGradient>
			<polygon fill="url(#SVGID_8_)" points="15.921,59.829 17.785,39.69 15.542,39.69 15.542,59.829 			"/>
			
				<linearGradient id="SVGID_9_" gradientUnits="userSpaceOnUse" x1="27.6445" y1="-101.041" x2="47.0924" y2="-101.041" gradientTransform="matrix(0 -1 1 0 117.7017 67.4399)">
				<stop  offset="0" style="stop-color:#FFFFFF"/>
				<stop  offset="1" style="stop-color:#070606"/>
			</linearGradient>
			<polygon fill="url(#SVGID_9_)" points="15.537,39.795 17.785,39.795 16.264,21.519 15.537,21.519 			"/>
		</g>
		<g>
			<line fill="#B3B3B3" enable-background="new    " x1="20.204" y1="28.05" x2="39.63" y2="28.05"/>
			<rect x="20.204" y="27.453" fill="#B3B3B3" width="19.426" height="1.192"/>
		</g>
		<g>
			<g>
				<rect x="20.204" y="31.969" fill="#B3B3B3" width="31.336" height="1.19"/>
			</g>
			<rect x="20.204" y="36.515" fill="#B3B3B3" width="31.336" height="1.19"/>
			<rect x="20.204" y="41.061" fill="#B3B3B3" width="31.336" height="1.19"/>
			<g>
				<rect x="20.204" y="45.608" fill="#B3B3B3" width="31.336" height="1.19"/>
			</g>
		</g>
	</g>
	<g>
		
			<linearGradient id="SVGID_10_" gradientUnits="userSpaceOnUse" x1="848.0781" y1="-263.1787" x2="848.5085" y2="-246.9174" gradientTransform="matrix(-0.489 -0.489 0.7071 -0.7071 647.1637 252.6636)">
			<stop  offset="0.1152" style="stop-color:#F9E091"/>
			<stop  offset="0.9939" style="stop-color:#C8B15B"/>
		</linearGradient>
		<path fill="url(#SVGID_10_)" d="M25.708,47.542c0,0-3.59,1.828-5.506-0.434c-1.506-1.909,0.397-3.998,0.397-3.998
			s-1.354,0.783-2.847,0.471c-0.068,0.132-0.133,0.288-0.161,0.473l-1.033,5.928c3.489,0.697,4.366,3.323,4.573,4.887l6.24-1.084
			c0.041-0.004,0.081-0.012,0.121-0.023c-0.31-0.292-0.637-0.73-0.985-1.359C25.345,50.291,25.708,47.542,25.708,47.542z"/>
		<g>
			<path fill="#888888" d="M16.81,55.621l4.321-0.753c-0.145-1.086-0.614-2.683-2.053-3.791l-3.241,4.124
				C15.997,55.524,16.353,55.7,16.81,55.621z"/>
			<path fill="#595757" d="M15.759,54.57c-0.041,0.245-0.009,0.458,0.078,0.631l3.241-4.124c-0.634-0.487-1.455-0.883-2.521-1.096
				L15.759,54.57z"/>
		</g>
		
			<linearGradient id="SVGID_11_" gradientUnits="userSpaceOnUse" x1="826.708" y1="-277.332" x2="854.2193" y2="-276.1002" gradientTransform="matrix(-0.489 -0.489 0.7071 -0.7071 647.1637 252.6636)">
			<stop  offset="0" style="stop-color:#F4F5F5"/>
			<stop  offset="0.497" style="stop-color:#E2E2E2"/>
			<stop  offset="1" style="stop-color:#C1C1BC"/>
		</linearGradient>
		<polygon fill="url(#SVGID_11_)" points="40.681,40.889 44.472,37.098 34.298,26.924 30.507,30.715 		"/>
		
			<linearGradient id="SVGID_12_" gradientUnits="userSpaceOnUse" x1="826.5176" y1="-254.1733" x2="850.5192" y2="-271.9438" gradientTransform="matrix(-0.489 -0.489 0.7071 -0.7071 647.1637 252.6636)">
			<stop  offset="0" style="stop-color:#E3EAA8"/>
			<stop  offset="0.2545" style="stop-color:#CED600"/>
			<stop  offset="1" style="stop-color:#7F9627"/>
		</linearGradient>
		<path fill="url(#SVGID_12_)" d="M48.231,33.34c3.506-3.506,2.943-6.875,0.518-9.301l-1.391-1.393
			c-2.426-2.426-5.797-2.988-9.303,0.519l-3.757,3.758l10.173,10.174L48.231,33.34z"/>
		<g>
			
				<linearGradient id="SVGID_13_" gradientUnits="userSpaceOnUse" x1="831.9648" y1="-258.5679" x2="855.9433" y2="-270.5568" gradientTransform="matrix(-0.489 -0.489 0.7071 -0.7071 647.1637 252.6636)">
				<stop  offset="0" style="stop-color:#E3EAA8"/>
				<stop  offset="0.2545" style="stop-color:#CED600"/>
				<stop  offset="1" style="stop-color:#7F9627"/>
			</linearGradient>
			<path fill="url(#SVGID_13_)" d="M47.024,22.979l1.395,1.392c1.443,1.445,3.383,4.428,0.115,8.173c0,0,2.854-3.87-0.777-7.51
				l-1.393-1.393c-3.637-3.981-7.771-0.543-7.771-0.543C42.448,19.511,45.532,21.484,47.024,22.979L47.024,22.979z"/>
		</g>
		
			<linearGradient id="SVGID_14_" gradientUnits="userSpaceOnUse" x1="861.041" y1="-289.6167" x2="837.8336" y2="-286.6392" gradientTransform="matrix(-0.489 -0.489 0.7071 -0.7071 647.1637 252.6636)">
			<stop  offset="0.0545" style="stop-color:#FFFFFF"/>
			<stop  offset="0.3576" style="stop-color:#AB80B6"/>
			<stop  offset="1" style="stop-color:#947B9D"/>
		</linearGradient>
		<path fill="url(#SVGID_14_)" d="M20.202,47.108c1.916,2.262,5.506,0.434,5.506,0.434l10.813-10.813l-4.769-4.771L20.599,43.11
			C20.599,43.11,18.696,45.199,20.202,47.108z"/>
		
			<linearGradient id="SVGID_15_" gradientUnits="userSpaceOnUse" x1="848.8311" y1="-288.5693" x2="832.5692" y2="-288.0349" gradientTransform="matrix(-0.489 -0.489 0.7071 -0.7071 647.1637 252.6636)">
			<stop  offset="0.0545" style="stop-color:#FFFFFF"/>
			<stop  offset="0.3576" style="stop-color:#AB80B6"/>
			<stop  offset="1" style="stop-color:#947B9D"/>
		</linearGradient>
		<path fill="url(#SVGID_15_)" d="M26.507,52.401c0.349,0.629,0.676,1.067,0.985,1.359c0.4-0.086,0.721-0.402,0.721-0.402
			c0.003-0.003,0.008-0.004,0.01-0.006l-0.002-0.002l12.459-12.461l-4.16-4.161L25.708,47.542
			C25.708,47.542,25.345,50.291,26.507,52.401z"/>
		
			<linearGradient id="SVGID_16_" gradientUnits="userSpaceOnUse" x1="867.7256" y1="-288.8711" x2="858.8641" y2="-288.2599" gradientTransform="matrix(-0.489 -0.489 0.7071 -0.7071 647.1637 252.6636)">
			<stop  offset="0.0545" style="stop-color:#FFFFFF"/>
			<stop  offset="0.3576" style="stop-color:#AB80B6"/>
			<stop  offset="1" style="stop-color:#947B9D"/>
		</linearGradient>
		<path fill="url(#SVGID_16_)" d="M18.038,43.184c0,0-0.155,0.146-0.285,0.396c1.492,0.313,2.847-0.471,2.847-0.471l11.152-11.153
			l-1.244-1.242l-12.462,12.46v-0.003C18.042,43.176,18.04,43.181,18.038,43.184z"/>
		
			<linearGradient id="SVGID_17_" gradientUnits="userSpaceOnUse" x1="835.2354" y1="-278.1689" x2="859.563" y2="-277.2451" gradientTransform="matrix(-0.489 -0.489 0.7071 -0.7071 647.1637 252.6636)">
			<stop  offset="0" style="stop-color:#F4F5F5"/>
			<stop  offset="0.497" style="stop-color:#E2E2E2"/>
			<stop  offset="1" style="stop-color:#C1C1BC"/>
		</linearGradient>
		<polygon fill="url(#SVGID_17_)" points="31.91,29.406 42.028,39.526 41.271,40.284 31.149,30.165 		"/>
		
			<linearGradient id="SVGID_18_" gradientUnits="userSpaceOnUse" x1="835.1426" y1="-275.7739" x2="859.4734" y2="-274.85" gradientTransform="matrix(-0.489 -0.489 0.7071 -0.7071 647.1637 252.6636)">
			<stop  offset="0" style="stop-color:#F4F5F5"/>
			<stop  offset="0.497" style="stop-color:#E2E2E2"/>
			<stop  offset="1" style="stop-color:#C1C1BC"/>
		</linearGradient>
		<polygon fill="url(#SVGID_18_)" points="33.605,27.71 43.724,37.831 42.966,38.588 32.845,28.469 		"/>
	</g>
</g>
</svg>
