<?xml version="1.0" encoding="utf-8"?>
<!-- Generator: Adobe Illustrator 14.0.0, SVG Export Plug-In . SVG Version: 6.00 Build 43363)  -->
<!DOCTYPE svg PUBLIC "-//W3C//DTD SVG 1.1//EN" "http://www.w3.org/Graphics/SVG/1.1/DTD/svg11.dtd">
<svg version="1.1" id="图层_1" xmlns="http://www.w3.org/2000/svg" xmlns:xlink="http://www.w3.org/1999/xlink" x="0px" y="0px"
	 width="65.334px" height="46.902px" viewBox="0 0 65.334 46.902" enable-background="new 0 0 65.334 46.902" xml:space="preserve">
<g>
	
		<radialGradient id="SVGID_1_" cx="775.7791" cy="-971.6604" r="61.1498" gradientTransform="matrix(1 0 0 -1 -722.894 -1045.8911)" gradientUnits="userSpaceOnUse">
		<stop  offset="0" style="stop-color:#FFFFFF"/>
		<stop  offset="0.1541" style="stop-color:#FBFBFB"/>
		<stop  offset="0.3547" style="stop-color:#EDECEC"/>
		<stop  offset="0.5812" style="stop-color:#D5D3D3"/>
		<stop  offset="0.8246" style="stop-color:#B5B3B3"/>
		<stop  offset="1" style="stop-color:#999999"/>
	</radialGradient>
	<circle fill="url(#SVGID_1_)" cx="40.243" cy="24.07" r="22.833"/>
	
		<radialGradient id="SVGID_2_" cx="758.8865" cy="-1031.6711" r="81.9566" gradientTransform="matrix(1 0 0 -1 -722.894 -1045.8911)" gradientUnits="userSpaceOnUse">
		<stop  offset="0" style="stop-color:#FAFAFB"/>
		<stop  offset="0.1291" style="stop-color:#F3F3F3"/>
		<stop  offset="0.3336" style="stop-color:#DFDEDE"/>
		<stop  offset="0.5862" style="stop-color:#BFBDBD"/>
		<stop  offset="0.8202" style="stop-color:#9B9B9B"/>
	</radialGradient>
	<path fill="url(#SVGID_2_)" d="M40.245,44.941c-11.511,0-20.874-9.361-20.874-20.871S28.734,3.198,40.245,3.198
		c11.508,0,20.869,9.361,20.869,20.871C61.114,35.578,51.753,44.941,40.245,44.941L40.245,44.941z"/>
	<g>
		
			<radialGradient id="SVGID_3_" cx="2600.1804" cy="-311.5984" r="91.8458" gradientTransform="matrix(0 1 1 0 265.8999 -2562.5259)" gradientUnits="userSpaceOnUse">
			<stop  offset="0" style="stop-color:#E8F1D5"/>
			<stop  offset="0.118" style="stop-color:#E8F1D5"/>
			<stop  offset="0.1654" style="stop-color:#E4EFCF"/>
			<stop  offset="0.23" style="stop-color:#DAE8C0"/>
			<stop  offset="0.3043" style="stop-color:#CADBA5"/>
			<stop  offset="0.386" style="stop-color:#B3CA81"/>
			<stop  offset="0.4726" style="stop-color:#94B557"/>
			<stop  offset="0.5562" style="stop-color:#6DA130"/>
			<stop  offset="0.6288" style="stop-color:#629231"/>
			<stop  offset="0.7744" style="stop-color:#496C2F"/>
			<stop  offset="0.8315" style="stop-color:#3E5D2D"/>
			<stop  offset="1" style="stop-color:#3E5D2D"/>
		</radialGradient>
		<path fill="url(#SVGID_3_)" d="M16.049,24.447c0,0.801,0,4.844,0,4.844s-10.381,0-11.553,0c-1.171,0-2.238,0.209-2.238,2.305
			s0,5.547,0,6.777c0,1.229,0.758,2.057,2.301,2.057c1.541,0,11.49,0,11.49,0s0,3.06,0,4.846c0,1.355,1.264,1.479,2.147,0.642
			c0.734-0.691,9.138-7.997,10.328-8.959c1.297-1.045,1.681-2.553-0.053-4.019c-1.732-1.467-6.625-5.852-10.199-9.01
			C16.954,22.761,16.049,23.644,16.049,24.447z"/>
		
			<radialGradient id="SVGID_4_" cx="2598.7" cy="-286.6223" r="66.8774" gradientTransform="matrix(0 1 1 0 265.8999 -2562.5259)" gradientUnits="userSpaceOnUse">
			<stop  offset="0" style="stop-color:#E8F1D5"/>
			<stop  offset="0.118" style="stop-color:#E8F1D5"/>
			<stop  offset="0.1654" style="stop-color:#E4EFCF"/>
			<stop  offset="0.23" style="stop-color:#DAE8C0"/>
			<stop  offset="0.3043" style="stop-color:#CADBA5"/>
			<stop  offset="0.386" style="stop-color:#B3CA81"/>
			<stop  offset="0.4726" style="stop-color:#94B557"/>
			<stop  offset="0.5562" style="stop-color:#6DA130"/>
			<stop  offset="0.6288" style="stop-color:#629231"/>
			<stop  offset="0.7744" style="stop-color:#496C2F"/>
			<stop  offset="0.8315" style="stop-color:#3E5D2D"/>
			<stop  offset="1" style="stop-color:#3E5D2D"/>
		</radialGradient>
		<path fill="url(#SVGID_4_)" d="M2.753,38.369v-6.775c0-1.688,0.688-1.813,1.746-1.813h12.043v-5.338
			c0-0.197,0.112-0.449,0.323-0.548c0.269-0.118,0.66,0.027,1.08,0.398c1.207,1.063,9.058,8.039,10.209,9.016
			c0.658,0.558,0.992,1.121,0.992,1.681c0,0.688-0.506,1.235-0.93,1.58c-1.23,0.989-9.629,8.295-10.357,8.983
			c-0.399,0.379-0.817,0.445-1.037,0.354c-0.231-0.103-0.28-0.398-0.28-0.638v-5.34H4.557C3.733,39.933,2.753,39.662,2.753,38.369
			L2.753,38.369z"/>
		
			<radialGradient id="SVGID_5_" cx="2598.5349" cy="-294.511" r="71.8055" gradientTransform="matrix(0 1 1 0 265.8999 -2562.5259)" gradientUnits="userSpaceOnUse">
			<stop  offset="0" style="stop-color:#E8F1D5"/>
			<stop  offset="0.118" style="stop-color:#E8F1D5"/>
			<stop  offset="0.1654" style="stop-color:#E4EFCF"/>
			<stop  offset="0.23" style="stop-color:#DAE8C0"/>
			<stop  offset="0.3043" style="stop-color:#CADBA5"/>
			<stop  offset="0.386" style="stop-color:#B3CA81"/>
			<stop  offset="0.4726" style="stop-color:#94B557"/>
			<stop  offset="0.5562" style="stop-color:#6DA130"/>
			<stop  offset="0.6288" style="stop-color:#629231"/>
			<stop  offset="0.7744" style="stop-color:#496C2F"/>
			<stop  offset="0.8315" style="stop-color:#3E5D2D"/>
			<stop  offset="1" style="stop-color:#3E5D2D"/>
		</radialGradient>
		<path fill="url(#SVGID_5_)" d="M12.63,33.707c0,1.984-0.119,3.904-0.338,5.729h4.744v5.834c0,0.084,0.01,0.144,0.018,0.181
			c0.084-0.008,0.264-0.062,0.467-0.254c0.736-0.697,9.159-8.021,10.387-9.013c0.341-0.272,0.746-0.705,0.746-1.196
			c0-0.402-0.274-0.845-0.815-1.302c-1.127-0.95-9.181-8.106-10.217-9.022c-0.322-0.283-0.522-0.318-0.546-0.318
			c-0.016,0.015-0.038,0.064-0.038,0.103v5.83h-4.525C12.588,31.396,12.63,32.539,12.63,33.707z"/>
		
			<radialGradient id="SVGID_6_" cx="-888.2566" cy="-369.9895" r="65.8889" gradientTransform="matrix(0 -1 -1 0 -393.3428 -852.9053)" gradientUnits="userSpaceOnUse">
			<stop  offset="0" style="stop-color:#E8F1D5"/>
			<stop  offset="0.118" style="stop-color:#E8F1D5"/>
			<stop  offset="0.1654" style="stop-color:#E4EFCF"/>
			<stop  offset="0.23" style="stop-color:#DAE8C0"/>
			<stop  offset="0.3043" style="stop-color:#CADBA5"/>
			<stop  offset="0.386" style="stop-color:#B3CA81"/>
			<stop  offset="0.4726" style="stop-color:#94B557"/>
			<stop  offset="0.5562" style="stop-color:#6DA130"/>
			<stop  offset="0.6288" style="stop-color:#629231"/>
			<stop  offset="0.7744" style="stop-color:#496C2F"/>
			<stop  offset="0.8315" style="stop-color:#3E5D2D"/>
			<stop  offset="1" style="stop-color:#3E5D2D"/>
		</radialGradient>
		<path fill="url(#SVGID_6_)" d="M12.51,30.277H4.499c-0.888,0-1.254,0-1.254,1.317v6.775c0,0.496,0.147,1.065,1.313,1.065h7.732
			c0.219-1.825,0.338-3.745,0.338-5.729C12.63,32.539,12.588,31.396,12.51,30.277z"/>
	</g>
	<g>
		<path fill="#38424E" d="M34.218,16.887c1.332,0,2.477,0.271,3.434,0.813c0.955,0.542,1.682,1.313,2.17,2.312
			c0.492,0.998,0.736,2.171,0.736,3.518c0,0.994-0.135,1.899-0.402,2.713c-0.27,0.813-0.672,1.521-1.211,2.116
			c-0.537,0.599-1.195,1.055-1.979,1.369c-0.785,0.314-1.684,0.476-2.691,0.476c-1.006,0-1.908-0.162-2.703-0.485
			c-0.795-0.325-1.459-0.782-1.99-1.374c-0.532-0.594-0.936-1.305-1.206-2.137c-0.271-0.829-0.407-1.729-0.407-2.693
			c0-0.989,0.142-1.896,0.425-2.725c0.283-0.822,0.694-1.525,1.232-2.105c0.538-0.579,1.192-1.021,1.965-1.33
			C32.358,17.04,33.235,16.887,34.218,16.887z M37.932,23.508c0-0.944-0.152-1.765-0.457-2.455
			c-0.305-0.691-0.742-1.216-1.309-1.569s-1.217-0.533-1.949-0.533c-0.523,0-1.006,0.101-1.449,0.295
			c-0.444,0.197-0.825,0.481-1.146,0.856c-0.32,0.376-0.572,0.854-0.758,1.438c-0.185,0.584-0.276,1.239-0.276,1.969
			c0,0.731,0.093,1.396,0.276,1.986c0.186,0.596,0.446,1.084,0.784,1.477c0.337,0.392,0.726,0.683,1.162,0.875
			c0.439,0.192,0.917,0.291,1.439,0.291c0.67,0,1.283-0.167,1.846-0.502c0.561-0.334,1.006-0.852,1.338-1.549
			S37.932,24.53,37.932,23.508z"/>
		<path fill="#38424E" d="M46.323,24.481h-0.916v4.132c0,0.545-0.119,0.944-0.357,1.201c-0.238,0.258-0.551,0.387-0.934,0.387
			c-0.414,0-0.734-0.136-0.961-0.402c-0.229-0.271-0.342-0.664-0.342-1.188v-9.906c0-0.562,0.127-0.968,0.379-1.22
			c0.25-0.253,0.658-0.379,1.221-0.379h4.238c0.586,0,1.086,0.025,1.502,0.074s0.789,0.146,1.123,0.299
			c0.4,0.17,0.756,0.414,1.063,0.729c0.307,0.316,0.543,0.688,0.703,1.104c0.158,0.421,0.238,0.864,0.238,1.333
			c0,0.963-0.271,1.729-0.809,2.305c-0.539,0.575-1.355,0.981-2.449,1.225c0.459,0.246,0.898,0.607,1.318,1.088
			c0.42,0.479,0.793,0.99,1.123,1.529c0.328,0.541,0.584,1.029,0.77,1.467c0.186,0.437,0.273,0.734,0.273,0.897
			c0,0.17-0.053,0.338-0.162,0.505c-0.107,0.166-0.254,0.298-0.441,0.396c-0.186,0.097-0.4,0.146-0.646,0.146
			c-0.293,0-0.537-0.066-0.734-0.206c-0.197-0.139-0.369-0.313-0.514-0.521s-0.336-0.521-0.582-0.93l-1.041-1.736
			c-0.375-0.637-0.713-1.123-1.008-1.456c-0.297-0.333-0.6-0.563-0.902-0.687C47.173,24.541,46.788,24.481,46.323,24.481z
			 M47.821,19.042h-2.414v3.563h2.344c0.629,0,1.156-0.055,1.586-0.163s0.756-0.295,0.982-0.558
			c0.227-0.264,0.338-0.623,0.338-1.082c0-0.358-0.09-0.679-0.271-0.951s-0.436-0.479-0.758-0.613
			C49.321,19.108,48.719,19.042,47.821,19.042z"/>
	</g>
</g>
</svg>
