<?xml version="1.0" encoding="utf-8"?>
<!-- Generator: Adobe Illustrator 14.0.0, SVG Export Plug-In . SVG Version: 6.00 Build 43363)  -->
<!DOCTYPE svg PUBLIC "-//W3C//DTD SVG 1.1//EN" "http://www.w3.org/Graphics/SVG/1.1/DTD/svg11.dtd">
<svg version="1.1" id="图层_1" xmlns="http://www.w3.org/2000/svg" xmlns:xlink="http://www.w3.org/1999/xlink" x="0px" y="0px"
	 width="69.991px" height="69.607px" viewBox="0 0 69.991 69.607" enable-background="new 0 0 69.991 69.607" xml:space="preserve">
<g>
	<g>
		<polygon fill="#717071" points="34.427,38.478 56.047,25.995 34.427,13.516 34.427,13.516 12.812,25.995 		"/>
		<polygon fill="#3E3A39" points="34.431,38.479 34.431,63.44 56.047,50.96 56.047,50.96 56.047,25.995 		"/>
		<polygon fill="#595757" points="12.812,50.96 34.431,63.44 34.427,38.478 34.427,38.478 12.812,25.995 		"/>
	</g>
	<g>
		<polygon fill="#B2CC00" points="34.431,63.44 45.237,69.682 45.237,57.2 45.237,57.2 34.431,50.96 		"/>
		<polygon fill="#99B900" points="45.237,69.682 66.856,57.2 66.856,44.721 45.237,57.2 		"/>
		<polygon fill="#CDDD67" points="45.237,57.2 34.431,50.96 56.047,38.479 66.856,44.721 		"/>
	</g>
	<g>
		<polygon fill="#B2CC00" points="12.812,25.995 23.621,32.237 23.621,19.755 23.621,19.755 12.812,13.516 		"/>
		<polygon fill="#99B900" points="23.621,32.237 45.237,19.755 45.237,7.275 23.621,19.755 		"/>
		<polygon fill="#CDDD67" points="23.621,19.755 12.812,13.516 34.427,1.033 45.237,7.275 		"/>
	</g>
	<g>
		<polygon fill="#99B900" points="12.812,50.96 12.812,63.439 23.621,57.2 23.621,57.2 23.621,44.72 		"/>
		<polygon fill="#CDDD67" points="12.812,50.96 23.621,44.72 12.812,38.479 12.812,38.479 2.003,44.72 		"/>
		<polygon fill="#B2CC00" points="2.003,57.2 12.812,63.439 12.812,50.96 12.812,50.96 2.003,44.72 		"/>
	</g>
</g>
</svg>
