<?xml version="1.0" encoding="utf-8"?>
<!-- Generator: Adobe Illustrator 14.0.0, SVG Export Plug-In . SVG Version: 6.00 Build 43363)  -->
<!DOCTYPE svg PUBLIC "-//W3C//DTD SVG 1.1//EN" "http://www.w3.org/Graphics/SVG/1.1/DTD/svg11.dtd">
<svg version="1.1" id="图层_1" xmlns="http://www.w3.org/2000/svg" xmlns:xlink="http://www.w3.org/1999/xlink" x="0px" y="0px"
	 width="60.208px" height="60.207px" viewBox="0 0 60.208 60.207" enable-background="new 0 0 60.208 60.207" xml:space="preserve">
<g>
	<g>
		
			<radialGradient id="SVGID_1_" cx="994.2698" cy="1430.4814" r="81.0245" gradientTransform="matrix(1 0 0 1 -963.8589 -1400.3789)" gradientUnits="userSpaceOnUse">
			<stop  offset="0.0112" style="stop-color:#FFFFFF"/>
			<stop  offset="0.1031" style="stop-color:#FDFDFE"/>
			<stop  offset="0.1613" style="stop-color:#F6F5F7"/>
			<stop  offset="0.2101" style="stop-color:#E8E6E9"/>
			<stop  offset="0.2538" style="stop-color:#D4D0D7"/>
			<stop  offset="0.294" style="stop-color:#BBB6C0"/>
			<stop  offset="0.3317" style="stop-color:#9D97A6"/>
			<stop  offset="0.3675" style="stop-color:#7A7589"/>
			<stop  offset="0.4008" style="stop-color:#52556E"/>
			<stop  offset="0.4157" style="stop-color:#3D4763"/>
		</radialGradient>
		<path fill="url(#SVGID_1_)" d="M60.514,30.103c0,16.625-13.479,30.102-30.104,30.102c-16.623,0-30.102-13.477-30.102-30.102
			C0.308,13.476,13.786,0,30.409,0C47.035,0,60.514,13.476,60.514,30.103z"/>
		<path opacity="0.16" fill="#38424E" enable-background="new    " d="M30.408,0C13.785,0,0.307,13.478,0.307,30.105
			c0,16.625,13.479,30.102,30.102,30.102c16.627,0,30.105-13.477,30.105-30.102C60.514,13.476,47.035,0,30.408,0z M30.408,55.471
			c-14.01,0-25.364-11.357-25.364-25.366c0-14.012,11.354-25.368,25.364-25.368c14.013,0,25.369,11.356,25.369,25.368
			C55.778,44.111,44.421,55.471,30.408,55.471z"/>
	</g>
	<g>
		
			<radialGradient id="SVGID_2_" cx="995.4983" cy="1458.0742" r="107.1555" gradientTransform="matrix(1 0 0 0.9448 -963.8589 -1401.7531)" gradientUnits="userSpaceOnUse">
			<stop  offset="0" style="stop-color:#FAFAFB"/>
			<stop  offset="0.2344" style="stop-color:#F7F8F8"/>
			<stop  offset="0.4199" style="stop-color:#EFEEEE"/>
			<stop  offset="0.5887" style="stop-color:#E0DFDF"/>
			<stop  offset="0.7474" style="stop-color:#CBCACA"/>
			<stop  offset="0.8979" style="stop-color:#B1B0B0"/>
			<stop  offset="1" style="stop-color:#9B9B9B"/>
		</radialGradient>
		<path fill="url(#SVGID_2_)" d="M46.221,44.303c0,2.42-2.239,4.383-5.002,4.383h-20.42c-2.762,0-5-1.963-5-4.383V22.749
			c0-2.422,2.238-4.385,5-4.385h20.42c2.763,0,5.002,1.963,5.002,4.385V44.303z"/>
		
			<radialGradient id="SVGID_3_" cx="1001.3333" cy="1387.5938" r="151.0032" gradientTransform="matrix(1 0 0 1 -963.8589 -1400.3789)" gradientUnits="userSpaceOnUse">
			<stop  offset="0" style="stop-color:#FAFAFB"/>
			<stop  offset="0.2344" style="stop-color:#F7F8F8"/>
			<stop  offset="0.4199" style="stop-color:#EFEEEE"/>
			<stop  offset="0.5887" style="stop-color:#E0DFDF"/>
			<stop  offset="0.7474" style="stop-color:#CBCACA"/>
			<stop  offset="0.8979" style="stop-color:#B1B0B0"/>
			<stop  offset="1" style="stop-color:#9B9B9B"/>
		</radialGradient>
		<path fill="url(#SVGID_3_)" d="M41.219,48.059h-20.42c-2.413,0-4.375-1.688-4.375-3.758V22.747c0-2.067,1.962-3.756,4.375-3.756
			h20.42c2.412,0,4.377,1.688,4.377,3.756v21.558C45.596,46.375,43.632,48.059,41.219,48.059L41.219,48.059z"/>
		<g>
			
				<radialGradient id="SVGID_4_" cx="939.2766" cy="1390.457" r="36.2757" gradientTransform="matrix(1.1127 0 0 1 -1008.6282 -1400.3789)" gradientUnits="userSpaceOnUse">
				<stop  offset="0" style="stop-color:#FFFFFF"/>
				<stop  offset="0.1541" style="stop-color:#FBFBFB"/>
				<stop  offset="0.3547" style="stop-color:#EDECEC"/>
				<stop  offset="0.5812" style="stop-color:#D5D3D3"/>
				<stop  offset="0.8246" style="stop-color:#B5B3B3"/>
				<stop  offset="1" style="stop-color:#999999"/>
			</radialGradient>
			<path fill="url(#SVGID_4_)" d="M24.472,18.132c0,1.381-1.246,2.5-2.781,2.5h-0.608c-1.535,0-2.783-1.119-2.783-2.5v-5.939
				c0-1.383,1.248-2.501,2.783-2.501h0.608c1.535,0,2.781,1.118,2.781,2.501V18.132z"/>
			
				<radialGradient id="SVGID_5_" cx="987.8616" cy="1395.2969" r="43.8266" gradientTransform="matrix(1 0 0 1 -963.8589 -1400.3789)" gradientUnits="userSpaceOnUse">
				<stop  offset="0" style="stop-color:#FFFFFF"/>
				<stop  offset="0.1541" style="stop-color:#FBFBFB"/>
				<stop  offset="0.3547" style="stop-color:#EDECEC"/>
				<stop  offset="0.5812" style="stop-color:#D5D3D3"/>
				<stop  offset="0.8246" style="stop-color:#B5B3B3"/>
				<stop  offset="1" style="stop-color:#999999"/>
			</radialGradient>
			<path fill="url(#SVGID_5_)" d="M21.691,20.005h-0.608c-1.188,0-2.157-0.844-2.157-1.873v-5.939c0-1.035,0.97-1.875,2.157-1.875
				h0.608c1.188,0,2.155,0.84,2.155,1.875v5.939C23.846,19.165,22.878,20.005,21.691,20.005L21.691,20.005z"/>
		</g>
		<path fill="#38424E" d="M52.471,24.513c0,3.172-3.285,4.375-6.455,4.375L30.948,18.052L15.403,28.888
			c-3.17,0-5.021-1.203-5.021-4.375l20.09-14.588L52.471,24.513z"/>
		
			<radialGradient id="SVGID_6_" cx="1018.4143" cy="1352.7939" r="128.0527" gradientTransform="matrix(1 0 0 1 -963.8589 -1400.3789)" gradientUnits="userSpaceOnUse">
			<stop  offset="0.0112" style="stop-color:#FFFFFF"/>
			<stop  offset="0.1261" style="stop-color:#FDFDFE"/>
			<stop  offset="0.2135" style="stop-color:#F4F3F5"/>
			<stop  offset="0.2918" style="stop-color:#E5E3E7"/>
			<stop  offset="0.3648" style="stop-color:#CFCBD2"/>
			<stop  offset="0.4342" style="stop-color:#B4AEB9"/>
			<stop  offset="0.5008" style="stop-color:#938D9D"/>
			<stop  offset="0.5649" style="stop-color:#6C697F"/>
			<stop  offset="0.6261" style="stop-color:#404965"/>
			<stop  offset="0.6292" style="stop-color:#3D4763"/>
		</radialGradient>
		<path fill="url(#SVGID_6_)" d="M15.209,28.263c-2.823-0.045-4.097-1.086-4.196-3.438l19.476-14.143l21.347,14.156
			c-0.225,2.45-2.975,3.375-5.619,3.42L31.314,17.546l-0.359-0.262l-0.362,0.252L15.209,28.263L15.209,28.263z"/>
		
			<radialGradient id="SVGID_7_" cx="995.4602" cy="1290.1895" r="65.1433" gradientTransform="matrix(1.0238 0 0 1.0746 -975.015 -1399.8495)" gradientUnits="userSpaceOnUse">
			<stop  offset="0.0112" style="stop-color:#FFFFFF"/>
			<stop  offset="0.0916" style="stop-color:#FDFDFE"/>
			<stop  offset="0.1425" style="stop-color:#F6F5F7"/>
			<stop  offset="0.1853" style="stop-color:#E8E6E9"/>
			<stop  offset="0.2235" style="stop-color:#D4D0D7"/>
			<stop  offset="0.2587" style="stop-color:#BBB6C0"/>
			<stop  offset="0.2917" style="stop-color:#9D97A6"/>
			<stop  offset="0.323" style="stop-color:#7A7589"/>
			<stop  offset="0.3521" style="stop-color:#52556E"/>
			<stop  offset="0.3652" style="stop-color:#3D4763"/>
		</radialGradient>
		<path fill="url(#SVGID_7_)" d="M36.01,45.998v-9.631c0-1.479-1.146-2.686-2.563-2.686h-3.838c-1.415,0-2.562,1.203-2.562,2.686
			v9.631c0,0.207,0.026,0.408,0.068,0.604h8.821C35.984,46.406,36.01,46.205,36.01,45.998z"/>
		
			<radialGradient id="SVGID_8_" cx="997.2991" cy="1396.8535" r="70.9509" gradientTransform="matrix(1 0 0 1 -963.8589 -1400.3789)" gradientUnits="userSpaceOnUse">
			<stop  offset="0.0112" style="stop-color:#FFFFFF"/>
			<stop  offset="0.1376" style="stop-color:#FDFDFE"/>
			<stop  offset="0.2337" style="stop-color:#F4F3F5"/>
			<stop  offset="0.3198" style="stop-color:#E5E3E7"/>
			<stop  offset="0.4002" style="stop-color:#CFCBD2"/>
			<stop  offset="0.4765" style="stop-color:#B4AEB9"/>
			<stop  offset="0.5497" style="stop-color:#938D9D"/>
			<stop  offset="0.6203" style="stop-color:#6C697F"/>
			<stop  offset="0.6876" style="stop-color:#404965"/>
			<stop  offset="0.691" style="stop-color:#3D4763"/>
		</radialGradient>
		<path fill="url(#SVGID_8_)" d="M35.387,45.979h-7.711v-9.611c0-1.137,0.868-2.061,1.935-2.061h3.839
			c1.068,0,1.938,0.924,1.938,2.061L35.387,45.979L35.387,45.979z"/>
		<rect x="31.257" y="34.098" fill="#3D4763" width="0.546" height="12.295"/>
		
			<radialGradient id="SVGID_9_" cx="974.5901" cy="1424.0518" r="34.8939" gradientTransform="matrix(1.04 0 0 1 -980.0605 -1400.3789)" gradientUnits="userSpaceOnUse">
			<stop  offset="0.0112" style="stop-color:#FFFFFF"/>
			<stop  offset="0.0916" style="stop-color:#FDFDFE"/>
			<stop  offset="0.1425" style="stop-color:#F6F5F7"/>
			<stop  offset="0.1853" style="stop-color:#E8E6E9"/>
			<stop  offset="0.2235" style="stop-color:#D4D0D7"/>
			<stop  offset="0.2587" style="stop-color:#BBB6C0"/>
			<stop  offset="0.2917" style="stop-color:#9D97A6"/>
			<stop  offset="0.323" style="stop-color:#7A7589"/>
			<stop  offset="0.3521" style="stop-color:#52556E"/>
			<stop  offset="0.3652" style="stop-color:#3D4763"/>
		</radialGradient>
		<rect x="26.216" y="46.393" fill="url(#SVGID_9_)" width="10.837" height="1.875"/>
		
			<radialGradient id="SVGID_10_" cx="1005.2883" cy="1400.5195" r="39.4516" gradientTransform="matrix(1 0 0 1 -963.8589 -1400.3789)" gradientUnits="userSpaceOnUse">
			<stop  offset="0.0112" style="stop-color:#FFFFFF"/>
			<stop  offset="0.1376" style="stop-color:#FDFDFE"/>
			<stop  offset="0.2337" style="stop-color:#F4F3F5"/>
			<stop  offset="0.3198" style="stop-color:#E5E3E7"/>
			<stop  offset="0.4002" style="stop-color:#CFCBD2"/>
			<stop  offset="0.4765" style="stop-color:#B4AEB9"/>
			<stop  offset="0.5497" style="stop-color:#938D9D"/>
			<stop  offset="0.6203" style="stop-color:#6C697F"/>
			<stop  offset="0.6876" style="stop-color:#404965"/>
			<stop  offset="0.691" style="stop-color:#3D4763"/>
		</radialGradient>
		<circle fill="url(#SVGID_10_)" cx="31.113" cy="26.075" r="3.229"/>
		
			<radialGradient id="SVGID_11_" cx="1003.2854" cy="1405.5625" r="31.7776" gradientTransform="matrix(1 0 0 1 -963.8589 -1400.3789)" gradientUnits="userSpaceOnUse">
			<stop  offset="0" style="stop-color:#E8F1D5"/>
			<stop  offset="0.118" style="stop-color:#E8F1D5"/>
			<stop  offset="0.1654" style="stop-color:#E4EFCF"/>
			<stop  offset="0.23" style="stop-color:#DAE8C0"/>
			<stop  offset="0.3043" style="stop-color:#CADBA5"/>
			<stop  offset="0.386" style="stop-color:#B3CA81"/>
			<stop  offset="0.4726" style="stop-color:#94B557"/>
			<stop  offset="0.5562" style="stop-color:#6DA130"/>
			<stop  offset="0.6288" style="stop-color:#629231"/>
			<stop  offset="0.7744" style="stop-color:#496C2F"/>
			<stop  offset="0.8315" style="stop-color:#3E5D2D"/>
			<stop  offset="1" style="stop-color:#3E5D2D"/>
		</radialGradient>
		<path fill="url(#SVGID_11_)" d="M31.582,23.517v2.189h2.098C33.527,24.601,32.677,23.718,31.582,23.517z"/>
		
			<radialGradient id="SVGID_12_" cx="1002.7063" cy="1415.0039" r="42.7236" gradientTransform="matrix(1 0 0 1 -963.8589 -1400.3789)" gradientUnits="userSpaceOnUse">
			<stop  offset="0" style="stop-color:#FFFFFF"/>
			<stop  offset="0.1541" style="stop-color:#FBFBFB"/>
			<stop  offset="0.3547" style="stop-color:#EDECEC"/>
			<stop  offset="0.5812" style="stop-color:#D5D3D3"/>
			<stop  offset="0.8246" style="stop-color:#B5B3B3"/>
			<stop  offset="1" style="stop-color:#999999"/>
		</radialGradient>
		<path fill="url(#SVGID_12_)" d="M31.582,23.517v2.189h2.098C33.527,24.601,32.677,23.718,31.582,23.517z"/>
		
			<radialGradient id="SVGID_13_" cx="1003.2844" cy="1405.5186" r="31.8377" gradientTransform="matrix(1 0 0 1 -963.8589 -1400.3789)" gradientUnits="userSpaceOnUse">
			<stop  offset="0" style="stop-color:#E8F1D5"/>
			<stop  offset="0.118" style="stop-color:#E8F1D5"/>
			<stop  offset="0.1654" style="stop-color:#E4EFCF"/>
			<stop  offset="0.23" style="stop-color:#DAE8C0"/>
			<stop  offset="0.3043" style="stop-color:#CADBA5"/>
			<stop  offset="0.386" style="stop-color:#B3CA81"/>
			<stop  offset="0.4726" style="stop-color:#94B557"/>
			<stop  offset="0.5562" style="stop-color:#6DA130"/>
			<stop  offset="0.6288" style="stop-color:#629231"/>
			<stop  offset="0.7744" style="stop-color:#496C2F"/>
			<stop  offset="0.8315" style="stop-color:#3E5D2D"/>
			<stop  offset="1" style="stop-color:#3E5D2D"/>
		</radialGradient>
		<path fill="url(#SVGID_13_)" d="M30.567,23.533c-1.027,0.225-1.831,1.059-2.012,2.104h2.012V23.533z"/>
		
			<radialGradient id="SVGID_14_" cx="1002.7053" cy="1414.9814" r="42.7854" gradientTransform="matrix(1 0 0 1 -963.8589 -1400.3789)" gradientUnits="userSpaceOnUse">
			<stop  offset="0" style="stop-color:#FFFFFF"/>
			<stop  offset="0.1541" style="stop-color:#FBFBFB"/>
			<stop  offset="0.3547" style="stop-color:#EDECEC"/>
			<stop  offset="0.5812" style="stop-color:#D5D3D3"/>
			<stop  offset="0.8246" style="stop-color:#B5B3B3"/>
			<stop  offset="1" style="stop-color:#999999"/>
		</radialGradient>
		<path fill="url(#SVGID_14_)" d="M30.567,23.533c-1.027,0.225-1.831,1.059-2.012,2.104h2.012V23.533z"/>
		
			<radialGradient id="SVGID_15_" cx="1003.2883" cy="1405.5518" r="31.7979" gradientTransform="matrix(1 0 0 1 -963.8589 -1400.3789)" gradientUnits="userSpaceOnUse">
			<stop  offset="0" style="stop-color:#E8F1D5"/>
			<stop  offset="0.118" style="stop-color:#E8F1D5"/>
			<stop  offset="0.1654" style="stop-color:#E4EFCF"/>
			<stop  offset="0.23" style="stop-color:#DAE8C0"/>
			<stop  offset="0.3043" style="stop-color:#CADBA5"/>
			<stop  offset="0.386" style="stop-color:#B3CA81"/>
			<stop  offset="0.4726" style="stop-color:#94B557"/>
			<stop  offset="0.5562" style="stop-color:#6DA130"/>
			<stop  offset="0.6288" style="stop-color:#629231"/>
			<stop  offset="0.7744" style="stop-color:#496C2F"/>
			<stop  offset="0.8315" style="stop-color:#3E5D2D"/>
			<stop  offset="1" style="stop-color:#3E5D2D"/>
		</radialGradient>
		<path fill="url(#SVGID_15_)" d="M28.579,26.649c0.217,0.956,0.961,1.709,1.909,1.944v-1.944H28.579z"/>
		
			<radialGradient id="SVGID_16_" cx="1002.7073" cy="1415.001" r="42.7453" gradientTransform="matrix(1 0 0 1 -963.8589 -1400.3789)" gradientUnits="userSpaceOnUse">
			<stop  offset="0" style="stop-color:#FFFFFF"/>
			<stop  offset="0.1541" style="stop-color:#FBFBFB"/>
			<stop  offset="0.3547" style="stop-color:#EDECEC"/>
			<stop  offset="0.5812" style="stop-color:#D5D3D3"/>
			<stop  offset="0.8246" style="stop-color:#B5B3B3"/>
			<stop  offset="1" style="stop-color:#999999"/>
		</radialGradient>
		<path fill="url(#SVGID_16_)" d="M28.579,26.649c0.217,0.956,0.961,1.709,1.909,1.944v-1.944H28.579z"/>
		
			<radialGradient id="SVGID_17_" cx="1003.2942" cy="1405.5508" r="31.7994" gradientTransform="matrix(1 0 0 1 -963.8589 -1400.3789)" gradientUnits="userSpaceOnUse">
			<stop  offset="0.0112" style="stop-color:#FFFFFF"/>
			<stop  offset="0.1376" style="stop-color:#FDFDFE"/>
			<stop  offset="0.2337" style="stop-color:#F4F3F5"/>
			<stop  offset="0.3198" style="stop-color:#E5E3E7"/>
			<stop  offset="0.4002" style="stop-color:#CFCBD2"/>
			<stop  offset="0.4765" style="stop-color:#B4AEB9"/>
			<stop  offset="0.5497" style="stop-color:#938D9D"/>
			<stop  offset="0.6203" style="stop-color:#6C697F"/>
			<stop  offset="0.6876" style="stop-color:#404965"/>
			<stop  offset="0.691" style="stop-color:#3D4763"/>
		</radialGradient>
		<path fill="url(#SVGID_17_)" d="M33.667,26.57c0.032-0.159,0.052-0.326,0.052-0.495c0-0.125-0.02-0.243-0.039-0.364h-2.098v-2.189
			c-0.15-0.026-0.308-0.045-0.469-0.045c-0.187,0-0.37,0.021-0.548,0.061v2.104h-2.012c-0.024,0.145-0.045,0.289-0.045,0.438
			c0,0.199,0.027,0.392,0.069,0.574h1.909v1.944c0.202,0.049,0.407,0.084,0.625,0.084c0.161,0,0.317-0.021,0.469-0.045v-2.063
			L33.667,26.57L33.667,26.57z"/>
		
			<radialGradient id="SVGID_18_" cx="1003.2854" cy="1405.502" r="31.8614" gradientTransform="matrix(1 0 0 1 -963.8589 -1400.3789)" gradientUnits="userSpaceOnUse">
			<stop  offset="0" style="stop-color:#E8F1D5"/>
			<stop  offset="0.118" style="stop-color:#E8F1D5"/>
			<stop  offset="0.1654" style="stop-color:#E4EFCF"/>
			<stop  offset="0.23" style="stop-color:#DAE8C0"/>
			<stop  offset="0.3043" style="stop-color:#CADBA5"/>
			<stop  offset="0.386" style="stop-color:#B3CA81"/>
			<stop  offset="0.4726" style="stop-color:#94B557"/>
			<stop  offset="0.5562" style="stop-color:#6DA130"/>
			<stop  offset="0.6288" style="stop-color:#629231"/>
			<stop  offset="0.7744" style="stop-color:#496C2F"/>
			<stop  offset="0.8315" style="stop-color:#3E5D2D"/>
			<stop  offset="1" style="stop-color:#3E5D2D"/>
		</radialGradient>
		<path fill="url(#SVGID_18_)" d="M33.667,26.57h-2.085v2.063C32.635,28.44,33.466,27.618,33.667,26.57z"/>
		
			<radialGradient id="SVGID_19_" cx="1002.7043" cy="1414.9727" r="42.8203" gradientTransform="matrix(1 0 0 1 -963.8589 -1400.3789)" gradientUnits="userSpaceOnUse">
			<stop  offset="0" style="stop-color:#FFFFFF"/>
			<stop  offset="0.1541" style="stop-color:#FBFBFB"/>
			<stop  offset="0.3547" style="stop-color:#EDECEC"/>
			<stop  offset="0.5812" style="stop-color:#D5D3D3"/>
			<stop  offset="0.8246" style="stop-color:#B5B3B3"/>
			<stop  offset="1" style="stop-color:#999999"/>
		</radialGradient>
		<path fill="url(#SVGID_19_)" d="M33.667,26.57h-2.085v2.063C32.635,28.44,33.466,27.618,33.667,26.57z"/>
	</g>
</g>
</svg>
