<?xml version="1.0" encoding="utf-8"?>
<!-- Generator: Adobe Illustrator 14.0.0, SVG Export Plug-In . SVG Version: 6.00 Build 43363)  -->
<!DOCTYPE svg PUBLIC "-//W3C//DTD SVG 1.1//EN" "http://www.w3.org/Graphics/SVG/1.1/DTD/svg11.dtd">
<svg version="1.1" id="图层_1" xmlns="http://www.w3.org/2000/svg" xmlns:xlink="http://www.w3.org/1999/xlink" x="0px" y="0px"
	 width="63.225px" height="54.348px" viewBox="0 0 63.225 54.348" enable-background="new 0 0 63.225 54.348" xml:space="preserve">
<g>
	
		<linearGradient id="SVGID_1_" gradientUnits="userSpaceOnUse" x1="237.0439" y1="-278.2651" x2="237.0439" y2="-329.7954" gradientTransform="matrix(1 0 0 -1 -212.5605 -276.6504)">
		<stop  offset="0" style="stop-color:#F5B91B"/>
		<stop  offset="0.1714" style="stop-color:#DEA114"/>
		<stop  offset="0.6292" style="stop-color:#A36323"/>
		<stop  offset="1" style="stop-color:#712B1B"/>
	</linearGradient>
	<path fill="url(#SVGID_1_)" d="M47.835,4.677c-0.103-0.358-0.264-0.672-0.469-0.923C47.16,3.5,46.911,3.311,46.629,3.197
		c-0.279-0.114-0.595-0.151-0.931-0.096L21.2,7.111c-0.37,0.047-0.721,0.033-1.041-0.041c-0.316-0.076-0.603-0.214-0.841-0.414
		c-0.241-0.202-0.433-0.465-0.563-0.798c-0.131-0.329-0.202-0.727-0.196-1.189l0.009-0.548c0.002-0.346-0.069-0.686-0.206-1.003
		c-0.138-0.313-0.337-0.601-0.586-0.841c-0.255-0.239-0.556-0.425-0.896-0.542c-0.34-0.114-0.718-0.153-1.123-0.093L4.116,3.34
		c-0.433,0.064-0.844,0.228-1.22,0.465C2.522,4.044,2.185,4.363,1.903,4.739C1.62,5.111,1.392,5.539,1.236,6
		C1.077,6.46,0.995,6.953,0.999,7.459l0.052,5.927c-0.01,0.05-0.016,0.104-0.021,0.157c-0.006,0.055-0.013,0.109-0.016,0.161
		c-0.005,0.057-0.008,0.108-0.011,0.165c0,0.054-0.001,0.109-0.001,0.159l0.313,36.354c0.003,0.453,0.09,0.863,0.244,1.211
		c0.154,0.35-0.05,1.275,0.225,1.494c0.27,0.221,1.014-0.266,1.371-0.201c0.353,0.064,0.743,0.047,1.149-0.068l39.681-11.145
		c0.324-0.09,0.631-0.258,0.916-0.482c0.285-0.229,0.544-0.51,0.766-0.83c0.222-0.322,0.407-0.682,0.542-1.064
		c0.132-0.383,0.214-0.781,0.233-1.189l1.52-32.232C47.985,5.442,47.937,5.035,47.835,4.677z"/>
	
		<linearGradient id="SVGID_2_" gradientUnits="userSpaceOnUse" x1="239.0625" y1="-325.9429" x2="235.3729" y2="-283.771" gradientTransform="matrix(1 0 0 -1 -212.5605 -276.6504)">
		<stop  offset="0" style="stop-color:#8D8D8C"/>
		<stop  offset="0.1516" style="stop-color:#949394"/>
		<stop  offset="0.3659" style="stop-color:#A6A6A5"/>
		<stop  offset="0.6175" style="stop-color:#C3C3C3"/>
		<stop  offset="0.8954" style="stop-color:#EDEDEC"/>
		<stop  offset="1" style="stop-color:#FFFFFF"/>
	</linearGradient>
	<polygon fill="url(#SVGID_2_)" points="3.389,13.149 2.026,51.435 45.757,39.862 47.289,4.98 	"/>
	
		<linearGradient id="SVGID_3_" gradientUnits="userSpaceOnUse" x1="239.709" y1="-325.8862" x2="236.0887" y2="-284.5067" gradientTransform="matrix(1 0 0 -1 -212.5605 -276.6504)">
		<stop  offset="0" style="stop-color:#97989C"/>
		<stop  offset="0.2968" style="stop-color:#9A9B9E"/>
		<stop  offset="0.4792" style="stop-color:#A2A4A7"/>
		<stop  offset="0.6306" style="stop-color:#B1B1B4"/>
		<stop  offset="0.7651" style="stop-color:#C5C6C8"/>
		<stop  offset="0.8871" style="stop-color:#DFDFE1"/>
		<stop  offset="1" style="stop-color:#FFFFFF"/>
	</linearGradient>
	<polygon fill="url(#SVGID_3_)" points="4.75,13.83 2.026,51.435 45.757,39.862 48.648,5.659 	"/>
	
		<linearGradient id="SVGID_4_" gradientUnits="userSpaceOnUse" x1="240.4326" y1="-325.8232" x2="236.898" y2="-285.4229" gradientTransform="matrix(1 0 0 -1 -212.5605 -276.6504)">
		<stop  offset="0" style="stop-color:#8D8D8C"/>
		<stop  offset="0.4131" style="stop-color:#BEBDBD"/>
		<stop  offset="1" style="stop-color:#FFFFFF"/>
	</linearGradient>
	<polygon fill="url(#SVGID_4_)" points="6.28,14.681 2.026,51.435 45.757,39.862 50.182,6.512 	"/>
	
		<linearGradient id="SVGID_5_" gradientUnits="userSpaceOnUse" x1="244.0576" y1="-325.5059" x2="240.757" y2="-287.7798" gradientTransform="matrix(1 0 0 -1 -212.5605 -276.6504)">
		<stop  offset="0" style="stop-color:#8D8D8C"/>
		<stop  offset="0.112" style="stop-color:#A9A9A8"/>
		<stop  offset="0.2685" style="stop-color:#C8C7C7"/>
		<stop  offset="0.4316" style="stop-color:#E0E0E0"/>
		<stop  offset="0.602" style="stop-color:#F1F1F1"/>
		<stop  offset="0.7845" style="stop-color:#FDFEFE"/>
		<stop  offset="1" style="stop-color:#FFFFFF"/>
	</linearGradient>
	<polygon fill="url(#SVGID_5_)" points="13.768,16.721 2.026,51.435 45.757,39.862 57.666,8.552 	"/>
	
		<linearGradient id="SVGID_6_" gradientUnits="userSpaceOnUse" x1="241.4102" y1="-299.1772" x2="247.375" y2="-321.4384" gradientTransform="matrix(1 0 0 -1 -212.5605 -276.6504)">
		<stop  offset="0" style="stop-color:#C27E16"/>
		<stop  offset="0.7753" style="stop-color:#A36323"/>
		<stop  offset="0.8565" style="stop-color:#9F6024"/>
		<stop  offset="0.9133" style="stop-color:#975724"/>
		<stop  offset="0.9624" style="stop-color:#8B4922"/>
		<stop  offset="1" style="stop-color:#7C381F"/>
	</linearGradient>
	<path fill="url(#SVGID_6_)" d="M62.452,16.804c0.042-0.24,0.011-0.439-0.088-0.591c-0.095-0.155-0.267-0.258-0.491-0.307
		c-0.232-0.046-0.523-0.036-0.872,0.043l-43.135,9.526c-0.442,0.097-0.896,0.258-1.339,0.467c-0.444,0.21-0.872,0.467-1.268,0.753
		c-0.393,0.286-0.751,0.602-1.047,0.929c-0.299,0.326-0.534,0.662-0.687,1L2.933,51.665c-0.123,0.271-1.221,1.77-1.025,1.754
		c0.47-0.045,2.673-0.525,3.073-0.637l39.953-11.217c0.328-0.094,0.671-0.23,1.015-0.402c0.342-0.174,0.681-0.379,0.997-0.6
		c0.32-0.229,0.618-0.473,0.876-0.727c0.259-0.252,0.479-0.514,0.642-0.768l1.645-2.59l11.988-18.857
		C62.291,17.317,62.408,17.043,62.452,16.804z"/>
	<g>
		
			<linearGradient id="SVGID_7_" gradientUnits="userSpaceOnUse" x1="238.7881" y1="-289.0767" x2="253.4198" y2="-274.4449" gradientTransform="matrix(1 0 0 -1 -212.5605 -276.6504)">
			<stop  offset="0" style="stop-color:#F5CD21"/>
			<stop  offset="0.191" style="stop-color:#F5A719"/>
			<stop  offset="0.4775" style="stop-color:#F5BE1D"/>
			<stop  offset="0.736" style="stop-color:#F5B01A"/>
			<stop  offset="1" style="stop-color:#F5A419"/>
		</linearGradient>
		<path fill="url(#SVGID_7_)" d="M21.485,7.111l24.494-4.011c0.06-0.009,0.113-0.014,0.17-0.016
			c-0.145-0.012-0.297-0.01-0.451,0.016L21.202,7.111c-0.09,0.012-0.179,0.021-0.266,0.024C21.113,7.145,21.297,7.137,21.485,7.111z
			"/>
		
			<linearGradient id="SVGID_8_" gradientUnits="userSpaceOnUse" x1="207.957" y1="-323.7456" x2="256.978" y2="-274.7246" gradientTransform="matrix(1 0 0 -1 -212.5605 -276.6504)">
			<stop  offset="0" style="stop-color:#F5CD21"/>
			<stop  offset="0.191" style="stop-color:#F5A719"/>
			<stop  offset="0.4775" style="stop-color:#F5BE1D"/>
			<stop  offset="0.736" style="stop-color:#F5B01A"/>
			<stop  offset="1" style="stop-color:#F5A419"/>
		</linearGradient>
		<path fill="url(#SVGID_8_)" d="M62.194,15.87c-0.099-0.151-0.264-0.258-0.494-0.303c-0.229-0.048-0.521-0.038-0.875,0.042
			l-43.129,9.528c-0.444,0.095-0.897,0.257-1.341,0.465c-0.439,0.21-0.87,0.467-1.266,0.753c-0.393,0.286-0.752,0.601-1.047,0.927
			c-0.299,0.328-0.534,0.665-0.689,1L2.821,51.204l-0.005-0.002L2.78,51.288l-0.016,0.035c-0.034,0.076-0.059,0.143-0.078,0.211
			l-0.294,0.742c0,0-0.009,0.025-0.022,0.064c-0.018,0.043-0.041,0.105-0.069,0.176c-0.099,0.221-0.257,0.51-0.407,0.453
			c-0.211-0.074-0.229-0.943-0.232-1.184c0-0.037,0-0.063,0-0.063L1.612,50.88c-0.006-0.166-0.012-0.311-0.014-0.48
			c0-0.006,0-0.012,0-0.018L1.286,14.028c0-0.05,0-0.105,0.002-0.159c0.004-0.057,0.006-0.108,0.01-0.165
			c0.005-0.052,0.01-0.105,0.018-0.161c0.003-0.053,0.008-0.106,0.017-0.157l-0.05-5.927C1.278,6.953,1.363,6.46,1.52,6
			c0.158-0.461,0.384-0.889,0.668-1.261c0.283-0.375,0.618-0.694,0.994-0.934C3.556,3.567,3.967,3.404,4.399,3.34l11.642-1.697
			c0.073-0.012,0.148-0.017,0.223-0.021c-0.165-0.009-0.333-0.007-0.508,0.021L4.116,3.34c-0.433,0.064-0.844,0.228-1.22,0.465
			C2.522,4.044,2.185,4.363,1.903,4.739C1.62,5.111,1.392,5.539,1.236,6C1.077,6.46,0.995,6.953,0.999,7.459l0.052,5.927
			c-0.01,0.05-0.016,0.104-0.021,0.157c-0.006,0.055-0.013,0.109-0.016,0.161c-0.005,0.057-0.008,0.108-0.011,0.165
			c0,0.054-0.001,0.109-0.001,0.159l0.313,36.354l0.008,1.967c0,0,0.024,1.012,0.491,1.063c0.38,0.041,0.6-0.34,0.762-0.723
			c0.02-0.045,0.037-0.092,0.055-0.139c0.042-0.109,0.081-0.213,0.119-0.305c0-0.006,0-0.006,0-0.006
			c0.021-0.053,0.043-0.105,0.062-0.154c0.166-0.42,0.301-0.803,0.301-0.803H3.11l10.416-22.659c0.152-0.338,0.388-0.674,0.687-1
			c0.296-0.327,0.654-0.643,1.047-0.929c0.396-0.286,0.823-0.542,1.268-0.753c0.443-0.208,0.896-0.37,1.339-0.467l43.135-9.526
			c0.349-0.08,0.64-0.09,0.872-0.043c0.175,0.038,0.314,0.105,0.412,0.208C62.271,16.023,62.24,15.942,62.194,15.87z"/>
	</g>
	
		<linearGradient id="SVGID_9_" gradientUnits="userSpaceOnUse" x1="245.8809" y1="-310.4043" x2="238.4983" y2="-297.6173" gradientTransform="matrix(1 0 0 -1 -212.5605 -276.6504)">
		<stop  offset="0" style="stop-color:#C27B17"/>
		<stop  offset="0.2697" style="stop-color:#C67F14"/>
		<stop  offset="0.564" style="stop-color:#D08C0D"/>
		<stop  offset="0.8688" style="stop-color:#E2A015"/>
		<stop  offset="1" style="stop-color:#EBAB16"/>
	</linearGradient>
	<path fill="url(#SVGID_9_)" d="M4.108,50.196l9.734-21.352c0,0,1.544-2.483,4.433-3.088c2.887-0.603,42.972-9.533,42.972-9.533
		s1.277,0,0.809,0.94C59.637,18.504,4.108,50.196,4.108,50.196z"/>
</g>
</svg>
