<?xml version="1.0" encoding="utf-8"?>
<!-- Generator: Adobe Illustrator 14.0.0, SVG Export Plug-In . SVG Version: 6.00 Build 43363)  -->
<!DOCTYPE svg PUBLIC "-//W3C//DTD SVG 1.1//EN" "http://www.w3.org/Graphics/SVG/1.1/DTD/svg11.dtd">
<svg version="1.1" id="图层_1" xmlns="http://www.w3.org/2000/svg" xmlns:xlink="http://www.w3.org/1999/xlink" x="0px" y="0px"
	 width="69.991px" height="69.607px" viewBox="0 0 69.991 69.607" enable-background="new 0 0 69.991 69.607" xml:space="preserve">
<g>
	<g>
		<path fill="#FFFFFF" d="M41.564,0.176c-1.35,0.657-4.444,4.477-6.067,7.513c-1.619-3.036-4.714-6.856-6.063-7.513
			c-0.551-0.267-0.965-0.179-1.229-0.059c-0.293-0.005-0.703,0.08-1.098,0.542c-0.949,1.112-2.231,5.917-2.486,9.361
			c-2.709-2.115-7.088-4.35-8.592-4.412c-0.612-0.024-0.918,0.205-1.115,0.425c-0.272,0.098-0.646,0.341-0.826,0.954
			c-0.079,0.255-0.117,0.635-0.117,1.107c0,2.061,0.699,5.798,1.643,8.451c-3.318-0.828-8.225-1.074-9.63-0.524
			c-0.62,0.241-0.837,0.649-0.907,0.932c-0.171,0.18-0.334,0.432-0.334,0.866c0,0.077,0,0.156,0.018,0.238
			c0.183,1.438,2.902,5.633,5.288,8.141c-3.365,0.592-7.947,2.343-9.013,3.423c-0.379,0.378-0.479,0.752-0.479,1.034
			c0,0.097,0.029,0.147,0.042,0.217c-0.042,0.111-0.098,0.169-0.098,0.324c0,0.219,0.06,0.484,0.233,0.777
			c0.754,1.235,4.934,3.975,8.141,5.299c-2.826,1.906-6.292,5.363-6.834,6.788c-0.085,0.229-0.116,0.43-0.116,0.609
			c0,0.305,0.093,0.508,0.194,0.666c0.025,0.285,0.133,0.662,0.61,0.988c1.2,0.832,6.142,1.614,9.595,1.51
			c-1.764,2.826-3.486,7.27-3.486,8.9c0,0.039,0,0.077,0,0.115c0.037,0.631,0.336,0.957,0.566,1.125
			c0.143,0.248,0.422,0.547,0.989,0.656c1.435,0.264,6.272-1.025,9.386-2.52c-0.158,1.166-0.236,2.508-0.236,3.833
			c0,2.532,0.26,4.97,0.711,5.826c0.289,0.55,0.652,0.69,0.939,0.743c0.223,0.189,0.592,0.387,1.211,0.236
			c1.425-0.353,5.307-3.49,7.534-6.114c0.966,3.294,3.226,7.729,4.378,8.638c0.498,0.395,0.902,0.362,1.181,0.288
			c0.282,0.074,0.681,0.106,1.185-0.288c1.162-0.908,3.414-5.344,4.374-8.638c2.231,2.624,6.111,5.762,7.542,6.114
			c0.62,0.15,0.982-0.047,1.209-0.236c0.285-0.053,0.654-0.193,0.939-0.743c0.449-0.856,0.713-3.294,0.713-5.821
			c0-1.33-0.082-2.672-0.238-3.838c3.113,1.494,7.947,2.783,9.387,2.52c0.568-0.109,0.842-0.408,0.984-0.656
			c0.24-0.168,0.535-0.494,0.567-1.125c0.007-0.038,0.007-0.076,0.007-0.115c0-1.631-1.727-6.074-3.496-8.9
			c3.461,0.104,8.402-0.68,9.601-1.51c0.476-0.326,0.583-0.703,0.61-0.988c0.102-0.154,0.199-0.359,0.199-0.666
			c0-0.18-0.035-0.381-0.125-0.609c-0.542-1.425-4-4.882-6.828-6.788c3.203-1.324,7.381-4.064,8.132-5.299
			c0.181-0.293,0.233-0.558,0.233-0.777c0-0.155-0.053-0.213-0.09-0.324c0.017-0.07,0.037-0.12,0.037-0.217
			c0-0.282-0.1-0.656-0.472-1.034c-1.077-1.08-5.656-2.831-9.018-3.423c2.394-2.508,5.102-6.703,5.29-8.141
			c0.008-0.082,0.019-0.161,0.019-0.235c0-0.437-0.169-0.689-0.333-0.869c-0.076-0.283-0.291-0.69-0.913-0.932
			c-1.405-0.55-6.312-0.304-9.627,0.524c0.946-2.653,1.64-6.391,1.64-8.451c0-0.472-0.034-0.852-0.115-1.107
			c-0.178-0.613-0.554-0.856-0.827-0.954c-0.2-0.22-0.501-0.449-1.106-0.425c-1.512,0.062-5.895,2.296-8.602,4.412
			c-0.253-3.445-1.537-8.25-2.48-9.361c-0.396-0.457-0.813-0.547-1.1-0.542C42.529-0.006,42.118-0.091,41.564,0.176z"/>
		<linearGradient id="SVGID_1_" gradientUnits="userSpaceOnUse" x1="35.4995" y1="1.0327" x2="35.4995" y2="68.5908">
			<stop  offset="0" style="stop-color:#FFFF00"/>
			<stop  offset="0.1952" style="stop-color:#D6E506"/>
			<stop  offset="1" style="stop-color:#307C1F"/>
		</linearGradient>
		<path fill="url(#SVGID_1_)" d="M35.497,10.598c0-2.553,7.69-12.305,6.953-8.823c0.737-3.482,3.786,8.552,2.768,10.886
			c1.019-2.334,12.007-8.119,9.938-5.229c2.068-2.891-0.039,9.346-1.904,11.064c1.865-1.718,14.246-2.536,11.206-0.734
			c3.04-1.802-3.845,8.521-6.239,9.336c2.395-0.815,14.035,3.481,10.538,3.886c3.497-0.404-7.003,6.22-9.505,5.993
			c2.502,0.227,11.398,8.887,8.054,7.838c3.345,1.049-8.948,2.828-11.119,1.607c2.171,1.221,6.778,12.75,4.164,10.434
			c2.614,2.316-9.337-1.055-10.81-3.051c1.473,1.996,0.991,14.399-0.438,11.224c1.429,3.176-8.113-4.764-8.644-7.185
			c0.53,2.421-4.963,13.559-4.963,10.076c0,3.482-5.485-7.655-4.965-10.076c-0.521,2.421-10.064,10.36-8.635,7.185
			c-1.43,3.176-1.915-9.228-0.438-11.224c-1.477,1.996-13.428,5.367-10.811,3.051c-2.617,2.316,1.99-9.213,4.166-10.434
			c-2.176,1.221-14.463-0.559-11.117-1.607c-3.346,1.049,5.55-7.611,8.048-7.838c-2.498,0.227-13.003-6.397-9.501-5.993
			c-3.502-0.404,8.149-4.701,10.539-3.886c-2.39-0.815-9.287-11.138-6.241-9.336c-3.046-1.802,9.339-0.984,11.206,0.734
			c-1.867-1.718-3.977-13.955-1.906-11.064c-2.07-2.891,8.92,2.895,9.937,5.229c-1.017-2.334,2.036-14.368,2.768-10.886
			C27.814-1.707,35.497,8.045,35.497,10.598z"/>
	</g>
	<g>
		<g>
			<path fill="#FFFFFF" d="M35.916,48.347c-7.16,0-12.965-5.805-12.965-12.967c0-7.16,5.805-12.965,12.965-12.965v-3.943
				c-9.338,0-16.908,7.57-16.908,16.909c0,9.34,7.57,16.91,16.908,16.91c9.34,0,16.91-7.57,16.91-16.91h-3.943
				C48.883,42.542,43.078,48.347,35.916,48.347z"/>
			<polygon fill="#FFFFFF" points="35.418,22.425 35.418,18.48 35.418,15.232 39.93,17.837 44.443,20.443 39.93,23.049 
				35.418,25.654 			"/>
		</g>
		<rect x="35.009" y="18.803" fill="#FFFFFF" width="1.329" height="3.338"/>
	</g>
	<g>
		<linearGradient id="SVGID_2_" gradientUnits="userSpaceOnUse" x1="31.5244" y1="23.5215" x2="33.5367" y2="93.8686">
			<stop  offset="0" style="stop-color:#E3EAA8"/>
			<stop  offset="0.2545" style="stop-color:#CED600"/>
			<stop  offset="1" style="stop-color:#7F9627"/>
		</linearGradient>
		<rect x="29.442" y="39.018" fill="url(#SVGID_2_)" width="5.157" height="3.718"/>
		<rect x="29.442" y="33.141" fill="#FFFFFF" width="5.157" height="3.718"/>
		<linearGradient id="SVGID_3_" gradientUnits="userSpaceOnUse" x1="38.4775" y1="23.3218" x2="40.4897" y2="93.6661">
			<stop  offset="0" style="stop-color:#E3EAA8"/>
			<stop  offset="0.2545" style="stop-color:#CED600"/>
			<stop  offset="1" style="stop-color:#7F9627"/>
		</linearGradient>
		<rect x="36.4" y="39.018" fill="url(#SVGID_3_)" width="5.157" height="3.718"/>
		<linearGradient id="SVGID_4_" gradientUnits="userSpaceOnUse" x1="38.6445" y1="23.314" x2="40.6572" y2="93.6761">
			<stop  offset="0" style="stop-color:#E3EAA8"/>
			<stop  offset="0.2545" style="stop-color:#CED600"/>
			<stop  offset="1" style="stop-color:#7F9627"/>
		</linearGradient>
		<rect x="36.4" y="33.141" fill="url(#SVGID_4_)" width="5.157" height="3.718"/>
		<linearGradient id="SVGID_5_" gradientUnits="userSpaceOnUse" x1="38.8125" y1="23.3101" x2="40.8252" y2="93.6722">
			<stop  offset="0" style="stop-color:#E3EAA8"/>
			<stop  offset="0.2545" style="stop-color:#CED600"/>
			<stop  offset="1" style="stop-color:#7F9627"/>
		</linearGradient>
		<rect x="36.4" y="27.263" fill="url(#SVGID_5_)" width="5.157" height="3.718"/>
	</g>
</g>
</svg>
