<?xml version="1.0" encoding="utf-8"?>
<!-- Generator: Adobe Illustrator 14.0.0, SVG Export Plug-In . SVG Version: 6.00 Build 43363)  -->
<!DOCTYPE svg PUBLIC "-//W3C//DTD SVG 1.1//EN" "http://www.w3.org/Graphics/SVG/1.1/DTD/svg11.dtd">
<svg version="1.1" id="图层_1" xmlns="http://www.w3.org/2000/svg" xmlns:xlink="http://www.w3.org/1999/xlink" x="0px" y="0px"
	 width="69.991px" height="69.607px" viewBox="0 0 69.991 69.607" enable-background="new 0 0 69.991 69.607" xml:space="preserve">
<g>
	<g>
		<path fill="#FFFFFF" d="M41.563,0.176c-1.35,0.657-4.443,4.477-6.067,7.513c-1.619-3.036-4.714-6.856-6.063-7.513
			c-0.552-0.267-0.965-0.179-1.229-0.059c-0.293-0.005-0.704,0.08-1.098,0.542c-0.949,1.112-2.231,5.917-2.486,9.361
			c-2.709-2.115-7.088-4.35-8.593-4.412c-0.612-0.024-0.917,0.205-1.115,0.425c-0.272,0.098-0.645,0.341-0.826,0.954
			c-0.079,0.255-0.117,0.635-0.117,1.107c0,2.061,0.698,5.798,1.642,8.451c-3.317-0.828-8.225-1.074-9.629-0.524
			c-0.62,0.241-0.836,0.649-0.907,0.932c-0.171,0.18-0.335,0.432-0.335,0.866c0,0.077,0,0.156,0.018,0.238
			c0.183,1.438,2.902,5.633,5.288,8.141C6.682,26.789,2.1,28.54,1.035,29.62c-0.379,0.378-0.479,0.752-0.479,1.034
			c0,0.097,0.029,0.147,0.042,0.217C0.556,30.982,0.5,31.04,0.5,31.195c0,0.219,0.06,0.484,0.234,0.777
			c0.753,1.235,4.934,3.975,8.14,5.299c-2.826,1.906-6.292,5.363-6.834,6.788c-0.084,0.229-0.116,0.43-0.116,0.609
			c0,0.305,0.093,0.508,0.195,0.666c0.024,0.285,0.132,0.662,0.61,0.988c1.201,0.832,6.141,1.614,9.595,1.51
			c-1.764,2.826-3.486,7.27-3.486,8.9c0,0.039,0,0.077,0,0.115c0.037,0.631,0.336,0.957,0.566,1.125
			c0.144,0.248,0.422,0.547,0.99,0.656c1.435,0.264,6.272-1.025,9.385-2.52c-0.158,1.166-0.236,2.508-0.236,3.833
			c0,2.532,0.26,4.97,0.711,5.826c0.289,0.55,0.652,0.69,0.939,0.743c0.222,0.189,0.591,0.387,1.211,0.236
			c1.424-0.353,5.307-3.49,7.534-6.114c0.966,3.294,3.226,7.729,4.378,8.638c0.497,0.395,0.902,0.362,1.18,0.288
			c0.282,0.074,0.68,0.106,1.184-0.288c1.163-0.908,3.414-5.344,4.375-8.638c2.23,2.624,6.111,5.762,7.541,6.114
			c0.621,0.15,0.983-0.047,1.209-0.236c0.285-0.053,0.654-0.193,0.939-0.743c0.449-0.856,0.714-3.294,0.714-5.821
			c0-1.33-0.082-2.672-0.238-3.838c3.113,1.494,7.946,2.783,9.386,2.52c0.568-0.109,0.842-0.408,0.985-0.656
			c0.239-0.168,0.535-0.494,0.567-1.125c0.006-0.038,0.006-0.076,0.006-0.115c0-1.631-1.727-6.074-3.496-8.9
			c3.462,0.104,8.402-0.68,9.602-1.51c0.476-0.326,0.583-0.703,0.609-0.988c0.102-0.154,0.199-0.359,0.199-0.666
			c0-0.18-0.035-0.381-0.124-0.609c-0.542-1.425-4-4.882-6.828-6.788c3.202-1.324,7.381-4.064,8.132-5.299
			c0.18-0.293,0.233-0.558,0.233-0.777c0-0.155-0.054-0.213-0.091-0.324c0.018-0.07,0.037-0.12,0.037-0.217
			c0-0.282-0.1-0.656-0.471-1.034c-1.077-1.08-5.656-2.831-9.018-3.423c2.393-2.508,5.102-6.703,5.289-8.141
			c0.009-0.082,0.02-0.161,0.02-0.235c0-0.437-0.17-0.689-0.334-0.869c-0.076-0.283-0.291-0.69-0.912-0.932
			c-1.405-0.55-6.313-0.304-9.627,0.524c0.945-2.653,1.639-6.391,1.639-8.451c0-0.472-0.033-0.852-0.115-1.107
			c-0.177-0.613-0.553-0.856-0.826-0.954c-0.201-0.22-0.502-0.449-1.107-0.425c-1.512,0.062-5.895,2.296-8.602,4.412
			c-0.252-3.445-1.537-8.25-2.48-9.361c-0.396-0.457-0.813-0.547-1.1-0.542C42.528-0.006,42.118-0.091,41.563,0.176z"/>
		<linearGradient id="SVGID_1_" gradientUnits="userSpaceOnUse" x1="35.499" y1="1.0327" x2="35.499" y2="68.5908">
			<stop  offset="0" style="stop-color:#FFFF00"/>
			<stop  offset="0.1952" style="stop-color:#D6E506"/>
			<stop  offset="1" style="stop-color:#307C1F"/>
		</linearGradient>
		<path fill="url(#SVGID_1_)" d="M35.497,10.598c0-2.553,7.69-12.305,6.954-8.823c0.736-3.482,3.785,8.552,2.768,10.886
			c1.018-2.334,12.007-8.119,9.938-5.229c2.069-2.891-0.038,9.346-1.904,11.064c1.866-1.718,14.247-2.536,11.207-0.734
			c3.04-1.802-3.846,8.521-6.24,9.336c2.395-0.815,14.036,3.481,10.539,3.886c3.497-0.404-7.004,6.22-9.506,5.993
			c2.502,0.227,11.398,8.887,8.055,7.838c3.344,1.049-8.949,2.828-11.119,1.607c2.17,1.221,6.777,12.75,4.164,10.434
			c2.613,2.316-9.337-1.055-10.811-3.051c1.474,1.996,0.992,14.399-0.438,11.224c1.43,3.176-8.113-4.764-8.643-7.185
			c0.529,2.421-4.963,13.559-4.963,10.076c0,3.482-5.485-7.655-4.965-10.076c-0.52,2.421-10.064,10.36-8.635,7.185
			c-1.43,3.176-1.916-9.228-0.438-11.224c-1.478,1.996-13.428,5.367-10.811,3.051c-2.617,2.316,1.99-9.213,4.165-10.434
			c-2.175,1.221-14.462-0.559-11.117-1.607c-3.345,1.049,5.55-7.611,8.048-7.838c-2.498,0.227-13.003-6.397-9.501-5.993
			c-3.502-0.404,8.15-4.701,10.54-3.886c-2.39-0.815-9.288-11.138-6.242-9.336c-3.046-1.802,9.338-0.984,11.207,0.734
			c-1.868-1.718-3.978-13.955-1.906-11.064c-2.071-2.891,8.92,2.895,9.936,5.229c-1.016-2.334,2.037-14.368,2.768-10.886
			C27.814-1.707,35.497,8.045,35.497,10.598z"/>
	</g>
	<g>
		<g>
			<path fill="#FFFFFF" d="M35.916,48.347c-7.16,0-12.966-5.805-12.966-12.967c0-7.16,5.806-12.965,12.966-12.965v-3.943
				c-9.338,0-16.909,7.57-16.909,16.909c0,9.34,7.571,16.91,16.909,16.91c9.34,0,16.909-7.57,16.909-16.91h-3.943
				C48.882,42.542,43.077,48.347,35.916,48.347z"/>
			<polygon fill="#FFFFFF" points="35.417,22.425 35.417,18.48 35.417,15.232 39.929,17.837 44.442,20.443 39.929,23.049 
				35.417,25.654 			"/>
		</g>
		<rect x="35.008" y="18.803" fill="#FFFFFF" width="1.329" height="3.338"/>
	</g>
</g>
</svg>
