<?xml version="1.0" encoding="utf-8"?>
<!-- Generator: Adobe Illustrator 14.0.0, SVG Export Plug-In . SVG Version: 6.00 Build 43363)  -->
<!DOCTYPE svg PUBLIC "-//W3C//DTD SVG 1.1//EN" "http://www.w3.org/Graphics/SVG/1.1/DTD/svg11.dtd">
<svg version="1.1" id="图层_1" xmlns="http://www.w3.org/2000/svg" xmlns:xlink="http://www.w3.org/1999/xlink" x="0px" y="0px"
	 width="69.991px" height="72.112px" viewBox="0 0 69.991 72.112" enable-background="new 0 0 69.991 72.112" xml:space="preserve">
<g>
	<image overflow="visible" width="69" height="6" xlink:href="9D786E8.png"  transform="matrix(1 0 0 1 1.6494 64.2681)">
	</image>
	<g>
		<g>
			<radialGradient id="SVGID_1_" cx="29.8525" cy="17.6606" r="39.0836" gradientUnits="userSpaceOnUse">
				<stop  offset="0" style="stop-color:#D4D4D4"/>
				<stop  offset="0.5963" style="stop-color:#C6C6C6"/>
				<stop  offset="1" style="stop-color:#BABABA"/>
			</radialGradient>
			<path fill="url(#SVGID_1_)" d="M21.67,10.125c0,0-1.572,4.193-0.786,9.563s5.241,8.383,7.858,10.349
				c2.622,1.965,3.801,5.238,0.787,7.858c-3.012,2.622-9.432,7.729-9.693,14.804c-0.262,7.072,1.572,7.335,1.572,7.335h28.031
				c0,0,1.442-4.063,1.18-7.992c-0.262-3.929-3.144-8.513-6.942-11.524c-3.799-3.016-4.586-4.324-4.455-6.551
				c0.132-2.227,3.932-5.368,5.765-6.813c1.834-1.44,4.978-5.37,4.845-10.872c-0.118-5.134-1.438-6.288-1.438-6.288L21.67,10.125z"
				/>
			<g>
				<linearGradient id="SVGID_2_" gradientUnits="userSpaceOnUse" x1="35.2607" y1="21.7896" x2="37.5554" y2="32.9096">
					<stop  offset="0.005" style="stop-color:#E6BD8A"/>
					<stop  offset="1" style="stop-color:#9E663B"/>
				</linearGradient>
				<path fill="url(#SVGID_2_)" d="M27.925,25.875c-0.505,0.843,0.687,1.474,2.751,2.358c2.063,0.883,5.15,3.779,5.445,5.647
					c0,0,1.333-3.684,3.594-5.254c2.259-1.571,4.616-2.359,4.616-3.439c0-1.081-2.259-2.26-7.858-1.866
					C30.873,23.713,28.22,25.385,27.925,25.875z"/>
				<linearGradient id="SVGID_3_" gradientUnits="userSpaceOnUse" x1="34.9746" y1="38.1714" x2="34.9746" y2="58.6445">
					<stop  offset="0.005" style="stop-color:#E6BD8A"/>
					<stop  offset="0.796" style="stop-color:#9E663B"/>
					<stop  offset="0.8593" style="stop-color:#945F37"/>
					<stop  offset="0.9658" style="stop-color:#7A4C2D"/>
					<stop  offset="1" style="stop-color:#704529"/>
				</linearGradient>
				<path fill="url(#SVGID_3_)" d="M36.121,36.308c0.221,15.896-1.546,12.363-3.313,13.466c-1.834,1.146-4,1.35-5.965,1.745
					c-1.965,0.391-5.012,1.375-5.306,2.847c-0.295,1.475,0.196,2.161,0.786,2.457c0.589,0.293,23.678,0,24.757-0.196
					c1.083-0.198,1.573-1.967,1.376-2.947c-0.197-0.981-1.081-1.57-5.108-2.851c-4.028-1.274-6.786-1.333-6.786-2.378
					C36.563,43.593,36.107,35.464,36.121,36.308z"/>
			</g>
			<g>
				<path opacity="0.6" fill="#FFFFFF" d="M23.391,12.984l4.121,0.293c0,0-4.414,6.476,2.061,14.129c0,0-1.473,0-2.943-1.767
					C25.008,23.696,22.509,22.109,23.391,12.984z"/>
				<path opacity="0.6" fill="#FFFFFF" d="M44.582,13.277h2.943c0,0,1.767,5.3-2.354,9.714c-1.854,1.985-0.883-1.472,0-4.122
					C46.052,16.222,44.582,13.277,44.582,13.277z"/>
				<path opacity="0.6" fill="#FFFFFF" d="M32.516,40.356c0,0-5.299,6.475-4.71,15.893l-5.594,0.296c0,0-1.469-4.71,2.062-10.008
					C27.806,41.239,33.104,36.531,32.516,40.356z"/>
			</g>
		</g>
		<g>
			<g>
				<linearGradient id="SVGID_4_" gradientUnits="userSpaceOnUse" x1="15.9961" y1="34.5659" x2="18.7256" y2="34.5659">
					<stop  offset="0" style="stop-color:#535144"/>
					<stop  offset="1" style="stop-color:#131110"/>
				</linearGradient>
				<path fill="url(#SVGID_4_)" d="M15.996,5.625c0,0,0.709,20.617,0.709,27.633c0,7.015-0.514,29.665-0.709,30.443h2.341
					c0,0-0.391-27.282-0.391-30.792c0-3.507,0.779-27.478,0.779-27.478L15.996,5.625z"/>
				<linearGradient id="SVGID_5_" gradientUnits="userSpaceOnUse" x1="51.4678" y1="34.7603" x2="54.1973" y2="34.7603">
					<stop  offset="0" style="stop-color:#535144"/>
					<stop  offset="1" style="stop-color:#131110"/>
				</linearGradient>
				<path fill="url(#SVGID_5_)" d="M51.468,5.821c0,0,0.546,20.622,0.546,27.639c0,7.015-0.353,29.657-0.546,30.437h2.338
					c0,0-0.389-27.283-0.389-30.793c0-3.507,0.78-27.479,0.78-27.479L51.468,5.821z"/>
			</g>
			<g>
				<g>
					<linearGradient id="SVGID_6_" gradientUnits="userSpaceOnUse" x1="34.436" y1="14.8403" x2="34.7089" y2="4.2022">
						<stop  offset="0" style="stop-color:#535144"/>
						<stop  offset="1" style="stop-color:#080A00"/>
					</linearGradient>
					<path fill="url(#SVGID_6_)" d="M51.405,8.358c0,1.734-1.439,3.143-3.212,3.143H21.02c-1.775,0-3.215-1.408-3.215-3.143V8.226
						c0-1.738,1.439-3.144,3.215-3.144h27.174c1.772,0,3.212,1.405,3.212,3.144V8.358z"/>
					<linearGradient id="SVGID_7_" gradientUnits="userSpaceOnUse" x1="34.4556" y1="1.2129" x2="34.926" y2="8.2712">
						<stop  offset="0" style="stop-color:#535144"/>
						<stop  offset="1" style="stop-color:#131110"/>
					</linearGradient>
					<path fill="url(#SVGID_7_)" d="M56.646,3.968c0,1.519-1.232,2.749-2.752,2.749H15.383c-1.521,0-2.75-1.23-2.75-2.749l0,0
						c0-1.52,1.229-2.751,2.75-2.751h38.512C55.414,1.217,56.646,2.449,56.646,3.968L56.646,3.968z"/>
					<linearGradient id="SVGID_8_" gradientUnits="userSpaceOnUse" x1="34.5107" y1="-2.3174" x2="34.7191" y2="5.3917">
						<stop  offset="0.005" style="stop-color:#FFFFFF"/>
						<stop  offset="0.0503" style="stop-color:#F3F3F2"/>
						<stop  offset="0.3087" style="stop-color:#B2B1AE"/>
						<stop  offset="0.5421" style="stop-color:#7F7E78"/>
						<stop  offset="0.7423" style="stop-color:#5A5851"/>
						<stop  offset="0.9015" style="stop-color:#434139"/>
						<stop  offset="1" style="stop-color:#3B3930"/>
					</linearGradient>
					<path fill="url(#SVGID_8_)" d="M13.531,3.418c0,0,0.074-1.325,2.723-1.545c2.648-0.221,35.688-0.075,37.453-0.075
						c1.618,0,2.206,2.503,2.206,2.503s-0.174-1.665-2.206-1.766c-2.944-0.149-35.688-0.221-37.232,0.001
						c-1.545,0.22-3.459,1.103-2.797,2.648C13.678,5.185,13.313,4.522,13.531,3.418z"/>
				</g>
				<g>
					<g>
						<linearGradient id="SVGID_9_" gradientUnits="userSpaceOnUse" x1="35.4243" y1="54.4849" x2="35.4243" y2="63.4881">
							<stop  offset="0" style="stop-color:#535144"/>
							<stop  offset="1" style="stop-color:#080A00"/>
						</linearGradient>
						<path fill="url(#SVGID_9_)" d="M52.225,61.147c0-1.738-1.439-3.146-3.214-3.146H21.838c-1.775,0-3.213,1.407-3.213,3.146
							v0.131c0,1.735,1.438,3.144,3.213,3.144h27.173c1.774,0,3.214-1.408,3.214-3.144V61.147z"/>
						<linearGradient id="SVGID_10_" gradientUnits="userSpaceOnUse" x1="34.854" y1="58.4985" x2="36.0815" y2="72.8199">
							<stop  offset="0" style="stop-color:#535144"/>
							<stop  offset="1" style="stop-color:#131110"/>
						</linearGradient>
						<path fill="url(#SVGID_10_)" d="M57.463,65.538c0-1.521-1.23-2.754-2.751-2.754H16.199c-1.519,0-2.748,1.233-2.748,2.754l0,0
							c0,1.518,1.229,2.749,2.748,2.749h38.513C56.232,68.287,57.463,67.055,57.463,65.538L57.463,65.538z"/>
					</g>
					<linearGradient id="SVGID_11_" gradientUnits="userSpaceOnUse" x1="35.1538" y1="57.9468" x2="35.3304" y2="65.7159">
						<stop  offset="0.005" style="stop-color:#FFFFFF"/>
						<stop  offset="0.0795" style="stop-color:#EDEDEC"/>
						<stop  offset="0.4141" style="stop-color:#A2A19D"/>
						<stop  offset="0.6896" style="stop-color:#6B6963"/>
						<stop  offset="0.8921" style="stop-color:#49473F"/>
						<stop  offset="1" style="stop-color:#3C3A31"/>
					</linearGradient>
					<path fill="url(#SVGID_11_)" d="M14.175,64.976c0,0,0.073-1.325,2.724-1.546c2.647-0.222,35.688-0.073,37.451-0.073
						c1.62,0,2.209,2.502,2.209,2.502s-0.177-1.665-2.209-1.766c-2.943-0.149-35.688-0.221-37.232,0
						c-1.545,0.22-3.458,1.104-2.795,2.648C14.322,66.742,13.955,66.08,14.175,64.976z"/>
				</g>
			</g>
		</g>
	</g>
</g>
</svg>
