<?xml version="1.0" encoding="utf-8"?>
<!-- Generator: Adobe Illustrator 14.0.0, SVG Export Plug-In . SVG Version: 6.00 Build 43363)  -->
<!DOCTYPE svg PUBLIC "-//W3C//DTD SVG 1.1//EN" "http://www.w3.org/Graphics/SVG/1.1/DTD/svg11.dtd">
<svg version="1.1" id="图层_1" xmlns="http://www.w3.org/2000/svg" xmlns:xlink="http://www.w3.org/1999/xlink" x="0px" y="0px"
	 width="69.991px" height="69.607px" viewBox="0 0 69.991 69.607" enable-background="new 0 0 69.991 69.607" xml:space="preserve">
<g>
	<radialGradient id="SVGID_1_" cx="57.3115" cy="-68.1978" r="63.8244" gradientUnits="userSpaceOnUse">
		<stop  offset="0" style="stop-color:#FFFFFF"/>
		<stop  offset="0.1682" style="stop-color:#F9F9F9"/>
		<stop  offset="0.3873" style="stop-color:#E9E9E9"/>
		<stop  offset="0.6344" style="stop-color:#CECECE"/>
		<stop  offset="0.9002" style="stop-color:#A9A9A9"/>
		<stop  offset="1" style="stop-color:#999999"/>
	</radialGradient>
	<circle fill="url(#SVGID_1_)" cx="44.118" cy="34.402" r="23.832"/>
	<radialGradient id="SVGID_2_" cx="39.6777" cy="-5.5635" r="85.545" gradientUnits="userSpaceOnUse">
		<stop  offset="0" style="stop-color:#F9F9F9"/>
		<stop  offset="0.1433" style="stop-color:#F1F1F1"/>
		<stop  offset="0.37" style="stop-color:#DADADA"/>
		<stop  offset="0.6503" style="stop-color:#B5B5B5"/>
		<stop  offset="0.8202" style="stop-color:#9B9B9B"/>
	</radialGradient>
	<path fill="url(#SVGID_2_)" d="M44.118,56.186c-12.013,0-21.786-9.771-21.786-21.784c0-12.012,9.772-21.784,21.786-21.784
		c12.013,0,21.784,9.772,21.784,21.784C65.902,46.415,56.131,56.186,44.118,56.186L44.118,56.186z"/>
	<g>
		<path fill="#EA6000" d="M37.828,26.905c1.392,0,2.586,0.283,3.584,0.848c0.998,0.564,1.753,1.369,2.265,2.411
			c0.514,1.042,0.77,2.266,0.77,3.67c0,1.039-0.141,1.984-0.421,2.832c-0.281,0.85-0.701,1.586-1.264,2.21
			c-0.561,0.624-1.251,1.1-2.068,1.429c-0.818,0.33-1.754,0.495-2.81,0.495c-1.05,0-1.99-0.169-2.82-0.508
			c-0.83-0.34-1.522-0.816-2.078-1.435s-0.976-1.359-1.259-2.229c-0.283-0.866-0.425-1.805-0.425-2.813
			c0-1.032,0.148-1.979,0.443-2.842c0.296-0.86,0.725-1.594,1.287-2.199c0.562-0.604,1.246-1.067,2.051-1.389
			C35.888,27.066,36.803,26.905,37.828,26.905z M41.707,33.815c0-0.985-0.16-1.84-0.479-2.563c-0.317-0.723-0.773-1.269-1.364-1.639
			c-0.592-0.371-1.271-0.557-2.036-0.557c-0.545,0-1.05,0.103-1.513,0.308c-0.462,0.206-0.86,0.504-1.194,0.895
			c-0.334,0.393-0.597,0.893-0.79,1.502c-0.192,0.609-0.289,1.293-0.289,2.053c0,0.766,0.097,1.458,0.289,2.076
			c0.193,0.619,0.466,1.131,0.819,1.539c0.352,0.407,0.756,0.711,1.212,0.913c0.457,0.203,0.957,0.304,1.503,0.304
			c0.698,0,1.34-0.174,1.926-0.523c0.585-0.349,1.051-0.888,1.397-1.617C41.533,35.779,41.707,34.882,41.707,33.815z"/>
		<path fill="#EA6000" d="M50.465,34.831h-0.956v4.312c0,0.569-0.126,0.987-0.375,1.255c-0.248,0.269-0.574,0.402-0.974,0.402
			c-0.433,0-0.767-0.141-1.003-0.422c-0.238-0.281-0.356-0.693-0.356-1.237V28.801c0-0.585,0.132-1.01,0.395-1.273
			c0.263-0.263,0.688-0.395,1.273-0.395h4.426c0.61,0,1.132,0.026,1.566,0.077c0.435,0.051,0.825,0.155,1.173,0.312
			c0.419,0.177,0.788,0.432,1.11,0.763c0.322,0.33,0.566,0.715,0.734,1.151c0.166,0.438,0.249,0.902,0.249,1.392
			c0,1.004-0.281,1.805-0.843,2.404c-0.563,0.601-1.415,1.025-2.558,1.276c0.48,0.257,0.939,0.636,1.377,1.135
			c0.438,0.502,0.829,1.033,1.173,1.599c0.344,0.564,0.61,1.074,0.802,1.528c0.191,0.455,0.288,0.769,0.288,0.939
			c0,0.177-0.057,0.353-0.17,0.526s-0.266,0.312-0.462,0.412c-0.193,0.1-0.42,0.15-0.674,0.15c-0.307,0-0.562-0.071-0.769-0.215
			c-0.206-0.144-0.386-0.325-0.534-0.545c-0.149-0.22-0.351-0.543-0.607-0.971l-1.087-1.813c-0.393-0.664-0.744-1.172-1.053-1.52
			c-0.311-0.348-0.624-0.586-0.943-0.714C51.351,34.895,50.948,34.831,50.465,34.831z M52.027,29.155h-2.519v3.718h2.445
			c0.656,0,1.207-0.057,1.655-0.171c0.447-0.113,0.788-0.307,1.025-0.581c0.235-0.273,0.354-0.65,0.354-1.129
			c0-0.375-0.095-0.707-0.284-0.993c-0.191-0.286-0.455-0.5-0.791-0.641C53.593,29.223,52.965,29.155,52.027,29.155z"/>
	</g>
	<g>
		
			<linearGradient id="SVGID_3_" gradientUnits="userSpaceOnUse" x1="-851.4863" y1="-421.0493" x2="-868.4847" y2="-433.5978" gradientTransform="matrix(-4.371139e-008 1 -1 -4.371139e-008 -407.3993 906.1315)">
			<stop  offset="0" style="stop-color:#EFEFEF"/>
			<stop  offset="1" style="stop-color:#C4C4C4"/>
		</linearGradient>
		<polygon fill="url(#SVGID_3_)" points="17.732,58.291 33.789,47.627 28.517,36.965 26.287,41.374 8.488,41.374 2.162,53.883 
			19.962,53.883 		"/>
		
			<linearGradient id="SVGID_4_" gradientUnits="userSpaceOnUse" x1="-830.9199" y1="-403.3022" x2="-858.2452" y2="-420.5502" gradientTransform="matrix(-4.371139e-008 1 -1 -4.371139e-008 -407.3993 906.1315)">
			<stop  offset="0" style="stop-color:#691B11"/>
			<stop  offset="1" style="stop-color:#B12523"/>
		</linearGradient>
		<polygon fill="url(#SVGID_4_)" points="0.533,51.087 2.162,53.883 19.962,53.883 18.333,51.088 		"/>
		
			<linearGradient id="SVGID_5_" gradientUnits="userSpaceOnUse" x1="-850.5044" y1="-430.0205" x2="-857.7599" y2="-434.127" gradientTransform="matrix(-4.371139e-008 1 -1 -4.371139e-008 -407.3993 906.1315)">
			<stop  offset="0.0056" style="stop-color:#E75E1E"/>
			<stop  offset="1" style="stop-color:#E96C1D"/>
		</linearGradient>
		<polygon fill="url(#SVGID_5_)" points="32.16,44.832 33.789,47.627 17.732,58.291 16.135,55.355 		"/>
		
			<linearGradient id="SVGID_6_" gradientUnits="userSpaceOnUse" x1="-849.3228" y1="-427.6953" x2="-868.4546" y2="-439.7715" gradientTransform="matrix(-4.371139e-008 1 -1 -4.371139e-008 -407.3993 906.1315)">
			<stop  offset="0" style="stop-color:#691B11"/>
			<stop  offset="1" style="stop-color:#B12523"/>
		</linearGradient>
		<polygon fill="url(#SVGID_6_)" points="28.517,36.965 26.889,34.169 32.16,44.832 33.789,47.627 		"/>
		
			<linearGradient id="SVGID_7_" gradientUnits="userSpaceOnUse" x1="-858.1353" y1="-453.0547" x2="-862.6944" y2="-418.2377" gradientTransform="matrix(-4.371139e-008 1 -1 -4.371139e-008 -407.3993 906.1315)">
			<stop  offset="0" style="stop-color:#E50012"/>
			<stop  offset="1" style="stop-color:#EA6000"/>
		</linearGradient>
		<polygon fill="url(#SVGID_7_)" points="16.105,55.496 32.16,44.832 26.889,34.169 24.659,38.577 6.862,38.577 0.533,51.087 
			18.333,51.088 		"/>
	</g>
</g>
</svg>
