<?xml version="1.0" encoding="utf-8"?>
<!-- Generator: Adobe Illustrator 14.0.0, SVG Export Plug-In . SVG Version: 6.00 Build 43363)  -->
<!DOCTYPE svg PUBLIC "-//W3C//DTD SVG 1.1//EN" "http://www.w3.org/Graphics/SVG/1.1/DTD/svg11.dtd">
<svg version="1.1" id="图层_1" xmlns="http://www.w3.org/2000/svg" xmlns:xlink="http://www.w3.org/1999/xlink" x="0px" y="0px"
	 width="69.991px" height="69.607px" viewBox="0 0 69.991 69.607" enable-background="new 0 0 69.991 69.607" xml:space="preserve">
<g>
	<path fill="#FFFFFF" d="M41.063,0.176c-1.35,0.657-4.444,4.478-6.067,7.514c-1.619-3.036-4.714-6.856-6.063-7.514
		c-0.551-0.267-0.965-0.179-1.228-0.059c-0.293-0.005-0.704,0.08-1.099,0.541c-0.948,1.112-2.231,5.917-2.485,9.361
		c-2.709-2.115-7.088-4.349-8.593-4.411c-0.612-0.024-0.917,0.205-1.116,0.425c-0.271,0.098-0.645,0.341-0.825,0.954
		c-0.079,0.255-0.117,0.635-0.117,1.107c0,2.06,0.698,5.798,1.642,8.451c-3.317-0.828-8.225-1.074-9.629-0.524
		c-0.619,0.241-0.836,0.649-0.906,0.931c-0.172,0.18-0.335,0.432-0.335,0.866c0,0.076,0,0.156,0.019,0.238
		c0.183,1.438,2.902,5.632,5.288,8.141C6.182,26.79,1.6,28.541,0.534,29.621c-0.379,0.378-0.479,0.752-0.479,1.034
		c0,0.097,0.029,0.147,0.042,0.217C0.056,30.982,0,31.04,0,31.195c0,0.22,0.06,0.484,0.234,0.777
		c0.753,1.235,4.934,3.975,8.14,5.299c-2.826,1.906-6.292,5.363-6.834,6.789c-0.084,0.227-0.116,0.43-0.116,0.609
		c0,0.305,0.093,0.507,0.195,0.665c0.024,0.286,0.132,0.663,0.61,0.989c1.201,0.832,6.141,1.613,9.595,1.509
		c-1.764,2.826-3.486,7.27-3.486,8.901c0,0.039,0,0.076,0,0.113c0.037,0.632,0.336,0.959,0.566,1.126
		c0.144,0.249,0.422,0.548,0.989,0.656c1.435,0.265,6.272-1.025,9.386-2.521c-0.158,1.167-0.236,2.51-0.236,3.834
		c0,2.533,0.26,4.97,0.711,5.826c0.288,0.551,0.652,0.691,0.939,0.744c0.221,0.188,0.59,0.387,1.211,0.235
		c1.424-0.353,5.306-3.489,7.534-6.114c0.966,3.295,3.226,7.729,4.378,8.638c0.497,0.394,0.902,0.362,1.18,0.288
		c0.282,0.074,0.681,0.105,1.185-0.288c1.162-0.909,3.414-5.343,4.374-8.638c2.231,2.625,6.111,5.762,7.542,6.114
		c0.62,0.151,0.982-0.047,1.209-0.235c0.285-0.053,0.654-0.193,0.939-0.744c0.449-0.856,0.713-3.293,0.713-5.821
		c0-1.329-0.082-2.671-0.238-3.839c3.113,1.495,7.947,2.785,9.386,2.521c0.569-0.108,0.843-0.407,0.985-0.656
		c0.24-0.167,0.535-0.494,0.567-1.126c0.006-0.037,0.006-0.074,0.006-0.113c0-1.632-1.726-6.075-3.495-8.901
		c3.461,0.104,8.402-0.68,9.601-1.509c0.476-0.326,0.583-0.703,0.61-0.989c0.102-0.154,0.199-0.358,0.199-0.665
		c0-0.18-0.035-0.383-0.125-0.609c-0.542-1.426-4-4.883-6.828-6.789c3.203-1.324,7.381-4.064,8.132-5.299
		c0.181-0.293,0.233-0.558,0.233-0.777c0-0.155-0.053-0.213-0.09-0.324c0.016-0.07,0.037-0.12,0.037-0.217
		c0-0.282-0.1-0.656-0.473-1.034c-1.076-1.08-5.655-2.831-9.017-3.423c2.394-2.508,5.101-6.703,5.29-8.141
		c0.008-0.082,0.019-0.162,0.019-0.235c0-0.437-0.169-0.689-0.333-0.869c-0.076-0.282-0.291-0.69-0.913-0.931
		c-1.405-0.55-6.312-0.304-9.628,0.524c0.947-2.653,1.641-6.391,1.641-8.451c0-0.472-0.034-0.852-0.115-1.107
		c-0.178-0.613-0.554-0.856-0.828-0.954c-0.199-0.22-0.501-0.449-1.105-0.425c-1.512,0.062-5.896,2.296-8.603,4.411
		c-0.252-3.445-1.536-8.249-2.479-9.361c-0.396-0.456-0.813-0.546-1.1-0.541C42.028-0.006,41.616-0.091,41.063,0.176z"/>
	<linearGradient id="SVGID_1_" gradientUnits="userSpaceOnUse" x1="34.9976" y1="1.0327" x2="34.9976" y2="68.5908">
		<stop  offset="0" style="stop-color:#FFFF00"/>
		<stop  offset="0.1952" style="stop-color:#D6E506"/>
		<stop  offset="1" style="stop-color:#307C1F"/>
	</linearGradient>
	<path fill="url(#SVGID_1_)" d="M34.996,10.599c0-2.553,7.69-12.305,6.953-8.823c0.737-3.481,3.786,8.552,2.768,10.886
		c1.019-2.334,12.007-8.119,9.938-5.229c2.068-2.891-0.039,9.346-1.904,11.064c1.865-1.718,14.246-2.536,11.206-0.735
		c3.04-1.801-3.845,8.522-6.239,9.337c2.395-0.815,14.035,3.481,10.537,3.886c3.498-0.404-7.003,6.218-9.505,5.994
		c2.502,0.225,11.399,8.887,8.055,7.838c3.345,1.049-8.948,2.828-11.12,1.607c2.172,1.221,6.778,12.75,4.164,10.433
		c2.614,2.317-9.336-1.055-10.809-3.05c1.473,1.995,0.991,14.398-0.438,11.223c1.429,3.176-8.113-4.764-8.644-7.184
		c0.53,2.42-4.963,13.558-4.963,10.075c0,3.482-5.485-7.655-4.965-10.075c-0.52,2.42-10.064,10.359-8.635,7.184
		c-1.429,3.176-1.915-9.228-0.438-11.223c-1.478,1.995-13.428,5.367-10.811,3.05c-2.617,2.317,1.99-9.212,4.166-10.433
		c-2.175,1.221-14.462-0.559-11.118-1.607c-3.345,1.049,5.551-7.613,8.048-7.838c-2.498,0.225-13.003-6.398-9.501-5.994
		c-3.502-0.404,8.149-4.701,10.54-3.886c-2.391-0.815-9.288-11.138-6.242-9.337c-3.046-1.801,9.338-0.983,11.207,0.735
		c-1.868-1.718-3.978-13.955-1.906-11.064c-2.071-2.891,8.92,2.894,9.936,5.229c-1.016-2.334,2.036-14.368,2.768-10.886
		C27.313-1.706,34.996,8.045,34.996,10.599z"/>
</g>
</svg>
