<?xml version="1.0" encoding="utf-8"?>
<!-- Generator: Adobe Illustrator 14.0.0, SVG Export Plug-In . SVG Version: 6.00 Build 43363)  -->
<!DOCTYPE svg PUBLIC "-//W3C//DTD SVG 1.1//EN" "http://www.w3.org/Graphics/SVG/1.1/DTD/svg11.dtd">
<svg version="1.1" id="图层_1" xmlns="http://www.w3.org/2000/svg" xmlns:xlink="http://www.w3.org/1999/xlink" x="0px" y="0px"
	 width="69.991px" height="69.607px" viewBox="0 0 69.991 69.607" enable-background="new 0 0 69.991 69.607" xml:space="preserve">
<g>
	<radialGradient id="SVGID_1_" cx="42.0381" cy="-75.3247" r="70.5359" gradientUnits="userSpaceOnUse">
		<stop  offset="0" style="stop-color:#FFFFFF"/>
		<stop  offset="0.1682" style="stop-color:#F9F9F9"/>
		<stop  offset="0.3873" style="stop-color:#E9E9E9"/>
		<stop  offset="0.6344" style="stop-color:#CECECE"/>
		<stop  offset="0.9002" style="stop-color:#A9A9A9"/>
		<stop  offset="1" style="stop-color:#999999"/>
	</radialGradient>
	<circle fill="url(#SVGID_1_)" cx="27.457" cy="38.062" r="26.339"/>
	<radialGradient id="SVGID_2_" cx="22.5493" cy="-6.1064" r="94.5418" gradientUnits="userSpaceOnUse">
		<stop  offset="0" style="stop-color:#F9F9F9"/>
		<stop  offset="0.1433" style="stop-color:#F1F1F1"/>
		<stop  offset="0.37" style="stop-color:#DADADA"/>
		<stop  offset="0.6503" style="stop-color:#B5B5B5"/>
		<stop  offset="0.8202" style="stop-color:#9B9B9B"/>
	</radialGradient>
	<path fill="url(#SVGID_2_)" d="M27.457,62.137c-13.277,0-24.078-10.798-24.078-24.073c0-13.277,10.8-24.077,24.078-24.077
		c13.275,0,24.075,10.8,24.075,24.077C51.532,51.339,40.732,62.137,27.457,62.137L27.457,62.137z"/>
	<g>
		<path fill="#EA6000" d="M18.775,31.125c1.538,0,2.858,0.312,3.961,0.938c1.103,0.625,1.937,1.513,2.504,2.664
			c0.566,1.152,0.85,2.504,0.85,4.058c0,1.147-0.155,2.19-0.465,3.13c-0.31,0.938-0.776,1.753-1.396,2.441
			c-0.622,0.688-1.383,1.215-2.287,1.58c-0.903,0.364-1.939,0.547-3.105,0.547c-1.161,0-2.199-0.188-3.116-0.563
			c-0.918-0.374-1.683-0.903-2.297-1.585s-1.077-1.503-1.39-2.462c-0.314-0.959-0.471-1.996-0.471-3.109
			c0-1.142,0.164-2.188,0.491-3.14c0.327-0.954,0.8-1.763,1.42-2.431c0.621-0.669,1.375-1.181,2.267-1.536
			C16.63,31.302,17.642,31.125,18.775,31.125z M23.061,38.763c0-1.09-0.175-2.034-0.528-2.833c-0.353-0.798-0.855-1.402-1.508-1.812
			c-0.653-0.409-1.404-0.614-2.25-0.614c-0.602,0-1.159,0.114-1.67,0.34c-0.511,0.227-0.952,0.558-1.32,0.99
			c-0.369,0.433-0.661,0.985-0.874,1.659c-0.214,0.674-0.32,1.431-0.32,2.27c0,0.846,0.105,1.61,0.32,2.294
			c0.213,0.683,0.513,1.251,0.903,1.699c0.39,0.45,0.836,0.788,1.341,1.011c0.504,0.225,1.059,0.336,1.661,0.336
			c0.771,0,1.481-0.193,2.128-0.579c0.646-0.386,1.16-0.981,1.543-1.786C22.87,40.931,23.061,39.94,23.061,38.763z"/>
		<path fill="#EA6000" d="M32.74,39.885h-1.057v4.766c0,0.626-0.138,1.088-0.414,1.386c-0.276,0.296-0.634,0.445-1.078,0.445
			c-0.476,0-0.846-0.155-1.108-0.466c-0.261-0.311-0.392-0.767-0.392-1.367V33.221c0-0.649,0.145-1.117,0.435-1.408
			c0.291-0.29,0.759-0.436,1.408-0.436h4.891c0.675,0,1.253,0.028,1.731,0.084c0.479,0.058,0.911,0.173,1.297,0.347
			c0.461,0.196,0.872,0.476,1.228,0.841c0.354,0.366,0.624,0.79,0.809,1.274c0.185,0.483,0.278,0.996,0.278,1.537
			c0,1.109-0.313,1.995-0.934,2.658c-0.62,0.662-1.563,1.133-2.825,1.41c0.531,0.284,1.039,0.701,1.522,1.255
			c0.482,0.552,0.915,1.142,1.295,1.766c0.38,0.623,0.674,1.188,0.887,1.69c0.212,0.503,0.318,0.848,0.318,1.036
			c0,0.196-0.063,0.391-0.188,0.582c-0.125,0.193-0.295,0.344-0.51,0.456c-0.216,0.111-0.464,0.167-0.748,0.167
			c-0.335,0-0.619-0.081-0.848-0.238s-0.425-0.357-0.59-0.602c-0.165-0.243-0.39-0.602-0.671-1.072l-1.202-2.004
			c-0.434-0.736-0.821-1.294-1.164-1.68c-0.343-0.384-0.689-0.646-1.041-0.788C33.718,39.956,33.275,39.885,32.74,39.885z
			 M34.468,33.612h-2.785v4.109h2.704c0.723,0,1.333-0.061,1.828-0.188c0.495-0.126,0.873-0.341,1.133-0.642
			c0.262-0.304,0.393-0.72,0.393-1.251c0-0.415-0.106-0.779-0.316-1.095c-0.209-0.317-0.5-0.553-0.874-0.71
			C36.198,33.688,35.504,33.612,34.468,33.612z"/>
	</g>
	<g>
		
			<linearGradient id="SVGID_3_" gradientUnits="userSpaceOnUse" x1="-879.1416" y1="-453.918" x2="-897.9279" y2="-467.7864" gradientTransform="matrix(-4.371139e-008 1 -1 -4.371139e-008 -407.3993 906.1315)">
			<stop  offset="0" style="stop-color:#EFEFEF"/>
			<stop  offset="1" style="stop-color:#C4C4C4"/>
		</linearGradient>
		<polygon fill="url(#SVGID_3_)" points="51.028,31.019 68.775,19.235 62.949,7.451 60.484,12.323 40.814,12.323 33.822,26.148 
			53.494,26.148 		"/>
		
			<linearGradient id="SVGID_4_" gradientUnits="userSpaceOnUse" x1="-856.4155" y1="-434.3057" x2="-886.612" y2="-453.3659" gradientTransform="matrix(-4.371139e-008 1 -1 -4.371139e-008 -407.3993 906.1315)">
			<stop  offset="0" style="stop-color:#691B11"/>
			<stop  offset="1" style="stop-color:#B12523"/>
		</linearGradient>
		<polygon fill="url(#SVGID_4_)" points="32.021,23.058 33.822,26.148 53.494,26.148 51.693,23.06 		"/>
		
			<linearGradient id="SVGID_5_" gradientUnits="userSpaceOnUse" x1="-878.0552" y1="-463.832" x2="-886.0746" y2="-468.3708" gradientTransform="matrix(-4.371139e-008 1 -1 -4.371139e-008 -407.3993 906.1315)">
			<stop  offset="0.0056" style="stop-color:#E75E1E"/>
			<stop  offset="1" style="stop-color:#E96C1D"/>
		</linearGradient>
		<polygon fill="url(#SVGID_5_)" points="66.977,16.145 68.775,19.235 51.028,31.019 49.265,27.775 		"/>
		
			<linearGradient id="SVGID_6_" gradientUnits="userSpaceOnUse" x1="-876.75" y1="-461.2627" x2="-897.8938" y2="-474.6088" gradientTransform="matrix(-4.371139e-008 1 -1 -4.371139e-008 -407.3993 906.1315)">
			<stop  offset="0" style="stop-color:#691B11"/>
			<stop  offset="1" style="stop-color:#B12523"/>
		</linearGradient>
		<polygon fill="url(#SVGID_6_)" points="62.949,7.451 61.149,4.36 66.977,16.145 68.775,19.235 		"/>
		
			<linearGradient id="SVGID_7_" gradientUnits="userSpaceOnUse" x1="-886.4897" y1="-489.2915" x2="-891.5286" y2="-450.8109" gradientTransform="matrix(-4.371139e-008 1 -1 -4.371139e-008 -407.3993 906.1315)">
			<stop  offset="0" style="stop-color:#E50012"/>
			<stop  offset="1" style="stop-color:#EA6000"/>
		</linearGradient>
		<polygon fill="url(#SVGID_7_)" points="49.23,27.93 66.977,16.145 61.149,4.36 58.687,9.231 39.017,9.231 32.021,23.058 
			51.693,23.06 		"/>
	</g>
</g>
</svg>
