<?xml version="1.0" encoding="utf-8"?>
<!-- Generator: Adobe Illustrator 14.0.0, SVG Export Plug-In . SVG Version: 6.00 Build 43363)  -->
<!DOCTYPE svg PUBLIC "-//W3C//DTD SVG 1.1//EN" "http://www.w3.org/Graphics/SVG/1.1/DTD/svg11.dtd">
<svg version="1.1" id="图层_1" xmlns="http://www.w3.org/2000/svg" xmlns:xlink="http://www.w3.org/1999/xlink" x="0px" y="0px"
	 width="69.991px" height="69.607px" viewBox="0 0 69.991 69.607" enable-background="new 0 0 69.991 69.607" xml:space="preserve">
<g>
	<image overflow="visible" width="69" height="6" xlink:href="55C34FED.png"  transform="matrix(1 0 0 1 0.6494 55.2681)">
	</image>
	<g>
		<g>
			<radialGradient id="SVGID_1_" cx="31.0459" cy="15.7119" r="47.096" gradientUnits="userSpaceOnUse">
				<stop  offset="0" style="stop-color:#F7F7F7"/>
				<stop  offset="0.2531" style="stop-color:#F3F3F3"/>
				<stop  offset="0.502" style="stop-color:#E8E8E8"/>
				<stop  offset="0.7493" style="stop-color:#D4D4D4"/>
				<stop  offset="0.9942" style="stop-color:#B8B8B8"/>
				<stop  offset="1" style="stop-color:#B8B8B8"/>
			</radialGradient>
			<path fill="url(#SVGID_1_)" d="M57.164,53.421c0,3.437-2.504,6.227-5.592,6.227H18.56c-3.087,0-5.59-2.79-5.59-6.227
				l-0.09-21.956c0-3.439,1.611-5.548,4.831-8.23L34.888,8.027L51.885,22.34c3.398,2.505,4.832,4.652,5.188,7.515L57.164,53.421z"/>
			<linearGradient id="SVGID_2_" gradientUnits="userSpaceOnUse" x1="32.8965" y1="68.5933" x2="35.387" y2="45.9026">
				<stop  offset="0.0051" style="stop-color:#BABABA"/>
				<stop  offset="1" style="stop-color:#787878"/>
			</linearGradient>
			<path fill="url(#SVGID_2_)" d="M43.654,57.308c0,1.158-0.96,2.098-2.148,2.098H28.892c-1.183,0-2.145-0.939-2.145-2.098V37.902
				c0-1.16,0.962-2.098,2.145-2.098h12.614c1.188,0,2.148,0.938,2.148,2.098V57.308z"/>
		</g>
		<g>
			<g>
				<linearGradient id="SVGID_3_" gradientUnits="userSpaceOnUse" x1="52.1279" y1="7.8403" x2="51.8507" y2="19.0472">
					<stop  offset="0" style="stop-color:#388AE5"/>
					<stop  offset="1" style="stop-color:#134D91"/>
				</linearGradient>
				<path fill="url(#SVGID_3_)" d="M55.689,21.888c0,1.187-0.962,2.146-2.147,2.146l-3.181,0.046c-1.185,0-2.144-0.962-2.144-2.148
					V7.842c0-1.186,0.959-2.146,2.144-2.146l3.181-0.044c1.186,0,2.147,0.96,2.147,2.146V21.888z"/>
				<linearGradient id="SVGID_4_" gradientUnits="userSpaceOnUse" x1="52.042" y1="6.3188" x2="51.9868" y2="8.5493">
					<stop  offset="0" style="stop-color:#FFFFFF"/>
					<stop  offset="1" style="stop-color:#388AE5"/>
				</linearGradient>
				<path fill="url(#SVGID_4_)" d="M48.634,9.072c0,0-0.521-2.801,1.555-3.06c1.28-0.162,3.128-0.151,3.597-0.036
					c2.061,0.502,1.524,2.699,1.593,3.667c0,0-0.259-2.334-1.453-2.542c-1.062-0.186-3.215-0.155-3.839,0.104
					C49.629,7.396,48.945,8.243,48.634,9.072z"/>
			</g>
			<g>
				<g>
					<g>
						<linearGradient id="SVGID_5_" gradientUnits="userSpaceOnUse" x1="29.231" y1="8.3291" x2="33.1485" y2="24.5573">
							<stop  offset="0" style="stop-color:#3894E5"/>
							<stop  offset="1" style="stop-color:#1361AC"/>
						</linearGradient>
						<path fill="url(#SVGID_5_)" d="M64.483,30.625L36.361,5.259c-0.554-0.5-1.289-0.556-1.944-0.301
							c-0.281,0.085-0.55,0.226-0.78,0.435L5.515,30.759c-0.847,0.762-0.913,2.063-0.152,2.91l2.212,2.257
							c0.764,0.844,2.065,0.912,2.911,0.15l24.64-22.225l24.49,22.091c0.845,0.762,2.148,0.693,2.911-0.149l2.107-2.257
							C65.396,32.689,65.329,31.387,64.483,30.625z"/>
					</g>
				</g>
				<linearGradient id="SVGID_6_" gradientUnits="userSpaceOnUse" x1="33.8413" y1="6.522" x2="34.8791" y2="18.3525">
					<stop  offset="0" style="stop-color:#FFFFFF"/>
					<stop  offset="1" style="stop-color:#388AE5"/>
				</linearGradient>
				<path fill="url(#SVGID_6_)" d="M12.243,25.312c0,0,20.547-18.264,21.241-18.956c0.69-0.691,1.937-1.089,3.319,0.019
					c1.385,1.106,22,19.699,22,19.699C37.306,8.882,37.576,9.025,36.906,8.399c-0.563-0.528-2.437-1.333-4.098,0.258
					C31.148,10.247,12.243,25.312,12.243,25.312z"/>
			</g>
		</g>
	</g>
</g>
</svg>
