<?xml version="1.0" encoding="utf-8"?>
<!-- Generator: Adobe Illustrator 14.0.0, SVG Export Plug-In . SVG Version: 6.00 Build 43363)  -->
<!DOCTYPE svg PUBLIC "-//W3C//DTD SVG 1.1//EN" "http://www.w3.org/Graphics/SVG/1.1/DTD/svg11.dtd">
<svg version="1.1" id="图层_1" xmlns="http://www.w3.org/2000/svg" xmlns:xlink="http://www.w3.org/1999/xlink" x="0px" y="0px"
	 width="69.991px" height="69.607px" viewBox="0 0 69.991 69.607" enable-background="new 0 0 69.991 69.607" xml:space="preserve">
<g>
	<g>
		<linearGradient id="SVGID_1_" gradientUnits="userSpaceOnUse" x1="25.9517" y1="65.7368" x2="25.9517" y2="39.5435">
			<stop  offset="0" style="stop-color:#000000"/>
			<stop  offset="0.1835" style="stop-color:#2C2C2C"/>
			<stop  offset="0.4667" style="stop-color:#6A6A6A"/>
			<stop  offset="0.7072" style="stop-color:#979797"/>
			<stop  offset="0.8924" style="stop-color:#B2B2B2"/>
			<stop  offset="1" style="stop-color:#BDBDBD"/>
		</linearGradient>
		<polygon fill="url(#SVGID_1_)" points="10.854,65.737 52.211,45.231 41.4,39.543 -0.308,60.03 		"/>
		<linearGradient id="SVGID_2_" gradientUnits="userSpaceOnUse" x1="3.0264" y1="43.2036" x2="18.9542" y2="43.2036">
			<stop  offset="0" style="stop-color:#B0B0B0"/>
			<stop  offset="0.9033" style="stop-color:#D5D5D5"/>
			<stop  offset="1" style="stop-color:#D9D9D9"/>
		</linearGradient>
		<polygon fill="url(#SVGID_2_)" points="3.026,24.451 6.078,25.939 6.283,61.956 3.298,60.354 		"/>
		<linearGradient id="SVGID_3_" gradientUnits="userSpaceOnUse" x1="24.7603" y1="25.939" x2="24.7603" y2="4.1538">
			<stop  offset="0" style="stop-color:#F0F0F0"/>
			<stop  offset="1" style="stop-color:#DBDBDB"/>
		</linearGradient>
		<polygon fill="url(#SVGID_3_)" points="6.078,25.939 46.494,5.551 43.622,4.154 3.026,24.451 		"/>
		<linearGradient id="SVGID_4_" gradientUnits="userSpaceOnUse" x1="6.0781" y1="33.7534" x2="204.4961" y2="33.7534">
			<stop  offset="0" style="stop-color:#B0B0B0"/>
			<stop  offset="0.9033" style="stop-color:#D5D5D5"/>
			<stop  offset="1" style="stop-color:#D9D9D9"/>
		</linearGradient>
		<polygon fill="url(#SVGID_4_)" points="6.078,25.939 46.494,5.551 46.649,41.256 6.283,61.956 		"/>
		<linearGradient id="SVGID_5_" gradientUnits="userSpaceOnUse" x1="0.187" y1="60.0669" x2="52.9257" y2="60.0669">
			<stop  offset="0" style="stop-color:#B0B0B0"/>
			<stop  offset="0.9033" style="stop-color:#D5D5D5"/>
			<stop  offset="1" style="stop-color:#D9D9D9"/>
		</linearGradient>
		<polygon fill="url(#SVGID_5_)" points="0.194,55.629 10.971,61.258 10.965,64.504 0.187,58.754 		"/>
		<linearGradient id="SVGID_6_" gradientUnits="userSpaceOnUse" x1="28.8359" y1="61.2583" x2="28.8359" y2="38.6177">
			<stop  offset="0" style="stop-color:#FFFFFF"/>
			<stop  offset="1" style="stop-color:#E8E8E8"/>
		</linearGradient>
		<polygon fill="url(#SVGID_6_)" points="10.971,61.258 51.386,40.87 46.649,38.618 6.286,58.721 		"/>
		<linearGradient id="SVGID_7_" gradientUnits="userSpaceOnUse" x1="10.3242" y1="52.7163" x2="318.1777" y2="52.7163">
			<stop  offset="0" style="stop-color:#D9D9D9"/>
			<stop  offset="0.0075" style="stop-color:#D7D7D7"/>
			<stop  offset="0.2563" style="stop-color:#A1A1A1"/>
			<stop  offset="0.4883" style="stop-color:#777777"/>
			<stop  offset="0.6968" style="stop-color:#595959"/>
			<stop  offset="0.8744" style="stop-color:#464646"/>
			<stop  offset="1" style="stop-color:#404040"/>
		</linearGradient>
		<polygon fill="url(#SVGID_7_)" points="10.971,61.258 51.386,40.87 51.386,44.18 10.982,64.563 		"/>
		<linearGradient id="SVGID_8_" gradientUnits="userSpaceOnUse" x1="97.9531" y1="76.9565" x2="12.3269" y2="22.9087">
			<stop  offset="0" style="stop-color:#691B11"/>
			<stop  offset="1" style="stop-color:#B12523"/>
		</linearGradient>
		<polygon fill="url(#SVGID_8_)" points="9.261,27.429 43.88,10.028 44.007,36.932 9.43,53.875 		"/>
		<linearGradient id="SVGID_9_" gradientUnits="userSpaceOnUse" x1="46.8125" y1="33.5835" x2="37.206" y2="32.7356">
			<stop  offset="0" style="stop-color:#F9BE00"/>
			<stop  offset="1" style="stop-color:#EA6000"/>
		</linearGradient>
		<polygon fill="url(#SVGID_9_)" points="9.261,27.37 43.471,10.207 43.595,36.655 9.428,53.366 		"/>
		<linearGradient id="SVGID_10_" gradientUnits="userSpaceOnUse" x1="4.9678" y1="30.9927" x2="16.5476" y2="18.8034">
			<stop  offset="0" style="stop-color:#E96C1D"/>
			<stop  offset="1" style="stop-color:#B12523"/>
		</linearGradient>
		<polygon fill="url(#SVGID_10_)" points="12.283,22.095 12.283,24.647 8.499,26.403 8.499,31.941 6.181,32.809 6.181,25.051 		"/>
		<linearGradient id="SVGID_11_" gradientUnits="userSpaceOnUse" x1="0.9502" y1="30.0259" x2="15.0389" y2="22.429">
			<stop  offset="0" style="stop-color:#C76628"/>
			<stop  offset="1" style="stop-color:#B12523"/>
		</linearGradient>
		<polygon fill="url(#SVGID_11_)" points="2.594,23.537 6.181,25.051 6.181,32.809 2.616,31.279 		"/>
		<linearGradient id="SVGID_12_" gradientUnits="userSpaceOnUse" x1="2.2236" y1="25.6284" x2="23.5266" y2="14.1415">
			<stop  offset="0" style="stop-color:#E96C1D"/>
			<stop  offset="1" style="stop-color:#B12523"/>
		</linearGradient>
		<polygon fill="url(#SVGID_12_)" points="8.957,20.866 2.594,23.537 6.181,25.051 12.283,22.095 		"/>
		<polygon fill="#656565" points="37.379,6.746 37.36,7.26 40.464,8.477 40.464,10.679 40.914,10.78 40.835,8.002 		"/>
		<polygon fill="#656565" points="45.115,8.712 45.115,13.68 45.518,13.782 45.518,8.498 		"/>
		<linearGradient id="SVGID_13_" gradientUnits="userSpaceOnUse" x1="36.8545" y1="8.6953" x2="59.2622" y2="-3.3873">
			<stop  offset="0" style="stop-color:#E96C1D"/>
			<stop  offset="1" style="stop-color:#B12523"/>
		</linearGradient>
		<polygon fill="url(#SVGID_13_)" points="37.379,6.746 43.606,3.87 47.301,4.728 40.835,8.002 		"/>
		<linearGradient id="SVGID_14_" gradientUnits="userSpaceOnUse" x1="42.6055" y1="11.8994" x2="51.1053" y2="2.9522">
			<stop  offset="0" style="stop-color:#E96C1D"/>
			<stop  offset="1" style="stop-color:#B12523"/>
		</linearGradient>
		<polygon fill="url(#SVGID_14_)" points="47.301,4.728 47.318,12.699 45.518,13.782 45.518,8.498 40.914,10.78 40.835,8.002 		"/>
		<linearGradient id="SVGID_15_" gradientUnits="userSpaceOnUse" x1="0.145" y1="55.814" x2="23.5883" y2="55.814">
			<stop  offset="0" style="stop-color:#D9D9D9"/>
			<stop  offset="0.0075" style="stop-color:#D7D7D7"/>
			<stop  offset="0.2563" style="stop-color:#A1A1A1"/>
			<stop  offset="0.4883" style="stop-color:#777777"/>
			<stop  offset="0.6968" style="stop-color:#595959"/>
			<stop  offset="0.8744" style="stop-color:#464646"/>
			<stop  offset="1" style="stop-color:#404040"/>
		</linearGradient>
		<polygon fill="url(#SVGID_15_)" points="0.194,55.629 3.272,57.237 3.234,54.391 		"/>
	</g>
	<g>
		<linearGradient id="SVGID_16_" gradientUnits="userSpaceOnUse" x1="45.2783" y1="42.147" x2="28.906" y2="49.075">
			<stop  offset="0" style="stop-color:#EBEBEB"/>
			<stop  offset="0.1956" style="stop-color:#E0E0E0"/>
			<stop  offset="0.5403" style="stop-color:#C2C2C2"/>
			<stop  offset="0.9908" style="stop-color:#929292"/>
			<stop  offset="1" style="stop-color:#919191"/>
		</linearGradient>
		<path fill="url(#SVGID_16_)" d="M44.929,41.44c-0.577-0.83-1.594-1.121-2.274-0.648l-12.914,6.482
			c-0.104,0.037-0.204,0.084-0.296,0.148c-0.681,0.469-0.766,1.525-0.189,2.355s1.593,1.123,2.273,0.652l13.21-6.633
			C45.42,43.327,45.503,42.272,44.929,41.44z"/>
		<g>
			
				<linearGradient id="SVGID_17_" gradientUnits="userSpaceOnUse" x1="-15.688" y1="-203.1274" x2="-15.2015" y2="-206.8241" gradientTransform="matrix(0.7366 -0.5106 0.5697 0.8219 164.0513 205.8984)">
				<stop  offset="0" style="stop-color:#ABABAB"/>
				<stop  offset="0.137" style="stop-color:#C6C6C6"/>
				<stop  offset="0.3251" style="stop-color:#E5E5E5"/>
				<stop  offset="0.4847" style="stop-color:#F8F8F8"/>
				<stop  offset="0.5955" style="stop-color:#FFFFFF"/>
				<stop  offset="0.8994" style="stop-color:#E9E9E9"/>
				<stop  offset="1" style="stop-color:#E0E0E0"/>
			</linearGradient>
			<path fill="url(#SVGID_17_)" d="M30.338,50.135c-0.681,0.471-1.698,0.18-2.274-0.65c-0.576-0.832-0.492-1.889,0.189-2.357
				l13.208-6.633c0.681-0.471,1.699-0.18,2.274,0.652s0.492,1.887-0.188,2.357L30.338,50.135z"/>
			
				<linearGradient id="SVGID_18_" gradientUnits="userSpaceOnUse" x1="-22.0469" y1="-206.6738" x2="-25.1717" y2="-205.3515" gradientTransform="matrix(0.7366 -0.5106 0.5697 0.8219 164.0513 205.8984)">
				<stop  offset="0" style="stop-color:#EBEBEB"/>
				<stop  offset="0.1956" style="stop-color:#E0E0E0"/>
				<stop  offset="0.5403" style="stop-color:#C2C2C2"/>
				<stop  offset="0.9908" style="stop-color:#929292"/>
				<stop  offset="1" style="stop-color:#919191"/>
			</linearGradient>
			<path fill="url(#SVGID_18_)" d="M30.526,47.78c0.576,0.83,0.492,1.885-0.188,2.355c-0.681,0.471-1.698,0.18-2.274-0.65
				c-0.576-0.832-0.492-1.889,0.189-2.357C28.932,46.655,29.949,46.946,30.526,47.78z"/>
		</g>
	</g>
	<g>
		<path fill="#E6E6E6" d="M49.283,35.079c0.039-0.108,0.123-0.212,0.232-0.31v-1.307l1.244,0.637h0.001l-1.245-0.637l6.894-3.396
			l3.554,1.76c0.655-0.079,1.063-0.045,1.063-0.045l3.879,1.895c-0.089,0-0.167,0.009-0.255,0.012l0.328,0.163l-0.453,0.233
			l4.828,2.386l-1.475,0.787l0.028,0.012l1.446-0.764l-0.023,1.494c0.563,0.346,0.969,1.076,0.969,1.961
			c0,0.826-0.345,1.537-0.848,1.912c-0.026,0.021-0.057,0.043-0.085,0.063c-0.031,0.018-0.06,0.043-0.093,0.059
			c-0.028,0.02-0.053,0.039-0.087,0.057l-4.884,2.596c-0.748,0.396-1.98,0.406-2.736,0.021l-11.694-5.975
			c-0.273-0.139-0.444-0.311-0.52-0.486c-0.329-0.402-0.54-0.977-0.54-1.619C48.813,35.995,48.999,35.471,49.283,35.079z"/>
		<linearGradient id="SVGID_19_" gradientUnits="userSpaceOnUse" x1="59.9678" y1="25.8584" x2="58.1545" y2="39.7059">
			<stop  offset="0" style="stop-color:#E50012"/>
			<stop  offset="1" style="stop-color:#EA6000"/>
		</linearGradient>
		<path fill="url(#SVGID_19_)" d="M48.282,37.114c0.075,0.176,0.246,0.346,0.519,0.486l11.694,5.973
			c0.757,0.387,1.986,0.377,2.737-0.02l4.884-2.596c0.033-0.018,0.058-0.039,0.088-0.057s0.061-0.039,0.092-0.061
			c0.027-0.018,0.06-0.039,0.084-0.061c0.503-0.375,0.849-1.084,0.849-1.91c0-1.02-0.521-1.867-1.224-2.115l-11.533-5.688
			c-0.761-0.374-2.008-0.376-2.769-0.002l-4.642,2.279c-0.752,0.2-1.319,1.085-1.319,2.152
			C47.742,36.137,47.952,36.711,48.282,37.114z M60.495,40.823l-6.199-3.168c0.783-0.166,1.388-1.066,1.388-2.16
			c0-0.841-0.358-1.562-0.878-1.931c0.595-0.042,1.213,0.033,1.666,0.256l5.992,2.954c-0.68,0.27-1.177,1.1-1.177,2.096
			c0,1.066,0.57,1.953,1.322,2.15C61.907,41.178,61.067,41.114,60.495,40.823z"/>
		<g>
			
				<linearGradient id="SVGID_20_" gradientUnits="userSpaceOnUse" x1="-18.0688" y1="41.1343" x2="-18.0688" y2="30.7788" gradientTransform="matrix(-1 0 0 1 40.3281 0)">
				<stop  offset="0" style="stop-color:#FFFFFF"/>
				<stop  offset="1" style="stop-color:#E8E8E8"/>
			</linearGradient>
			<path fill="url(#SVGID_20_)" d="M63.178,40.829c-0.75,0.398-1.983,0.408-2.74,0.023l-11.694-5.997
				c-0.758-0.388-0.751-1.012,0.011-1.386l4.892-2.409c0.763-0.376,2.009-0.374,2.769,0.002l11.624,5.75
				c0.762,0.377,0.771,1.014,0.022,1.414L63.178,40.829z"/>
		</g>
		
			<linearGradient id="SVGID_21_" gradientUnits="userSpaceOnUse" x1="-28.0649" y1="38.2378" x2="24.1701" y2="38.2378" gradientTransform="matrix(-1 0 0 1 40.3281 0)">
			<stop  offset="0" style="stop-color:#D9D9D9"/>
			<stop  offset="0.0075" style="stop-color:#D7D7D7"/>
			<stop  offset="0.2563" style="stop-color:#A1A1A1"/>
			<stop  offset="0.4883" style="stop-color:#777777"/>
			<stop  offset="0.6968" style="stop-color:#595959"/>
			<stop  offset="0.8744" style="stop-color:#464646"/>
			<stop  offset="1" style="stop-color:#404040"/>
		</linearGradient>
		<polygon fill="url(#SVGID_21_)" points="68.283,35.415 61.438,39.028 61.426,41.061 68.248,37.598 		"/>
		
			<linearGradient id="SVGID_22_" gradientUnits="userSpaceOnUse" x1="-18.0356" y1="39.0278" x2="-18.0356" y2="28.9761" gradientTransform="matrix(-1 0 0 1 40.3281 0)">
			<stop  offset="0" style="stop-color:#FFFFFF"/>
			<stop  offset="1" style="stop-color:#E8E8E8"/>
		</linearGradient>
		<polygon fill="url(#SVGID_22_)" points="61.438,39.028 48.444,32.369 55.339,28.976 68.283,35.377 		"/>
		
			<linearGradient id="SVGID_23_" gradientUnits="userSpaceOnUse" x1="-21.1094" y1="36.7153" x2="42.435" y2="36.7153" gradientTransform="matrix(-1 0 0 1 40.3281 0)">
			<stop  offset="0" style="stop-color:#B0B0B0"/>
			<stop  offset="0.9033" style="stop-color:#D5D5D5"/>
			<stop  offset="1" style="stop-color:#D9D9D9"/>
		</linearGradient>
		<polygon fill="url(#SVGID_23_)" points="61.438,39.028 48.444,32.369 48.444,34.449 61.426,41.061 		"/>
		
			<linearGradient id="SVGID_24_" gradientUnits="userSpaceOnUse" x1="-17.9658" y1="39.3423" x2="-17.9658" y2="30.938" gradientTransform="matrix(-1 0 0 1 40.3281 0)">
			<stop  offset="0" style="stop-color:#000000"/>
			<stop  offset="0.2046" style="stop-color:#1E1E1E"/>
			<stop  offset="0.647" style="stop-color:#6A6A6A"/>
			<stop  offset="1" style="stop-color:#ABABAB"/>
		</linearGradient>
		<polygon opacity="0.68" fill="url(#SVGID_24_)" points="63.908,32.759 56.325,36.639 56.208,39.342 52.68,37.637 52.68,34.759 
			60.265,30.938 		"/>
		
			<linearGradient id="SVGID_25_" gradientUnits="userSpaceOnUse" x1="-16.7954" y1="27.2559" x2="-18.0112" y2="36.5404" gradientTransform="matrix(-1 0 0 1 40.3281 0)">
			<stop  offset="0" style="stop-color:#E50012"/>
			<stop  offset="1" style="stop-color:#EA6000"/>
		</linearGradient>
		<path fill="url(#SVGID_25_)" d="M55.99,39.329l0.1-2.924c0,0,1.926-3.776,7.745-3.822l-3.881-1.895c0,0-4.26-0.354-7.493,3.923
			v2.954L55.99,39.329z"/>
	</g>
	<polygon fill="#E6E6E6" points="11.874,28.941 11.874,30.478 41.247,16.197 41.247,14.751 	"/>
	<polygon fill="#E6E6E6" points="11.874,32.286 11.874,33.821 41.247,19.541 41.247,18.096 	"/>
	<polygon fill="#E6E6E6" points="11.874,35.809 11.874,37.346 41.247,23.066 41.247,21.62 	"/>
</g>
</svg>
