<?xml version="1.0" encoding="utf-8"?>
<!-- Generator: Adobe Illustrator 14.0.0, SVG Export Plug-In . SVG Version: 6.00 Build 43363)  -->
<!DOCTYPE svg PUBLIC "-//W3C//DTD SVG 1.1//EN" "http://www.w3.org/Graphics/SVG/1.1/DTD/svg11.dtd">
<svg version="1.1" id="图层_1" xmlns="http://www.w3.org/2000/svg" xmlns:xlink="http://www.w3.org/1999/xlink" x="0px" y="0px"
	 width="69.991px" height="69.607px" viewBox="0 0 69.991 69.607" enable-background="new 0 0 69.991 69.607" xml:space="preserve">
<g>
	<linearGradient id="SVGID_1_" gradientUnits="userSpaceOnUse" x1="39.834" y1="4.1235" x2="36.6357" y2="41.221">
		<stop  offset="0" style="stop-color:#FFFFFF"/>
		<stop  offset="0.4396" style="stop-color:#A9CBEB"/>
		<stop  offset="1" style="stop-color:#6A8FCA"/>
	</linearGradient>
	<path fill="url(#SVGID_1_)" d="M68.749,64.761c0-20.886-13.642-28.671-30.474-28.671h-7.174c-16.83,0-30.474,6.448-30.474,28.671
		v0.261c0,0,0.741,0.971,6.658,1.85l3.797-8.183c0,0-1.64-1.314-1.096-2.502c0,0,1.614,0.661,3.945,1.154
		c-1.128,5.008-1.751,8.138-2.097,10.072c5.118,0.487,12.545,0.854,23.318,0.854c9.969,0,17.037-0.374,22.03-0.867
		c-0.348-1.935-0.973-5.063-2.097-10.06c2.33-0.493,3.944-1.154,3.944-1.154c0.544,1.188-1.097,2.502-1.097,2.502l3.785,8.158
		c5.799-0.873,7.03-1.825,7.03-1.825V64.761z"/>
	<linearGradient id="SVGID_2_" gradientUnits="userSpaceOnUse" x1="58.4023" y1="88.9321" x2="58.4023" y2="65.7024">
		<stop  offset="0" style="stop-color:#FFFFFF"/>
		<stop  offset="0.4396" style="stop-color:#A9CBEB"/>
		<stop  offset="1" style="stop-color:#6A8FCA"/>
	</linearGradient>
	<path fill="url(#SVGID_2_)" d="M59.03,56.187c0,0-1.614,0.661-3.944,1.154c1.124,4.996,1.749,8.125,2.097,10.06
		c1.76-0.173,3.258-0.362,4.536-0.554l-3.785-8.158C57.934,58.689,59.574,57.375,59.03,56.187z"/>
	<linearGradient id="SVGID_3_" gradientUnits="userSpaceOnUse" x1="35.4912" y1="93.2231" x2="34.2821" y2="44.4049">
		<stop  offset="0" style="stop-color:#FFFFFF"/>
		<stop  offset="0.4396" style="stop-color:#A9CBEB"/>
		<stop  offset="1" style="stop-color:#6A8FCA"/>
	</linearGradient>
	<path fill="url(#SVGID_3_)" d="M35.419,52.743c-11.557,0-22.271-1.461-31.089-3.957C2.04,53.035,2.424,65.862,7.138,66.578
		l3.628-7.814c-0.434-0.399-1.528-1.556-1.008-2.694l0.104-0.225l0.217,0.09c0.015,0.006,1.624,0.661,3.904,1.142l0.259,0.056
		l-0.063,0.273c-0.915,4.06-1.6,7.343-2.045,9.765c5.918,0.55,13.661,0.827,23.019,0.827c8.653,0,15.964-0.279,21.727-0.836
		c-0.444-2.428-1.128-5.706-2.041-9.756l-0.061-0.273l0.259-0.056c2.281-0.48,3.889-1.136,3.903-1.142l0.218-0.09l0.103,0.225
		c0.52,1.139-0.574,2.295-1.011,2.694l3.617,7.79c4.605-0.709,5.294-13.432,3.123-17.353C56.471,51.44,46.318,52.743,35.419,52.743z
		"/>
	<linearGradient id="SVGID_4_" gradientUnits="userSpaceOnUse" x1="34.9053" y1="25.2314" x2="34.5909" y2="62.3142">
		<stop  offset="0" style="stop-color:#FFFFFF"/>
		<stop  offset="0.4396" style="stop-color:#A9CBEB"/>
		<stop  offset="1" style="stop-color:#6A8FCA"/>
	</linearGradient>
	<path fill="url(#SVGID_4_)" d="M34.239,39.387c11.764,0,22.337,3.096,29.644,8.019c-6.325-9.277-17.798-11.047-25.607-11.047
		h-7.174c-9.239,0-16.437,2.001-21.395,5.948c-1.603,1.276-2.979,2.777-4.149,4.481C12.817,42.226,22.981,39.387,34.239,39.387z"/>
	<linearGradient id="SVGID_5_" gradientUnits="userSpaceOnUse" x1="35.7354" y1="60.2085" x2="35.2551" y2="44.3228">
		<stop  offset="0" style="stop-color:#FFFFFF"/>
		<stop  offset="0.4396" style="stop-color:#87A6C5"/>
		<stop  offset="1" style="stop-color:#4C71A4"/>
	</linearGradient>
	<path fill="url(#SVGID_5_)" d="M36.472,45.936c5.503,0,10.281-3.472,12.692-8.565c-3.38-0.871-7.052-1.28-10.889-1.28h-7.174
		c-3.573,0-7,0.294-10.186,0.964C24.541,47.087,36.472,45.936,36.472,45.936z"/>
	<linearGradient id="SVGID_6_" gradientUnits="userSpaceOnUse" x1="10.6089" y1="88.9321" x2="10.6089" y2="65.7025">
		<stop  offset="0" style="stop-color:#FFFFFF"/>
		<stop  offset="0.4396" style="stop-color:#A9CBEB"/>
		<stop  offset="1" style="stop-color:#6A8FCA"/>
	</linearGradient>
	<path fill="url(#SVGID_6_)" d="M9.987,56.187c-0.544,1.188,1.096,2.502,1.096,2.502l-3.797,8.183
		c1.264,0.19,2.768,0.372,4.549,0.542c0.346-1.935,0.969-5.064,2.097-10.072C11.601,56.848,9.987,56.187,9.987,56.187z"/>
	<linearGradient id="SVGID_7_" gradientUnits="userSpaceOnUse" x1="21.77" y1="89.7563" x2="29.2958" y2="69.8446">
		<stop  offset="0" style="stop-color:#FFFFFF"/>
		<stop  offset="0.4396" style="stop-color:#87A6C5"/>
		<stop  offset="1" style="stop-color:#4C71A4"/>
	</linearGradient>
	<polygon fill="url(#SVGID_7_)" points="33.592,68.268 35.396,68.268 34.962,42.547 34.108,42.547 	"/>
	
		<radialGradient id="SVGID_8_" cx="35.4824" cy="41.8276" r="22.3535" gradientTransform="matrix(1 0 0 1.0652 0 -1.7763)" gradientUnits="userSpaceOnUse">
		<stop  offset="0" style="stop-color:#B8B8B8"/>
		<stop  offset="0.0499" style="stop-color:#A8A8A8"/>
		<stop  offset="0.2246" style="stop-color:#757575"/>
		<stop  offset="0.397" style="stop-color:#4B4B4B"/>
		<stop  offset="0.5637" style="stop-color:#2A2A2A"/>
		<stop  offset="0.723" style="stop-color:#131313"/>
		<stop  offset="0.872" style="stop-color:#050505"/>
		<stop  offset="1" style="stop-color:#000000"/>
	</radialGradient>
	<path fill="url(#SVGID_8_)" d="M51.368,23.652c0,0-0.478,3.812-2.601,6.073c-28.875-0.689-28.875-0.689-28.875-0.689
		s-1.757-3.803-1.883-6.453c0.629-3.623,4.932-13.988,4.932-13.988l25.608,3.638C48.55,12.233,51.617,18.065,51.368,23.652z"/>
	<g>
		
			<radialGradient id="SVGID_9_" cx="26.6636" cy="13.708" r="79.0795" gradientTransform="matrix(0.9171 0 0 1.0652 -6.738 -1.7763)" gradientUnits="userSpaceOnUse">
			<stop  offset="0" style="stop-color:#FCE7CB"/>
			<stop  offset="0.4188" style="stop-color:#F9C67C"/>
			<stop  offset="0.7888" style="stop-color:#F2C071"/>
			<stop  offset="1" style="stop-color:#ECBC68"/>
		</radialGradient>
		<path fill="url(#SVGID_9_)" d="M49.986,28.306c0,8.963-6.257,16.231-13.974,16.231h-2.647c-7.718,0-13.973-7.269-13.973-16.231
			V17.78c0-8.962,6.255-16.23,13.973-16.23h2.647c7.717,0,13.974,7.268,13.974,16.23V28.306z"/>
		
			<radialGradient id="SVGID_10_" cx="33.3501" cy="2.75" r="81.1084" gradientTransform="matrix(0.9171 0 0 1.0652 -6.738 -1.7763)" gradientUnits="userSpaceOnUse">
			<stop  offset="0" style="stop-color:#FCE7CB"/>
			<stop  offset="0.4188" style="stop-color:#F9C67C"/>
			<stop  offset="0.7888" style="stop-color:#F2C071"/>
			<stop  offset="1" style="stop-color:#ECBC68"/>
		</radialGradient>
		<path fill="url(#SVGID_10_)" d="M34.958,29.68c-16.092,0-15.102-11.9-15.102-11.9c0-8.652,6.06-15.688,13.508-15.688h2.647
			c7.448,0,13.508,7.036,13.508,15.688C49.521,17.78,49.531,29.68,34.958,29.68z"/>
		
			<radialGradient id="SVGID_11_" cx="-437.6689" cy="-14843.6836" r="84.5908" gradientTransform="matrix(-0.904 0 0 -1.1014 -394.1626 -16271.207)" gradientUnits="userSpaceOnUse">
			<stop  offset="0" style="stop-color:#FFF9E8"/>
			<stop  offset="0.3736" style="stop-color:#FCE7CB"/>
			<stop  offset="0.7582" style="stop-color:#F9C67C"/>
			<stop  offset="0.9121" style="stop-color:#F2C071"/>
			<stop  offset="1" style="stop-color:#ECBC68"/>
		</radialGradient>
		<path fill="url(#SVGID_11_)" d="M34.464,40.387c-5.069,0-12.412-4.389-14.852-10.964c0.789,8.361,6.631,14.874,13.702,14.874
			h2.704c7.24,0,13.194-6.834,13.749-15.487C46.563,37.858,40.162,40.387,34.464,40.387z"/>
	</g>
	
		<radialGradient id="SVGID_12_" cx="28.9731" cy="-9.7227" r="42.9341" gradientTransform="matrix(1 0 0 1.0652 0 -1.7763)" gradientUnits="userSpaceOnUse">
		<stop  offset="0" style="stop-color:#B8B8B8"/>
		<stop  offset="0.0499" style="stop-color:#A8A8A8"/>
		<stop  offset="0.2246" style="stop-color:#757575"/>
		<stop  offset="0.397" style="stop-color:#4B4B4B"/>
		<stop  offset="0.5637" style="stop-color:#2A2A2A"/>
		<stop  offset="0.723" style="stop-color:#131313"/>
		<stop  offset="0.872" style="stop-color:#050505"/>
		<stop  offset="1" style="stop-color:#000000"/>
	</radialGradient>
	<path fill="url(#SVGID_12_)" d="M50.575,7.587c-2.265-2.412-5.877-6.132-14.688-6.496C29.75,0.856,23.618,3.015,21.036,4.984
		c-3.427,5.315-3.324,14.056-3.026,17.599c2.907-9.633,6.479-11.891,6.479-11.891s3.285,5.685,13.947,6.035l-3.864-4.54l7.268,4.475
		c0.134-0.009,0.264-0.016,0.398-0.024c3.593-0.281,5.804,0.251,5.804,0.251c3.066,0.749,3.327,6.763,3.327,6.763
		S52.761,14.458,50.575,7.587z"/>
	
		<radialGradient id="SVGID_13_" cx="30.8413" cy="-4.4731" r="59.2427" gradientTransform="matrix(1 0 0 1.0652 0 -1.7763)" gradientUnits="userSpaceOnUse">
		<stop  offset="0" style="stop-color:#B8B8B8"/>
		<stop  offset="0.0499" style="stop-color:#A8A8A8"/>
		<stop  offset="0.2246" style="stop-color:#757575"/>
		<stop  offset="0.397" style="stop-color:#4B4B4B"/>
		<stop  offset="0.5637" style="stop-color:#2A2A2A"/>
		<stop  offset="0.723" style="stop-color:#131313"/>
		<stop  offset="0.872" style="stop-color:#050505"/>
		<stop  offset="1" style="stop-color:#000000"/>
	</radialGradient>
	<path fill="url(#SVGID_13_)" d="M34.329,4.989c6.593,0,14.893,1.218,16.91,6.95c-0.186-1.436-0.465-2.867-0.887-4.204
		c-2.127-2.27-5.694-6.01-14.476-6.375c-0.305-0.01-0.61-0.016-0.917-0.016c-5.634,0-11.268,1.97-13.738,3.834
		C20.153,6.848,28.495,4.989,34.329,4.989z"/>
</g>
</svg>
