<?xml version="1.0" encoding="UTF-8" standalone="no"?>
<!DOCTYPE svg PUBLIC "-//W3C//DTD SVG 1.0//EN" "http://www.w3.org/TR/2001/REC-SVG-20010904/DTD/svg10.dtd">
<!-- 由 Microsoft Visio 11.0, SVG Export, v1.0 生成 EMRAbstractMachineType.svg 页-1 -->
<svg xmlns="http://www.w3.org/2000/svg" xmlns:v="http://schemas.microsoft.com/visio/2003/SVGExtensions/" width="14.7844in"
		height="12.4616in" viewBox="0 0 1064.48 897.233" xml:space="preserve" color-interpolation-filters="sRGB" class="st10">
	<v:documentProperties v:langID="2052" v:metric="true" v:viewMarkup="false"/>

	<style type="text/css">
	<![CDATA[
		.st1 {fill:#e8eef7;stroke:#000000;stroke-linecap:round;stroke-linejoin:round;stroke-width:2.16}
		.st2 {fill:#595959;stroke:#000000;stroke-linecap:round;stroke-linejoin:round;stroke-width:0.24}
		.st3 {fill:#00b0f0;stroke:#000000;stroke-linecap:round;stroke-linejoin:round;stroke-width:0.24}
		.st4 {fill:#595959;stroke:#ffffff;stroke-linecap:round;stroke-linejoin:round;stroke-width:0.24}
		.st5 {fill:none}
		.st6 {stroke:#000000;stroke-linecap:round;stroke-linejoin:round;stroke-width:4.08}
		.st7 {stroke:#000000;stroke-linecap:round;stroke-linejoin:round;stroke-width:0.239976}
		.st8 {fill:#688037;stroke:#000000;stroke-linecap:round;stroke-linejoin:round;stroke-width:3.12}
		.st9 {fill:#e8eef7;stroke:#000000;stroke-linecap:round;stroke-linejoin:round;stroke-width:0.24}
		.st10 {fill:none;fill-rule:evenodd;font-size:12;overflow:visible;stroke-linecap:square;stroke-miterlimit:3}
	]]>
	</style>

	<g v:mID="0" v:index="1" v:groupContext="foregroundPage">
		<title>页-1</title>
		<v:pageProperties v:drawingScale="0.0393701" v:pageScale="0.0393701" v:drawingUnits="24" v:shadowOffsetX="8.50394"
				v:shadowOffsetY="-8.50394"/>
		<v:layer v:name="连接线" v:index="0"/>
		<g id="group23-1" transform="translate(2.16,-2.16)" v:mID="23" v:groupContext="group">
			<title>工作表.23</title>
			<g id="shape1-2" v:mID="1" v:groupContext="shape">
				<title>矩形</title>
				<v:userDefs>
					<v:ud v:nameU="visVersion" v:val="VT0(12):26"/>
				</v:userDefs>
				<rect x="0" y="4.32" width="1060.16" height="892.913" class="st1"/>
			</g>
			<g id="group2-4" transform="translate(31.1817,-39.6848)" v:mID="2" v:groupContext="group">
				<title>工作表.21</title>
				<g id="shape3-5" v:mID="3" v:groupContext="shape" transform="translate(344.136,-456.329)">
					<title>正方形</title>
					<v:userDefs>
						<v:ud v:nameU="visVersion" v:val="VT0(12):26"/>
					</v:userDefs>
					<rect x="0" y="514.507" width="447.377" height="382.727" class="st2"/>
				</g>
				<g id="shape4-7" v:mID="4" v:groupContext="shape" transform="translate(395.756,-500.49)">
					<title>正方形.2</title>
					<v:userDefs>
						<v:ud v:nameU="visVersion" v:val="VT0(12):26"/>
					</v:userDefs>
					<rect x="0" y="602.829" width="344.136" height="294.405" class="st3"/>
				</g>
				<g id="shape5-9" v:mID="5" v:groupContext="shape" transform="translate(189.275,-279.686)">
					<title>矩形</title>
					<v:userDefs>
						<v:ud v:nameU="visVersion" v:val="VT0(12):26"/>
					</v:userDefs>
					<rect x="0" y="720.591" width="774.305" height="176.643" class="st4"/>
				</g>
				<g id="shape6-11" v:mID="6" v:groupContext="shape" v:layerMember="0"
						transform="translate(-341.259,-137.719) rotate(-49.8283) scale(-1,1)">
					<title>直线-曲线连接线</title>
					<v:userDefs>
						<v:ud v:nameU="AntiScale" v:val="VT0(1):26"/>
						<v:ud v:nameU="Scale" v:val="VT0(1):26"/>
						<v:ud v:nameU="visVersion" v:val="VT0(12):26"/>
					</v:userDefs>
					<path d="M0 896.98 L6.62 897 L13.17 897.02 L19.65 897.04 L26.06 897.06 L32.4 897.07 L38.66 897.09 L44.86 897.11
								 L50.98 897.12 L57.04 897.14 L63.02 897.15 L68.93 897.16 L74.77 897.17 L80.54 897.18 L86.24 897.19
								 L91.87 897.2 L97.43 897.21 L102.91 897.21 L108.33 897.22 L113.67 897.22 L118.95 897.23 L124.15 897.23
								 L129.28 897.23 L134.34 897.23 L139.33 897.23 L144.25 897.23 L149.1 897.23 L153.88 897.22 L158.58
								 897.22 L163.22 897.21 L167.78 897.21 L172.28 897.2 L176.7 897.19 L181.05 897.18 L185.33 897.17 L189.54
								 897.16 L193.68 897.15 L197.75 897.14 L201.75 897.12 L205.67 897.11 L209.53 897.09 L213.31 897.07
								 L217.03 897.06 L220.67 897.04 L224.24 897.02 L227.74 897 L231.17 896.98 L0 896.98 Z" class="st5"/>
					<path d="M0 896.98 L6.62 897 L13.17 897.02 L19.65 897.04 L26.06 897.06 L32.4 897.07 L38.66 897.09 L44.86 897.11
								 L50.98 897.12 L57.04 897.14 L63.02 897.15 L68.93 897.16 L74.77 897.17 L80.54 897.18 L86.24 897.19
								 L91.87 897.2 L97.43 897.21 L102.91 897.21 L108.33 897.22 L113.67 897.22 L118.95 897.23 L124.15 897.23
								 L129.28 897.23 L134.34 897.23 L139.33 897.23 L144.25 897.23 L149.1 897.23 L153.88 897.22 L158.58
								 897.22 L163.22 897.21 L167.78 897.21 L172.28 897.2 L176.7 897.19 L181.05 897.18 L185.33 897.17 L189.54
								 897.16 L193.68 897.15 L197.75 897.14 L201.75 897.12 L205.67 897.11 L209.53 897.09 L213.31 897.07
								 L217.03 897.06 L220.67 897.04 L224.24 897.02 L227.74 897 L231.17 896.98" class="st6"/>
				</g>
				<g id="shape7-14" v:mID="7" v:groupContext="shape" v:layerMember="0"
						transform="translate(1434.21,-185.153) rotate(45.7517)">
					<title>直线-曲线连接线.5</title>
					<v:userDefs>
						<v:ud v:nameU="AntiScale" v:val="VT0(1):26"/>
						<v:ud v:nameU="Scale" v:val="VT0(1):26"/>
						<v:ud v:nameU="visVersion" v:val="VT0(12):26"/>
					</v:userDefs>
					<path d="M0 897.23 L6.13 896.9 L12.19 896.58 L18.18 896.27 L24.1 895.98 L29.95 895.7 L35.73 895.42 L41.44 895.16
								 L47.08 894.91 L52.65 894.67 L58.16 894.44 L63.59 894.22 L68.95 894.01 L74.25 893.82 L79.47 893.63
								 L84.63 893.46 L89.71 893.29 L94.73 893.14 L99.67 893 L104.55 892.87 L109.36 892.75 L114.1 892.64
								 L118.77 892.54 L123.36 892.45 L127.89 892.37 L132.35 892.31 L136.74 892.25 L141.06 892.21 L145.32
								 892.18 L149.5 892.16 L153.61 892.15 L157.65 892.15 L161.62 892.16 L165.53 892.18 L169.36 892.21
								 L173.13 892.25 L176.82 892.31 L180.45 892.37 L184 892.45 L187.49 892.54 L190.91 892.64 L194.25 892.75
								 L197.53 892.87 L200.74 893 L203.88 893.14 L206.95 893.29 L209.95 893.46 L212.88 893.63 L215.74 893.82
								 L218.53 894.01 L221.25 894.22 L223.9 894.44 L226.48 894.67 L229 894.91 L231.44 895.16 L233.81 895.42
								 L236.12 895.7 L238.35 895.98 L240.52 896.27 L242.61 896.58 L244.64 896.9 L246.6 897.23 L0 897.23
								 Z" class="st5"/>
					<path d="M0 897.23 L6.13 896.9 L12.19 896.58 L18.18 896.27 L24.1 895.98 L29.95 895.7 L35.73 895.42 L41.44 895.16
								 L47.08 894.91 L52.65 894.67 L58.16 894.44 L63.59 894.22 L68.95 894.01 L74.25 893.82 L79.47 893.63
								 L84.63 893.46 L89.71 893.29 L94.73 893.14 L99.67 893 L104.55 892.87 L109.36 892.75 L114.1 892.64
								 L118.77 892.54 L123.36 892.45 L127.89 892.37 L132.35 892.31 L136.74 892.25 L141.06 892.21 L145.32
								 892.18 L149.5 892.16 L153.61 892.15 L157.65 892.15 L161.62 892.16 L165.53 892.18 L169.36 892.21
								 L173.13 892.25 L176.82 892.31 L180.45 892.37 L184 892.45 L187.49 892.54 L190.91 892.64 L194.25 892.75
								 L197.53 892.87 L200.74 893 L203.88 893.14 L206.95 893.29 L209.95 893.46 L212.88 893.63 L215.74 893.82
								 L218.53 894.01 L221.25 894.22 L223.9 894.44 L226.48 894.67 L229 894.91 L231.44 895.16 L233.81 895.42
								 L236.12 895.7 L238.35 895.98 L240.52 896.27 L242.61 896.58 L244.64 896.9 L246.6 897.23"
							class="st6"/>
				</g>
				<g id="shape8-17" v:mID="8" v:groupContext="shape" v:layerMember="0" transform="translate(206.482,-279.681)">
					<title>直线-曲线连接线.6</title>
					<v:userDefs>
						<v:ud v:nameU="AntiScale" v:val="VT0(1):26"/>
						<v:ud v:nameU="Scale" v:val="VT0(1):26"/>
						<v:ud v:nameU="visVersion" v:val="VT0(12):26"/>
					</v:userDefs>
					<path d="M0 897.23 L22.62 897.23 L45.3 897.23 L68.05 897.23 L90.87 897.23 L113.76 897.23 L136.71 897.23 L159.73
								 897.23 L182.82 897.23 L205.98 897.23 L229.2 897.23 L252.49 897.23 L275.85 897.23 L299.27 897.23
								 L322.76 897.23 L346.32 897.23 L369.95 897.23 L393.64 897.23 L417.4 897.23 L441.23 897.23 L465.12
								 897.23 L489.08 897.23 L513.11 897.23 L537.21 897.23 L561.37 897.23 L585.6 897.23 L609.9 897.23 L634.27
								 897.23 L658.7 897.23 L683.2 897.23 L707.76 897.23 L732.4 897.23 L757.1 897.23 L0 897.23 Z"
							class="st5"/>
					<path d="M0 897.23 L22.62 897.23 L45.3 897.23 L68.05 897.23 L90.87 897.23 L113.76 897.23 L136.71 897.23 L159.73
								 897.23 L182.82 897.23 L205.98 897.23 L229.2 897.23 L252.49 897.23 L275.85 897.23 L299.27 897.23
								 L322.76 897.23 L346.32 897.23 L369.95 897.23 L393.64 897.23 L417.4 897.23 L441.23 897.23 L465.12
								 897.23 L489.08 897.23 L513.11 897.23 L537.21 897.23 L561.37 897.23 L585.6 897.23 L609.9 897.23 L634.27
								 897.23 L658.7 897.23 L683.2 897.23 L707.76 897.23 L732.4 897.23 L757.1 897.23" class="st7"/>
				</g>
				<g id="shape9-20" v:mID="9" v:groupContext="shape">
					<title>矩形.7</title>
					<v:userDefs>
						<v:ud v:nameU="visVersion" v:val="VT0(12):26"/>
					</v:userDefs>
					<rect x="0" y="308.423" width="172.068" height="588.811" class="st8"/>
				</g>
				<g id="shape10-22" v:mID="10" v:groupContext="shape" transform="translate(137.654,-95.6826)">
					<title>矩形.8</title>
					<v:userDefs>
						<v:ud v:nameU="visVersion" v:val="VT0(12):26"/>
					</v:userDefs>
					<rect x="0" y="794.191" width="688.272" height="103.042" class="st8"/>
				</g>
				<g id="shape11-24" v:mID="11" v:groupContext="shape" transform="translate(817.322,-40.4817)">
					<title>矩形.9</title>
					<v:userDefs>
						<v:ud v:nameU="visVersion" v:val="VT0(12):26"/>
					</v:userDefs>
					<rect x="0" y="713.231" width="120.448" height="184.003" class="st8"/>
				</g>
				<g id="shape12-26" v:mID="12" v:groupContext="shape" transform="translate(688.272,-287.046)">
					<title>矩形.18</title>
					<v:userDefs>
						<v:ud v:nameU="visVersion" v:val="VT0(12):26"/>
					</v:userDefs>
					<rect x="0" y="727.951" width="86.0339" height="169.283" class="st9"/>
				</g>
				<g id="shape13-28" v:mID="13" v:groupContext="shape" transform="translate(757.098,-264.966)">
					<title>矩形.10</title>
					<v:userDefs>
						<v:ud v:nameU="visVersion" v:val="VT0(12):26"/>
					</v:userDefs>
					<rect x="0" y="860.433" width="223.688" height="36.8007" class="st8"/>
				</g>
				<g id="shape14-30" v:mID="14" v:groupContext="shape" transform="translate(851.735,-206.085)">
					<title>矩形.11</title>
					<v:userDefs>
						<v:ud v:nameU="visVersion" v:val="VT0(12):26"/>
					</v:userDefs>
					<rect x="0" y="838.352" width="51.6204" height="58.8811" class="st8"/>
				</g>
				<g id="shape15-32" v:mID="15" v:groupContext="shape" transform="translate(137.654,-434.248)">
					<title>矩形.12</title>
					<v:userDefs>
						<v:ud v:nameU="visVersion" v:val="VT0(12):26"/>
					</v:userDefs>
					<rect x="0" y="830.992" width="120.448" height="66.2412" class="st8"/>
				</g>
				<g id="shape16-34" v:mID="16" v:groupContext="shape" transform="translate(206.482,-412.168)">
					<title>矩形.13</title>
					<v:userDefs>
						<v:ud v:nameU="visVersion" v:val="VT0(12):26"/>
					</v:userDefs>
					<rect x="0" y="779.471" width="68.8272" height="117.762" class="st8"/>
				</g>
				<g id="shape17-36" v:mID="17" v:groupContext="shape" transform="translate(421.567,-588.106)">
					<title>椭圆</title>
					<v:userDefs>
						<v:ud v:nameU="visVersion" v:val="VT0(12):26"/>
					</v:userDefs>
					<path d="M0 822.92 A73.6012 43.017 90 1 1 86.03 822.92 A73.6012 43.017 90 1 1 0 822.92 Z" class="st9"/>
				</g>
				<g id="shape18-38" v:mID="18" v:groupContext="shape" transform="translate(352.739,-279.686)">
					<title>矩形.16</title>
					<v:userDefs>
						<v:ud v:nameU="visVersion" v:val="VT0(12):26"/>
					</v:userDefs>
					<rect x="0" y="727.951" width="86.0339" height="169.283" class="st9"/>
				</g>
				<g id="shape19-40" v:mID="19" v:groupContext="shape" transform="translate(524.807,-287.046)">
					<title>矩形.17</title>
					<v:userDefs>
						<v:ud v:nameU="visVersion" v:val="VT0(12):26"/>
					</v:userDefs>
					<rect x="0" y="727.951" width="86.0339" height="169.283" class="st9"/>
				</g>
				<g id="shape20-42" v:mID="20" v:groupContext="shape" transform="translate(292.516,-397.447)">
					<title>矩形.15</title>
					<v:userDefs>
						<v:ud v:nameU="visVersion" v:val="VT0(12):26"/>
					</v:userDefs>
					<rect x="0" y="867.793" width="550.617" height="29.4405" class="st9"/>
				</g>
				<g id="shape21-44" v:mID="21" v:groupContext="shape" transform="translate(258.102,-323.846)">
					<title>矩形.19</title>
					<v:userDefs>
						<v:ud v:nameU="visVersion" v:val="VT0(12):26"/>
					</v:userDefs>
					<rect x="0" y="867.793" width="653.858" height="29.4405" class="st9"/>
				</g>
				<g id="shape22-46" v:mID="22" v:groupContext="shape" v:layerMember="0" transform="translate(85.0405,-180.001)">
					<title>动态连接线</title>
					<path d="M5.67 895.81 L12.75 895.81 L12.75 897.23 L0 897.23 L5.67 895.81 Z" class="st5"/>
					<path d="M5.67 895.81 L12.75 895.81 L12.75 897.23 L0 897.23" class="st7"/>
				</g>
			</g>
		</g>
	</g>
</svg>
