<?xml version="1.0" encoding="utf-8"?>
<!-- Generator: Adobe Illustrator 14.0.0, SVG Export Plug-In . SVG Version: 6.00 Build 43363)  -->
<!DOCTYPE svg PUBLIC "-//W3C//DTD SVG 1.1//EN" "http://www.w3.org/Graphics/SVG/1.1/DTD/svg11.dtd">
<svg version="1.1" id="图层_1" xmlns="http://www.w3.org/2000/svg" xmlns:xlink="http://www.w3.org/1999/xlink" x="0px" y="0px"
	 width="61.75px" height="51px" viewBox="0 0 61.75 51" enable-background="new 0 0 61.75 51" xml:space="preserve">
<g>
	
		<radialGradient id="SVGID_1_" cx="759.6189" cy="-969.5454" r="61.1487" gradientTransform="matrix(1 0 0 -1 -722.894 -1041.7939)" gradientUnits="userSpaceOnUse">
		<stop  offset="0" style="stop-color:#FFFFFF"/>
		<stop  offset="0.1541" style="stop-color:#FBFBFB"/>
		<stop  offset="0.3547" style="stop-color:#EDECEC"/>
		<stop  offset="0.5812" style="stop-color:#D5D3D3"/>
		<stop  offset="0.8246" style="stop-color:#B5B3B3"/>
		<stop  offset="1" style="stop-color:#999999"/>
	</radialGradient>
	<circle fill="url(#SVGID_1_)" cx="24.083" cy="26.049" r="22.833"/>
	
		<radialGradient id="SVGID_2_" cx="742.7253" cy="-1029.5547" r="81.9532" gradientTransform="matrix(1 0 0 -1 -722.894 -1041.7939)" gradientUnits="userSpaceOnUse">
		<stop  offset="0" style="stop-color:#FAFAFB"/>
		<stop  offset="0.1291" style="stop-color:#F3F3F3"/>
		<stop  offset="0.3336" style="stop-color:#DFDEDE"/>
		<stop  offset="0.5862" style="stop-color:#BFBDBD"/>
		<stop  offset="0.8202" style="stop-color:#9B9B9B"/>
	</radialGradient>
	<path fill="url(#SVGID_2_)" d="M24.085,46.919c-11.511,0-20.873-9.359-20.873-20.867c0-11.512,9.362-20.874,20.873-20.874
		c11.509,0,20.869,9.362,20.869,20.874C44.954,37.558,35.594,46.919,24.085,46.919L24.085,46.919z"/>
	<g>
		
			<radialGradient id="SVGID_3_" cx="2575.0906" cy="-276.8975" r="91.8487" gradientTransform="matrix(0 1 1 0 262.0593 -2558.6853)" gradientUnits="userSpaceOnUse">
			<stop  offset="0" style="stop-color:#E8F1D5"/>
			<stop  offset="0.118" style="stop-color:#E8F1D5"/>
			<stop  offset="0.1654" style="stop-color:#E4EFCF"/>
			<stop  offset="0.23" style="stop-color:#DAE8C0"/>
			<stop  offset="0.3043" style="stop-color:#CADBA5"/>
			<stop  offset="0.386" style="stop-color:#B3CA81"/>
			<stop  offset="0.4726" style="stop-color:#94B557"/>
			<stop  offset="0.5562" style="stop-color:#6DA130"/>
			<stop  offset="0.6288" style="stop-color:#629231"/>
			<stop  offset="0.7744" style="stop-color:#496C2F"/>
			<stop  offset="0.8315" style="stop-color:#3E5D2D"/>
			<stop  offset="1" style="stop-color:#3E5D2D"/>
		</radialGradient>
		<path fill="url(#SVGID_3_)" d="M46.911,3.199c0,0.801,0,4.844,0,4.844s-10.381,0-11.553,0c-1.171,0-2.238,0.209-2.238,2.304
			c0,2.098,0,5.547,0,6.778c0,1.229,0.76,2.056,2.303,2.056c1.541,0,11.488,0,11.488,0s0,3.061,0,4.848
			c0,1.354,1.266,1.479,2.147,0.641c0.734-0.691,9.138-7.998,10.328-8.959c1.297-1.045,1.681-2.553-0.054-4.018
			c-1.731-1.469-6.625-5.854-10.198-9.011C47.816,1.514,46.911,2.396,46.911,3.199z"/>
		
			<radialGradient id="SVGID_4_" cx="2573.6111" cy="-251.9209" r="66.8796" gradientTransform="matrix(0 1 1 0 262.0593 -2558.6853)" gradientUnits="userSpaceOnUse">
			<stop  offset="0" style="stop-color:#E8F1D5"/>
			<stop  offset="0.118" style="stop-color:#E8F1D5"/>
			<stop  offset="0.1654" style="stop-color:#E4EFCF"/>
			<stop  offset="0.23" style="stop-color:#DAE8C0"/>
			<stop  offset="0.3043" style="stop-color:#CADBA5"/>
			<stop  offset="0.386" style="stop-color:#B3CA81"/>
			<stop  offset="0.4726" style="stop-color:#94B557"/>
			<stop  offset="0.5562" style="stop-color:#6DA130"/>
			<stop  offset="0.6288" style="stop-color:#629231"/>
			<stop  offset="0.7744" style="stop-color:#496C2F"/>
			<stop  offset="0.8315" style="stop-color:#3E5D2D"/>
			<stop  offset="1" style="stop-color:#3E5D2D"/>
		</radialGradient>
		<path fill="url(#SVGID_4_)" d="M33.615,17.123v-6.776c0-1.687,0.689-1.812,1.746-1.812h12.043V3.197
			c0-0.197,0.113-0.449,0.324-0.547c0.268-0.119,0.66,0.026,1.08,0.397c1.207,1.063,9.057,8.042,10.209,9.016
			c0.658,0.558,0.992,1.121,0.992,1.681c0,0.687-0.506,1.235-0.931,1.58c-1.229,0.989-9.629,8.295-10.356,8.983
			c-0.4,0.379-0.818,0.446-1.037,0.354c-0.232-0.104-0.281-0.398-0.281-0.637v-5.342H35.421
			C34.595,18.685,33.615,18.416,33.615,17.123L33.615,17.123z"/>
		
			<radialGradient id="SVGID_5_" cx="2573.446" cy="-259.8145" r="71.8153" gradientTransform="matrix(0 1 1 0 262.0593 -2558.6853)" gradientUnits="userSpaceOnUse">
			<stop  offset="0" style="stop-color:#E8F1D5"/>
			<stop  offset="0.118" style="stop-color:#E8F1D5"/>
			<stop  offset="0.1654" style="stop-color:#E4EFCF"/>
			<stop  offset="0.23" style="stop-color:#DAE8C0"/>
			<stop  offset="0.3043" style="stop-color:#CADBA5"/>
			<stop  offset="0.386" style="stop-color:#B3CA81"/>
			<stop  offset="0.4726" style="stop-color:#94B557"/>
			<stop  offset="0.5562" style="stop-color:#6DA130"/>
			<stop  offset="0.6288" style="stop-color:#629231"/>
			<stop  offset="0.7744" style="stop-color:#496C2F"/>
			<stop  offset="0.8315" style="stop-color:#3E5D2D"/>
			<stop  offset="1" style="stop-color:#3E5D2D"/>
		</radialGradient>
		<path fill="url(#SVGID_5_)" d="M43.491,12.461c0,1.984-0.119,3.904-0.338,5.73h4.744v5.834c0,0.084,0.01,0.143,0.018,0.18
			c0.086-0.008,0.266-0.062,0.469-0.254c0.734-0.697,9.159-8.021,10.387-9.013c0.341-0.272,0.746-0.704,0.746-1.196
			c0-0.403-0.274-0.845-0.815-1.301c-1.127-0.951-9.181-8.107-10.217-9.023c-0.322-0.284-0.521-0.319-0.546-0.319
			C47.923,3.114,47.9,3.164,47.9,3.202v5.83h-4.524C43.45,10.147,43.491,11.293,43.491,12.461z"/>
		
			<radialGradient id="SVGID_6_" cx="-866.7537" cy="-400.5981" r="65.8806" gradientTransform="matrix(0 -1 -1 0 -393.0862 -852.6487)" gradientUnits="userSpaceOnUse">
			<stop  offset="0" style="stop-color:#E8F1D5"/>
			<stop  offset="0.118" style="stop-color:#E8F1D5"/>
			<stop  offset="0.1654" style="stop-color:#E4EFCF"/>
			<stop  offset="0.23" style="stop-color:#DAE8C0"/>
			<stop  offset="0.3043" style="stop-color:#CADBA5"/>
			<stop  offset="0.386" style="stop-color:#B3CA81"/>
			<stop  offset="0.4726" style="stop-color:#94B557"/>
			<stop  offset="0.5562" style="stop-color:#6DA130"/>
			<stop  offset="0.6288" style="stop-color:#629231"/>
			<stop  offset="0.7744" style="stop-color:#496C2F"/>
			<stop  offset="0.8315" style="stop-color:#3E5D2D"/>
			<stop  offset="1" style="stop-color:#3E5D2D"/>
		</radialGradient>
		<path fill="url(#SVGID_6_)" d="M43.372,9.029H35.36c-0.888,0-1.254,0-1.254,1.317v6.775c0,0.496,0.147,1.064,1.313,1.064h7.73
			c0.219-1.824,0.338-3.744,0.338-5.729C43.491,11.293,43.45,10.147,43.372,9.029z"/>
	</g>
	<g>
		<path fill="#38424E" d="M16.557,20.034c1.333,0,2.478,0.271,3.434,0.813c0.956,0.543,1.68,1.313,2.171,2.312
			c0.49,0.998,0.736,2.17,0.736,3.519c0,0.993-0.135,1.897-0.403,2.713c-0.269,0.813-0.673,1.521-1.21,2.115
			c-0.539,0.598-1.198,1.055-1.981,1.37c-0.783,0.313-1.683,0.476-2.692,0.476c-1.006,0-1.906-0.164-2.701-0.486
			c-0.796-0.324-1.459-0.783-1.99-1.374c-0.532-0.593-0.935-1.304-1.205-2.136c-0.272-0.832-0.408-1.729-0.408-2.694
			c0-0.989,0.142-1.896,0.426-2.724c0.283-0.824,0.693-1.526,1.231-2.105c0.538-0.58,1.191-1.021,1.965-1.331
			C14.698,20.187,15.575,20.034,16.557,20.034z M20.273,26.655c0-0.944-0.152-1.764-0.458-2.455s-0.741-1.216-1.308-1.571
			c-0.566-0.354-1.218-0.53-1.95-0.53c-0.522,0-1.005,0.1-1.448,0.295s-0.825,0.481-1.145,0.856
			c-0.32,0.375-0.573,0.854-0.759,1.438s-0.276,1.238-0.276,1.968c0,0.731,0.092,1.396,0.276,1.987
			c0.186,0.593,0.445,1.084,0.783,1.476s0.726,0.685,1.162,0.876c0.438,0.191,0.918,0.29,1.44,0.29c0.669,0,1.284-0.167,1.845-0.501
			c0.561-0.335,1.006-0.854,1.338-1.549C20.107,28.535,20.273,27.677,20.273,26.655z"/>
		<path fill="#38424E" d="M28.664,27.628h-0.916v4.133c0,0.543-0.118,0.942-0.357,1.2c-0.239,0.259-0.55,0.388-0.936,0.388
			c-0.412,0-0.732-0.137-0.961-0.402c-0.227-0.271-0.34-0.665-0.34-1.188v-9.906c0-0.563,0.125-0.969,0.377-1.221
			c0.252-0.253,0.658-0.379,1.222-0.379h4.239c0.585,0,1.085,0.024,1.501,0.073c0.414,0.05,0.789,0.149,1.123,0.301
			c0.399,0.171,0.756,0.413,1.063,0.729c0.31,0.316,0.541,0.686,0.701,1.104c0.158,0.419,0.238,0.863,0.238,1.332
			c0,0.963-0.271,1.729-0.81,2.307c-0.538,0.574-1.354,0.98-2.448,1.224c0.459,0.246,0.899,0.606,1.318,1.088
			c0.419,0.479,0.794,0.987,1.123,1.528s0.585,1.031,0.77,1.468c0.186,0.437,0.274,0.733,0.274,0.897
			c0,0.17-0.056,0.338-0.162,0.504c-0.106,0.168-0.256,0.299-0.44,0.396c-0.188,0.099-0.4,0.146-0.646,0.146
			c-0.291,0-0.537-0.067-0.733-0.205c-0.199-0.139-0.369-0.313-0.513-0.521c-0.145-0.211-0.338-0.521-0.582-0.93l-1.042-1.737
			c-0.376-0.638-0.712-1.122-1.009-1.456c-0.297-0.333-0.599-0.563-0.902-0.686C29.511,27.688,29.129,27.628,28.664,27.628z
			 M30.162,22.19h-2.414v3.563h2.345c0.627,0,1.155-0.054,1.585-0.162c0.43-0.107,0.756-0.296,0.979-0.558
			c0.229-0.265,0.34-0.623,0.34-1.084c0-0.358-0.092-0.677-0.271-0.949c-0.182-0.272-0.436-0.479-0.758-0.614
			C31.661,22.257,31.06,22.19,30.162,22.19z"/>
	</g>
</g>
</svg>
