<?xml version="1.0" encoding="utf-8"?>
<!-- Generator: Adobe Illustrator 14.0.0, SVG Export Plug-In . SVG Version: 6.00 Build 43363)  -->
<!DOCTYPE svg PUBLIC "-//W3C//DTD SVG 1.1//EN" "http://www.w3.org/Graphics/SVG/1.1/DTD/svg11.dtd">
<svg version="1.1" id="图层_1" xmlns="http://www.w3.org/2000/svg" xmlns:xlink="http://www.w3.org/1999/xlink" x="0px" y="0px"
	 width="59px" height="55.232px" viewBox="0 0 59 55.232" enable-background="new 0 0 59 55.232" xml:space="preserve">
<g>
	<image overflow="visible" width="263" height="20" xlink:href="B11068BC.png"  transform="matrix(0.24 0 0 0.24 -1.646 48.3291)">
	</image>
	<g>
		<g>
			<radialGradient id="SVGID_1_" cx="25.9092" cy="10.8804" r="43.5297" gradientUnits="userSpaceOnUse">
				<stop  offset="0" style="stop-color:#F7F7F7"/>
				<stop  offset="0.2531" style="stop-color:#F3F3F3"/>
				<stop  offset="0.502" style="stop-color:#E8E8E8"/>
				<stop  offset="0.7493" style="stop-color:#D4D4D4"/>
				<stop  offset="0.9942" style="stop-color:#B8B8B8"/>
				<stop  offset="1" style="stop-color:#B8B8B8"/>
			</radialGradient>
			<path fill="url(#SVGID_1_)" d="M50.05,45.735c0,3.178-2.314,5.754-5.169,5.754H14.367c-2.854,0-5.167-2.576-5.167-5.754
				L9.117,25.442c0-3.179,1.488-5.128,4.465-7.607L29.46,3.777l15.71,13.23c3.142,2.315,4.466,4.3,4.796,6.945L50.05,45.735z"/>
			<linearGradient id="SVGID_2_" gradientUnits="userSpaceOnUse" x1="27.6191" y1="59.7617" x2="29.9212" y2="38.7876">
				<stop  offset="0.0051" style="stop-color:#BBBBBA"/>
				<stop  offset="1" style="stop-color:#787878"/>
			</linearGradient>
			<path fill="url(#SVGID_2_)" d="M37.563,49.329c0,1.07-0.888,1.939-1.985,1.939h-11.66c-1.094,0-1.982-0.869-1.982-1.939V31.392
				c0-1.072,0.889-1.939,1.982-1.939h11.66c1.098,0,1.985,0.867,1.985,1.939V49.329z"/>
		</g>
		<g>
			<g>
				<linearGradient id="SVGID_3_" gradientUnits="userSpaceOnUse" x1="45.3936" y1="3.6045" x2="45.1373" y2="13.9631">
					<stop  offset="0" style="stop-color:#3E81C3"/>
					<stop  offset="1" style="stop-color:#144A89"/>
				</linearGradient>
				<path fill="url(#SVGID_3_)" d="M48.687,16.589c0,1.097-0.889,1.984-1.984,1.984l-2.939,0.042c-1.096,0-1.982-0.889-1.982-1.985
					V3.606c0-1.096,0.887-1.983,1.982-1.983l2.939-0.041c1.096,0,1.984,0.888,1.984,1.983V16.589z"/>
				<linearGradient id="SVGID_4_" gradientUnits="userSpaceOnUse" x1="45.3154" y1="2.1982" x2="45.2644" y2="4.2602">
					<stop  offset="0" style="stop-color:#FFFFFF"/>
					<stop  offset="1" style="stop-color:#3E81C3"/>
				</linearGradient>
				<path fill="url(#SVGID_4_)" d="M42.165,4.743c0,0-0.48-2.589,1.438-2.828c1.184-0.149,2.891-0.14,3.324-0.034
					c1.904,0.464,1.409,2.495,1.472,3.389c0,0-0.239-2.158-1.343-2.349c-0.98-0.171-2.972-0.143-3.549,0.096
					C43.085,3.194,42.453,3.977,42.165,4.743z"/>
			</g>
			<g>
				<g>
					<g>
						
							<linearGradient id="SVGID_5_" gradientUnits="userSpaceOnUse" x1="55.4326" y1="13.3887" x2="59.0536" y2="28.3885" gradientTransform="matrix(1 0 0 1 -31.2021 -9.333)">
							<stop  offset="0" style="stop-color:#408BCB"/>
							<stop  offset="1" style="stop-color:#125DA1"/>
						</linearGradient>
						<path fill="url(#SVGID_5_)" d="M56.814,24.665L30.821,1.219C30.31,0.756,29.63,0.705,29.024,0.94
							c-0.26,0.079-0.508,0.209-0.721,0.402L2.31,24.789c-0.783,0.705-0.844,1.908-0.141,2.69l2.045,2.087
							c0.706,0.779,1.908,0.843,2.69,0.138L29.679,9.162L52.315,29.58c0.781,0.705,1.986,0.641,2.69-0.138l1.948-2.087
							C57.658,26.574,57.597,25.369,56.814,24.665z"/>
					</g>
				</g>
				<linearGradient id="SVGID_6_" gradientUnits="userSpaceOnUse" x1="28.4912" y1="2.3857" x2="29.4505" y2="13.3213">
					<stop  offset="0" style="stop-color:#FFFFFF"/>
					<stop  offset="1" style="stop-color:#3E81C3"/>
				</linearGradient>
				<path fill="url(#SVGID_6_)" d="M8.528,19.754c0,0,18.992-16.882,19.633-17.521c0.639-0.64,1.79-1.007,3.068,0.017
					c1.279,1.023,20.335,18.208,20.335,18.208C31.694,4.568,31.944,4.7,31.325,4.121c-0.52-0.488-2.252-1.231-3.788,0.239
					C26.003,5.829,8.528,19.754,8.528,19.754z"/>
			</g>
		</g>
	</g>
</g>
</svg>
