<?xml version="1.0" encoding="utf-8"?>
<!-- Generator: Adobe Illustrator 14.0.0, SVG Export Plug-In . SVG Version: 6.00 Build 43363)  -->
<!DOCTYPE svg PUBLIC "-//W3C//DTD SVG 1.1//EN" "http://www.w3.org/Graphics/SVG/1.1/DTD/svg11.dtd">
<svg version="1.1" id="图层_1" xmlns="http://www.w3.org/2000/svg" xmlns:xlink="http://www.w3.org/1999/xlink" x="0px" y="0px"
	 width="69.991px" height="69.607px" viewBox="0 0 69.991 69.607" enable-background="new 0 0 69.991 69.607" xml:space="preserve">
<g>
	<g>
		<g>
			<radialGradient id="SVGID_1_" cx="54.1563" cy="20.582" r="2.653" gradientUnits="userSpaceOnUse">
				<stop  offset="0" style="stop-color:#EBFFD9"/>
				<stop  offset="0.118" style="stop-color:#EBFFD9"/>
				<stop  offset="0.1687" style="stop-color:#E7FCD3"/>
				<stop  offset="0.2376" style="stop-color:#DBF3C1"/>
				<stop  offset="0.3169" style="stop-color:#C7E5A5"/>
				<stop  offset="0.4041" style="stop-color:#ABD27D"/>
				<stop  offset="0.4966" style="stop-color:#88B94B"/>
				<stop  offset="0.5562" style="stop-color:#6FA726"/>
				<stop  offset="0.6403" style="stop-color:#63951C"/>
				<stop  offset="0.8093" style="stop-color:#436504"/>
				<stop  offset="0.8315" style="stop-color:#3F5E00"/>
				<stop  offset="1" style="stop-color:#3F5E00"/>
			</radialGradient>
			<path fill="url(#SVGID_1_)" d="M42.211,24.283c2.336-0.825,4.966-1.291,7.751-1.291c2.733,0,5.32,0.448,7.627,1.244"/>
			
				<linearGradient id="SVGID_2_" gradientUnits="userSpaceOnUse" x1="32.3633" y1="182.3306" x2="67.5596" y2="182.3306" gradientTransform="matrix(1 0 0 0.7174 0 -105.5493)">
				<stop  offset="0" style="stop-color:#427B2C"/>
				<stop  offset="0.2692" style="stop-color:#5AAB28"/>
				<stop  offset="1" style="stop-color:#9FDB07"/>
			</linearGradient>
			<path fill="url(#SVGID_2_)" d="M57.765,23.521c0.563-0.588,4.313-5.518,4.313-9.222c0-6.645-5.385-12.031-12.026-12.031
				c-6.644,0-12.03,5.386-12.03,12.031c0,3.731,3.49,8.892,4.367,9.271c0.874,0.375-0.177,0.712-0.177,0.712
				c-5.831,2.057-9.848,6.359-9.848,11.334c0,6.971,7.879,12.624,17.599,12.624c9.717,0,17.598-5.653,17.598-12.624
				c0-5.014-4.07-9.343-9.971-11.381C57.589,24.236,57.205,24.109,57.765,23.521z"/>
			<radialGradient id="SVGID_3_" cx="48.3223" cy="2.0298" r="45.495" gradientUnits="userSpaceOnUse">
				<stop  offset="0.0112" style="stop-color:#FFFFFF"/>
				<stop  offset="0.1304" style="stop-color:#FCFCFD"/>
				<stop  offset="0.2212" style="stop-color:#F2F3F5"/>
				<stop  offset="0.3025" style="stop-color:#E2E4E8"/>
				<stop  offset="0.3782" style="stop-color:#CBCED6"/>
				<stop  offset="0.4502" style="stop-color:#ADB2BE"/>
				<stop  offset="0.5193" style="stop-color:#898FA1"/>
				<stop  offset="0.5849" style="stop-color:#5E677F"/>
				<stop  offset="0.6292" style="stop-color:#3D4865"/>
			</radialGradient>
			<path fill="url(#SVGID_3_)" d="M49.962,47.241c-9.155,0-16.595-5.214-16.595-11.624c0-4.41,3.512-8.394,9.176-10.39
				c0.715-0.23,1.159-0.705,1.189-1.286c0.017-0.323-0.088-0.919-0.954-1.293c-0.71-0.492-3.758-5.088-3.758-8.349
				c0-6.082,4.947-11.03,11.03-11.03c6.079,0,11.025,4.948,11.025,11.03c0,3.18-3.323,7.785-4.034,8.532
				c-0.484,0.508-0.669,1.018-0.543,1.51c0.114,0.473,0.475,0.743,0.772,0.844c5.639,1.946,9.285,6.043,9.285,10.432
				C66.557,42.027,59.113,47.241,49.962,47.241L49.962,47.241z"/>
			<linearGradient id="SVGID_4_" gradientUnits="userSpaceOnUse" x1="34.3633" y1="38.4438" x2="65.5576" y2="38.4438">
				<stop  offset="0" style="stop-color:#427B2C"/>
				<stop  offset="0.2692" style="stop-color:#5AAB28"/>
				<stop  offset="1" style="stop-color:#9FDB07"/>
			</linearGradient>
			<path fill="url(#SVGID_4_)" d="M49.16,36.333c-5.096,0-9.789-1.803-13.563-4.834c-0.8,1.281-1.233,2.676-1.233,4.119
				c0,5.855,6.999,10.62,15.599,10.62s15.596-4.765,15.596-10.62c0-1.751-0.662-3.453-1.85-4.966
				C59.782,34.192,54.706,36.333,49.16,36.333z"/>
			<linearGradient id="SVGID_5_" gradientUnits="userSpaceOnUse" x1="35.5967" y1="20.3013" x2="63.708" y2="20.3013">
				<stop  offset="0" style="stop-color:#427B2C"/>
				<stop  offset="0.2692" style="stop-color:#5AAB28"/>
				<stop  offset="1" style="stop-color:#9FDB07"/>
			</linearGradient>
			<path fill="url(#SVGID_5_)" d="M63.708,30.65c-1.501-1.906-3.838-3.512-6.752-4.517c-0.55-0.183-1.215-0.686-1.427-1.548
				c-0.148-0.585-0.133-1.481,0.789-2.444c0.771-0.808,3.757-5.147,3.757-7.842c0-5.531-4.495-10.029-10.024-10.029
				S40.022,8.768,40.022,14.299c0,2.79,2.637,6.861,3.299,7.5c0.931,0.455,1.456,1.264,1.408,2.19
				c-0.045,1.009-0.751,1.829-1.854,2.182c-3.345,1.179-5.876,3.078-7.278,5.327c3.774,3.032,8.468,4.834,13.563,4.834
				C54.706,36.333,59.782,34.192,63.708,30.65z"/>
		</g>
	</g>
	<g>
		<g>
			<radialGradient id="SVGID_6_" cx="24.4175" cy="29.397" r="2.6543" gradientUnits="userSpaceOnUse">
				<stop  offset="0" style="stop-color:#EBFFD9"/>
				<stop  offset="0.118" style="stop-color:#EBFFD9"/>
				<stop  offset="0.1687" style="stop-color:#E7FCD3"/>
				<stop  offset="0.2376" style="stop-color:#DBF3C1"/>
				<stop  offset="0.3169" style="stop-color:#C7E5A5"/>
				<stop  offset="0.4041" style="stop-color:#ABD27D"/>
				<stop  offset="0.4966" style="stop-color:#88B94B"/>
				<stop  offset="0.5562" style="stop-color:#6FA726"/>
				<stop  offset="0.6403" style="stop-color:#63951C"/>
				<stop  offset="0.8093" style="stop-color:#436504"/>
				<stop  offset="0.8315" style="stop-color:#3F5E00"/>
				<stop  offset="1" style="stop-color:#3F5E00"/>
			</radialGradient>
			<path fill="url(#SVGID_6_)" d="M12.472,33.102c2.336-0.827,4.971-1.292,7.754-1.292c2.733,0,5.315,0.45,7.624,1.247"/>
			
				<linearGradient id="SVGID_7_" gradientUnits="userSpaceOnUse" x1="2.6279" y1="194.6235" x2="37.8242" y2="194.6235" gradientTransform="matrix(1 0 0 0.7174 0 -105.5493)">
				<stop  offset="0" style="stop-color:#427B2C"/>
				<stop  offset="0.2692" style="stop-color:#5AAB28"/>
				<stop  offset="1" style="stop-color:#9FDB07"/>
			</linearGradient>
			<path fill="url(#SVGID_7_)" d="M28.026,32.341c0.564-0.588,4.314-5.521,4.314-9.224c0-6.643-5.383-12.029-12.027-12.029
				c-6.645,0-12.028,5.386-12.028,12.029c0,3.731,3.49,8.894,4.365,9.271c0.874,0.375-0.179,0.713-0.179,0.713
				C6.64,35.159,2.628,39.46,2.628,44.434c0,6.973,7.878,12.625,17.598,12.625c9.717,0,17.599-5.652,17.599-12.625
				c0-5.014-4.073-9.342-9.975-11.378C27.85,33.056,27.465,32.929,28.026,32.341z"/>
			<radialGradient id="SVGID_8_" cx="18.585" cy="10.8467" r="45.4949" gradientUnits="userSpaceOnUse">
				<stop  offset="0.0112" style="stop-color:#FFFFFF"/>
				<stop  offset="0.1304" style="stop-color:#FCFCFD"/>
				<stop  offset="0.2212" style="stop-color:#F2F3F5"/>
				<stop  offset="0.3025" style="stop-color:#E2E4E8"/>
				<stop  offset="0.3782" style="stop-color:#CBCED6"/>
				<stop  offset="0.4502" style="stop-color:#ADB2BE"/>
				<stop  offset="0.5193" style="stop-color:#898FA1"/>
				<stop  offset="0.5849" style="stop-color:#5E677F"/>
				<stop  offset="0.6292" style="stop-color:#3D4865"/>
			</radialGradient>
			<path fill="url(#SVGID_8_)" d="M20.226,56.057c-9.153,0-16.597-5.215-16.597-11.623c0-4.412,3.513-8.395,9.176-10.389
				c0.716-0.229,1.163-0.704,1.19-1.288c0.015-0.322-0.089-0.917-0.949-1.291c-0.714-0.491-3.761-5.09-3.761-8.35
				c0-6.082,4.949-11.03,11.027-11.03c6.081,0,11.027,4.948,11.027,11.03c0,3.183-3.324,7.786-4.035,8.534
				c-0.485,0.507-0.668,1.017-0.545,1.509c0.117,0.471,0.477,0.742,0.776,0.844c5.634,1.945,9.285,6.043,9.285,10.43
				C36.82,50.842,29.379,56.057,20.226,56.057L20.226,56.057z"/>
			<linearGradient id="SVGID_9_" gradientUnits="userSpaceOnUse" x1="4.627" y1="47.2622" x2="35.8213" y2="47.2622">
				<stop  offset="0" style="stop-color:#427B2C"/>
				<stop  offset="0.2692" style="stop-color:#5AAB28"/>
				<stop  offset="1" style="stop-color:#9FDB07"/>
			</linearGradient>
			<path fill="url(#SVGID_9_)" d="M19.419,45.148c-5.093,0-9.787-1.798-13.559-4.832c-0.797,1.282-1.233,2.675-1.233,4.118
				c0,5.858,7,10.622,15.599,10.622c8.597,0,15.596-4.764,15.596-10.622c0-1.75-0.661-3.451-1.853-4.965
				C30.043,43.01,24.973,45.148,19.419,45.148z"/>
			<linearGradient id="SVGID_10_" gradientUnits="userSpaceOnUse" x1="5.8599" y1="29.1187" x2="33.9688" y2="29.1187">
				<stop  offset="0" style="stop-color:#427B2C"/>
				<stop  offset="0.2692" style="stop-color:#5AAB28"/>
				<stop  offset="1" style="stop-color:#9FDB07"/>
			</linearGradient>
			<path fill="url(#SVGID_10_)" d="M33.969,39.469c-1.503-1.906-3.838-3.512-6.749-4.517c-0.548-0.183-1.217-0.688-1.43-1.55
				c-0.149-0.583-0.129-1.48,0.791-2.443c0.772-0.807,3.761-5.145,3.761-7.842c0-5.531-4.5-10.027-10.028-10.027
				c-5.533,0-10.03,4.497-10.03,10.027c0,2.79,2.639,6.863,3.303,7.5c0.932,0.455,1.455,1.265,1.408,2.189
				c-0.049,1.011-0.753,1.829-1.859,2.181c-3.344,1.18-5.876,3.081-7.275,5.328c3.772,3.034,8.466,4.832,13.559,4.832
				C24.973,45.148,30.043,43.01,33.969,39.469z"/>
		</g>
	</g>
	<g>
		<g>
			<radialGradient id="SVGID_11_" cx="45.833" cy="39.6792" r="2.6535" gradientUnits="userSpaceOnUse">
				<stop  offset="0" style="stop-color:#EBFFD9"/>
				<stop  offset="0.118" style="stop-color:#EBFFD9"/>
				<stop  offset="0.1687" style="stop-color:#E7FCD3"/>
				<stop  offset="0.2376" style="stop-color:#DBF3C1"/>
				<stop  offset="0.3169" style="stop-color:#C7E5A5"/>
				<stop  offset="0.4041" style="stop-color:#ABD27D"/>
				<stop  offset="0.4966" style="stop-color:#88B94B"/>
				<stop  offset="0.5562" style="stop-color:#6FA726"/>
				<stop  offset="0.6403" style="stop-color:#63951C"/>
				<stop  offset="0.8093" style="stop-color:#436504"/>
				<stop  offset="0.8315" style="stop-color:#3F5E00"/>
				<stop  offset="1" style="stop-color:#3F5E00"/>
			</radialGradient>
			<path fill="url(#SVGID_11_)" d="M33.885,43.38c2.341-0.824,4.971-1.291,7.756-1.291c2.733,0,5.317,0.448,7.626,1.244"/>
			
				<radialGradient id="SVGID_12_" cx="44.0527" cy="78.6343" r="209.1865" gradientTransform="matrix(1 0 0 0.7174 0 -105.5493)" gradientUnits="userSpaceOnUse">
				<stop  offset="0" style="stop-color:#FFF4FB"/>
				<stop  offset="0.2143" style="stop-color:#86B6E4"/>
				<stop  offset="0.4396" style="stop-color:#4C81C9"/>
				<stop  offset="0.5549" style="stop-color:#3970C0"/>
				<stop  offset="0.7857" style="stop-color:#23469F"/>
				<stop  offset="0.8119" style="stop-color:#214295"/>
				<stop  offset="0.8564" style="stop-color:#1B367A"/>
				<stop  offset="0.914" style="stop-color:#11224E"/>
				<stop  offset="0.9817" style="stop-color:#040812"/>
				<stop  offset="1" style="stop-color:#000000"/>
			</radialGradient>
			<path fill="url(#SVGID_12_)" d="M49.443,42.622c0.563-0.592,4.315-5.52,4.315-9.226c0-6.642-5.391-12.028-12.029-12.028
				c-6.644,0-12.031,5.386-12.031,12.028c0,3.732,3.493,8.892,4.365,9.271c0.876,0.375-0.179,0.714-0.179,0.714
				c-5.828,2.059-9.841,6.36-9.841,11.333c0,6.973,7.878,12.625,17.597,12.625c9.716,0,17.598-5.652,17.598-12.625
				c0-5.01-4.073-9.342-9.972-11.38C49.267,43.333,48.884,43.208,49.443,42.622z"/>
			<radialGradient id="SVGID_13_" cx="40" cy="21.1279" r="45.4933" gradientUnits="userSpaceOnUse">
				<stop  offset="0.0112" style="stop-color:#FFFFFF"/>
				<stop  offset="0.1304" style="stop-color:#FCFCFD"/>
				<stop  offset="0.2212" style="stop-color:#F2F3F5"/>
				<stop  offset="0.3025" style="stop-color:#E2E4E8"/>
				<stop  offset="0.3782" style="stop-color:#CBCED6"/>
				<stop  offset="0.4502" style="stop-color:#ADB2BE"/>
				<stop  offset="0.5193" style="stop-color:#898FA1"/>
				<stop  offset="0.5849" style="stop-color:#5E677F"/>
				<stop  offset="0.6292" style="stop-color:#3D4865"/>
			</radialGradient>
			<path fill="url(#SVGID_13_)" d="M41.641,66.336c-9.154,0-16.596-5.213-16.596-11.623c0-4.412,3.513-8.393,9.176-10.389
				c0.716-0.229,1.159-0.704,1.191-1.286c0.016-0.325-0.091-0.919-0.952-1.293c-0.713-0.491-3.761-5.088-3.761-8.35
				c0-6.081,4.948-11.028,11.029-11.028c6.08,0,11.025,4.947,11.025,11.028c0,3.182-3.321,7.786-4.031,8.533
				c-0.486,0.51-0.673,1.018-0.547,1.511c0.115,0.473,0.479,0.744,0.773,0.847c5.639,1.943,9.286,6.041,9.286,10.428
				C58.235,61.124,50.792,66.336,41.641,66.336L41.641,66.336z"/>
			<path fill="#3365B5" d="M40.835,55.43c-5.091,0-9.789-1.801-13.561-4.832c-0.797,1.279-1.232,2.676-1.232,4.115
				c0,5.857,6.998,10.622,15.599,10.622s15.594-4.765,15.594-10.622c0-1.75-0.659-3.451-1.852-4.964
				C51.459,53.29,46.385,55.43,40.835,55.43z"/>
			<radialGradient id="SVGID_14_" cx="40.7168" cy="-22.6958" r="104.334" gradientUnits="userSpaceOnUse">
				<stop  offset="0" style="stop-color:#FFFFFF"/>
				<stop  offset="0.0888" style="stop-color:#FCFDFE"/>
				<stop  offset="0.16" style="stop-color:#F2F6FB"/>
				<stop  offset="0.225" style="stop-color:#E1EBF7"/>
				<stop  offset="0.2637" style="stop-color:#D3E2F3"/>
				<stop  offset="0.5714" style="stop-color:#6DA0D7"/>
				<stop  offset="0.5741" style="stop-color:#6C9FD6"/>
				<stop  offset="0.6389" style="stop-color:#4C7FC2"/>
				<stop  offset="0.6935" style="stop-color:#396BB5"/>
				<stop  offset="0.7308" style="stop-color:#3264B1"/>
				<stop  offset="0.7745" style="stop-color:#2C5AA8"/>
				<stop  offset="0.8297" style="stop-color:#204697"/>
				<stop  offset="0.8519" style="stop-color:#1F4391"/>
				<stop  offset="0.8814" style="stop-color:#1B3B80"/>
				<stop  offset="0.915" style="stop-color:#152F65"/>
				<stop  offset="0.9516" style="stop-color:#0D1D3E"/>
				<stop  offset="0.9902" style="stop-color:#03060E"/>
				<stop  offset="1" style="stop-color:#000000"/>
			</radialGradient>
			<path fill="url(#SVGID_14_)" d="M55.383,49.75c-1.498-1.907-3.834-3.513-6.746-4.518c-0.552-0.183-1.217-0.687-1.432-1.548
				c-0.145-0.586-0.13-1.481,0.793-2.445c0.771-0.809,3.756-5.146,3.756-7.843c0-5.53-4.493-10.026-10.024-10.026
				c-5.532,0-10.029,4.496-10.029,10.026c0,2.791,2.639,6.861,3.3,7.502c0.933,0.455,1.454,1.265,1.409,2.188
				c-0.047,1.01-0.751,1.83-1.856,2.182c-3.346,1.178-5.875,3.079-7.279,5.33c3.771,3.031,8.47,4.832,13.561,4.832
				C46.385,55.43,51.459,53.29,55.383,49.75z"/>
		</g>
	</g>
</g>
</svg>
