<?xml version="1.0" encoding="utf-8"?>
<!-- Generator: Adobe Illustrator 14.0.0, SVG Export Plug-In . SVG Version: 6.00 Build 43363)  -->
<!DOCTYPE svg PUBLIC "-//W3C//DTD SVG 1.1//EN" "http://www.w3.org/Graphics/SVG/1.1/DTD/svg11.dtd">
<svg version="1.1" id="图层_1" xmlns="http://www.w3.org/2000/svg" xmlns:xlink="http://www.w3.org/1999/xlink" x="0px" y="0px"
	 width="69.991px" height="69.607px" viewBox="0 0 69.991 69.607" enable-background="new 0 0 69.991 69.607" xml:space="preserve">
<g>
	<g>
		<linearGradient id="SVGID_1_" gradientUnits="userSpaceOnUse" x1="-11.791" y1="34.0376" x2="10.0584" y2="34.9571">
			<stop  offset="0" style="stop-color:#E3EAA8"/>
			<stop  offset="0.2545" style="stop-color:#CED600"/>
			<stop  offset="1" style="stop-color:#7F9627"/>
		</linearGradient>
		<path fill="url(#SVGID_1_)" d="M12.503,2.104c-3.438,0-6.224,2.787-6.224,6.223v53.461c0,3.438,2.786,6.224,6.224,6.224h0.004
			V2.104H12.503z"/>
		<g>
			<linearGradient id="SVGID_2_" gradientUnits="userSpaceOnUse" x1="-7.9727" y1="35.2095" x2="17.789" y2="35.2095">
				<stop  offset="0" style="stop-color:#E3EAA8"/>
				<stop  offset="0.2545" style="stop-color:#CED600"/>
				<stop  offset="1" style="stop-color:#7F9627"/>
			</linearGradient>
			<path fill="url(#SVGID_2_)" d="M10.922,67.162c-2.365-0.697-4.017-2.905-4.017-5.374V8.326c0-2.158,1.263-4.147,3.22-5.069
				c0,0-1.933,1.971-1.977,5.069v53.461C8.003,65.631,10.922,67.162,10.922,67.162L10.922,67.162z"/>
		</g>
		<linearGradient id="SVGID_3_" gradientUnits="userSpaceOnUse" x1="39.8652" y1="1.2944" x2="36.9178" y2="69.0722">
			<stop  offset="0.1152" style="stop-color:#F9E091"/>
			<stop  offset="0.9939" style="stop-color:#C8B15B"/>
		</linearGradient>
		<path fill="url(#SVGID_3_)" d="M58.329,2.104H12.508v65.908h45.821c3.438,0,6.223-2.785,6.223-6.224V8.326
			C64.552,4.89,61.767,2.104,58.329,2.104z"/>
		<g>
			<linearGradient id="SVGID_4_" gradientUnits="userSpaceOnUse" x1="47.6592" y1="86.0386" x2="36.0452" y2="53.5809">
				<stop  offset="0.1152" style="stop-color:#F9E091"/>
				<stop  offset="0.9939" style="stop-color:#C8B15B"/>
			</linearGradient>
			<path fill="url(#SVGID_4_)" d="M58.329,67.388H13.754l44.575-1.244c2.401,0,3.916-1.659,4.53-4.286
				c0.318-1.596,1.07-6.454,1.07-6.454v6.384C63.93,64.876,61.418,67.388,58.329,67.388L58.329,67.388z"/>
		</g>
		<g>
			<linearGradient id="SVGID_5_" gradientUnits="userSpaceOnUse" x1="38.9951" y1="0.6318" x2="38.154" y2="56.2644">
				<stop  offset="0.1152" style="stop-color:#F9EBB5"/>
				<stop  offset="0.9939" style="stop-color:#C8B15B"/>
			</linearGradient>
			<path fill="url(#SVGID_5_)" d="M63.93,18.771c0,0-0.605-7.843-1.034-10.514C62.449,5.896,60.73,3.97,58.329,3.97L13.754,2.726
				h44.575c3.089,0,5.601,2.511,5.601,5.6V18.771L63.93,18.771z"/>
		</g>
	</g>
	<linearGradient id="SVGID_6_" gradientUnits="userSpaceOnUse" x1="36.8623" y1="13.292" x2="42.8514" y2="61.6056">
		<stop  offset="0.1152" style="stop-color:#F9ECC5"/>
		<stop  offset="0.9939" style="stop-color:#C8B15B"/>
	</linearGradient>
	<path fill="url(#SVGID_6_)" d="M51.892,32.898v3.814c0,1.937-1.575,3.51-3.512,3.51H28.712c-1.936,0-3.511-1.573-3.511-3.51V17.044
		c0-1.936,1.575-3.511,3.511-3.511H48.38c1.937,0,3.512,1.575,3.512,3.511V32.898"/>
	<linearGradient id="SVGID_7_" gradientUnits="userSpaceOnUse" x1="38.1279" y1="3.7017" x2="38.7456" y2="37.9808">
		<stop  offset="0" style="stop-color:#E3EAA8"/>
		<stop  offset="0.2545" style="stop-color:#CED600"/>
		<stop  offset="1" style="stop-color:#7F9627"/>
	</linearGradient>
	<polygon fill="url(#SVGID_7_)" points="48.367,24.689 40.735,24.689 40.735,17.058 36.355,17.058 36.355,24.689 28.725,24.689 
		28.725,29.067 36.355,29.067 36.355,36.699 40.735,36.699 40.735,29.067 48.367,29.067 	"/>
</g>
</svg>
