<?xml version="1.0" encoding="utf-8"?>
<!-- Generator: Adobe Illustrator 14.0.0, SVG Export Plug-In . SVG Version: 6.00 Build 43363)  -->
<!DOCTYPE svg PUBLIC "-//W3C//DTD SVG 1.1//EN" "http://www.w3.org/Graphics/SVG/1.1/DTD/svg11.dtd">
<svg version="1.1" id="图层_1" xmlns="http://www.w3.org/2000/svg" xmlns:xlink="http://www.w3.org/1999/xlink" x="0px" y="0px"
	 width="69.991px" height="69.607px" viewBox="0 0 69.991 69.607" enable-background="new 0 0 69.991 69.607" xml:space="preserve">
<g>
	<g>
		<path fill="#FFFFFF" d="M41.902,0.168c-1.35,0.657-4.444,4.478-6.068,7.514c-1.618-3.036-4.713-6.856-6.063-7.514
			c-0.552-0.267-0.966-0.179-1.229-0.059c-0.293-0.005-0.703,0.08-1.099,0.542c-0.948,1.112-2.231,5.917-2.486,9.361
			c-2.708-2.115-7.088-4.349-8.592-4.411c-0.612-0.025-0.918,0.205-1.116,0.424c-0.271,0.098-0.645,0.342-0.825,0.954
			c-0.079,0.255-0.116,0.635-0.116,1.107c0,2.061,0.697,5.798,1.641,8.451c-3.316-0.828-8.224-1.074-9.629-0.524
			c-0.619,0.242-0.836,0.649-0.906,0.932c-0.172,0.18-0.335,0.432-0.335,0.866c0,0.076,0,0.156,0.019,0.238
			c0.182,1.438,2.902,5.632,5.288,8.141c-3.365,0.592-7.947,2.343-9.013,3.423c-0.379,0.377-0.478,0.752-0.478,1.033
			c0,0.098,0.029,0.147,0.042,0.218c-0.042,0.11-0.098,0.168-0.098,0.324c0,0.22,0.06,0.484,0.234,0.777
			c0.754,1.235,4.934,3.975,8.14,5.299c-2.826,1.906-6.292,5.363-6.834,6.789c-0.084,0.227-0.116,0.43-0.116,0.609
			c0,0.305,0.093,0.507,0.195,0.665c0.025,0.286,0.132,0.663,0.61,0.989c1.201,0.832,6.141,1.613,9.594,1.509
			c-1.764,2.825-3.486,7.27-3.486,8.901c0,0.039,0,0.076,0,0.113c0.037,0.632,0.336,0.958,0.566,1.126
			c0.144,0.249,0.423,0.548,0.989,0.656c1.435,0.264,6.272-1.025,9.386-2.521c-0.158,1.167-0.236,2.51-0.236,3.834
			c0,2.533,0.261,4.969,0.712,5.826c0.288,0.551,0.652,0.69,0.939,0.744c0.221,0.188,0.59,0.386,1.211,0.235
			c1.425-0.353,5.307-3.489,7.534-6.114c0.966,3.295,3.226,7.729,4.378,8.638c0.496,0.394,0.902,0.362,1.18,0.288
			c0.282,0.074,0.681,0.105,1.185-0.288c1.163-0.909,3.415-5.343,4.375-8.638c2.231,2.625,6.111,5.762,7.54,6.114
			c0.622,0.15,0.984-0.047,1.21-0.235c0.285-0.054,0.654-0.193,0.939-0.744c0.449-0.857,0.714-3.293,0.714-5.822
			c0-1.328-0.082-2.67-0.238-3.838c3.113,1.495,7.947,2.784,9.385,2.521c0.57-0.108,0.843-0.407,0.986-0.656
			c0.24-0.168,0.535-0.494,0.566-1.126c0.006-0.037,0.006-0.074,0.006-0.113c0-1.632-1.725-6.076-3.494-8.901
			c3.461,0.104,8.401-0.681,9.6-1.509c0.476-0.326,0.584-0.703,0.611-0.989c0.1-0.154,0.198-0.358,0.198-0.665
			c0-0.18-0.034-0.383-0.125-0.609c-0.541-1.426-3.999-4.883-6.827-6.789c3.201-1.324,7.381-4.064,8.132-5.299
			c0.181-0.293,0.233-0.558,0.233-0.777c0-0.155-0.053-0.213-0.09-0.324c0.017-0.07,0.037-0.12,0.037-0.218
			c0-0.281-0.101-0.656-0.472-1.033c-1.077-1.081-5.656-2.832-9.018-3.423c2.394-2.508,5.101-6.703,5.289-8.141
			c0.008-0.082,0.019-0.162,0.019-0.235c0-0.438-0.169-0.689-0.333-0.869c-0.075-0.282-0.291-0.69-0.912-0.932
			c-1.405-0.55-6.313-0.304-9.629,0.524c0.948-2.653,1.641-6.391,1.641-8.451c0-0.472-0.034-0.852-0.114-1.107
			c-0.179-0.612-0.554-0.856-0.829-0.954c-0.198-0.219-0.5-0.449-1.104-0.424c-1.512,0.062-5.896,2.296-8.604,4.411
			c-0.252-3.445-1.536-8.249-2.479-9.361c-0.396-0.456-0.812-0.546-1.099-0.542C42.866-0.014,42.456-0.099,41.902,0.168z"/>
		<linearGradient id="SVGID_1_" gradientUnits="userSpaceOnUse" x1="35.8369" y1="1.0249" x2="35.8369" y2="68.582">
			<stop  offset="0" style="stop-color:#FFFF00"/>
			<stop  offset="0.1952" style="stop-color:#D6E506"/>
			<stop  offset="1" style="stop-color:#307C1F"/>
		</linearGradient>
		<path fill="url(#SVGID_1_)" d="M35.834,10.59c0-2.553,7.69-12.305,6.954-8.823c0.736-3.482,3.785,8.552,2.767,10.886
			c1.019-2.334,12.007-8.119,9.938-5.229c2.069-2.891-0.037,9.346-1.903,11.064c1.866-1.719,14.247-2.537,11.206-0.735
			c3.041-1.802-3.846,8.521-6.238,9.337c2.393-0.815,14.035,3.481,10.536,3.886c3.499-0.405-7.003,6.218-9.505,5.994
			c2.502,0.225,11.4,8.887,8.056,7.838c3.345,1.049-8.95,2.827-11.119,1.607c2.169,1.22,6.777,12.75,4.163,10.433
			c2.614,2.317-9.336-1.055-10.811-3.051c1.475,1.996,0.993,14.399-0.437,11.224c1.43,3.176-8.112-4.764-8.644-7.184
			c0.531,2.42-4.963,13.557-4.963,10.075c0,3.481-5.484-7.655-4.965-10.075c-0.52,2.42-10.064,10.359-8.635,7.184
			c-1.43,3.176-1.915-9.228-0.438-11.224c-1.478,1.996-13.428,5.368-10.811,3.051c-2.617,2.317,1.99-9.213,4.164-10.433
			c-2.174,1.22-14.461-0.559-11.117-1.607c-3.345,1.049,5.55-7.613,8.048-7.838c-2.498,0.225-13.003-6.398-9.501-5.994
			c-3.501-0.405,8.15-4.701,10.541-3.886c-2.391-0.815-9.289-11.139-6.242-9.337c-3.046-1.802,9.338-0.984,11.207,0.735
			c-1.869-1.719-3.979-13.955-1.906-11.064c-2.072-2.891,8.92,2.894,9.936,5.229C25.1,10.319,28.151-1.714,28.884,1.768
			C28.151-1.714,35.834,8.037,35.834,10.59z"/>
	</g>
	<g>
		<path fill="#FFFFFF" d="M20.702,27.24c0,4.894,3.983,8.876,8.878,8.876s8.879-3.982,8.879-8.876c0-4.896-3.984-8.878-8.879-8.878
			S20.702,22.344,20.702,27.24z M23.724,27.24c0-3.229,2.627-5.857,5.856-5.857c3.23,0,5.857,2.627,5.857,5.857
			c0,3.228-2.627,5.854-5.857,5.854C26.351,33.094,23.724,30.468,23.724,27.24z"/>
	</g>
	<g>
		<path fill="#FFFFFF" d="M23.917,36.178c0,7.281,5.925,13.207,13.209,13.207c7.286,0,13.215-5.926,13.215-13.207
			c0-7.287-5.929-13.213-13.215-13.213C29.842,22.965,23.917,28.891,23.917,36.178z M28.414,36.178c0-4.807,3.906-8.716,8.712-8.716
			c4.807,0,8.718,3.91,8.718,8.716c0,4.803-3.911,8.711-8.718,8.711C32.32,44.889,28.414,40.981,28.414,36.178z"/>
	</g>
</g>
</svg>
