<?xml version="1.0" encoding="utf-8"?>
<!-- Generator: Adobe Illustrator 14.0.0, SVG Export Plug-In . SVG Version: 6.00 Build 43363)  -->
<!DOCTYPE svg PUBLIC "-//W3C//DTD SVG 1.1//EN" "http://www.w3.org/Graphics/SVG/1.1/DTD/svg11.dtd">
<svg version="1.1" id="图层_1" xmlns="http://www.w3.org/2000/svg" xmlns:xlink="http://www.w3.org/1999/xlink" x="0px" y="0px"
	 width="69.991px" height="69.607px" viewBox="0 0 69.991 69.607" enable-background="new 0 0 69.991 69.607" xml:space="preserve">
<g>
	<g>
		<g>
			<linearGradient id="SVGID_1_" gradientUnits="userSpaceOnUse" x1="25.9727" y1="14.7168" x2="29.9154" y2="85.8597">
				<stop  offset="0" style="stop-color:#F4F5F5"/>
				<stop  offset="0.497" style="stop-color:#E2E2E2"/>
				<stop  offset="1" style="stop-color:#C1C1BC"/>
			</linearGradient>
			<path fill="url(#SVGID_1_)" d="M50.288,59.84c0,2.578-2.092,4.669-4.67,4.669H8.663c-2.578,0-4.669-2.091-4.669-4.669V11.759
				c0-2.578,2.091-4.669,4.669-4.669h36.956c2.578,0,4.67,2.091,4.67,4.669V59.84z"/>
			<g>
				<linearGradient id="SVGID_2_" gradientUnits="userSpaceOnUse" x1="27.0903" y1="6.2231" x2="27.2169" y2="24.5761">
					<stop  offset="0.0848" style="stop-color:#FFFFFF"/>
					<stop  offset="1" style="stop-color:#E2E2E2"/>
				</linearGradient>
				<path fill="url(#SVGID_2_)" d="M49.78,15.375c0,0-0.367-2.792-0.531-3.715c-0.34-1.904-1.896-3.047-3.631-3.047H8.663
					c-1.734,0-3.14,1.35-3.581,3.028c-0.221,0.863-0.58,3.647-0.58,3.647v-3.529c0-2.294,1.867-4.161,4.161-4.161h36.956
					c2.295,0,4.162,1.867,4.162,4.161V15.375L49.78,15.375z"/>
			</g>
			<g>
				<linearGradient id="SVGID_3_" gradientUnits="userSpaceOnUse" x1="27.2632" y1="69.1685" x2="27.0093" y2="45.5631">
					<stop  offset="0" style="stop-color:#F4F5F5"/>
					<stop  offset="0.497" style="stop-color:#E2E2E2"/>
					<stop  offset="1" style="stop-color:#C1C1BC"/>
				</linearGradient>
				<path fill="url(#SVGID_3_)" d="M45.618,64.001H8.663c-2.294,0-4.161-1.866-4.161-4.161v-2.731c0,0,0.281,2.112,0.422,2.808
					c0.35,1.729,2.005,3.07,3.739,3.07h36.956c1.734,0,3.418-1.398,3.645-3.117c0.158-1.206,0.518-4.152,0.518-4.152v4.123
					C49.78,62.135,47.913,64.001,45.618,64.001L45.618,64.001z"/>
			</g>
		</g>
		<linearGradient id="SVGID_4_" gradientUnits="userSpaceOnUse" x1="16.7529" y1="2.7656" x2="17.1253" y2="27.9321">
			<stop  offset="0" style="stop-color:#F4F5F5"/>
			<stop  offset="0.497" style="stop-color:#E2E2E2"/>
			<stop  offset="1" style="stop-color:#C1C1BC"/>
		</linearGradient>
		<rect x="12.187" y="16.137" fill="url(#SVGID_4_)" width="9.545" height="1.239"/>
		<linearGradient id="SVGID_5_" gradientUnits="userSpaceOnUse" x1="26.9375" y1="72.0854" x2="24.9102" y2="12.9212">
			<stop  offset="0" style="stop-color:#F4F5F5"/>
			<stop  offset="0.497" style="stop-color:#E2E2E2"/>
			<stop  offset="1" style="stop-color:#C1C1BC"/>
		</linearGradient>
		<rect x="12.187" y="21.591" fill="url(#SVGID_5_)" width="26.083" height="1.239"/>
		<linearGradient id="SVGID_6_" gradientUnits="userSpaceOnUse" x1="26.8125" y1="72.2681" x2="24.7852" y2="13.1038">
			<stop  offset="0" style="stop-color:#F4F5F5"/>
			<stop  offset="0.497" style="stop-color:#E2E2E2"/>
			<stop  offset="1" style="stop-color:#C1C1BC"/>
		</linearGradient>
		<rect x="12.187" y="25.433" fill="url(#SVGID_6_)" width="26.083" height="1.239"/>
		<linearGradient id="SVGID_7_" gradientUnits="userSpaceOnUse" x1="26.6875" y1="72.4517" x2="24.6602" y2="13.2874">
			<stop  offset="0" style="stop-color:#F4F5F5"/>
			<stop  offset="0.497" style="stop-color:#E2E2E2"/>
			<stop  offset="1" style="stop-color:#C1C1BC"/>
		</linearGradient>
		<rect x="12.187" y="29.276" fill="url(#SVGID_7_)" width="26.083" height="1.239"/>
		<linearGradient id="SVGID_8_" gradientUnits="userSpaceOnUse" x1="26.561" y1="72.6167" x2="24.5346" y2="13.4787">
			<stop  offset="0" style="stop-color:#F4F5F5"/>
			<stop  offset="0.497" style="stop-color:#E2E2E2"/>
			<stop  offset="1" style="stop-color:#C1C1BC"/>
		</linearGradient>
		<rect x="12.187" y="33.118" fill="url(#SVGID_8_)" width="26.083" height="1.239"/>
		<linearGradient id="SVGID_9_" gradientUnits="userSpaceOnUse" x1="26.4355" y1="72.8013" x2="24.4092" y2="13.6632">
			<stop  offset="0" style="stop-color:#F4F5F5"/>
			<stop  offset="0.497" style="stop-color:#E2E2E2"/>
			<stop  offset="1" style="stop-color:#C1C1BC"/>
		</linearGradient>
		<rect x="12.187" y="36.96" fill="url(#SVGID_9_)" width="26.083" height="1.239"/>
		<linearGradient id="SVGID_10_" gradientUnits="userSpaceOnUse" x1="26.311" y1="73.0005" x2="24.2838" y2="13.8363">
			<stop  offset="0" style="stop-color:#F4F5F5"/>
			<stop  offset="0.497" style="stop-color:#E2E2E2"/>
			<stop  offset="1" style="stop-color:#C1C1BC"/>
		</linearGradient>
		<rect x="12.187" y="40.803" fill="url(#SVGID_10_)" width="26.083" height="1.239"/>
		<linearGradient id="SVGID_11_" gradientUnits="userSpaceOnUse" x1="26.186" y1="73.1968" x2="24.1578" y2="14.0054">
			<stop  offset="0" style="stop-color:#F4F5F5"/>
			<stop  offset="0.497" style="stop-color:#E2E2E2"/>
			<stop  offset="1" style="stop-color:#C1C1BC"/>
		</linearGradient>
		<rect x="12.187" y="44.645" fill="url(#SVGID_11_)" width="26.083" height="1.24"/>
	</g>
	<g>
		<linearGradient id="SVGID_12_" gradientUnits="userSpaceOnUse" x1="57.4307" y1="58.2954" x2="57.8969" y2="75.9122">
			<stop  offset="0.1152" style="stop-color:#F9E091"/>
			<stop  offset="0.9939" style="stop-color:#C8B15B"/>
		</linearGradient>
		<path fill="url(#SVGID_12_)" d="M54.284,24.479c0,0,1.951-4.151,6.58-3.886c3.783,0.311,3.988,3.368,3.988,3.368
			s0.631-1.637,2.631-2.541c-0.07-0.153-0.174-0.322-0.344-0.486l-5.424-5.332c-4.635,2.139-8.516,0.799-10.477-0.241l-5.711,5.612
			c-0.041,0.035-0.076,0.072-0.111,0.11c0.668-0.013,1.52,0.071,2.598,0.287C51.642,22.095,54.284,24.479,54.284,24.479z"/>
		<g>
			<path fill="#888888" d="M55.192,11.476l-3.953,3.885c1.361,0.722,3.65,1.586,6.473,1.333l-0.979-5.642
				C56.198,10.926,55.61,11.064,55.192,11.476z"/>
			<path fill="#595757" d="M57.519,11.476c-0.225-0.22-0.498-0.358-0.785-0.424l0.979,5.642c1.242-0.112,2.588-0.438,4.004-1.091
				L57.519,11.476z"/>
		</g>
		<linearGradient id="SVGID_13_" gradientUnits="userSpaceOnUse" x1="34.2808" y1="42.9595" x2="64.0845" y2="44.294">
			<stop  offset="0" style="stop-color:#F4F5F5"/>
			<stop  offset="0.497" style="stop-color:#E2E2E2"/>
			<stop  offset="1" style="stop-color:#C1C1BC"/>
		</linearGradient>
		<rect x="45.067" y="41.044" fill="url(#SVGID_13_)" width="22.539" height="5.806"/>
		<linearGradient id="SVGID_14_" gradientUnits="userSpaceOnUse" x1="34.0771" y1="68.0454" x2="60.0772" y2="48.7954">
			<stop  offset="0" style="stop-color:#E3EAA8"/>
			<stop  offset="0.2545" style="stop-color:#CED600"/>
			<stop  offset="1" style="stop-color:#7F9627"/>
		</linearGradient>
		<path fill="url(#SVGID_14_)" d="M45.067,52.607c0,5.373,4.355,7.522,9.729,7.522h3.082c5.373,0,9.729-2.149,9.729-7.522V46.85
			H45.067V52.607z"/>
		<g>
			<linearGradient id="SVGID_15_" gradientUnits="userSpaceOnUse" x1="39.9805" y1="63.2847" x2="65.9524" y2="50.299">
				<stop  offset="0" style="stop-color:#E3EAA8"/>
				<stop  offset="0.2545" style="stop-color:#CED600"/>
				<stop  offset="1" style="stop-color:#7F9627"/>
			</linearGradient>
			<path fill="url(#SVGID_15_)" d="M57.878,59.622h-3.082c-3.201,0-8.65-0.801-9.182-6.172c0,0,1.125,5.152,9.182,5.157h3.082
				c8.438,0.265,9.209-5.536,9.209-5.536C66.79,58.771,61.19,59.622,57.878,59.622L57.878,59.622z"/>
		</g>
		<linearGradient id="SVGID_16_" gradientUnits="userSpaceOnUse" x1="71.4775" y1="29.6519" x2="46.3342" y2="32.8778">
			<stop  offset="0.0545" style="stop-color:#FFFFFF"/>
			<stop  offset="0.3576" style="stop-color:#AB80B6"/>
			<stop  offset="1" style="stop-color:#947B9D"/>
		</linearGradient>
		<path fill="url(#SVGID_16_)" d="M60.864,20.593c-4.629-0.265-6.58,3.886-6.58,3.886v16.565h10.568V23.96
			C64.853,23.96,64.647,20.904,60.864,20.593z"/>
		<linearGradient id="SVGID_17_" gradientUnits="userSpaceOnUse" x1="58.249" y1="30.7876" x2="40.631" y2="31.3666">
			<stop  offset="0.0545" style="stop-color:#FFFFFF"/>
			<stop  offset="0.3576" style="stop-color:#AB80B6"/>
			<stop  offset="1" style="stop-color:#947B9D"/>
		</linearGradient>
		<path fill="url(#SVGID_17_)" d="M48.015,21.37c-1.078-0.216-1.93-0.3-2.598-0.287c-0.346,0.373-0.35,0.86-0.35,0.86
			c0,0.004-0.004,0.008-0.004,0.013h0.004v19.088h9.217V24.479C54.284,24.479,51.642,22.095,48.015,21.37z"/>
		<linearGradient id="SVGID_18_" gradientUnits="userSpaceOnUse" x1="78.7148" y1="30.4619" x2="69.1177" y2="31.1239">
			<stop  offset="0.0545" style="stop-color:#FFFFFF"/>
			<stop  offset="0.3576" style="stop-color:#AB80B6"/>
			<stop  offset="1" style="stop-color:#947B9D"/>
		</linearGradient>
		<path fill="url(#SVGID_18_)" d="M67.606,21.942c0,0,0.008-0.23-0.123-0.522c-2,0.903-2.631,2.541-2.631,2.541v17.084h2.754V21.956
			h0.004C67.61,21.952,67.606,21.947,67.606,21.942z"/>
		<linearGradient id="SVGID_19_" gradientUnits="userSpaceOnUse" x1="43.5205" y1="42.0532" x2="69.8743" y2="43.054">
			<stop  offset="0" style="stop-color:#F4F5F5"/>
			<stop  offset="0.497" style="stop-color:#E2E2E2"/>
			<stop  offset="1" style="stop-color:#C1C1BC"/>
		</linearGradient>
		<rect x="45.087" y="41.958" fill="url(#SVGID_19_)" width="22.418" height="1.162"/>
		<linearGradient id="SVGID_20_" gradientUnits="userSpaceOnUse" x1="43.4209" y1="44.646" x2="69.7781" y2="45.6469">
			<stop  offset="0" style="stop-color:#F4F5F5"/>
			<stop  offset="0.497" style="stop-color:#E2E2E2"/>
			<stop  offset="1" style="stop-color:#C1C1BC"/>
		</linearGradient>
		<rect x="45.087" y="44.555" fill="url(#SVGID_20_)" width="22.418" height="1.161"/>
	</g>
</g>
</svg>
