<?xml version="1.0" encoding="utf-8"?>
<!-- Generator: Adobe Illustrator 14.0.0, SVG Export Plug-In . SVG Version: 6.00 Build 43363)  -->
<!DOCTYPE svg PUBLIC "-//W3C//DTD SVG 1.1//EN" "http://www.w3.org/Graphics/SVG/1.1/DTD/svg11.dtd">
<svg version="1.1" id="图层_1" xmlns="http://www.w3.org/2000/svg" xmlns:xlink="http://www.w3.org/1999/xlink" x="0px" y="0px"
	 width="69.991px" height="69.607px" viewBox="0 0 69.991 69.607" enable-background="new 0 0 69.991 69.607" xml:space="preserve">
<g>
	<radialGradient id="SVGID_1_" cx="59.1113" cy="-69.0015" r="64.0768" gradientUnits="userSpaceOnUse">
		<stop  offset="0" style="stop-color:#FFFFFF"/>
		<stop  offset="0.1682" style="stop-color:#F9F9F9"/>
		<stop  offset="0.3873" style="stop-color:#E9E9E9"/>
		<stop  offset="0.6344" style="stop-color:#CECECE"/>
		<stop  offset="0.9002" style="stop-color:#A9A9A9"/>
		<stop  offset="1" style="stop-color:#999999"/>
	</radialGradient>
	<circle fill="url(#SVGID_1_)" cx="45.865" cy="34.004" r="23.927"/>
	<radialGradient id="SVGID_2_" cx="41.4072" cy="-6.1196" r="85.883" gradientUnits="userSpaceOnUse">
		<stop  offset="0" style="stop-color:#F9F9F9"/>
		<stop  offset="0.1433" style="stop-color:#F1F1F1"/>
		<stop  offset="0.37" style="stop-color:#DADADA"/>
		<stop  offset="0.6503" style="stop-color:#B5B5B5"/>
		<stop  offset="0.8202" style="stop-color:#9B9B9B"/>
	</radialGradient>
	<path fill="url(#SVGID_2_)" d="M45.865,55.874c-12.061,0-21.872-9.809-21.872-21.869c0-12.06,9.812-21.871,21.872-21.871
		s21.871,9.811,21.871,21.871C67.736,46.065,57.926,55.874,45.865,55.874L45.865,55.874z"/>
	<g>
		<path fill="#EA6000" d="M36.465,34.568l-0.608-1.606h-5.18l-0.61,1.642c-0.238,0.64-0.44,1.072-0.608,1.298
			c-0.168,0.223-0.443,0.335-0.826,0.335c-0.325,0-0.611-0.118-0.861-0.356c-0.25-0.238-0.374-0.509-0.374-0.811
			c0-0.173,0.029-0.354,0.087-0.539c0.057-0.186,0.154-0.444,0.287-0.775l3.26-8.287c0.092-0.239,0.204-0.524,0.333-0.857
			c0.131-0.334,0.271-0.611,0.417-0.832c0.147-0.221,0.342-0.399,0.583-0.536c0.239-0.136,0.536-0.205,0.89-0.205
			c0.359,0,0.659,0.069,0.899,0.205c0.241,0.137,0.436,0.312,0.582,0.527c0.147,0.215,0.272,0.445,0.375,0.692
			c0.1,0.247,0.229,0.576,0.387,0.987l3.329,8.236c0.261,0.626,0.392,1.082,0.392,1.366c0,0.296-0.124,0.568-0.37,0.814
			c-0.247,0.247-0.544,0.37-0.89,0.37c-0.204,0-0.378-0.036-0.522-0.108c-0.146-0.073-0.267-0.172-0.365-0.298
			c-0.099-0.125-0.204-0.317-0.317-0.576C36.643,34.994,36.546,34.766,36.465,34.568z M31.354,31.029h3.807l-1.92-5.272
			L31.354,31.029z"/>
		<path fill="#EA6000" d="M44.467,24.588l4.979,7.521v-7.591c0-0.494,0.104-0.864,0.315-1.109c0.209-0.248,0.493-0.371,0.852-0.371
			c0.367,0,0.658,0.123,0.872,0.371c0.213,0.245,0.318,0.616,0.318,1.109v10.037c0,1.121-0.462,1.68-1.386,1.68
			c-0.23,0-0.44-0.033-0.623-0.101c-0.185-0.067-0.358-0.173-0.521-0.318c-0.162-0.145-0.312-0.314-0.45-0.51
			c-0.139-0.194-0.277-0.394-0.416-0.597l-4.856-7.447v7.491c0,0.487-0.113,0.857-0.34,1.107c-0.227,0.249-0.518,0.374-0.871,0.374
			c-0.366,0-0.659-0.127-0.881-0.378c-0.221-0.252-0.331-0.62-0.331-1.102v-9.846c0-0.417,0.047-0.746,0.14-0.983
			c0.11-0.262,0.293-0.475,0.55-0.64c0.255-0.165,0.53-0.248,0.827-0.248c0.233,0,0.432,0.038,0.598,0.112
			c0.165,0.076,0.311,0.178,0.437,0.305c0.124,0.129,0.251,0.294,0.382,0.497C44.192,24.156,44.328,24.369,44.467,24.588z"/>
		<path fill="#EA6000" d="M56.249,23.269h3.367c0.876,0,1.627,0.081,2.253,0.242s1.196,0.464,1.705,0.907
			c1.328,1.138,1.994,2.867,1.994,5.188c0,0.767-0.068,1.466-0.201,2.099c-0.133,0.632-0.34,1.203-0.618,1.71
			s-0.634,0.962-1.07,1.362c-0.342,0.304-0.716,0.548-1.122,0.73c-0.407,0.184-0.843,0.313-1.31,0.389
			c-0.468,0.074-0.994,0.111-1.58,0.111H56.3c-0.471,0-0.824-0.071-1.063-0.213s-0.393-0.342-0.466-0.6
			c-0.072-0.258-0.108-0.591-0.108-1.003v-9.341c0-0.557,0.125-0.96,0.374-1.208C55.287,23.393,55.69,23.269,56.249,23.269z
			 M57.251,25.299v8.677h1.956c0.43,0,0.766-0.011,1.009-0.035c0.244-0.022,0.497-0.082,0.757-0.174
			c0.262-0.094,0.487-0.224,0.681-0.393c0.863-0.732,1.294-1.994,1.294-3.785c0-1.262-0.189-2.207-0.569-2.833
			c-0.38-0.628-0.849-1.027-1.405-1.2c-0.557-0.172-1.229-0.257-2.018-0.257H57.251z"/>
	</g>
	<g>
		
			<linearGradient id="SVGID_3_" gradientUnits="userSpaceOnUse" x1="-848.8276" y1="-421.5352" x2="-865.8934" y2="-434.1335" gradientTransform="matrix(-4.371139e-008 1 -1 -4.371139e-008 -407.3993 906.1315)">
			<stop  offset="0" style="stop-color:#EFEFEF"/>
			<stop  offset="1" style="stop-color:#C4C4C4"/>
		</linearGradient>
		<polygon fill="url(#SVGID_3_)" points="18.234,60.963 34.355,50.258 29.062,39.554 26.823,43.979 8.954,43.979 2.602,56.539 
			20.474,56.539 		"/>
		
			<linearGradient id="SVGID_4_" gradientUnits="userSpaceOnUse" x1="-828.1821" y1="-403.7192" x2="-855.6143" y2="-421.0346" gradientTransform="matrix(-4.371139e-008 1 -1 -4.371139e-008 -407.3993 906.1315)">
			<stop  offset="0" style="stop-color:#691B11"/>
			<stop  offset="1" style="stop-color:#B12523"/>
		</linearGradient>
		<polygon fill="url(#SVGID_4_)" points="0.967,53.732 2.602,56.539 20.474,56.539 18.837,53.733 		"/>
		
			<linearGradient id="SVGID_5_" gradientUnits="userSpaceOnUse" x1="-847.8418" y1="-430.5415" x2="-855.1263" y2="-434.6644" gradientTransform="matrix(-4.371139e-008 1 -1 -4.371139e-008 -407.3993 906.1315)">
			<stop  offset="0.0056" style="stop-color:#E75E1E"/>
			<stop  offset="1" style="stop-color:#E96C1D"/>
		</linearGradient>
		<polygon fill="url(#SVGID_5_)" points="32.72,47.452 34.355,50.258 18.234,60.963 16.631,58.016 		"/>
		
			<linearGradient id="SVGID_6_" gradientUnits="userSpaceOnUse" x1="-846.6577" y1="-428.209" x2="-865.8624" y2="-440.3311" gradientTransform="matrix(-4.371139e-008 1 -1 -4.371139e-008 -407.3993 906.1315)">
			<stop  offset="0" style="stop-color:#691B11"/>
			<stop  offset="1" style="stop-color:#B12523"/>
		</linearGradient>
		<polygon fill="url(#SVGID_6_)" points="29.062,39.554 27.428,36.747 32.72,47.452 34.355,50.258 		"/>
		
			<linearGradient id="SVGID_7_" gradientUnits="userSpaceOnUse" x1="-855.502" y1="-453.668" x2="-860.0792" y2="-418.713" gradientTransform="matrix(-4.371139e-008 1 -1 -4.371139e-008 -407.3993 906.1315)">
			<stop  offset="0" style="stop-color:#E50012"/>
			<stop  offset="1" style="stop-color:#EA6000"/>
		</linearGradient>
		<polygon fill="url(#SVGID_7_)" points="16.601,58.158 32.72,47.452 27.428,36.747 25.189,41.171 7.321,41.171 0.967,53.732 
			18.837,53.733 		"/>
	</g>
</g>
</svg>
