<?xml version="1.0" encoding="utf-8"?>
<!-- Generator: Adobe Illustrator 14.0.0, SVG Export Plug-In . SVG Version: 6.00 Build 43363)  -->
<!DOCTYPE svg PUBLIC "-//W3C//DTD SVG 1.1//EN" "http://www.w3.org/Graphics/SVG/1.1/DTD/svg11.dtd">
<svg version="1.1" id="图层_1" xmlns="http://www.w3.org/2000/svg" xmlns:xlink="http://www.w3.org/1999/xlink" x="0px" y="0px"
	 width="69.991px" height="69.607px" viewBox="0 0 69.991 69.607" enable-background="new 0 0 69.991 69.607" xml:space="preserve">
<g>
	<radialGradient id="SVGID_1_" cx="42.3691" cy="-72.584" r="69.1518" gradientUnits="userSpaceOnUse">
		<stop  offset="0" style="stop-color:#FFFFFF"/>
		<stop  offset="0.1682" style="stop-color:#F9F9F9"/>
		<stop  offset="0.3873" style="stop-color:#E9E9E9"/>
		<stop  offset="0.6344" style="stop-color:#CECECE"/>
		<stop  offset="0.9002" style="stop-color:#A9A9A9"/>
		<stop  offset="1" style="stop-color:#999999"/>
	</radialGradient>
	<circle fill="url(#SVGID_1_)" cx="28.074" cy="38.578" r="25.822"/>
	<radialGradient id="SVGID_2_" cx="23.2632" cy="-4.7251" r="92.6889" gradientUnits="userSpaceOnUse">
		<stop  offset="0" style="stop-color:#F9F9F9"/>
		<stop  offset="0.1433" style="stop-color:#F1F1F1"/>
		<stop  offset="0.37" style="stop-color:#DADADA"/>
		<stop  offset="0.6503" style="stop-color:#B5B5B5"/>
		<stop  offset="0.8202" style="stop-color:#9B9B9B"/>
	</radialGradient>
	<path fill="url(#SVGID_2_)" d="M28.075,62.181c-13.017,0-23.605-10.587-23.605-23.601c0-13.017,10.588-23.606,23.605-23.606
		c13.015,0,23.603,10.589,23.603,23.606C51.678,51.594,41.09,62.181,28.075,62.181L28.075,62.181z"/>
	<g>
		<path fill="#EA6000" d="M17.364,47.293l-0.657-1.733h-5.592l-0.656,1.772c-0.256,0.691-0.476,1.158-0.657,1.398
			c-0.182,0.242-0.478,0.362-0.892,0.362c-0.35,0-0.66-0.128-0.929-0.385c-0.268-0.256-0.403-0.548-0.403-0.873
			c0-0.188,0.031-0.382,0.094-0.583c0.063-0.2,0.166-0.479,0.309-0.837l3.518-8.943c0.101-0.256,0.221-0.565,0.362-0.925
			c0.139-0.36,0.29-0.658,0.449-0.896c0.161-0.238,0.37-0.431,0.629-0.578c0.261-0.147,0.581-0.221,0.962-0.221
			c0.388,0,0.711,0.074,0.97,0.221c0.26,0.147,0.468,0.336,0.629,0.568c0.16,0.232,0.295,0.48,0.403,0.746
			c0.111,0.267,0.25,0.622,0.417,1.067l3.594,8.886c0.281,0.679,0.422,1.169,0.422,1.476c0,0.32-0.132,0.611-0.399,0.879
			c-0.266,0.266-0.586,0.398-0.961,0.398c-0.219,0-0.407-0.039-0.563-0.118c-0.156-0.078-0.287-0.185-0.393-0.319
			c-0.106-0.135-0.221-0.343-0.342-0.622S17.451,47.508,17.364,47.293z M11.848,43.475h4.108l-2.073-5.69L11.848,43.475z"/>
		<path fill="#EA6000" d="M25.999,36.523l5.374,8.118v-8.192c0-0.532,0.113-0.931,0.34-1.198c0.226-0.265,0.532-0.399,0.919-0.399
			c0.397,0,0.711,0.134,0.941,0.399c0.229,0.268,0.344,0.666,0.344,1.198V47.28c0,1.211-0.499,1.813-1.496,1.813
			c-0.249,0-0.474-0.035-0.673-0.107c-0.199-0.072-0.386-0.188-0.561-0.344c-0.174-0.157-0.336-0.34-0.486-0.55
			c-0.15-0.21-0.299-0.426-0.448-0.645l-5.242-8.037v8.083c0,0.527-0.123,0.926-0.367,1.195c-0.245,0.269-0.559,0.404-0.94,0.404
			c-0.396,0-0.711-0.136-0.95-0.407c-0.238-0.273-0.357-0.669-0.357-1.188V36.872c0-0.451,0.051-0.804,0.15-1.063
			c0.119-0.281,0.316-0.51,0.593-0.689c0.276-0.179,0.573-0.269,0.894-0.269c0.251,0,0.465,0.041,0.645,0.123
			c0.179,0.082,0.336,0.19,0.471,0.329c0.135,0.138,0.271,0.316,0.413,0.534C25.703,36.057,25.849,36.286,25.999,36.523z"/>
		<path fill="#EA6000" d="M38.714,35.1h3.635c0.944,0,1.756,0.086,2.431,0.261c0.677,0.175,1.291,0.5,1.841,0.979
			c1.433,1.229,2.151,3.095,2.151,5.599c0,0.828-0.072,1.582-0.217,2.264c-0.144,0.683-0.367,1.3-0.667,1.848
			c-0.301,0.547-0.685,1.037-1.154,1.47c-0.369,0.327-0.773,0.591-1.213,0.789c-0.438,0.198-0.908,0.337-1.412,0.419
			c-0.505,0.08-1.073,0.12-1.705,0.12h-3.635c-0.507,0-0.889-0.077-1.146-0.23c-0.257-0.153-0.424-0.369-0.502-0.646
			c-0.079-0.278-0.117-0.64-0.117-1.084V36.805c0-0.6,0.135-1.033,0.404-1.303C37.677,35.234,38.111,35.1,38.714,35.1z
			 M39.795,37.291v9.364h2.111c0.464,0,0.826-0.011,1.089-0.037c0.263-0.025,0.536-0.087,0.817-0.188
			c0.282-0.1,0.526-0.241,0.733-0.423c0.932-0.791,1.398-2.152,1.398-4.086c0-1.36-0.205-2.381-0.615-3.06
			c-0.409-0.676-0.915-1.108-1.517-1.293c-0.601-0.185-1.326-0.277-2.178-0.277H39.795z"/>
	</g>
	<g>
		
			<linearGradient id="SVGID_3_" gradientUnits="userSpaceOnUse" x1="-875.3984" y1="-454.3384" x2="-893.8166" y2="-467.935" gradientTransform="matrix(-4.371139e-008 1 -1 -4.371139e-008 -407.3993 906.1315)">
			<stop  offset="0" style="stop-color:#EFEFEF"/>
			<stop  offset="1" style="stop-color:#C4C4C4"/>
		</linearGradient>
		<polygon fill="url(#SVGID_3_)" points="51.362,34.683 68.76,23.129 63.047,11.576 60.632,16.353 41.347,16.353 34.492,29.907 
			53.778,29.907 		"/>
		
			<linearGradient id="SVGID_4_" gradientUnits="userSpaceOnUse" x1="-853.1167" y1="-435.1099" x2="-882.7234" y2="-453.7978" gradientTransform="matrix(-4.371139e-008 1 -1 -4.371139e-008 -407.3993 906.1315)">
			<stop  offset="0" style="stop-color:#691B11"/>
			<stop  offset="1" style="stop-color:#B12523"/>
		</linearGradient>
		<polygon fill="url(#SVGID_4_)" points="32.727,26.878 34.492,29.907 53.778,29.907 52.013,26.879 		"/>
		
			<linearGradient id="SVGID_5_" gradientUnits="userSpaceOnUse" x1="-874.335" y1="-464.0586" x2="-882.1962" y2="-468.5079" gradientTransform="matrix(-4.371139e-008 1 -1 -4.371139e-008 -407.3993 906.1315)">
			<stop  offset="0.0056" style="stop-color:#E75E1E"/>
			<stop  offset="1" style="stop-color:#E96C1D"/>
		</linearGradient>
		<polygon fill="url(#SVGID_5_)" points="66.994,20.1 68.76,23.129 51.362,34.683 49.631,31.502 		"/>
		
			<linearGradient id="SVGID_6_" gradientUnits="userSpaceOnUse" x1="-873.0542" y1="-461.5396" x2="-893.783" y2="-474.6237" gradientTransform="matrix(-4.371139e-008 1 -1 -4.371139e-008 -407.3993 906.1315)">
			<stop  offset="0" style="stop-color:#691B11"/>
			<stop  offset="1" style="stop-color:#B12523"/>
		</linearGradient>
		<polygon fill="url(#SVGID_6_)" points="63.047,11.576 61.284,8.547 66.994,20.1 68.76,23.129 		"/>
		
			<linearGradient id="SVGID_7_" gradientUnits="userSpaceOnUse" x1="-882.603" y1="-489.0156" x2="-887.5428" y2="-451.2919" gradientTransform="matrix(-4.371139e-008 1 -1 -4.371139e-008 -407.3993 906.1315)">
			<stop  offset="0" style="stop-color:#E50012"/>
			<stop  offset="1" style="stop-color:#EA6000"/>
		</linearGradient>
		<polygon fill="url(#SVGID_7_)" points="49.6,31.654 66.994,20.1 61.284,8.547 58.867,13.323 39.584,13.323 32.727,26.878 
			52.013,26.879 		"/>
	</g>
</g>
</svg>
