<?xml version="1.0" encoding="utf-8"?>
<!-- Generator: Adobe Illustrator 14.0.0, SVG Export Plug-In . SVG Version: 6.00 Build 43363)  -->
<!DOCTYPE svg PUBLIC "-//W3C//DTD SVG 1.1//EN" "http://www.w3.org/Graphics/SVG/1.1/DTD/svg11.dtd">
<svg version="1.1" id="图层_1" xmlns="http://www.w3.org/2000/svg" xmlns:xlink="http://www.w3.org/1999/xlink" x="0px" y="0px"
	 width="69.991px" height="69.607px" viewBox="0 0 69.991 69.607" enable-background="new 0 0 69.991 69.607" xml:space="preserve">
<g>
	<g>
		<g opacity="0.11">
			<image overflow="visible" width="131" height="96" xlink:href="F1CBDFEF.png"  transform="matrix(1 0 0 1 -37.6748 10.2681)">
			</image>
		</g>
		<g opacity="0.19">
			<image overflow="visible" width="126" height="95" xlink:href="F1CBDFED.png"  transform="matrix(1 0 0 1 -33.6748 10.2681)">
			</image>
		</g>
	</g>
	<g>
		<g>
			<g>
				<g>
					<path fill="#DDD373" d="M48.876,14.158c-0.239-5.29-0.458-6.782-0.721-8.717c-0.421-2.224-1.383-2.465-2.296-2.23
						c-0.201,0.082-0.415,0.165-0.65,0.246C41.062,4.9,23.207,11.392,19.06,12.835c-2.535,0.882-10.051,3.446-15.514,5.308
						c-1.211,1.609-1.293,3.756-1.176,5.991c0.999,8.333,2.586,22.053,3.225,30.182c0.961,12.262,2.163,12.504,5.048,13.465
						c2.887,0.963,40.157-14.188,40.398-17.553C51.281,46.86,48.92,15.119,48.876,14.158z"/>
				</g>
				<g>
					<image overflow="visible" width="50" height="66" xlink:href="F1CBDFF3.png"  transform="matrix(1 0 0 1 1.6494 2.2681)">
					</image>
				</g>
				<path fill="#EFE38E" d="M4.271,17.885c5.426-1.853,12.169-4.138,14.789-5.05c4.147-1.443,22.002-7.935,26.149-9.378
					c0.548-0.189,0.65-0.246,1.285-0.353c0.335,0.037,0.699,0.218,0.699,0.218c-1.442-1.488-2.932-1.218-3.335-1.1
					C38.946,4.255,11.295,13.684,2.847,16.556c-0.533,0.182-0.982,0.533-1.335,0.994c0.613,0.321,1.215,0.659,1.811,1.008
					C3.686,18.167,4.085,17.949,4.271,17.885z"/>
				<image overflow="visible" width="47" height="18" xlink:href="F1CBDFF5.png"  transform="matrix(1 0 0 1 0.6494 1.2681)">
				</image>
			</g>
			<g>
				<g>
					<path opacity="0.28" fill="#4E4D00" d="M48.682,10.13l-0.09-0.542c0,0-23.354,8.196-28.45,9.949
						c-5.097,1.753-16.051,5.23-16.051,5.23s3.383,33.692,3.427,34.175c0.09,0.993,0.541,2.164,1.081,2.615l0.541-0.36
						c0,0-3.516-33.815-2.164-35.438C8.329,24.136,48.682,10.13,48.682,10.13z"/>
					<path opacity="0.15" fill="#4E4D00" d="M48.546,10.581l-0.09-1.443c0,0-23.85,8.286-28.946,10.039
						c-5.096,1.753-16.05,5.23-16.05,5.23s3.41,33.69,3.426,34.175c0.09,2.676,1.713,4.118,2.254,4.568l3.607,1.895
						c0,0-7.755-38.023-6.402-39.646C7.698,23.776,48.546,10.581,48.546,10.581z"/>
					<g>
						<g>
							<path fill="#E6E6E6" d="M50.8,21.973L50.079,9.469c0,0-14.909,5.29-25.008,8.896c-7.529,2.689-20.439,6.733-20.439,6.733
								s2.886,29.095,3.126,32.943s2.163,4.81,2.163,4.81l41.842-16.833L50.8,21.973z"/>
							<image overflow="visible" width="49" height="54" xlink:href="F1CBDFF7.png"  transform="matrix(1 0 0 1 3.6494 9.2681)">
							</image>
						</g>
						<g>
							<linearGradient id="SVGID_1_" gradientUnits="userSpaceOnUse" x1="39.9492" y1="13.9224" x2="49.277" y2="26.8903">
								<stop  offset="0.0056" style="stop-color:#ECDCCD"/>
								<stop  offset="0.4663" style="stop-color:#B17930"/>
								<stop  offset="0.7182" style="stop-color:#D1AE82"/>
								<stop  offset="0.9085" style="stop-color:#E7D2BA"/>
								<stop  offset="1" style="stop-color:#F0E0D0"/>
							</linearGradient>
							<path opacity="0.5" fill="url(#SVGID_1_)" d="M44.399,15.601c-0.197,0.016-0.347,0.189-0.331,0.388l0.722,9.378
								c0.014,0.199,0.188,0.347,0.387,0.332s0.348-0.189,0.333-0.388l-0.723-9.377C44.772,15.734,44.6,15.586,44.399,15.601z"/>
							<linearGradient id="SVGID_2_" gradientUnits="userSpaceOnUse" x1="33.8779" y1="15.9658" x2="43.2068" y2="28.9352">
								<stop  offset="0.0056" style="stop-color:#ECDCCD"/>
								<stop  offset="0.4663" style="stop-color:#B17930"/>
								<stop  offset="0.7182" style="stop-color:#D1AE82"/>
								<stop  offset="0.9085" style="stop-color:#E7D2BA"/>
								<stop  offset="1" style="stop-color:#F0E0D0"/>
							</linearGradient>
							<path opacity="0.5" fill="url(#SVGID_2_)" d="M38.329,17.645c-0.199,0.016-0.348,0.188-0.332,0.388l0.721,9.377
								c0.016,0.198,0.188,0.348,0.387,0.332c0.2-0.015,0.349-0.188,0.333-0.387l-0.721-9.378
								C38.699,17.778,38.528,17.63,38.329,17.645z"/>
							<linearGradient id="SVGID_3_" gradientUnits="userSpaceOnUse" x1="27.5059" y1="18.2505" x2="36.8336" y2="31.2184">
								<stop  offset="0.0056" style="stop-color:#ECDCCD"/>
								<stop  offset="0.4663" style="stop-color:#B17930"/>
								<stop  offset="0.7182" style="stop-color:#D1AE82"/>
								<stop  offset="0.9085" style="stop-color:#E7D2BA"/>
								<stop  offset="1" style="stop-color:#F0E0D0"/>
							</linearGradient>
							<path opacity="0.5" fill="url(#SVGID_3_)" d="M31.958,19.929c-0.2,0.015-0.349,0.189-0.333,0.388l0.721,9.378
								c0.016,0.198,0.188,0.347,0.387,0.332c0.199-0.016,0.349-0.189,0.333-0.388l-0.721-9.377
								C32.329,20.063,32.155,19.915,31.958,19.929z"/>
							<linearGradient id="SVGID_4_" gradientUnits="userSpaceOnUse" x1="21.0132" y1="20.7744" x2="30.342" y2="33.7438">
								<stop  offset="0.0056" style="stop-color:#ECDCCD"/>
								<stop  offset="0.4663" style="stop-color:#B17930"/>
								<stop  offset="0.7182" style="stop-color:#D1AE82"/>
								<stop  offset="0.9085" style="stop-color:#E7D2BA"/>
								<stop  offset="1" style="stop-color:#F0E0D0"/>
							</linearGradient>
							<path opacity="0.5" fill="url(#SVGID_4_)" d="M25.465,22.454c-0.199,0.015-0.348,0.188-0.333,0.387l0.723,9.378
								c0.014,0.199,0.188,0.347,0.386,0.332c0.199-0.016,0.348-0.188,0.332-0.387l-0.721-9.378
								C25.837,22.587,25.663,22.439,25.465,22.454z"/>
							<linearGradient id="SVGID_5_" gradientUnits="userSpaceOnUse" x1="13.9199" y1="22.939" x2="23.2487" y2="35.9083">
								<stop  offset="0.0056" style="stop-color:#ECDCCD"/>
								<stop  offset="0.4663" style="stop-color:#B17930"/>
								<stop  offset="0.7182" style="stop-color:#D1AE82"/>
								<stop  offset="0.9085" style="stop-color:#E7D2BA"/>
								<stop  offset="1" style="stop-color:#F0E0D0"/>
							</linearGradient>
							<path opacity="0.5" fill="url(#SVGID_5_)" d="M18.37,24.619c-0.198,0.015-0.347,0.188-0.331,0.387l0.72,9.377
								c0.017,0.199,0.189,0.348,0.389,0.333c0.197-0.015,0.348-0.188,0.332-0.387l-0.721-9.378
								C18.743,24.751,18.57,24.603,18.37,24.619z"/>
							<linearGradient id="SVGID_6_" gradientUnits="userSpaceOnUse" x1="7.0659" y1="25.1025" x2="16.3958" y2="38.0733">
								<stop  offset="0.0056" style="stop-color:#ECDCCD"/>
								<stop  offset="0.4663" style="stop-color:#B17930"/>
								<stop  offset="0.7182" style="stop-color:#D1AE82"/>
								<stop  offset="0.9085" style="stop-color:#E7D2BA"/>
								<stop  offset="1" style="stop-color:#F0E0D0"/>
							</linearGradient>
							<path opacity="0.5" fill="url(#SVGID_6_)" d="M11.518,26.783c-0.198,0.015-0.347,0.188-0.332,0.387l0.722,9.377
								c0.015,0.199,0.188,0.348,0.388,0.332c0.198-0.015,0.347-0.188,0.331-0.387l-0.721-9.378
								C11.89,26.916,11.717,26.767,11.518,26.783z"/>
						</g>
					</g>
					<path opacity="0.26" fill="#833300" d="M50.214,11.348l-0.091-0.541c0,0-23.201,8.12-28.298,9.874
						c-5.098,1.753-16.051,5.23-16.051,5.23S9.156,59.602,9.2,60.085c0.09,0.991,0.541,2.164,1.081,2.615l0.543-0.361
						c0,0-3.517-33.814-2.165-35.437C10.012,25.279,50.214,11.348,50.214,11.348z"/>
					<g>
						<g>
							<path fill="#E6E6E6" d="M52.483,23.055l-0.721-12.503c0,0-14.91,5.289-25.01,8.896c-7.526,2.688-20.438,6.733-20.438,6.733
								S9.2,55.277,9.441,59.124c0.24,3.848,2.164,4.809,2.164,4.809L53.444,47.1L52.483,23.055z"/>
							<image overflow="visible" width="48" height="54" xlink:href="F1CBDFF4.png"  transform="matrix(1 0 0 1 5.6494 10.2681)">
							</image>
						</g>
						<g>
							<linearGradient id="SVGID_7_" gradientUnits="userSpaceOnUse" x1="41.6318" y1="15.0029" x2="50.9617" y2="27.9737">
								<stop  offset="0.0056" style="stop-color:#ECDCCD"/>
								<stop  offset="0.4663" style="stop-color:#B17930"/>
								<stop  offset="0.7182" style="stop-color:#D1AE82"/>
								<stop  offset="0.9085" style="stop-color:#E7D2BA"/>
								<stop  offset="1" style="stop-color:#F0E0D0"/>
							</linearGradient>
							<path opacity="0.5" fill="url(#SVGID_7_)" d="M46.083,16.684c-0.199,0.015-0.347,0.188-0.331,0.387l0.722,9.378
								c0.015,0.199,0.188,0.348,0.387,0.333c0.199-0.016,0.347-0.189,0.332-0.387l-0.721-9.379
								C46.456,16.817,46.281,16.668,46.083,16.684z"/>
							<linearGradient id="SVGID_8_" gradientUnits="userSpaceOnUse" x1="35.561" y1="17.0479" x2="44.8899" y2="30.0172">
								<stop  offset="0.0056" style="stop-color:#ECDCCD"/>
								<stop  offset="0.4663" style="stop-color:#B17930"/>
								<stop  offset="0.7182" style="stop-color:#D1AE82"/>
								<stop  offset="0.9085" style="stop-color:#E7D2BA"/>
								<stop  offset="1" style="stop-color:#F0E0D0"/>
							</linearGradient>
							<path opacity="0.5" fill="url(#SVGID_8_)" d="M40.012,18.727c-0.198,0.015-0.348,0.188-0.331,0.387l0.722,9.378
								c0.015,0.198,0.188,0.347,0.387,0.332c0.198-0.016,0.347-0.189,0.332-0.388l-0.722-9.378
								C40.384,18.86,40.209,18.712,40.012,18.727z"/>
							<linearGradient id="SVGID_9_" gradientUnits="userSpaceOnUse" x1="29.188" y1="19.3311" x2="38.5179" y2="32.3018">
								<stop  offset="0.0056" style="stop-color:#ECDCCD"/>
								<stop  offset="0.4663" style="stop-color:#B17930"/>
								<stop  offset="0.7182" style="stop-color:#D1AE82"/>
								<stop  offset="0.9085" style="stop-color:#E7D2BA"/>
								<stop  offset="1" style="stop-color:#F0E0D0"/>
							</linearGradient>
							<path opacity="0.5" fill="url(#SVGID_9_)" d="M33.639,21.011c-0.197,0.015-0.347,0.188-0.33,0.388l0.721,9.377
								c0.015,0.199,0.188,0.348,0.388,0.332c0.198-0.015,0.347-0.188,0.332-0.387l-0.722-9.378
								C34.012,21.145,33.839,20.996,33.639,21.011z"/>
							<linearGradient id="SVGID_10_" gradientUnits="userSpaceOnUse" x1="22.6963" y1="21.8564" x2="32.0251" y2="34.8258">
								<stop  offset="0.0056" style="stop-color:#ECDCCD"/>
								<stop  offset="0.4663" style="stop-color:#B17930"/>
								<stop  offset="0.7182" style="stop-color:#D1AE82"/>
								<stop  offset="0.9085" style="stop-color:#E7D2BA"/>
								<stop  offset="1" style="stop-color:#F0E0D0"/>
							</linearGradient>
							<path opacity="0.5" fill="url(#SVGID_10_)" d="M27.147,23.537c-0.199,0.015-0.347,0.188-0.332,0.387l0.721,9.378
								c0.016,0.199,0.19,0.347,0.389,0.332c0.197-0.015,0.347-0.188,0.331-0.387l-0.721-9.378
								C27.519,23.67,27.346,23.521,27.147,23.537z"/>
							<linearGradient id="SVGID_11_" gradientUnits="userSpaceOnUse" x1="15.603" y1="24.0215" x2="24.9308" y2="36.9894">
								<stop  offset="0.0056" style="stop-color:#ECDCCD"/>
								<stop  offset="0.4663" style="stop-color:#B17930"/>
								<stop  offset="0.7182" style="stop-color:#D1AE82"/>
								<stop  offset="0.9085" style="stop-color:#E7D2BA"/>
								<stop  offset="1" style="stop-color:#F0E0D0"/>
							</linearGradient>
							<path opacity="0.5" fill="url(#SVGID_11_)" d="M20.054,25.7c-0.198,0.015-0.348,0.189-0.332,0.387l0.722,9.378
								c0.016,0.198,0.188,0.348,0.387,0.332c0.199-0.016,0.348-0.189,0.332-0.387l-0.722-9.378
								C20.425,25.833,20.253,25.685,20.054,25.7z"/>
							<linearGradient id="SVGID_12_" gradientUnits="userSpaceOnUse" x1="8.75" y1="26.1851" x2="18.0788" y2="39.1544">
								<stop  offset="0.0056" style="stop-color:#ECDCCD"/>
								<stop  offset="0.4663" style="stop-color:#B17930"/>
								<stop  offset="0.7182" style="stop-color:#D1AE82"/>
								<stop  offset="0.9085" style="stop-color:#E7D2BA"/>
								<stop  offset="1" style="stop-color:#F0E0D0"/>
							</linearGradient>
							<path opacity="0.5" fill="url(#SVGID_12_)" d="M13.201,27.865c-0.2,0.015-0.348,0.188-0.332,0.387l0.721,9.377
								c0.016,0.199,0.188,0.348,0.388,0.332c0.198-0.016,0.347-0.188,0.333-0.387l-0.723-9.378
								C13.573,27.998,13.399,27.849,13.201,27.865z"/>
						</g>
					</g>
					<path opacity="0.26" fill="#833300" d="M51.883,12.385l-0.091-0.542c0,0-23.036,8.076-28.134,9.829
						c-5.097,1.754-16.051,5.23-16.051,5.23s3.383,33.692,3.426,34.174c0.091,0.993,0.541,2.164,1.084,2.615l0.539-0.361
						c0,0-3.517-33.813-2.164-35.437C11.846,26.271,51.883,12.385,51.883,12.385z"/>
					<g>
						<g>
							<path fill="#E6E6E6" d="M54.406,24.016l-0.721-12.504c0,0-14.908,5.291-25.008,8.897c-7.526,2.688-20.439,6.733-20.439,6.733
								s2.886,29.096,3.127,32.943c0.24,3.847,2.164,4.81,2.164,4.81l41.84-16.832L54.406,24.016z"/>
							<image overflow="visible" width="48" height="54" xlink:href="F1CBDFFC.png"  transform="matrix(1 0 0 1 7.6494 11.2681)">
							</image>
						</g>
						<g>
							<linearGradient id="SVGID_13_" gradientUnits="userSpaceOnUse" x1="43.5566" y1="15.9658" x2="52.8855" y2="28.9352">
								<stop  offset="0.0056" style="stop-color:#ECDCCD"/>
								<stop  offset="0.4663" style="stop-color:#B17930"/>
								<stop  offset="0.7182" style="stop-color:#D1AE82"/>
								<stop  offset="0.9085" style="stop-color:#E7D2BA"/>
								<stop  offset="1" style="stop-color:#F0E0D0"/>
							</linearGradient>
							<path opacity="0.5" fill="url(#SVGID_13_)" d="M48.007,17.645c-0.198,0.016-0.347,0.189-0.332,0.388l0.722,9.377
								c0.016,0.198,0.188,0.348,0.387,0.333c0.199-0.016,0.349-0.189,0.333-0.388l-0.721-9.377
								C48.379,17.778,48.207,17.63,48.007,17.645z"/>
							<linearGradient id="SVGID_14_" gradientUnits="userSpaceOnUse" x1="37.4854" y1="18.0098" x2="46.8131" y2="30.9777">
								<stop  offset="0.0056" style="stop-color:#ECDCCD"/>
								<stop  offset="0.4663" style="stop-color:#B17930"/>
								<stop  offset="0.7182" style="stop-color:#D1AE82"/>
								<stop  offset="0.9085" style="stop-color:#E7D2BA"/>
								<stop  offset="1" style="stop-color:#F0E0D0"/>
							</linearGradient>
							<path opacity="0.5" fill="url(#SVGID_14_)" d="M41.937,19.689c-0.2,0.015-0.348,0.188-0.333,0.387l0.722,9.378
								c0.015,0.199,0.188,0.347,0.387,0.332c0.199-0.015,0.348-0.189,0.332-0.388l-0.721-9.377
								C42.309,19.822,42.135,19.674,41.937,19.689z"/>
							<linearGradient id="SVGID_15_" gradientUnits="userSpaceOnUse" x1="31.1128" y1="20.2944" x2="40.4406" y2="33.2623">
								<stop  offset="0.0056" style="stop-color:#ECDCCD"/>
								<stop  offset="0.4663" style="stop-color:#B17930"/>
								<stop  offset="0.7182" style="stop-color:#D1AE82"/>
								<stop  offset="0.9085" style="stop-color:#E7D2BA"/>
								<stop  offset="1" style="stop-color:#F0E0D0"/>
							</linearGradient>
							<path opacity="0.5" fill="url(#SVGID_15_)" d="M35.563,21.973c-0.198,0.016-0.348,0.189-0.332,0.387l0.721,9.378
								c0.016,0.199,0.189,0.347,0.388,0.333c0.199-0.016,0.348-0.189,0.332-0.387l-0.721-9.378
								C35.936,22.107,35.763,21.958,35.563,21.973z"/>
							<linearGradient id="SVGID_16_" gradientUnits="userSpaceOnUse" x1="24.6206" y1="22.8193" x2="33.9484" y2="35.7872">
								<stop  offset="0.0056" style="stop-color:#ECDCCD"/>
								<stop  offset="0.4663" style="stop-color:#B17930"/>
								<stop  offset="0.7182" style="stop-color:#D1AE82"/>
								<stop  offset="0.9085" style="stop-color:#E7D2BA"/>
								<stop  offset="1" style="stop-color:#F0E0D0"/>
							</linearGradient>
							<path opacity="0.5" fill="url(#SVGID_16_)" d="M29.07,24.498c-0.197,0.016-0.347,0.188-0.331,0.388l0.721,9.377
								c0.016,0.199,0.188,0.348,0.387,0.332c0.2-0.015,0.348-0.188,0.333-0.387l-0.721-9.377
								C29.443,24.631,29.27,24.482,29.07,24.498z"/>
							<linearGradient id="SVGID_17_" gradientUnits="userSpaceOnUse" x1="17.5264" y1="24.9824" x2="26.8552" y2="37.9518">
								<stop  offset="0.0056" style="stop-color:#ECDCCD"/>
								<stop  offset="0.4663" style="stop-color:#B17930"/>
								<stop  offset="0.7182" style="stop-color:#D1AE82"/>
								<stop  offset="0.9085" style="stop-color:#E7D2BA"/>
								<stop  offset="1" style="stop-color:#F0E0D0"/>
							</linearGradient>
							<path opacity="0.5" fill="url(#SVGID_17_)" d="M21.977,26.662c-0.198,0.016-0.347,0.188-0.331,0.387l0.722,9.378
								c0.015,0.199,0.188,0.348,0.387,0.332c0.2-0.016,0.347-0.188,0.333-0.388l-0.721-9.377
								C22.35,26.795,22.176,26.647,21.977,26.662z"/>
							<linearGradient id="SVGID_18_" gradientUnits="userSpaceOnUse" x1="10.6733" y1="27.147" x2="20.0022" y2="40.1163">
								<stop  offset="0.0056" style="stop-color:#ECDCCD"/>
								<stop  offset="0.4663" style="stop-color:#B17930"/>
								<stop  offset="0.7182" style="stop-color:#D1AE82"/>
								<stop  offset="0.9085" style="stop-color:#E7D2BA"/>
								<stop  offset="1" style="stop-color:#F0E0D0"/>
							</linearGradient>
							<path opacity="0.5" fill="url(#SVGID_18_)" d="M15.125,28.826c-0.198,0.015-0.348,0.188-0.333,0.387l0.722,9.379
								c0.016,0.197,0.188,0.347,0.387,0.331c0.199-0.015,0.349-0.188,0.333-0.387l-0.722-9.378
								C15.496,28.96,15.323,28.811,15.125,28.826z"/>
						</g>
					</g>
				</g>
				<g>
					<linearGradient id="SVGID_19_" gradientUnits="userSpaceOnUse" x1="18.1357" y1="48.7017" x2="25.5437" y2="38.1842">
						<stop  offset="0" style="stop-color:#44250A"/>
						<stop  offset="1" style="stop-color:#723517"/>
					</linearGradient>
					<path opacity="0.07" fill="url(#SVGID_19_)" d="M54.137,18.967l-0.091-1.803c0,0-13.323,4.728-18.665,6.642
						c-6.043,2.164-11.993,4.418-15.239,5.591c-3.246,1.172-6.583,2.524-7.665,7.212c-1.092,4.732-0.631,16.052-0.721,19.207
						c-0.091,3.156-0.091,7.395-0.091,7.395s0.181,1.262,0.632,0.901C12.747,63.752,20.322,31.771,54.137,18.967z"/>
					<linearGradient id="SVGID_20_" gradientUnits="userSpaceOnUse" x1="18.3936" y1="49.0884" x2="25.7143" y2="38.6947">
						<stop  offset="0" style="stop-color:#44250A"/>
						<stop  offset="1" style="stop-color:#723517"/>
					</linearGradient>
					<path opacity="0.2" fill="url(#SVGID_20_)" d="M54.137,18.967l-0.182-0.993c0,0-12.512,4.398-17.854,6.312
						c-6.042,2.165-11.993,4.418-15.238,5.591c-3.245,1.172-6.584,2.524-7.665,7.214c-1.093,4.73-0.631,16.049-0.722,19.206
						c-0.09,3.156-0.09,7.394-0.09,7.394s0.181,1.263,0.631,0.902C13.468,64.233,20.322,31.771,54.137,18.967z"/>
				</g>
			</g>
			<g>
				<path fill="#CCBE5C" d="M55.249,22.213c-4.329,2.164-11.542,4.689-11.542,4.689s-17.675,6.732-22.724,6.011
					c-5.05-0.722-6.012,6.974-6.253,10.341c-0.239,3.365,0.721,15.869-0.239,22.121c-0.295,1.914-1.154,2.969-2.202,3.516
					c5.663-0.416,13.734-4.808,19.034-6.882c11.061-4.328,22.362-9.138,24.526-11.302c2.163-2.164,0.438-9.162,1.202-16.231
					c0.781-7.213,2.765-12.804,9.078-14.968C68.59,18.664,59.577,20.049,55.249,22.213z"/>
				<image overflow="visible" width="55" height="51" xlink:href="F1CBDFFD.png"  transform="matrix(1 0 0 1 11.6494 18.2681)">
				</image>
				<path fill="#FBF4AB" d="M39.738,23.656c-15.148,5.411-21.745,8.266-21.793,8.427c1.405-0.869,2.811-0.988,3.76-0.853
					c2.523,0.361,7.574,2.525,10.1,5.05c0,0,2.164,0.722,4.688-0.36c2.525-1.083,12.264-3.607,11.543-5.411
					c-0.722-1.804-4.328-3.606-4.328-3.606s7.769-2.871,12.383-4.329c2.529-0.799,7.214-1.683,12.504-3.606
					c2.195-0.799-0.239-3.126-2.645-3.126C62.31,15.841,54.888,18.245,39.738,23.656z"/>
				<image overflow="visible" width="52" height="22" xlink:href="F1CBDFFF.png"  transform="matrix(1 0 0 1 17.6494 15.2681)">
				</image>
				<path fill="#7F7600" d="M69.437,17.765c0,0,0.962,1.683-0.722,2.645c-1.124,0.643-7.093,2.164-10.58,3.126
					s-11.783,3.967-12.745,4.328c0,0-1.082-0.721-1.683-0.961c0,0,10.46-3.728,15.148-5.17S69.075,19.207,69.437,17.765z"/>
				<image overflow="visible" width="27" height="11" xlink:href="F2775D9C.png"  transform="matrix(1 0 0 1 43.6494 17.2681)">
				</image>
				<path fill="#968400" d="M31.805,36.28c-2.525-2.524-7.576-4.689-10.1-5.05c-2.525-0.361-8.598,0.541-8.656,13.706
					c-0.027,5.816,0.601,20.92-1.203,21.641c-0.646,0.26-1.432,0.14-2.188-0.264c0.127,0.816,0.23,1.644,0.303,2.476
					c0.713,0.132,1.494,0.163,2.329,0.103c1.048-0.547,1.907-1.602,2.202-3.516c0.96-6.252,0-18.756,0.239-22.121
					c0.241-3.367,1.203-11.063,6.253-10.341c5.049,0.721,6.732,2.646,8.896,4.329c0.729,0.566,1.406,0.912,2.109,1.078
					c0.063-0.642,0.132-1.289,0.204-1.943C31.944,36.327,31.805,36.28,31.805,36.28z"/>
				<image overflow="visible" width="7" height="21" xlink:href="F2775D9B.png"  transform="matrix(1 0 0 1 8.6494 48.2681)">
				</image>
				<image overflow="visible" width="20" height="20" xlink:href="F2775D94.png"  transform="matrix(1 0 0 1 12.6494 30.2681)">
				</image>
				<path fill="#D9CC6D" d="M6.796,61.889c-0.537-4.567-2.775-27.662-3.967-38.714c-0.125-1.145-0.104-1.387-0.182-2.044
					c-0.24-1.207,0.186-2.046,0.675-2.573c-0.596-0.349-1.197-0.688-1.811-1.008c-0.677,0.881-1,2.167-0.848,3.46
					c0.329,2.803,0.311,1.757,0.842,7.334c0.693,7.275,1.722,19.986,2.165,23.084c1.082,7.574,0.238,12.984,3.847,16.23
					c0.665,0.599,1.494,0.954,2.442,1.129c-0.072-0.832-0.176-1.659-0.303-2.476C8.306,65.59,7.04,63.956,6.796,61.889z"/>
				<image overflow="visible" width="11" height="52" xlink:href="F2775D97.png"  transform="matrix(1 0 0 1 -0.3506 17.2681)">
				</image>
				<path fill="#AF9B25" d="M48.035,30.509c0.721,1.804-9.018,4.328-11.543,5.411c-1.885,0.808-3.567,0.61-4.299,0.458
					c-0.072,0.654-0.142,1.302-0.204,1.943c1.383,0.328,2.874-0.041,5.105-0.838c3.365-1.203,8.896-3.127,10.58-4.088
					C47.675,33.395,48.876,31.711,48.035,30.509z"/>
				<image overflow="visible" width="17" height="9" xlink:href="F2775D95.png"  transform="matrix(1 0 0 1 31.6494 30.2681)">
				</image>
				<linearGradient id="SVGID_21_" gradientUnits="userSpaceOnUse" x1="34.3896" y1="27.9077" x2="37.997" y2="35.3629">
					<stop  offset="0" style="stop-color:#F5EF91"/>
					<stop  offset="1" style="stop-color:#FFFFFF"/>
				</linearGradient>
				<path opacity="0.59" fill="url(#SVGID_21_)" d="M43.586,27.624c0,0,4.81,1.924,3.366,3.126
					c-1.441,1.202-6.492,2.886-8.656,3.606c-2.164,0.722-4.088,1.683-5.771,0.962c-1.683-0.722-5.772-3.607-8.417-4.329
					C24.108,30.99,36.132,24.016,43.586,27.624z"/>
				<linearGradient id="SVGID_22_" gradientUnits="userSpaceOnUse" x1="53.417" y1="19.1909" x2="55.2929" y2="23.0029">
					<stop  offset="0" style="stop-color:#F5EF91"/>
					<stop  offset="1" style="stop-color:#FFFFFF"/>
				</linearGradient>
				<path opacity="0.59" fill="url(#SVGID_22_)" d="M65.949,16.442c0,0,2.974,0.318,1.983,1.803c-0.359,0.542-7.413,2.168-9.58,2.88
					c-5.869,1.93-15.109,5.688-16.75,4.875l-1.082-1.443C40.521,24.557,63.785,15.36,65.949,16.442z"/>
				<linearGradient id="SVGID_23_" gradientUnits="userSpaceOnUse" x1="10.7983" y1="54.9556" x2="7.7234" y2="65.4466">
					<stop  offset="0" style="stop-color:#AC9B29"/>
					<stop  offset="0.8708" style="stop-color:#000000"/>
					<stop  offset="1" style="stop-color:#000000"/>
				</linearGradient>
				<path opacity="0.22" fill="url(#SVGID_23_)" d="M13.087,58.936c-0.105,4.033-0.424,7.314-1.241,7.641
					c-0.646,0.26-1.432,0.14-2.188-0.264c-1.352-0.723-2.617-2.357-2.861-4.424c-0.13-1.109-0.361-3.313-0.652-6.17
					c-0.701-0.329-1.398-0.66-2.092-0.996c0.547,5.871,0.406,10.184,3.466,12.937c0.665,0.599,1.494,0.954,2.442,1.129
					c0.713,0.132,1.494,0.163,2.329,0.103c1.048-0.547,1.907-1.602,2.202-3.516c0.238-1.559,0.359-3.504,0.408-5.601
					C14.296,59.495,13.691,59.215,13.087,58.936z"/>
			</g>
		</g>
		<linearGradient id="SVGID_24_" gradientUnits="userSpaceOnUse" x1="41.46" y1="43.8267" x2="57.1152" y2="52.7382">
			<stop  offset="0" style="stop-color:#CCBD58"/>
			<stop  offset="1" style="stop-color:#FFFFFF"/>
		</linearGradient>
		<path opacity="0.75" fill="url(#SVGID_24_)" d="M55.85,44.936c0,0,1.263,3.969-1.623,5.771
			c-2.886,1.804-27.954,12.264-27.954,12.264s2.345-6.313,10.1-10.821s12.264-12.079,13.525-16.411
			c2.525-8.656,7.215-9.558,8.115-10.28C58.013,25.459,54.948,31.411,55.85,44.936z"/>
	</g>
</g>
</svg>
