<?xml version="1.0" encoding="utf-8"?>
<!-- Generator: Adobe Illustrator 14.0.0, SVG Export Plug-In . SVG Version: 6.00 Build 43363)  -->
<!DOCTYPE svg PUBLIC "-//W3C//DTD SVG 1.1//EN" "http://www.w3.org/Graphics/SVG/1.1/DTD/svg11.dtd">
<svg version="1.1" id="图层_1" xmlns="http://www.w3.org/2000/svg" xmlns:xlink="http://www.w3.org/1999/xlink" x="0px" y="0px"
	 width="99px" height="36.667px" viewBox="0 0 99 36.667" enable-background="new 0 0 99 36.667" xml:space="preserve">
<g>
	<g>
		<polygon fill="#F09A69" points="13.635,18.642 5.666,32.166 93.334,32.166 93.334,5.601 5.666,5.601 		"/>
		
			<polygon opacity="0.25" fill="none" stroke="#EF8F57" stroke-width="4" stroke-linecap="round" stroke-linejoin="round" enable-background="new    " points="
			13.635,18.642 5.666,32.166 93.334,32.166 93.334,5.601 5.666,5.601 		"/>
		
			<polygon opacity="0.3" fill="none" stroke="#EE753E" stroke-width="3.15" stroke-linecap="round" stroke-linejoin="round" enable-background="new    " points="
			13.635,18.642 5.666,32.166 93.334,32.166 93.334,5.601 5.666,5.601 		"/>
		<polygon fill="none" stroke="#E94C1B" stroke-width="2.5" stroke-linecap="round" stroke-linejoin="round" points="13.635,18.642 
			5.666,32.166 93.334,32.166 93.334,5.601 5.666,5.601 		"/>
		<polygon fill="none" stroke="#E86C3C" stroke-width="1.95" stroke-linecap="round" stroke-linejoin="round" points="
			13.635,18.642 5.666,32.166 93.334,32.166 93.334,5.601 5.666,5.601 		"/>
		<polygon fill="none" stroke="#EC8B59" stroke-width="1.25" stroke-linecap="round" stroke-linejoin="round" points="
			13.635,18.642 5.666,32.166 93.334,32.166 93.334,5.601 5.666,5.601 		"/>
		<polygon fill="none" stroke="#F1B380" stroke-width="0.5" stroke-linecap="round" stroke-linejoin="round" points="13.635,18.642 
			5.666,32.166 93.334,32.166 93.334,5.601 5.666,5.601 		"/>
	</g>
	<g>
		<path opacity="0.2" fill="#F09A69" enable-background="new    " d="M5.666,3.101c-0.904,0-1.738,0.487-2.182,1.276
			C3.272,4.759,3.166,5.181,3.166,5.601c0,0.453,0.123,0.903,0.366,1.305c0,0,5.914,9.679,7.187,11.762
			c-1.246,2.113-7.207,12.229-7.207,12.229c-0.231,0.394-0.347,0.83-0.347,1.271c0,0.43,0.108,0.854,0.328,1.24
			c0.445,0.777,1.273,1.26,2.172,1.26h87.667c1.381,0,2.5-1.119,2.5-2.5V5.601c0-1.381-1.119-2.5-2.5-2.5H5.666z M90.834,8.101
			c0,3.678,0,17.89,0,21.563c-4.479,0-73.131,0-80.792,0c2.312-3.922,5.748-9.754,5.748-9.754c0.23-0.394,0.347-0.831,0.347-1.271
			c0-0.453-0.122-0.904-0.367-1.306c0,0-3.313-5.421-5.645-9.235C17.914,8.101,86.361,8.101,90.834,8.101z"/>
	</g>
</g>
</svg>
