<?xml version="1.0" encoding="utf-8"?>
<!-- Generator: Adobe Illustrator 14.0.0, SVG Export Plug-In . SVG Version: 6.00 Build 43363)  -->
<!DOCTYPE svg PUBLIC "-//W3C//DTD SVG 1.1//EN" "http://www.w3.org/Graphics/SVG/1.1/DTD/svg11.dtd">
<svg version="1.1" id="图层_1" xmlns="http://www.w3.org/2000/svg" xmlns:xlink="http://www.w3.org/1999/xlink" x="0px" y="0px"
	 width="90.252px" height="60.25px" viewBox="0 0 90.252 60.25" enable-background="new 0 0 90.252 60.25" xml:space="preserve">
<g>
	<g>
		
			<radialGradient id="SVGID_1_" cx="700.1892" cy="1319.3564" r="170.6" gradientTransform="matrix(1.4979 0 0 1 -1000.6462 -1400.3789)" gradientUnits="userSpaceOnUse">
			<stop  offset="0" style="stop-color:#E8F1D5"/>
			<stop  offset="0.118" style="stop-color:#E8F1D5"/>
			<stop  offset="0.1654" style="stop-color:#E4EFCF"/>
			<stop  offset="0.23" style="stop-color:#DAE8C0"/>
			<stop  offset="0.3043" style="stop-color:#CADBA5"/>
			<stop  offset="0.386" style="stop-color:#B3CA81"/>
			<stop  offset="0.4726" style="stop-color:#94B557"/>
			<stop  offset="0.5562" style="stop-color:#6DA130"/>
			<stop  offset="0.6288" style="stop-color:#629231"/>
			<stop  offset="0.7744" style="stop-color:#496C2F"/>
			<stop  offset="0.8315" style="stop-color:#3E5D2D"/>
			<stop  offset="1" style="stop-color:#3E5D2D"/>
		</radialGradient>
		<ellipse fill="url(#SVGID_1_)" cx="45.126" cy="30.125" rx="45.126" ry="30.125"/>
		
			<radialGradient id="SVGID_2_" cx="696.8972" cy="1384.6377" r="106.9675" gradientTransform="matrix(1.4979 0 0 1 -1000.6462 -1400.3789)" gradientUnits="userSpaceOnUse">
			<stop  offset="0" style="stop-color:#E8F1D5"/>
			<stop  offset="0.118" style="stop-color:#E8F1D5"/>
			<stop  offset="0.1654" style="stop-color:#E4EFCF"/>
			<stop  offset="0.23" style="stop-color:#DAE8C0"/>
			<stop  offset="0.3043" style="stop-color:#CADBA5"/>
			<stop  offset="0.386" style="stop-color:#B3CA81"/>
			<stop  offset="0.4726" style="stop-color:#94B557"/>
			<stop  offset="0.5562" style="stop-color:#6DA130"/>
			<stop  offset="0.6288" style="stop-color:#629231"/>
			<stop  offset="0.7744" style="stop-color:#496C2F"/>
			<stop  offset="0.8315" style="stop-color:#3E5D2D"/>
			<stop  offset="1" style="stop-color:#3E5D2D"/>
		</radialGradient>
		<path fill="url(#SVGID_2_)" d="M45.127,58.137c-23.136,0-41.956-12.565-41.956-28.015c0-15.44,18.819-28.01,41.956-28.01
			s41.959,12.565,41.959,28.01C87.086,45.57,68.262,58.137,45.127,58.137L45.127,58.137z"/>
		
			<radialGradient id="SVGID_3_" cx="723.7146" cy="1371.2881" r="147.3781" gradientTransform="matrix(1.4979 0 0 1 -1000.6462 -1400.3789)" gradientUnits="userSpaceOnUse">
			<stop  offset="0" style="stop-color:#E8F1D5"/>
			<stop  offset="0.118" style="stop-color:#E8F1D5"/>
			<stop  offset="0.1654" style="stop-color:#E4EFCF"/>
			<stop  offset="0.23" style="stop-color:#DAE8C0"/>
			<stop  offset="0.3043" style="stop-color:#CADBA5"/>
			<stop  offset="0.386" style="stop-color:#B3CA81"/>
			<stop  offset="0.4726" style="stop-color:#94B557"/>
			<stop  offset="0.5562" style="stop-color:#6DA130"/>
			<stop  offset="0.6288" style="stop-color:#629231"/>
			<stop  offset="0.7744" style="stop-color:#496C2F"/>
			<stop  offset="0.8315" style="stop-color:#3E5D2D"/>
			<stop  offset="1" style="stop-color:#3E5D2D"/>
		</radialGradient>
		<path fill="url(#SVGID_3_)" d="M45.127,56.508c-21.788,0-39.517-11.834-39.517-26.385c0-14.546,17.729-26.381,39.517-26.381
			c21.795,0,39.52,11.835,39.52,26.381C84.645,44.674,66.922,56.508,45.127,56.508L45.127,56.508z"/>
	</g>
	<g>
		<g>
			<g>
				<path fill="#FFFFFF" d="M38.219,36.686c0,4.438,3.61,8.047,8.05,8.047c4.438,0,8.052-3.61,8.052-8.047
					c0-4.439-3.609-8.051-8.052-8.051C41.83,28.635,38.219,32.245,38.219,36.686z M40.96,36.686c0-2.93,2.382-5.313,5.31-5.313
					c2.929,0,5.312,2.386,5.312,5.313c0,2.927-2.383,5.308-5.312,5.308C43.342,41.992,40.96,39.612,40.96,36.686z"/>
			</g>
			<g>
				<path fill="#FFFFFF" d="M56.748,36.686c0,4.438,3.611,8.047,8.051,8.047c4.438,0,8.052-3.61,8.052-8.047
					c0-4.439-3.611-8.051-8.052-8.051C60.36,28.635,56.748,32.245,56.748,36.686z M59.489,36.686c0-2.93,2.381-5.313,5.313-5.313
					c2.931,0,5.313,2.386,5.313,5.313c0,2.927-2.383,5.308-5.313,5.308C61.869,41.992,59.489,39.612,59.489,36.686z"/>
			</g>
			<g>
				<rect x="52.949" y="35.315" fill="#FFFFFF" width="5.168" height="2.739"/>
			</g>
		</g>
		<g>
			<g>
				
					<radialGradient id="SVGID_4_" cx="1009.032" cy="1435.9658" r="7.9741" gradientTransform="matrix(1 0 0 1 -963.8589 -1400.3789)" gradientUnits="userSpaceOnUse">
					<stop  offset="0" style="stop-color:#E8F1D5"/>
					<stop  offset="0.118" style="stop-color:#E8F1D5"/>
					<stop  offset="0.1654" style="stop-color:#E4EFCF"/>
					<stop  offset="0.23" style="stop-color:#DAE8C0"/>
					<stop  offset="0.3043" style="stop-color:#CADBA5"/>
					<stop  offset="0.386" style="stop-color:#B3CA81"/>
					<stop  offset="0.4726" style="stop-color:#94B557"/>
					<stop  offset="0.5562" style="stop-color:#6DA130"/>
					<stop  offset="0.6288" style="stop-color:#629231"/>
					<stop  offset="0.7744" style="stop-color:#496C2F"/>
					<stop  offset="0.8315" style="stop-color:#3E5D2D"/>
					<stop  offset="1" style="stop-color:#3E5D2D"/>
				</radialGradient>
				<path fill="url(#SVGID_4_)" d="M37.199,35.59c0,4.396,3.576,7.971,7.974,7.971c4.396,0,7.975-3.575,7.975-7.971
					c0-4.397-3.578-7.978-7.975-7.978C40.775,27.615,37.199,31.192,37.199,35.59z M39.786,35.59c0-2.975,2.416-5.392,5.387-5.392
					s5.388,2.417,5.388,5.392c0,2.969-2.417,5.385-5.388,5.385S39.786,38.559,39.786,35.59z"/>
			</g>
			<g>
				
					<radialGradient id="SVGID_5_" cx="1027.5642" cy="1435.9658" r="7.9746" gradientTransform="matrix(1 0 0 1 -963.8589 -1400.3789)" gradientUnits="userSpaceOnUse">
					<stop  offset="0" style="stop-color:#E8F1D5"/>
					<stop  offset="0.118" style="stop-color:#E8F1D5"/>
					<stop  offset="0.1654" style="stop-color:#E4EFCF"/>
					<stop  offset="0.23" style="stop-color:#DAE8C0"/>
					<stop  offset="0.3043" style="stop-color:#CADBA5"/>
					<stop  offset="0.386" style="stop-color:#B3CA81"/>
					<stop  offset="0.4726" style="stop-color:#94B557"/>
					<stop  offset="0.5562" style="stop-color:#6DA130"/>
					<stop  offset="0.6288" style="stop-color:#629231"/>
					<stop  offset="0.7744" style="stop-color:#496C2F"/>
					<stop  offset="0.8315" style="stop-color:#3E5D2D"/>
					<stop  offset="1" style="stop-color:#3E5D2D"/>
				</radialGradient>
				<path fill="url(#SVGID_5_)" d="M55.729,35.59c0,4.396,3.577,7.971,7.975,7.971c4.396,0,7.977-3.575,7.977-7.971
					c0-4.397-3.576-7.978-7.977-7.978C59.306,27.614,55.729,31.192,55.729,35.59z M58.317,35.59c0-2.975,2.416-5.392,5.387-5.392
					c2.974,0,5.39,2.417,5.39,5.392c0,2.969-2.416,5.385-5.39,5.385C60.733,40.975,58.317,38.559,58.317,35.59z"/>
			</g>
			<g>
				
					<radialGradient id="SVGID_6_" cx="1018.2966" cy="1435.9678" r="2.0441" gradientTransform="matrix(1 0 0 1 -963.8589 -1400.3789)" gradientUnits="userSpaceOnUse">
					<stop  offset="0" style="stop-color:#E8F1D5"/>
					<stop  offset="0.118" style="stop-color:#E8F1D5"/>
					<stop  offset="0.1654" style="stop-color:#E4EFCF"/>
					<stop  offset="0.23" style="stop-color:#DAE8C0"/>
					<stop  offset="0.3043" style="stop-color:#CADBA5"/>
					<stop  offset="0.386" style="stop-color:#B3CA81"/>
					<stop  offset="0.4726" style="stop-color:#94B557"/>
					<stop  offset="0.5562" style="stop-color:#6DA130"/>
					<stop  offset="0.6288" style="stop-color:#629231"/>
					<stop  offset="0.7744" style="stop-color:#496C2F"/>
					<stop  offset="0.8315" style="stop-color:#3E5D2D"/>
					<stop  offset="1" style="stop-color:#3E5D2D"/>
				</radialGradient>
				<rect x="51.853" y="34.295" fill="url(#SVGID_6_)" width="5.169" height="2.588"/>
			</g>
		</g>
	</g>
</g>
</svg>
