<?xml version="1.0" encoding="utf-8"?>
<!-- Generator: Adobe Illustrator 14.0.0, SVG Export Plug-In . SVG Version: 6.00 Build 43363)  -->
<!DOCTYPE svg PUBLIC "-//W3C//DTD SVG 1.1//EN" "http://www.w3.org/Graphics/SVG/1.1/DTD/svg11.dtd">
<svg version="1.1" id="图层_1" xmlns="http://www.w3.org/2000/svg" xmlns:xlink="http://www.w3.org/1999/xlink" x="0px" y="0px"
	 width="63.667px" height="64.667px" viewBox="0 0 63.667 64.667" enable-background="new 0 0 63.667 64.667" xml:space="preserve">
<g>
	
		<radialGradient id="SVGID_1_" cx="995.6917" cy="1432.7134" r="81.0147" gradientTransform="matrix(1 0 0 1 -963.8589 -1400.3789)" gradientUnits="userSpaceOnUse">
		<stop  offset="0.0112" style="stop-color:#FFFFFF"/>
		<stop  offset="0.1031" style="stop-color:#FDFDFE"/>
		<stop  offset="0.1613" style="stop-color:#F6F5F7"/>
		<stop  offset="0.2101" style="stop-color:#E8E6E9"/>
		<stop  offset="0.2538" style="stop-color:#D4D0D7"/>
		<stop  offset="0.294" style="stop-color:#BBB6C0"/>
		<stop  offset="0.3317" style="stop-color:#9D97A6"/>
		<stop  offset="0.3675" style="stop-color:#7A7589"/>
		<stop  offset="0.4008" style="stop-color:#52556E"/>
		<stop  offset="0.4157" style="stop-color:#3D4763"/>
	</radialGradient>
	<circle fill="url(#SVGID_1_)" cx="31.833" cy="32.334" r="30.103"/>
	<path opacity="0.16" fill="#38424E" enable-background="new    " d="M31.833,2.231C15.209,2.231,1.73,15.71,1.73,32.335
		s13.479,30.104,30.104,30.104c16.625,0,30.104-13.479,30.104-30.104C61.936,15.708,48.457,2.231,31.833,2.231z M31.833,57.702
		c-14.011,0-25.367-11.358-25.367-25.366c0-14.011,11.356-25.367,25.367-25.367c14.01,0,25.367,11.356,25.367,25.367
		C57.2,46.342,45.843,57.702,31.833,57.702z"/>
	<g>
		
			<radialGradient id="SVGID_2_" cx="995.6946" cy="1428.6968" r="12.9166" gradientTransform="matrix(1 0 0 1 -963.8589 -1400.3789)" gradientUnits="userSpaceOnUse">
			<stop  offset="0" style="stop-color:#FFFFFF"/>
			<stop  offset="0.1541" style="stop-color:#FBFBFB"/>
			<stop  offset="0.3547" style="stop-color:#EDECEC"/>
			<stop  offset="0.5812" style="stop-color:#D5D3D3"/>
			<stop  offset="0.8246" style="stop-color:#B5B3B3"/>
			<stop  offset="1" style="stop-color:#999999"/>
		</radialGradient>
		<rect x="22.191" y="53.242" fill="url(#SVGID_2_)" width="19.457" height="1.384"/>
		
			<radialGradient id="SVGID_3_" cx="996.9592" cy="1440.4087" r="24.8036" gradientTransform="matrix(1 0 0 1 -963.8589 -1400.3789)" gradientUnits="userSpaceOnUse">
			<stop  offset="0" style="stop-color:#FAFAFB"/>
			<stop  offset="0.2344" style="stop-color:#F7F8F8"/>
			<stop  offset="0.4199" style="stop-color:#EFEEEE"/>
			<stop  offset="0.5887" style="stop-color:#E0DFDF"/>
			<stop  offset="0.7474" style="stop-color:#CBCACA"/>
			<stop  offset="0.8979" style="stop-color:#B1B0B0"/>
			<stop  offset="1" style="stop-color:#9B9B9B"/>
		</radialGradient>
		<rect x="22.547" y="53.242" fill="url(#SVGID_3_)" width="18.788" height="1.158"/>
		
			<radialGradient id="SVGID_4_" cx="995.6956" cy="1414.812" r="9.7009" gradientTransform="matrix(1 0 0 1 -963.8589 -1400.3789)" gradientUnits="userSpaceOnUse">
			<stop  offset="0" style="stop-color:#FAFAFB"/>
			<stop  offset="0.2344" style="stop-color:#F7F8F8"/>
			<stop  offset="0.4199" style="stop-color:#EFEEEE"/>
			<stop  offset="0.5887" style="stop-color:#E0DFDF"/>
			<stop  offset="0.7474" style="stop-color:#CBCACA"/>
			<stop  offset="0.8979" style="stop-color:#B1B0B0"/>
			<stop  offset="1" style="stop-color:#9B9B9B"/>
		</radialGradient>
		<path fill="url(#SVGID_4_)" d="M37.943,48.872c0,0,0.021,0.687,0.442,1.11c0.324,0.317,2.178,2.181,3.082,3.078
			c0.515,0.519-0.133,0.491-0.489,0.491c-0.355,0-17.54,0-18.029,0c-0.491,0-1.05-0.021-0.535-0.536
			c0.887-0.888,2.601-2.602,2.945-2.943c0.468-0.469,0.535-1.295,0.535-1.295v-4.326h12.049V48.872z"/>
		
			<linearGradient id="SVGID_5_" gradientUnits="userSpaceOnUse" x1="995.7922" y1="1445.187" x2="995.7922" y2="1453.8883" gradientTransform="matrix(1 0 0 1 -963.8589 -1400.3789)">
			<stop  offset="0.3407" style="stop-color:#9B9B9B"/>
			<stop  offset="0.4931" style="stop-color:#ADACAC"/>
			<stop  offset="0.8046" style="stop-color:#DBD9D9"/>
			<stop  offset="1" style="stop-color:#FAFAFB"/>
		</linearGradient>
		<path fill="url(#SVGID_5_)" d="M41.068,53.394h-0.089H22.947c-0.337,0-0.531-0.021-0.58-0.063c0.007-0.002,0.027-0.066,0.16-0.201
			l2.941-2.943c0.506-0.504,0.581-1.355,0.586-1.395v-4.184h11.729v4.262c0,0.029,0.025,0.76,0.491,1.225l0.871,0.873l2.207,2.207
			c0.137,0.139,0.146,0.195,0.146,0.195s-0.004,0-0.006,0C41.468,53.372,41.362,53.394,41.068,53.394L41.068,53.394z"/>
		
			<radialGradient id="SVGID_6_" cx="1010.0598" cy="1361.2681" r="40.4683" gradientTransform="matrix(0.9805 0 0 1.006 -962.8153 -1398.907)" gradientUnits="userSpaceOnUse">
			<stop  offset="0" style="stop-color:#FAFAFB"/>
			<stop  offset="0.2344" style="stop-color:#F7F8F8"/>
			<stop  offset="0.4199" style="stop-color:#EFEEEE"/>
			<stop  offset="0.5887" style="stop-color:#E0DFDF"/>
			<stop  offset="0.7474" style="stop-color:#CBCACA"/>
			<stop  offset="0.8979" style="stop-color:#B1B0B0"/>
			<stop  offset="1" style="stop-color:#9B9B9B"/>
		</radialGradient>
		<path fill="url(#SVGID_6_)" d="M52.133,20.031v25.186c0,1.303-0.857,2.354-1.917,2.354H13.573c-1.061,0-1.916-1.055-1.916-2.354
			V20.031c0-1.301,0.855-2.354,1.916-2.354h36.643"/>
		
			<radialGradient id="SVGID_7_" cx="1035.3821" cy="1437.2798" r="145.657" gradientTransform="matrix(0.9598 0 0 0.9882 -960.9312 -1402.4929)" gradientUnits="userSpaceOnUse">
			<stop  offset="0" style="stop-color:#FAFAFB"/>
			<stop  offset="0.2344" style="stop-color:#F7F8F8"/>
			<stop  offset="0.4199" style="stop-color:#EFEEEE"/>
			<stop  offset="0.5887" style="stop-color:#E0DFDF"/>
			<stop  offset="0.7474" style="stop-color:#CBCACA"/>
			<stop  offset="0.8979" style="stop-color:#B1B0B0"/>
			<stop  offset="1" style="stop-color:#9B9B9B"/>
		</radialGradient>
		<path fill="url(#SVGID_7_)" d="M51.45,44.773c0,1.254-0.832,2.271-1.854,2.271H14.111c-1.023,0-1.854-1.021-1.854-2.271V20.476
			c0-1.254,0.83-2.271,1.854-2.271h35.481c1.025,0,1.857,1.019,1.857,2.271L51.45,44.773L51.45,44.773z"/>
		
			<radialGradient id="SVGID_8_" cx="1040.8586" cy="1413.5425" r="112.6904" gradientTransform="matrix(0.9565 0 0 0.9882 -960.5056 -1402.4929)" gradientUnits="userSpaceOnUse">
			<stop  offset="0" style="stop-color:#FAFAFB"/>
			<stop  offset="0.2344" style="stop-color:#F7F8F8"/>
			<stop  offset="0.4199" style="stop-color:#EFEEEE"/>
			<stop  offset="0.5887" style="stop-color:#E0DFDF"/>
			<stop  offset="0.7474" style="stop-color:#CBCACA"/>
			<stop  offset="0.8979" style="stop-color:#B1B0B0"/>
			<stop  offset="1" style="stop-color:#9B9B9B"/>
		</radialGradient>
		<path fill="url(#SVGID_8_)" d="M51.021,44.478c0,1.227-0.814,2.213-1.816,2.213h-34.74c-1.007,0-1.818-0.986-1.818-2.213V20.814
			c0-1.223,0.813-2.213,1.818-2.213h34.74c1.002,0,1.816,0.991,1.816,2.213V44.478L51.021,44.478z"/>
		
			<radialGradient id="SVGID_9_" cx="995.1545" cy="1453.688" r="39.4293" gradientTransform="matrix(1 0 0 1 -963.8589 -1400.3789)" gradientUnits="userSpaceOnUse">
			<stop  offset="0" style="stop-color:#FFFFFF"/>
			<stop  offset="0.1541" style="stop-color:#FBFBFB"/>
			<stop  offset="0.3547" style="stop-color:#EDECEC"/>
			<stop  offset="0.5812" style="stop-color:#D5D3D3"/>
			<stop  offset="0.8246" style="stop-color:#B5B3B3"/>
			<stop  offset="1" style="stop-color:#999999"/>
		</radialGradient>
		<path fill="url(#SVGID_9_)" d="M41.402,53.443c0,0.111-0.09,0.199-0.199,0.199H22.658c-0.111,0-0.201-0.088-0.201-0.199l0,0
			c0-0.107,0.09-0.198,0.201-0.198h18.544C41.312,53.242,41.402,53.333,41.402,53.443L41.402,53.443z"/>
		<path fill="#3D4763" d="M48.881,42.12c0,1.228-0.957,2.219-2.141,2.219H16.838c-1.184,0-2.142-0.991-2.142-2.219V23.171
			c0-1.229,0.958-2.217,2.142-2.217h29.903c1.186,0,2.143,0.988,2.143,2.217L48.881,42.12L48.881,42.12z"/>
		
			<radialGradient id="SVGID_10_" cx="1000.0237" cy="1503.856" r="69.2068" gradientTransform="matrix(0.9652 0 0 0.9485 -950.2586 -1417.6816)" gradientUnits="userSpaceOnUse">
			<stop  offset="0" style="stop-color:#FDF3F8"/>
			<stop  offset="0.2143" style="stop-color:#84B0DA"/>
			<stop  offset="0.4396" style="stop-color:#4A7ABC"/>
			<stop  offset="0.5549" style="stop-color:#376AB3"/>
			<stop  offset="0.7857" style="stop-color:#224394"/>
			<stop  offset="0.8068" style="stop-color:#21428E"/>
			<stop  offset="0.8427" style="stop-color:#213C7A"/>
			<stop  offset="0.8892" style="stop-color:#1C315B"/>
			<stop  offset="0.9444" style="stop-color:#101F31"/>
			<stop  offset="1" style="stop-color:#040000"/>
		</radialGradient>
		<path fill="url(#SVGID_10_)" d="M46.261,43.375H17.405c-0.911,0-1.655-0.765-1.655-1.696V23.705c0-0.938,0.744-1.7,1.655-1.7
			H46.26c0.912,0,1.656,0.761,1.656,1.7v17.973C47.918,42.615,47.174,43.375,46.261,43.375L46.261,43.375z"/>
		
			<radialGradient id="SVGID_11_" cx="1000.0237" cy="1503.856" r="69.2094" gradientTransform="matrix(0.9652 0 0 0.9485 -950.2586 -1417.6836)" gradientUnits="userSpaceOnUse">
			<stop  offset="0.0112" style="stop-color:#FFFFFF"/>
			<stop  offset="0.1261" style="stop-color:#FDFDFE"/>
			<stop  offset="0.2135" style="stop-color:#F4F3F5"/>
			<stop  offset="0.2918" style="stop-color:#E5E3E7"/>
			<stop  offset="0.3648" style="stop-color:#CFCBD2"/>
			<stop  offset="0.4342" style="stop-color:#B4AEB9"/>
			<stop  offset="0.5008" style="stop-color:#938D9D"/>
			<stop  offset="0.5649" style="stop-color:#6C697F"/>
			<stop  offset="0.6261" style="stop-color:#404965"/>
			<stop  offset="0.6292" style="stop-color:#3D4763"/>
		</radialGradient>
		<path fill="url(#SVGID_11_)" d="M46.261,22.004h-2.4c-4.386,9.491-15.031,16.188-27.479,16.188c-0.211,0-0.42-0.01-0.632-0.014
			v3.495c0,0.937,0.744,1.697,1.655,1.697h28.855c0.913,0,1.657-0.765,1.657-1.697v-17.97
			C47.918,22.767,47.174,22.004,46.261,22.004z"/>
		
			<radialGradient id="SVGID_12_" cx="1000.0217" cy="1503.856" r="69.2065" gradientTransform="matrix(0.9652 0 0 0.9485 -950.2586 -1417.6836)" gradientUnits="userSpaceOnUse">
			<stop  offset="0" style="stop-color:#FDF3F8"/>
			<stop  offset="0.2143" style="stop-color:#84B0DA"/>
			<stop  offset="0.4396" style="stop-color:#4A7ABC"/>
			<stop  offset="0.5549" style="stop-color:#376AB3"/>
			<stop  offset="0.7857" style="stop-color:#224394"/>
			<stop  offset="0.8068" style="stop-color:#21428E"/>
			<stop  offset="0.8427" style="stop-color:#213C7A"/>
			<stop  offset="0.8892" style="stop-color:#1C315B"/>
			<stop  offset="0.9444" style="stop-color:#101F31"/>
			<stop  offset="1" style="stop-color:#040000"/>
		</radialGradient>
		<path fill="url(#SVGID_12_)" d="M43.86,22.004H17.405c-0.911,0-1.655,0.761-1.655,1.7v14.479c0.212,0.002,0.421,0.012,0.632,0.012
			C28.828,38.195,39.475,31.496,43.86,22.004z"/>
		
			<radialGradient id="SVGID_13_" cx="973.2756" cy="1381.9106" r="127.8798" gradientTransform="matrix(1 0 0 1 -963.8589 -1400.3789)" gradientUnits="userSpaceOnUse">
			<stop  offset="0.0112" style="stop-color:#FFFFFF"/>
			<stop  offset="0.1261" style="stop-color:#FDFDFE"/>
			<stop  offset="0.2135" style="stop-color:#F4F3F5"/>
			<stop  offset="0.2918" style="stop-color:#E5E3E7"/>
			<stop  offset="0.3648" style="stop-color:#CFCBD2"/>
			<stop  offset="0.4342" style="stop-color:#B4AEB9"/>
			<stop  offset="0.5008" style="stop-color:#938D9D"/>
			<stop  offset="0.5649" style="stop-color:#6C697F"/>
			<stop  offset="0.6261" style="stop-color:#404965"/>
			<stop  offset="0.6292" style="stop-color:#3D4763"/>
		</radialGradient>
		<path fill="url(#SVGID_13_)" d="M43.86,22.004H17.405c-0.911,0-1.655,0.761-1.655,1.7v14.479c0.212,0.002,0.421,0.012,0.632,0.012
			C28.828,38.195,39.475,31.496,43.86,22.004z"/>
	</g>
</g>
</svg>
