<?xml version="1.0" encoding="utf-8"?>
<!-- Generator: Adobe Illustrator 14.0.0, SVG Export Plug-In . SVG Version: 6.00 Build 43363)  -->
<!DOCTYPE svg PUBLIC "-//W3C//DTD SVG 1.1//EN" "http://www.w3.org/Graphics/SVG/1.1/DTD/svg11.dtd">
<svg version="1.1" id="图层_1" xmlns="http://www.w3.org/2000/svg" xmlns:xlink="http://www.w3.org/1999/xlink" x="0px" y="0px"
	 width="69.991px" height="69.607px" viewBox="0 0 69.991 69.607" enable-background="new 0 0 69.991 69.607" xml:space="preserve">
<g>
	<g>
		<linearGradient id="SVGID_1_" gradientUnits="userSpaceOnUse" x1="62.415" y1="37.6401" x2="21.7049" y2="11.9436">
			<stop  offset="0" style="stop-color:#691B11"/>
			<stop  offset="1" style="stop-color:#B12523"/>
		</linearGradient>
		<path fill="url(#SVGID_1_)" d="M36.114,18.885c0.759,0.636,0.964-1.65,0.964-2.579c0-3.118-3.922-5.648-8.765-5.648
			c-4.84,0-8.764,2.53-8.764,5.648c0,0.947,0.363,1.843,1.005,2.627C20.555,18.933,27.423,11.597,36.114,18.885z"/>
		
			<linearGradient id="SVGID_2_" gradientUnits="userSpaceOnUse" x1="-216.937" y1="-243.3403" x2="-227.0502" y2="-249.7239" gradientTransform="matrix(1.2117 0 0 1.2117 314.3397 312.814)">
			<stop  offset="0" style="stop-color:#691B11"/>
			<stop  offset="1" style="stop-color:#B12523"/>
		</linearGradient>
		<polygon fill="url(#SVGID_2_)" points="39.222,10.178 43.352,6.777 43.352,12.873 39.222,16.277 		"/>
		
			<linearGradient id="SVGID_3_" gradientUnits="userSpaceOnUse" x1="-232.1016" y1="-238.6636" x2="-250.1122" y2="-250.032" gradientTransform="matrix(1.2117 0 0 1.2117 314.3397 312.814)">
			<stop  offset="0" style="stop-color:#691B11"/>
			<stop  offset="1" style="stop-color:#B12523"/>
		</linearGradient>
		<polygon fill="url(#SVGID_3_)" points="12.694,7.522 17.211,10.723 17.211,16.818 12.694,13.624 		"/>
		
			<linearGradient id="SVGID_4_" gradientUnits="userSpaceOnUse" x1="-207.0317" y1="-233.8252" x2="-224.1541" y2="-244.6329" gradientTransform="matrix(1.2117 0 0 1.2117 314.3397 312.814)">
			<stop  offset="0" style="stop-color:#691B11"/>
			<stop  offset="1" style="stop-color:#B12523"/>
		</linearGradient>
		<polygon fill="url(#SVGID_4_)" points="42.926,16.003 49.523,15.096 49.523,21.191 42.926,22.098 		"/>
		
			<linearGradient id="SVGID_5_" gradientUnits="userSpaceOnUse" x1="-234.7329" y1="-232.1782" x2="-253.6318" y2="-244.1073" gradientTransform="matrix(1.2117 0 0 1.2117 314.3397 312.814)">
			<stop  offset="0" style="stop-color:#691B11"/>
			<stop  offset="1" style="stop-color:#B12523"/>
		</linearGradient>
		<polygon fill="url(#SVGID_5_)" points="7.53,16.122 14.21,16.707 14.21,22.801 7.53,22.22 		"/>
		
			<linearGradient id="SVGID_6_" gradientUnits="userSpaceOnUse" x1="-216.8154" y1="-236.4248" x2="-225.7831" y2="-242.0853" gradientTransform="matrix(1.2117 0 0 1.2117 314.3397 312.814)">
			<stop  offset="0" style="stop-color:#691B11"/>
			<stop  offset="1" style="stop-color:#B12523"/>
		</linearGradient>
		<polygon fill="url(#SVGID_6_)" points="42.25,19.17 42.926,16.003 42.926,22.098 42.25,25.266 		"/>
		
			<linearGradient id="SVGID_7_" gradientUnits="userSpaceOnUse" x1="-237.3472" y1="-234.3149" x2="-249.2636" y2="-241.8367" gradientTransform="matrix(1.2117 0 0 1.2117 314.3397 312.814)">
			<stop  offset="0" style="stop-color:#691B11"/>
			<stop  offset="1" style="stop-color:#B12523"/>
		</linearGradient>
		<polygon fill="url(#SVGID_7_)" points="14.21,16.707 15.264,19.828 15.264,25.923 14.21,22.801 		"/>
		
			<linearGradient id="SVGID_8_" gradientUnits="userSpaceOnUse" x1="-214.2441" y1="-232.9976" x2="-221.8721" y2="-237.8124" gradientTransform="matrix(1.2117 0 0 1.2117 314.3397 312.814)">
			<stop  offset="0" style="stop-color:#691B11"/>
			<stop  offset="1" style="stop-color:#B12523"/>
		</linearGradient>
		<polygon fill="url(#SVGID_8_)" points="45.887,24.003 48.221,21.177 48.221,27.275 45.887,30.102 		"/>
		
			<linearGradient id="SVGID_9_" gradientUnits="userSpaceOnUse" x1="-208.0225" y1="-226.5723" x2="-227.249" y2="-238.7082" gradientTransform="matrix(1.2117 0 0 1.2117 314.3397 312.814)">
			<stop  offset="0" style="stop-color:#691B11"/>
			<stop  offset="1" style="stop-color:#B12523"/>
		</linearGradient>
		<polygon fill="url(#SVGID_9_)" points="39.921,21.993 45.887,24.003 45.887,30.102 39.921,28.091 		"/>
		<linearGradient id="SVGID_10_" gradientUnits="userSpaceOnUse" x1="34.0229" y1="28.2993" x2="50.5774" y2="19.3729">
			<stop  offset="0" style="stop-color:#B12523"/>
			<stop  offset="1" style="stop-color:#720000"/>
		</linearGradient>
		<polygon fill="url(#SVGID_10_)" points="36.23,24.137 39.921,21.993 39.921,28.091 36.23,30.234 		"/>
		
			<linearGradient id="SVGID_11_" gradientUnits="userSpaceOnUse" x1="-252.2783" y1="-235.2715" x2="-244.7299" y2="-239.3417" gradientTransform="matrix(1.2117 0 0 1.2117 314.3397 312.814)">
			<stop  offset="0" style="stop-color:#E96C1D"/>
			<stop  offset="1" style="stop-color:#B12523"/>
		</linearGradient>
		<polygon fill="url(#SVGID_11_)" points="9.561,22.126 12.226,24.833 12.226,30.927 9.561,28.225 		"/>
		<linearGradient id="SVGID_12_" gradientUnits="userSpaceOnUse" x1="16.8184" y1="28.2197" x2="29.3875" y2="21.4423">
			<stop  offset="0" style="stop-color:#B12523"/>
			<stop  offset="1" style="stop-color:#720000"/>
		</linearGradient>
		<polygon fill="url(#SVGID_12_)" points="17.923,22.534 21.867,24.491 21.867,30.586 17.923,28.629 		"/>
		
			<linearGradient id="SVGID_13_" gradientUnits="userSpaceOnUse" x1="-235.3047" y1="-228.7324" x2="-249.3423" y2="-237.5931" gradientTransform="matrix(1.2117 0 0 1.2117 314.3397 312.814)">
			<stop  offset="0" style="stop-color:#691B11"/>
			<stop  offset="1" style="stop-color:#B12523"/>
		</linearGradient>
		<polygon fill="url(#SVGID_13_)" points="12.226,24.833 17.923,22.534 17.923,28.629 12.226,30.927 		"/>
		<linearGradient id="SVGID_14_" gradientUnits="userSpaceOnUse" x1="24.9585" y1="30.6895" x2="41.9267" y2="21.5399">
			<stop  offset="0" style="stop-color:#B12523"/>
			<stop  offset="1" style="stop-color:#720000"/>
		</linearGradient>
		<polygon fill="url(#SVGID_14_)" points="26.62,25.46 31.605,25.342 31.605,31.438 26.62,31.559 		"/>
		
			<linearGradient id="SVGID_15_" gradientUnits="userSpaceOnUse" x1="-219.4268" y1="-224.9653" x2="-234.889" y2="-234.7252" gradientTransform="matrix(1.2117 0 0 1.2117 314.3397 312.814)">
			<stop  offset="0" style="stop-color:#691B11"/>
			<stop  offset="1" style="stop-color:#B12523"/>
		</linearGradient>
		<polygon fill="url(#SVGID_15_)" points="31.605,25.342 34.15,29.342 34.15,35.434 31.605,31.438 		"/>
		
			<linearGradient id="SVGID_16_" gradientUnits="userSpaceOnUse" x1="-231.9854" y1="-228.9497" x2="-239.5818" y2="-233.7446" gradientTransform="matrix(1.2117 0 0 1.2117 314.3397 312.814)">
			<stop  offset="0" style="stop-color:#691B11"/>
			<stop  offset="1" style="stop-color:#B12523"/>
		</linearGradient>
		<polygon fill="url(#SVGID_16_)" points="24.557,29.573 26.62,25.46 26.62,31.559 24.557,35.668 		"/>
		
			<linearGradient id="SVGID_17_" gradientUnits="userSpaceOnUse" x1="-232.8486" y1="-230.0337" x2="-218.4686" y2="-237.7876" gradientTransform="matrix(1.2117 0 0 1.2117 314.3397 312.814)">
			<stop  offset="0" style="stop-color:#E96C1D"/>
			<stop  offset="1" style="stop-color:#B12523"/>
		</linearGradient>
		<polygon fill="url(#SVGID_17_)" points="34.15,29.342 38.771,28.126 38.771,34.225 34.15,35.434 		"/>
		
			<linearGradient id="SVGID_18_" gradientUnits="userSpaceOnUse" x1="-244.2031" y1="-229.98" x2="-231.5883" y2="-236.7821" gradientTransform="matrix(1.2117 0 0 1.2117 314.3397 312.814)">
			<stop  offset="0" style="stop-color:#E96C1D"/>
			<stop  offset="1" style="stop-color:#B12523"/>
		</linearGradient>
		<polygon fill="url(#SVGID_18_)" points="19.803,28.589 24.557,29.573 24.557,35.668 19.803,34.685 		"/>
		<linearGradient id="SVGID_19_" gradientUnits="userSpaceOnUse" x1="31.7803" y1="-9.2275" x2="27.728" y2="21.7188">
			<stop  offset="0" style="stop-color:#E50012"/>
			<stop  offset="1" style="stop-color:#EA6000"/>
		</linearGradient>
		<path fill="url(#SVGID_19_)" d="M43.352,6.777l-3.94-1.96l0,0l-4.137,3.408l0,0l-4.75-0.975l0,0l-0.253-4.313l0,0l-4.99,0.122l0,0
			l0.258,4.31l0,0l-4.625,1.211l0,0l-4.535-3.194l0,0l-3.685,2.136l0,0l4.517,3.201l0,0l-2.322,2.821l0,0l-6.683-0.585l0,0
			L7.53,16.122l0,0l6.68,0.585l0,0l1.054,3.121l0,0l-5.703,2.299l0,0l2.665,2.706l0,0l5.697-2.299l0,0l3.944,1.957l0,0l-2.064,4.099
			l0,0l4.754,0.983l0,0l2.063-4.112l0,0l4.985-0.118l0,0l2.545,4l0,0l4.621-1.216l0,0l-2.541-3.989l0,0l3.69-2.145l0,0l5.966,2.011
			l0,0l2.334-2.826l0,0L42.25,19.17l0,0l0.676-3.167l0,0l6.598-0.907l0,0l-1.058-3.126l0,0l-6.588,0.91l0,0l-2.656-2.702l0,0
			L43.352,6.777z M36.117,18.885c-2.209,2.752-7.495,3.834-11.801,2.419l0,0c-4.297-1.412-5.989-4.79-3.777-7.54l0,0
			c2.213-2.755,7.493-3.839,11.79-2.426l0,0C36.636,12.754,38.334,16.13,36.117,18.885z"/>
		
			<linearGradient id="SVGID_20_" gradientUnits="userSpaceOnUse" x1="-8.3384" y1="-275.9683" x2="-15.6314" y2="-280.5717" gradientTransform="matrix(0.8597 0 0 0.8597 37.7379 245.8461)">
			<stop  offset="0" style="stop-color:#691B11"/>
			<stop  offset="1" style="stop-color:#B12523"/>
		</linearGradient>
		<polygon fill="url(#SVGID_20_)" points="25.539,7.378 25.281,3.06 25.281,7.456 		"/>
	</g>
	<g>
		<linearGradient id="SVGID_21_" gradientUnits="userSpaceOnUse" x1="29.5371" y1="51.2192" x2="8.2088" y2="37.7567">
			<stop  offset="0" style="stop-color:#691B11"/>
			<stop  offset="1" style="stop-color:#B12523"/>
		</linearGradient>
		<path fill="url(#SVGID_21_)" d="M15.757,41.392c0.399,0.334,0.505-0.863,0.505-1.351c0-1.634-2.054-2.959-4.591-2.959
			c-2.536,0-4.591,1.325-4.591,2.959c0,0.495,0.189,0.964,0.524,1.376C7.604,41.417,11.205,37.573,15.757,41.392z"/>
		
			<linearGradient id="SVGID_22_" gradientUnits="userSpaceOnUse" x1="-239.7739" y1="-224.4023" x2="-245.072" y2="-227.7465" gradientTransform="matrix(1.2117 0 0 1.2117 314.3397 312.814)">
			<stop  offset="0" style="stop-color:#691B11"/>
			<stop  offset="1" style="stop-color:#B12523"/>
		</linearGradient>
		<polygon fill="url(#SVGID_22_)" points="17.385,36.831 19.549,35.047 19.549,38.241 17.385,40.026 		"/>
		
			<linearGradient id="SVGID_23_" gradientUnits="userSpaceOnUse" x1="-247.7192" y1="-221.9521" x2="-257.1529" y2="-227.9067" gradientTransform="matrix(1.2117 0 0 1.2117 314.3397 312.814)">
			<stop  offset="0" style="stop-color:#691B11"/>
			<stop  offset="1" style="stop-color:#B12523"/>
		</linearGradient>
		<polygon fill="url(#SVGID_23_)" points="3.488,35.439 5.854,37.116 5.854,40.309 3.488,38.635 		"/>
		
			<linearGradient id="SVGID_24_" gradientUnits="userSpaceOnUse" x1="-234.5835" y1="-219.4175" x2="-243.5536" y2="-225.0795" gradientTransform="matrix(1.2117 0 0 1.2117 314.3397 312.814)">
			<stop  offset="0" style="stop-color:#691B11"/>
			<stop  offset="1" style="stop-color:#B12523"/>
		</linearGradient>
		<polygon fill="url(#SVGID_24_)" points="19.327,39.883 22.784,39.407 22.784,42.6 19.327,43.075 		"/>
		
			<linearGradient id="SVGID_25_" gradientUnits="userSpaceOnUse" x1="-249.0942" y1="-218.5522" x2="-258.9987" y2="-224.804" gradientTransform="matrix(1.2117 0 0 1.2117 314.3397 312.814)">
			<stop  offset="0" style="stop-color:#691B11"/>
			<stop  offset="1" style="stop-color:#B12523"/>
		</linearGradient>
		<polygon fill="url(#SVGID_25_)" points="0.781,39.944 4.281,40.25 4.281,43.446 0.781,43.139 		"/>
		
			<linearGradient id="SVGID_26_" gradientUnits="userSpaceOnUse" x1="-239.7104" y1="-220.7798" x2="-244.4066" y2="-223.7441" gradientTransform="matrix(1.2117 0 0 1.2117 314.3397 312.814)">
			<stop  offset="0" style="stop-color:#691B11"/>
			<stop  offset="1" style="stop-color:#B12523"/>
		</linearGradient>
		<polygon fill="url(#SVGID_26_)" points="18.973,41.542 19.327,39.883 19.327,43.075 18.973,44.734 		"/>
		
			<linearGradient id="SVGID_27_" gradientUnits="userSpaceOnUse" x1="-250.4658" y1="-219.6719" x2="-256.7104" y2="-223.6135" gradientTransform="matrix(1.2117 0 0 1.2117 314.3397 312.814)">
			<stop  offset="0" style="stop-color:#691B11"/>
			<stop  offset="1" style="stop-color:#B12523"/>
		</linearGradient>
		<polygon fill="url(#SVGID_27_)" points="4.281,40.25 4.833,41.886 4.833,45.082 4.281,43.446 		"/>
		
			<linearGradient id="SVGID_28_" gradientUnits="userSpaceOnUse" x1="-238.3564" y1="-218.98" x2="-242.3585" y2="-221.5061" gradientTransform="matrix(1.2117 0 0 1.2117 314.3397 312.814)">
			<stop  offset="0" style="stop-color:#691B11"/>
			<stop  offset="1" style="stop-color:#B12523"/>
		</linearGradient>
		<polygon fill="url(#SVGID_28_)" points="20.877,44.074 22.102,42.592 22.102,45.789 20.877,47.269 		"/>
		
			<linearGradient id="SVGID_29_" gradientUnits="userSpaceOnUse" x1="-235.1074" y1="-215.6201" x2="-245.1745" y2="-221.9745" gradientTransform="matrix(1.2117 0 0 1.2117 314.3397 312.814)">
			<stop  offset="0" style="stop-color:#691B11"/>
			<stop  offset="1" style="stop-color:#B12523"/>
		</linearGradient>
		<polygon fill="url(#SVGID_29_)" points="17.754,43.021 20.877,44.074 20.877,47.269 17.754,46.215 		"/>
		<linearGradient id="SVGID_30_" gradientUnits="userSpaceOnUse" x1="14.6626" y1="46.3237" x2="23.3378" y2="41.6459">
			<stop  offset="0" style="stop-color:#B12523"/>
			<stop  offset="1" style="stop-color:#720000"/>
		</linearGradient>
		<polygon fill="url(#SVGID_30_)" points="15.818,44.144 17.754,43.021 17.754,46.215 15.818,47.336 		"/>
		
			<linearGradient id="SVGID_31_" gradientUnits="userSpaceOnUse" x1="-258.291" y1="-220.1743" x2="-254.3356" y2="-222.3071" gradientTransform="matrix(1.2117 0 0 1.2117 314.3397 312.814)">
			<stop  offset="0" style="stop-color:#E96C1D"/>
			<stop  offset="1" style="stop-color:#B12523"/>
		</linearGradient>
		<polygon fill="url(#SVGID_31_)" points="1.844,43.09 3.24,44.508 3.24,47.701 1.844,46.286 		"/>
		<linearGradient id="SVGID_32_" gradientUnits="userSpaceOnUse" x1="5.6479" y1="46.2837" x2="12.2311" y2="42.7339">
			<stop  offset="0" style="stop-color:#B12523"/>
			<stop  offset="1" style="stop-color:#720000"/>
		</linearGradient>
		<polygon fill="url(#SVGID_32_)" points="6.226,43.304 8.292,44.33 8.292,47.523 6.226,46.497 		"/>
		
			<linearGradient id="SVGID_33_" gradientUnits="userSpaceOnUse" x1="-249.396" y1="-216.7471" x2="-256.7522" y2="-221.3903" gradientTransform="matrix(1.2117 0 0 1.2117 314.3397 312.814)">
			<stop  offset="0" style="stop-color:#691B11"/>
			<stop  offset="1" style="stop-color:#B12523"/>
		</linearGradient>
		<polygon fill="url(#SVGID_33_)" points="3.24,44.508 6.226,43.304 6.226,46.497 3.24,47.701 		"/>
		<linearGradient id="SVGID_34_" gradientUnits="userSpaceOnUse" x1="9.9121" y1="47.5767" x2="18.8035" y2="42.7823">
			<stop  offset="0" style="stop-color:#B12523"/>
			<stop  offset="1" style="stop-color:#720000"/>
		</linearGradient>
		<polygon fill="url(#SVGID_34_)" points="10.783,44.837 13.396,44.775 13.396,47.968 10.783,48.033 		"/>
		
			<linearGradient id="SVGID_35_" gradientUnits="userSpaceOnUse" x1="-241.0801" y1="-214.7769" x2="-249.1789" y2="-219.8889" gradientTransform="matrix(1.2117 0 0 1.2117 314.3397 312.814)">
			<stop  offset="0" style="stop-color:#691B11"/>
			<stop  offset="1" style="stop-color:#B12523"/>
		</linearGradient>
		<polygon fill="url(#SVGID_35_)" points="13.396,44.775 14.729,46.871 14.729,50.062 13.396,47.968 		"/>
		
			<linearGradient id="SVGID_36_" gradientUnits="userSpaceOnUse" x1="-247.6597" y1="-216.8638" x2="-251.6375" y2="-219.3746" gradientTransform="matrix(1.2117 0 0 1.2117 314.3397 312.814)">
			<stop  offset="0" style="stop-color:#691B11"/>
			<stop  offset="1" style="stop-color:#B12523"/>
		</linearGradient>
		<polygon fill="url(#SVGID_36_)" points="9.701,46.992 10.783,44.837 10.783,48.033 9.701,50.184 		"/>
		
			<linearGradient id="SVGID_37_" gradientUnits="userSpaceOnUse" x1="-248.1094" y1="-217.4302" x2="-240.5773" y2="-221.4916" gradientTransform="matrix(1.2117 0 0 1.2117 314.3397 312.814)">
			<stop  offset="0" style="stop-color:#E96C1D"/>
			<stop  offset="1" style="stop-color:#B12523"/>
		</linearGradient>
		<polygon fill="url(#SVGID_37_)" points="14.729,46.871 17.149,46.235 17.149,49.429 14.729,50.062 		"/>
		
			<linearGradient id="SVGID_38_" gradientUnits="userSpaceOnUse" x1="-254.0591" y1="-217.4019" x2="-247.4505" y2="-220.9653" gradientTransform="matrix(1.2117 0 0 1.2117 314.3397 312.814)">
			<stop  offset="0" style="stop-color:#E96C1D"/>
			<stop  offset="1" style="stop-color:#B12523"/>
		</linearGradient>
		<polygon fill="url(#SVGID_38_)" points="7.212,46.477 9.701,46.992 9.701,50.184 7.212,49.672 		"/>
		<linearGradient id="SVGID_39_" gradientUnits="userSpaceOnUse" x1="13.4868" y1="26.6631" x2="11.3637" y2="42.877">
			<stop  offset="0" style="stop-color:#E50012"/>
			<stop  offset="1" style="stop-color:#EA6000"/>
		</linearGradient>
		<path fill="url(#SVGID_39_)" d="M19.549,35.047l-2.063-1.025l0,0l-2.168,1.784l0,0l-2.488-0.509l0,0l-0.134-2.261l0,0
			l-2.613,0.065l0,0l0.135,2.258l0,0l-2.423,0.633l0,0l-2.376-1.672l0,0l-1.93,1.118l0,0l2.365,1.677l0,0l-1.216,1.478l0,0
			l-3.503-0.306l0,0l-0.354,1.656l0,0l3.5,0.307l0,0l0.552,1.636l0,0L1.844,43.09l0,0l1.396,1.418l0,0l2.985-1.204l0,0l2.066,1.025
			l0,0l-1.08,2.147l0,0l2.489,0.515l0,0l1.082-2.154l0,0l2.612-0.063l0,0l1.333,2.096l0,0l2.421-0.636l0,0l-1.331-2.091l0,0
			l1.936-1.123l0,0l3.123,1.053l0,0l1.225-1.481l0,0l-3.129-1.051l0,0l0.354-1.658l0,0l3.457-0.477l0,0l-0.555-1.639l0,0
			l-3.451,0.478l0,0l-1.394-1.415l0,0L19.549,35.047z M15.761,41.392c-1.16,1.44-3.929,2.009-6.184,1.268l0,0
			c-2.253-0.739-3.138-2.51-1.979-3.952l0,0c1.158-1.441,3.926-2.01,6.178-1.271l0,0C16.031,38.178,16.921,39.951,15.761,41.392z"/>
		
			<linearGradient id="SVGID_40_" gradientUnits="userSpaceOnUse" x1="-28.9473" y1="-244.0908" x2="-32.7673" y2="-246.5021" gradientTransform="matrix(0.8597 0 0 0.8597 37.7379 245.8461)">
			<stop  offset="0" style="stop-color:#691B11"/>
			<stop  offset="1" style="stop-color:#B12523"/>
		</linearGradient>
		<polygon fill="url(#SVGID_40_)" points="10.217,35.365 10.082,33.102 10.082,35.403 		"/>
	</g>
	<g>
		
			<linearGradient id="SVGID_41_" gradientUnits="userSpaceOnUse" x1="-222.7266" y1="6.1851" x2="-248.2144" y2="29.7289" gradientTransform="matrix(0.0758 0.9971 -0.9971 0.0758 71.6203 265.2015)">
			<stop  offset="0.0056" style="stop-color:#FFFFFF"/>
			<stop  offset="1" style="stop-color:#CFCFCF"/>
		</linearGradient>
		<path fill="url(#SVGID_41_)" d="M36.745,27.25l-5.869-3.129c0,0,2.877-3.468,6.82-2.901c3.939,0.565,6.429,6.225,7.419,9.29
			c0.992,3.067,2.247,6.761,3.198,7.879c0.95,1.12,1.309,1.527,0.734,2.545c-0.572,1.02-3.525,4.925-3.525,4.925
			s-4.218-2.783-5.897-3.018c-1.677-0.234-6.276,0.044-7.127-0.686c0,0,1.674-1.714,1.759-3.456l3.492-7.267L36.745,27.25z"/>
		
			<linearGradient id="SVGID_42_" gradientUnits="userSpaceOnUse" x1="-243.4468" y1="20.2837" x2="-239.1274" y2="20.2837" gradientTransform="matrix(0.0758 0.9971 -0.9971 0.0758 71.6203 265.2015)">
			<stop  offset="0.0056" style="stop-color:#BCBCBC"/>
			<stop  offset="1" style="stop-color:#969696"/>
		</linearGradient>
		<polygon fill="url(#SVGID_42_)" points="31.059,24.141 29.488,25.342 34.975,28.175 36.745,27.25 		"/>
		
			<linearGradient id="SVGID_43_" gradientUnits="userSpaceOnUse" x1="-239.71" y1="17.9551" x2="-229.3507" y2="15.1494" gradientTransform="matrix(0.0758 0.9971 -0.9971 0.0758 71.6203 265.2015)">
			<stop  offset="0.0056" style="stop-color:#DEDEDE"/>
			<stop  offset="1" style="stop-color:#969696"/>
		</linearGradient>
		<polygon fill="url(#SVGID_43_)" points="34.975,28.175 36.122,32.853 37.749,31.432 36.745,27.25 		"/>
		
			<linearGradient id="SVGID_44_" gradientUnits="userSpaceOnUse" x1="-235.4995" y1="19.6753" x2="-226.8651" y2="15.5019" gradientTransform="matrix(0.0758 0.9971 -0.9971 0.0758 71.6203 265.2015)">
			<stop  offset="0.0056" style="stop-color:#DEDEDE"/>
			<stop  offset="1" style="stop-color:#969696"/>
		</linearGradient>
		<path fill="url(#SVGID_44_)" d="M36.122,32.853c0,0-1.187,2.403-2.573,2.218c0,0,0.896,2.315,0.708,3.628l3.492-7.267
			L36.122,32.853z"/>
		
			<linearGradient id="SVGID_45_" gradientUnits="userSpaceOnUse" x1="-227.0674" y1="19.7935" x2="-237.4403" y2="29.3752" gradientTransform="matrix(0.0758 0.9971 -0.9971 0.0758 71.6203 265.2015)">
			<stop  offset="0.0056" style="stop-color:#FFFFFF"/>
			<stop  offset="1" style="stop-color:#CFCFCF"/>
		</linearGradient>
		<path fill="url(#SVGID_45_)" d="M33.549,35.071L27.626,32.2c0,0-1.739,5.621,4.872,9.955
			C32.498,42.155,35.715,39.816,33.549,35.071z"/>
		<path fill="#959595" d="M29.488,25.342c0,0,1.792-3.961,6.759-4.195c0,0-3.429,0.479-5.188,2.994L29.488,25.342z"/>
		
			<linearGradient id="SVGID_46_" gradientUnits="userSpaceOnUse" x1="-235.144" y1="26.4658" x2="-225.0644" y2="18.69" gradientTransform="matrix(0.0758 0.9971 -0.9971 0.0758 71.6203 265.2015)">
			<stop  offset="0.0056" style="stop-color:#DEDEDE"/>
			<stop  offset="0.3483" style="stop-color:#969696"/>
			<stop  offset="0.5289" style="stop-color:#9A9A9A"/>
			<stop  offset="0.7231" style="stop-color:#A7A7A7"/>
			<stop  offset="0.9229" style="stop-color:#BDBDBD"/>
			<stop  offset="1" style="stop-color:#C7C7C7"/>
		</linearGradient>
		<path fill="url(#SVGID_46_)" d="M27.626,32.2l-1.898,0.649c0,0-0.418,2.125,1.085,5.768c1.507,3.639,6.646,4.767,9.322,4.853
			c2.679,0.082,5.416,0.958,6.947,2.069c1.528,1.113,1.528,1.113,1.528,1.113l0.912-0.794c0,0-4.444-2.912-6.188-3.066
			c-1.746-0.158-5.96,0.453-7.902-1.35C29.49,39.64,26.755,36.887,27.626,32.2z"/>
		
			<linearGradient id="SVGID_47_" gradientUnits="userSpaceOnUse" x1="-227.666" y1="16.5625" x2="-225.6506" y2="3.8924" gradientTransform="matrix(0.0758 0.9971 -0.9971 0.0758 71.6203 265.2015)">
			<stop  offset="0.0056" style="stop-color:#FFFFFF"/>
			<stop  offset="1" style="stop-color:#CFCFCF"/>
		</linearGradient>
		<polygon fill="url(#SVGID_47_)" points="48.77,41.549 44.192,36.917 40.219,35.215 38.149,40.029 43.332,41.963 46.512,44.59 		
			"/>
		
			<linearGradient id="SVGID_48_" gradientUnits="userSpaceOnUse" x1="-229.2432" y1="13.2051" x2="-226.5075" y2="6.2936" gradientTransform="matrix(0.0758 0.9971 -0.9971 0.0758 71.6203 265.2015)">
			<stop  offset="0.0056" style="stop-color:#DEDEDE"/>
			<stop  offset="1" style="stop-color:#969696"/>
		</linearGradient>
		<polygon fill="url(#SVGID_48_)" points="40.219,35.215 43.91,37.46 48.371,42.031 48.77,41.549 44.192,36.917 		"/>
		
			<linearGradient id="SVGID_49_" gradientUnits="userSpaceOnUse" x1="-206.083" y1="3.5415" x2="-248.2767" y2="-33.848" gradientTransform="matrix(0.0758 0.9971 -0.9971 0.0758 71.6203 265.2015)">
			<stop  offset="0" style="stop-color:#D9D9D9"/>
			<stop  offset="1" style="stop-color:#696969"/>
		</linearGradient>
		<path fill="url(#SVGID_49_)" d="M48.621,38.619c0,0,0.483-0.252,1.285,0.769c0.798,1.023,18.814,18.645,18.814,18.645
			s2.742,3.76-0.502,7.62c-3.247,3.856-7.213-0.824-7.213-0.824L44.829,45.767l4.078-6.23
			C48.907,39.537,49.024,39.166,48.621,38.619z"/>
		
			<linearGradient id="SVGID_50_" gradientUnits="userSpaceOnUse" x1="-199.0537" y1="12.1904" x2="-216.291" y2="-6.8535" gradientTransform="matrix(0.0758 0.9971 -0.9971 0.0758 71.6203 265.2015)">
			<stop  offset="0" style="stop-color:#D9D9D9"/>
			<stop  offset="1" style="stop-color:#696969"/>
		</linearGradient>
		<path fill="url(#SVGID_50_)" d="M44.829,45.767l-1.434,0.107l16.661,19.746c0,0,2.404,3.139,6.735,1.222
			c0,0-3.017,1.169-5.786-2.015C58.238,61.644,44.829,45.767,44.829,45.767z"/>
		
			<linearGradient id="SVGID_51_" gradientUnits="userSpaceOnUse" x1="-216.5117" y1="-6.8643" x2="-281.3398" y2="-108.9446" gradientTransform="matrix(0.0758 0.9971 -0.9971 0.0758 71.6203 265.2015)">
			<stop  offset="0" style="stop-color:#D9D9D9"/>
			<stop  offset="1" style="stop-color:#696969"/>
		</linearGradient>
		<path fill="url(#SVGID_51_)" d="M45.469,43.696l0.533,0.394L64.1,64.665c0,0,1.226,0.918,2.911-0.655
			c1.686-1.571,1.102-3.548,0.082-4.628c-1.022-1.076-18.956-18.559-18.956-18.559L47.3,40.866L45.469,43.696z"/>
		
			<linearGradient id="SVGID_52_" gradientUnits="userSpaceOnUse" x1="25.3096" y1="29.5229" x2="20.4529" y2="25.6681" gradientTransform="matrix(0.9941 0.1086 -0.1086 0.9941 27.0221 13.1225)">
			<stop  offset="0" style="stop-color:#D9D9D9"/>
			<stop  offset="1" style="stop-color:#696969"/>
		</linearGradient>
		<path fill="url(#SVGID_52_)" d="M43.404,45.875c0,0-0.236-0.2-0.628-0.536l1.678-0.128l3.948-6.046c0,0,0.199-0.234,0.094-0.665
			c0,0,0.709,0.604,0.313,1.215c-0.394,0.612-3.944,6.048-3.944,6.048L43.404,45.875z"/>
		
			<linearGradient id="SVGID_53_" gradientUnits="userSpaceOnUse" x1="-180.0269" y1="7.3882" x2="-255.1925" y2="-14.4563" gradientTransform="matrix(0.0758 0.9971 -0.9971 0.0758 71.6203 265.2015)">
			<stop  offset="0" style="stop-color:#D9D9D9"/>
			<stop  offset="1" style="stop-color:#696969"/>
		</linearGradient>
		<path fill="url(#SVGID_53_)" d="M47.752,41.328l0.32-0.552l19.021,18.605c0,0,1.794,1.743,0.372,3.944
			c-1.422,2.199-3.156,1.249-3.156,1.249s1.53,0.174,2.222-1.178c0.69-1.353,0.252-2.401-1.017-3.895
			C64.244,58.01,47.752,41.328,47.752,41.328z"/>
		
			<linearGradient id="SVGID_54_" gradientUnits="userSpaceOnUse" x1="-234.311" y1="26.2822" x2="-225.6588" y2="23.1483" gradientTransform="matrix(0.0758 0.9971 -0.9971 0.0758 71.6203 265.2015)">
			<stop  offset="0.0056" style="stop-color:#FFFFFF"/>
			<stop  offset="1" style="stop-color:#FFFFFF"/>
		</linearGradient>
		<path opacity="0.66" fill="url(#SVGID_54_)" d="M27.654,32.561c0,0-0.74,5.468,4.986,9.583
			C32.641,42.144,26.533,38.709,27.654,32.561z"/>
		
			<linearGradient id="SVGID_55_" gradientUnits="userSpaceOnUse" x1="-242.9741" y1="20.6118" x2="-232.8875" y2="16.9584" gradientTransform="matrix(0.0758 0.9971 -0.9971 0.0758 71.6203 265.2015)">
			<stop  offset="0.0056" style="stop-color:#FFFFFF"/>
			<stop  offset="1" style="stop-color:#FFFFFF"/>
		</linearGradient>
		<polygon opacity="0.66" fill="url(#SVGID_55_)" points="29.759,25.105 31.059,24.141 36.745,27.25 37.749,31.432 35.625,35.78 
			37.961,31.346 36.985,27.083 31.19,23.987 		"/>
		
			<linearGradient id="SVGID_56_" gradientUnits="userSpaceOnUse" x1="-231.8911" y1="11.5479" x2="-225.9749" y2="9.405" gradientTransform="matrix(0.0758 0.9971 -0.9971 0.0758 71.6203 265.2015)">
			<stop  offset="0.0056" style="stop-color:#FFFFFF"/>
			<stop  offset="1" style="stop-color:#FFFFFF"/>
		</linearGradient>
		<polygon opacity="0.66" fill="url(#SVGID_56_)" points="40.219,35.215 44.192,36.917 47.357,40.087 44.43,36.7 		"/>
	</g>
</g>
</svg>
