<?xml version="1.0" encoding="UTF-8" standalone="no"?>
<!DOCTYPE svg PUBLIC "-//W3C//DTD SVG 1.0//EN" "http://www.w3.org/TR/2001/REC-SVG-20010904/DTD/svg10.dtd">
<!-- 由 Microsoft Visio 11.0, SVG Export, v1.0 生成 EMPBatchActivity.svg 页-1 -->
<svg xmlns="http://www.w3.org/2000/svg" xmlns:v="http://schemas.microsoft.com/visio/2003/SVGExtensions/" width="13.7087in"
		height="11.7002in" viewBox="0 0 987.027 842.415" xml:space="preserve" color-interpolation-filters="sRGB" class="st8">
	<v:documentProperties v:langID="2052" v:metric="true" v:viewMarkup="false"/>

	<style type="text/css">
	<![CDATA[
		.st1 {fill:#595959;stroke:#000000;stroke-linecap:round;stroke-linejoin:round;stroke-width:0.24}
		.st2 {fill:#00b0f0;stroke:#000000;stroke-linecap:round;stroke-linejoin:round;stroke-width:0.24}
		.st3 {fill:#595959;stroke:#ffffff;stroke-linecap:round;stroke-linejoin:round;stroke-width:0.24}
		.st4 {stroke:#000000;stroke-linecap:round;stroke-linejoin:round;stroke-width:4.08}
		.st5 {stroke:#000000;stroke-linecap:round;stroke-linejoin:round;stroke-width:0.239976}
		.st6 {fill:#688037;stroke:#000000;stroke-linecap:round;stroke-linejoin:round;stroke-width:3.12}
		.st7 {fill:#e8eef7;stroke:#000000;stroke-linecap:round;stroke-linejoin:round;stroke-width:0.24}
		.st8 {fill:none;fill-rule:evenodd;font-size:12;overflow:visible;stroke-linecap:square;stroke-miterlimit:3}
	]]>
	</style>

	<g v:mID="0" v:index="1" v:groupContext="foregroundPage">
		<title>页-1</title>
		<v:pageProperties v:drawingScale="0.0393701" v:pageScale="0.0393701" v:drawingUnits="24" v:shadowOffsetX="8.50394"
				v:shadowOffsetY="-8.50394"/>
		<v:layer v:name="连接线" v:index="0"/>
		<g id="group21-1" transform="translate(3.12,-3.12)" v:mID="21" v:groupContext="group">
			<title>工作表.21</title>
			<g id="shape1-2" v:mID="1" v:groupContext="shape" transform="translate(344.136,-456.328)">
				<title>正方形</title>
				<v:userDefs>
					<v:ud v:nameU="visVersion" v:val="VT0(12):26"/>
				</v:userDefs>
				<rect x="0" y="459.688" width="447.377" height="382.727" class="st1"/>
			</g>
			<g id="shape2-4" v:mID="2" v:groupContext="shape" transform="translate(395.756,-500.489)">
				<title>正方形.2</title>
				<v:userDefs>
					<v:ud v:nameU="visVersion" v:val="VT0(12):26"/>
				</v:userDefs>
				<rect x="0" y="548.01" width="344.136" height="294.405" class="st2"/>
			</g>
			<g id="shape3-6" v:mID="3" v:groupContext="shape" transform="translate(189.275,-279.685)">
				<title>矩形</title>
				<v:userDefs>
					<v:ud v:nameU="visVersion" v:val="VT0(12):26"/>
				</v:userDefs>
				<rect x="0" y="665.772" width="774.306" height="176.643" class="st3"/>
			</g>
			<g id="shape4-8" v:mID="4" v:groupContext="shape" v:layerMember="0"
					transform="translate(-299.566,-157.339) rotate(-49.8283) scale(-1,1)">
				<title>直线-曲线连接线</title>
				<v:userDefs>
					<v:ud v:nameU="AntiScale" v:val="VT0(1):26"/>
					<v:ud v:nameU="Scale" v:val="VT0(1):26"/>
					<v:ud v:nameU="visVersion" v:val="VT0(12):26"/>
				</v:userDefs>
				<path d="M0 842.42 L6.62 842.44 L13.17 842.46 L19.65 842.48 L26.06 842.5 L32.4 842.51 L38.66 842.53 L44.86 842.55
							 L50.98 842.56 L57.04 842.58 L63.02 842.59 L68.93 842.6 L74.77 842.61 L80.54 842.62 L86.24 842.63 L91.87
							 842.64 L97.43 842.65 L102.91 842.65 L108.33 842.66 L113.67 842.66 L118.95 842.67 L124.15 842.67 L129.28
							 842.67 L134.34 842.67 L139.33 842.67 L144.25 842.67 L149.1 842.67 L153.88 842.66 L158.58 842.66 L163.22
							 842.65 L167.78 842.65 L172.28 842.64 L176.7 842.63 L181.05 842.62 L185.33 842.61 L189.54 842.6 L193.68
							 842.59 L197.75 842.58 L201.75 842.56 L205.67 842.55 L209.53 842.53 L213.31 842.51 L217.03 842.5 L220.67
							 842.48 L224.24 842.46 L227.74 842.44 L231.17 842.42" class="st4"/>
			</g>
			<g id="shape5-11" v:mID="5" v:groupContext="shape" v:layerMember="0"
					transform="translate(1394.95,-201.724) rotate(45.7517)">
				<title>直线-曲线连接线.5</title>
				<v:userDefs>
					<v:ud v:nameU="AntiScale" v:val="VT0(1):26"/>
					<v:ud v:nameU="Scale" v:val="VT0(1):26"/>
					<v:ud v:nameU="visVersion" v:val="VT0(12):26"/>
				</v:userDefs>
				<path d="M0 842.42 L6.13 842.09 L12.19 841.77 L18.18 841.46 L24.1 841.17 L29.95 840.89 L35.73 840.61 L41.44 840.35
							 L47.08 840.1 L52.65 839.86 L58.16 839.63 L63.59 839.41 L68.95 839.2 L74.25 839.01 L79.47 838.82 L84.63
							 838.65 L89.71 838.48 L94.73 838.33 L99.67 838.19 L104.55 838.06 L109.36 837.94 L114.1 837.83 L118.77
							 837.73 L123.36 837.64 L127.89 837.56 L132.35 837.5 L136.74 837.44 L141.06 837.4 L145.32 837.37 L149.5
							 837.35 L153.61 837.34 L157.65 837.34 L161.62 837.35 L165.53 837.37 L169.36 837.4 L173.13 837.44 L176.82
							 837.5 L180.45 837.56 L184 837.64 L187.49 837.73 L190.91 837.83 L194.25 837.94 L197.53 838.06 L200.74
							 838.19 L203.88 838.33 L206.95 838.48 L209.95 838.65 L212.88 838.82 L215.74 839.01 L218.53 839.2 L221.25
							 839.41 L223.9 839.63 L226.48 839.86 L229 840.1 L231.44 840.35 L233.81 840.61 L236.12 840.89 L238.35
							 841.17 L240.52 841.46 L242.61 841.77 L244.64 842.09 L246.6 842.42" class="st4"/>
			</g>
			<g id="shape6-14" v:mID="6" v:groupContext="shape" v:layerMember="0" transform="translate(206.482,-279.685)">
				<title>直线-曲线连接线.6</title>
				<v:userDefs>
					<v:ud v:nameU="AntiScale" v:val="VT0(1):26"/>
					<v:ud v:nameU="Scale" v:val="VT0(1):26"/>
					<v:ud v:nameU="visVersion" v:val="VT0(12):26"/>
				</v:userDefs>
				<path d="M0 842.42 L22.62 842.42 L45.3 842.42 L68.05 842.42 L90.87 842.42 L113.76 842.42 L136.71 842.42 L159.73 842.42
							 L182.82 842.42 L205.98 842.42 L229.2 842.42 L252.49 842.42 L275.85 842.42 L299.27 842.42 L322.76 842.42
							 L346.32 842.42 L369.95 842.42 L393.64 842.42 L417.4 842.42 L441.23 842.42 L465.12 842.42 L489.08 842.42
							 L513.11 842.42 L537.21 842.42 L561.37 842.42 L585.6 842.42 L609.9 842.42 L634.27 842.42 L658.7 842.42
							 L683.2 842.42 L707.76 842.42 L732.4 842.42 L757.1 842.42" class="st5"/>
			</g>
			<g id="shape7-17" v:mID="7" v:groupContext="shape">
				<title>矩形.7</title>
				<v:userDefs>
					<v:ud v:nameU="visVersion" v:val="VT0(12):26"/>
				</v:userDefs>
				<rect x="0" y="253.605" width="172.068" height="588.811" class="st6"/>
			</g>
			<g id="shape8-19" v:mID="8" v:groupContext="shape" transform="translate(137.654,-95.6817)">
				<title>矩形.8</title>
				<v:userDefs>
					<v:ud v:nameU="visVersion" v:val="VT0(12):26"/>
				</v:userDefs>
				<rect x="0" y="739.373" width="688.272" height="103.042" class="st6"/>
			</g>
			<g id="shape9-21" v:mID="9" v:groupContext="shape" transform="translate(817.323,-40.4807)">
				<title>矩形.9</title>
				<v:userDefs>
					<v:ud v:nameU="visVersion" v:val="VT0(12):26"/>
				</v:userDefs>
				<rect x="0" y="658.412" width="120.448" height="184.003" class="st6"/>
			</g>
			<g id="shape18-23" v:mID="18" v:groupContext="shape" transform="translate(688.272,-287.045)">
				<title>矩形.18</title>
				<v:userDefs>
					<v:ud v:nameU="visVersion" v:val="VT0(12):26"/>
				</v:userDefs>
				<rect x="0" y="673.132" width="86.034" height="169.283" class="st7"/>
			</g>
			<g id="shape10-25" v:mID="10" v:groupContext="shape" transform="translate(757.099,-264.965)">
				<title>矩形.10</title>
				<v:userDefs>
					<v:ud v:nameU="visVersion" v:val="VT0(12):26"/>
				</v:userDefs>
				<rect x="0" y="805.614" width="223.688" height="36.8007" class="st6"/>
			</g>
			<g id="shape11-27" v:mID="11" v:groupContext="shape" transform="translate(851.736,-206.084)">
				<title>矩形.11</title>
				<v:userDefs>
					<v:ud v:nameU="visVersion" v:val="VT0(12):26"/>
				</v:userDefs>
				<rect x="0" y="783.534" width="51.6204" height="58.8811" class="st6"/>
			</g>
			<g id="shape12-29" v:mID="12" v:groupContext="shape" transform="translate(137.654,-434.248)">
				<title>矩形.12</title>
				<v:userDefs>
					<v:ud v:nameU="visVersion" v:val="VT0(12):26"/>
				</v:userDefs>
				<rect x="0" y="776.174" width="120.448" height="66.2412" class="st6"/>
			</g>
			<g id="shape13-31" v:mID="13" v:groupContext="shape" transform="translate(206.482,-412.167)">
				<title>矩形.13</title>
				<v:userDefs>
					<v:ud v:nameU="visVersion" v:val="VT0(12):26"/>
				</v:userDefs>
				<rect x="0" y="724.653" width="68.8272" height="117.762" class="st6"/>
			</g>
			<g id="shape14-33" v:mID="14" v:groupContext="shape" transform="translate(421.567,-588.811)">
				<title>椭圆</title>
				<v:userDefs>
					<v:ud v:nameU="visVersion" v:val="VT0(12):26"/>
				</v:userDefs>
				<path d="M0 768.81 A43.017 73.6013 0 1 1 86.03 768.81 A43.017 73.6013 0 1 1 -0 768.81 Z" class="st7"/>
			</g>
			<g id="shape16-35" v:mID="16" v:groupContext="shape" transform="translate(352.739,-279.685)">
				<title>矩形.16</title>
				<v:userDefs>
					<v:ud v:nameU="visVersion" v:val="VT0(12):26"/>
				</v:userDefs>
				<rect x="0" y="673.132" width="86.034" height="169.283" class="st7"/>
			</g>
			<g id="shape17-37" v:mID="17" v:groupContext="shape" transform="translate(524.807,-287.045)">
				<title>矩形.17</title>
				<v:userDefs>
					<v:ud v:nameU="visVersion" v:val="VT0(12):26"/>
				</v:userDefs>
				<rect x="0" y="673.132" width="86.034" height="169.283" class="st7"/>
			</g>
			<g id="shape15-39" v:mID="15" v:groupContext="shape" transform="translate(292.516,-397.447)">
				<title>矩形.15</title>
				<v:userDefs>
					<v:ud v:nameU="visVersion" v:val="VT0(12):26"/>
				</v:userDefs>
				<rect x="0" y="812.975" width="550.617" height="29.4405" class="st7"/>
			</g>
			<g id="shape19-41" v:mID="19" v:groupContext="shape" transform="translate(258.102,-323.846)">
				<title>矩形.19</title>
				<v:userDefs>
					<v:ud v:nameU="visVersion" v:val="VT0(12):26"/>
				</v:userDefs>
				<rect x="0" y="812.975" width="653.858" height="29.4405" class="st7"/>
			</g>
			<g id="shape20-43" v:mID="20" v:groupContext="shape" v:layerMember="0" transform="translate(94.9606,-187.795)">
				<title>动态连接线</title>
				<path d="M-4.25 848.79 L2.83 848.79 L2.83 850.21 L-9.92 850.21" class="st5"/>
			</g>
		</g>
	</g>
</svg>
